<svg width="1440" height="1034" viewBox="0 0 1440 1034" fill="none" xmlns="http://www.w3.org/2000/svg">
<g filter="url(#filter0_dd_1191_5598)">
<g clip-path="url(#clip0_1191_5598)">
<path d="M221.669 399.221C218.836 397.236 216.452 394.708 214.87 391.747C214.752 391.051 214.571 390.099 214.382 388.922C214.988 390.091 215.791 391.531 216.853 393.123C218.922 396.236 220.732 398.101 221.669 399.221Z" fill="#D8B4FE"/>
<path d="M149.79 530.124C149.593 530.084 149.357 530.34 149.121 530.74C149.144 530.684 149.144 530.66 149.136 530.66C149.121 530.66 149.018 530.844 148.948 531.076C148.948 531.076 148.945 531.081 148.94 531.092C148.428 532.116 147.996 533.629 148.106 533.933C148.121 533.965 148.255 534.325 148.389 534.309C148.444 534.301 148.625 534.237 148.948 531.836C149.144 532.06 149.585 531.884 150.222 531.652C150.175 530.724 150.041 530.18 149.79 530.124Z" fill="#D8B4FE"/>
<path d="M79.5154 511.871C79.5154 511.871 79.5784 512.079 79.6964 512.495C79.0197 513.127 78.6184 513.511 78.5397 513.439C78.524 513.431 78.5161 513.399 78.5161 513.367C78.5161 513.047 78.9961 511.951 79.5154 511.871Z" fill="#D8B4FE"/>
<path d="M98.7384 499.629C101.327 498.62 102.712 498.188 103.365 498.052C101.39 499.189 99.3678 500.325 97.3299 501.461C86.7624 507.334 66.6505 517.961 66.1941 517.145C65.7928 516.433 82.5213 505.91 98.7384 499.629Z" fill="#D8B4FE"/>
<path d="M140.938 473.934C141 474.038 139.663 475.079 137.231 476.791C137.326 476.423 137.42 476.055 137.507 475.695C140.332 474.102 140.898 473.878 140.938 473.934Z" fill="#D8B4FE"/>
<path d="M214.988 393.123C214.862 393.155 214.547 392.467 214.193 391.499C214.366 391.483 214.54 391.475 214.713 391.459C214.76 391.555 214.815 391.651 214.87 391.747C215.02 392.619 215.082 393.099 214.988 393.123Z" fill="#D8B4FE"/>
<path d="M364.931 338.607C366.363 337.222 366.119 334.91 364.443 333.894C354.922 328.1 343.607 322.035 330.089 316.745C314.588 310.712 300.464 307.375 289.078 305.487C292.949 306.719 298.418 308.704 304.642 311.76C311.779 315.273 317.704 319.114 322.37 322.627C327.894 326.74 333.449 330.045 340.161 335.478C345.653 339.895 350.138 343.976 353.521 347.249C353.978 347.673 354.647 347.641 355.811 347.457L364.962 338.631L364.931 338.599V338.607Z" fill="#D8B4FE"/>
<path d="M449.258 436.678C446.583 429.228 445.096 425.059 443.128 420.866C439.651 413.448 436.314 408.231 433.293 403.542C429.61 397.852 424.59 390.643 417.918 382.593C417.493 382.049 416.604 381.993 416.092 382.489L391.881 406.526C391.739 406.663 391.652 406.815 391.597 407.031C390.968 409.751 390.283 413.576 389.882 418.169C389.599 421.682 389.685 424.147 389.599 427.339C389.205 440.527 388.946 450.489 390.653 450.721C391.11 450.801 391.283 450.177 393.454 447.528C394.847 445.792 396.641 443.591 399.151 441.599C400.04 440.895 401.693 439.662 403.998 438.51C406.996 437.014 409.278 435.885 410.875 436.494C413.81 437.566 413.527 444.095 413.417 446.24C411.701 478.063 400.662 509.415 395.532 519.745C389.63 531.332 376.537 552.953 350.673 571.461C337.478 580.904 317.468 587.353 277.244 599.956C267.448 601.773 261.098 601.5 257.053 600.86C257.053 600.86 255.912 600.684 254.63 600.484L250.302 599.26L237.925 644.511L187.464 641.102L187.354 641.262L186.866 641.982L186.535 641.75L185.528 641.046L185.402 640.958L186.96 641.062L187.464 641.102L196.277 628.035L194.955 627.115L194.908 627.075C194.081 626.386 193.664 626.05 193.523 625.954C190.304 623.786 187.307 621.273 183.994 619.257C181.24 617.584 177.369 614.936 172.915 610.839C172.49 611.223 172.073 611.599 171.648 611.983C171.349 612.439 170.979 612.919 170.531 613.407C169.327 614.712 168.044 615.496 167.069 615.976C165.251 616.24 164.079 616.4 164.079 616.4C164.079 616.4 161.537 615.224 157.595 613.391C153.22 617.704 148.743 622.033 144.163 626.386C140.756 629.627 137.357 632.812 133.974 635.941C134.485 636.597 135.311 637.621 136.405 638.789C140.961 643.694 145.517 646.311 148.373 647.919C148.373 647.919 172.71 661.635 186.952 666.356C187.787 666.628 188.636 666.9 188.636 666.9C188.896 666.988 189.179 667.076 189.47 667.164C199.668 670.381 228.365 678.391 266.063 677.15C279.723 676.702 302.935 675.654 330.829 665.852C348.848 659.514 367.04 649.576 387.577 633.508C401.551 622.577 434.457 593.851 450.202 545.535C450.202 545.535 468.363 489.81 449.258 436.678ZM240.978 656.922L239.624 656.537L241.285 656.65C241.182 656.73 241.08 656.818 240.978 656.922ZM252.946 649.504L252.993 648.816C253.442 648.864 253.89 648.92 254.339 648.968C253.882 649.136 253.418 649.312 252.946 649.504ZM253.717 601.004C253.804 600.932 254.118 601.22 254.339 601.428C254.126 601.268 253.922 601.124 253.717 601.004Z" fill="#D8B4FE"/>
<path d="M254.339 601.429C254.126 601.269 253.922 601.124 253.717 601.004C253.804 600.932 254.119 601.221 254.339 601.429Z" fill="#D8B4FE" stroke="#DBC34C" stroke-width="0.14" stroke-miterlimit="10"/>
<path d="M225.524 510.847L225.603 510.927V510.847H225.524Z" fill="#D8B4FE"/>
<path d="M158.311 557.682C158.162 557.81 158.02 557.946 157.878 558.074L158.445 558.698L158.964 558.21C158.736 558.026 158.524 557.85 158.311 557.682Z" fill="#D8B4FE"/>
<path d="M213.887 585.921C218.852 578.359 224.816 570.253 231.945 561.955C233.432 560.227 239.908 552.753 249.452 543.711C256.117 537.389 262.27 532.212 267.432 528.131C266.519 526.435 265.591 524.722 264.623 522.994C262.719 519.585 260.799 516.312 258.871 513.152C255.897 509.647 253.017 507.278 250.884 505.742C248.634 504.117 246.801 503.133 243.449 501.317C241.379 500.196 238.617 498.716 234.801 497.18C231.709 495.923 231.441 496.06 229.844 495.331C227.499 494.259 224.336 492.259 221.149 488.202C219.198 490.53 217.239 492.859 215.279 495.187C209.874 501.397 203.319 508.086 195.443 514.768C181.523 526.587 167.777 534.733 156.399 540.334C155.691 542.558 154.896 545.047 154.18 547.28C153.44 549.592 152.709 551.913 151.969 554.233C141.315 546.047 130.661 537.869 120.007 529.683L136.484 497.812L93.2855 522.602L103.601 555.402L108.448 551.024C112.382 554.217 116.356 557.41 120.369 560.603C126.475 565.476 132.565 570.269 138.616 574.99C136.995 578.015 135.366 581.04 133.746 584.064C134.808 585.329 135.878 586.585 136.94 587.849C116.104 609.406 95.2605 630.955 74.4246 652.512C73.9761 652.552 64.644 653.473 60.9222 661.122C57.5545 668.044 61.292 675.286 64.9509 679.031C69.2471 683.448 77.454 687.177 84.9134 683.504C90.6732 680.671 94.1196 674.334 93.5845 667.564C115.577 646.703 137.577 625.834 159.57 604.973C159.885 605.157 160.2 605.349 160.522 605.541C162.717 606.878 164.771 608.27 166.683 609.686C168.524 608.478 170.389 607.23 172.27 605.941C173.56 605.061 174.819 604.189 176.063 603.309C179.202 606.39 182.633 609.55 186.37 612.743C191.642 617.248 196.804 621.201 201.706 624.642C200.77 626.29 199.794 627.971 198.771 629.675C197.614 631.595 196.458 633.452 195.301 635.244C207.765 636.133 220.229 637.021 232.7 637.901C237.87 621.377 243.039 604.845 248.201 588.321C246.966 589.442 235.911 599.46 234.636 600.612C233.857 601.316 224.729 609.59 223.935 610.302C215.271 603.677 206.6 597.051 197.937 590.426C198.008 590.402 203.98 588.713 204.051 588.697C204.232 588.641 213.698 585.969 213.887 585.921ZM225.532 519.873L225.595 519.249H225.713H225.776C225.76 519.305 225.744 519.353 225.729 519.401C225.674 519.569 225.626 519.745 225.571 519.921C225.556 519.969 225.532 520.025 225.516 520.081L225.532 519.881V519.873ZM224.973 519.257V519.329L224.903 519.257H224.973ZM224.312 532.932C224.312 532.932 224.367 532.852 224.391 532.82L224.367 533.044C224.367 533.044 224.407 533.116 224.43 533.156C224.485 533.26 224.548 533.364 224.611 533.46L224.415 533.636L224.312 533.732L224.367 533.044C224.344 533.004 224.328 532.972 224.312 532.932ZM158.445 558.698L157.878 558.074C158.02 557.946 158.162 557.81 158.311 557.682C158.524 557.85 158.736 558.026 158.964 558.21L158.445 558.698ZM179.289 574.734C179.037 574.95 178.785 575.166 178.533 575.382C177.455 574.326 176.188 573.206 174.733 572.077C173.513 571.133 172.325 570.317 171.208 569.621C171.625 569.181 172.034 568.749 172.451 568.309C184.993 555.049 197.551 541.782 210.094 528.523C214.485 527.627 218.867 526.739 223.258 525.843C222.865 529.803 222.471 533.764 222.078 537.725C207.812 550.064 193.554 562.395 179.289 574.734Z" fill="#D8B4FE"/>
<path d="M158.964 558.21L158.445 558.698L157.878 558.074C158.02 557.946 158.162 557.81 158.311 557.682C158.524 557.85 158.736 558.026 158.964 558.21Z" fill="#D8B4FE"/>
<path d="M224.989 525.843L224.965 526.091C224.942 526.051 224.926 526.011 224.91 525.971C224.934 525.931 224.965 525.883 224.989 525.843Z" fill="#D8B4FE"/>
<path d="M224.902 526.851L224.965 526.091C225.044 526.259 225.131 526.411 225.225 526.547L224.902 526.851Z" fill="#D8B4FE"/>
<path d="M248.988 457.13C247.194 464.388 257.817 472.166 260.028 473.782C263.419 476.263 266.252 478.335 270.391 478.632C275.277 478.984 277.701 476.535 280.376 478.199C281.737 479.048 282.571 481.496 284.168 486.353C286.002 491.907 285.955 493.227 287.269 493.827C289.59 494.891 293.729 492.595 295.2 489.41C295.688 488.354 295.971 487.002 295.546 483.977C294.791 478.632 292.769 474.719 292.1 473.446C287.182 464.108 284.719 459.435 284.515 459.171C279.888 453.258 269.336 443.575 260.72 446.256C257.195 447.352 253.875 450.553 253.206 451.217C251.215 453.186 249.555 454.826 248.988 457.122V457.13Z" fill="#D8B4FE"/>
<path d="M307.365 416.585C311.323 424.803 316.193 433.717 322.205 442.983C325.942 448.744 329.711 454.018 333.417 458.819L439.603 349.273L443.561 301.102L396.736 308.687L305.39 409.991L307.365 416.593V416.585Z" fill="#D8B4FE"/>
<path d="M214.988 393.123C214.595 393.227 212.305 386.082 212.738 385.898C212.919 385.826 213.383 387.01 214.382 388.922C214.815 391.571 215.161 393.075 214.988 393.123Z" fill="#D8B4FE"/>
<path d="M158.964 558.21L158.445 558.698L157.878 558.074C158.02 557.946 158.162 557.81 158.311 557.682C158.524 557.85 158.736 558.026 158.964 558.21Z" fill="#D8B4FE"/>
<path d="M224.989 525.843L224.965 526.091C224.942 526.051 224.926 526.011 224.91 525.971C224.934 525.931 224.965 525.883 224.989 525.843Z" fill="#D8B4FE"/>
<path d="M225.603 510.847V510.927L225.524 510.847H225.603Z" fill="#D8B4FE"/>
<path d="M226.445 510.831C226.429 510.887 226.413 510.943 226.397 510.999C226.342 511.183 226.287 511.375 226.232 511.567L226.193 511.527L226.256 510.839H226.382L226.445 510.831Z" fill="#D8B4FE"/>
<path d="M224.989 525.843L224.965 526.091C224.942 526.051 224.926 526.011 224.91 525.971C224.934 525.931 224.965 525.883 224.989 525.843Z" fill="#D8B4FE"/>
<path d="M226.398 510.999C226.327 511.239 226.256 511.487 226.177 511.743L226.256 510.839H226.382L226.398 510.999Z" fill="#D8B4FE"/>
<path d="M224.989 525.843L224.965 526.091C224.942 526.051 224.926 526.011 224.91 525.971C224.934 525.931 224.965 525.883 224.989 525.843Z" fill="#D8B4FE"/>
<path d="M224.902 526.851L224.965 526.091C225.044 526.259 225.131 526.411 225.225 526.547L224.902 526.851Z" fill="#D8B4FE"/>
<path d="M224.989 525.843L224.965 526.091C224.942 526.051 224.926 526.011 224.91 525.971C224.934 525.931 224.965 525.883 224.989 525.843Z" fill="#D8B4FE"/>
<path d="M225.028 526.211L225.013 526.747L224.902 526.851L224.965 526.091C224.965 526.091 225.005 526.171 225.028 526.211Z" fill="#D8B4FE"/>
<path d="M225.603 510.847V510.927L225.524 510.847H225.603Z" fill="#D8B4FE"/>
<path d="M179.288 574.734C179.037 574.95 178.785 575.166 178.533 575.382C177.455 574.326 176.188 573.206 174.733 572.078C173.513 571.133 172.325 570.317 171.208 569.621C171.625 569.181 172.034 568.749 172.451 568.309L179.288 574.734Z" fill="#D8B4FE"/>
<path d="M231.166 406.238C231.739 406.238 232.204 405.766 232.204 405.182C232.204 404.599 231.739 404.126 231.166 404.126C230.592 404.126 230.127 404.599 230.127 405.182C230.127 405.766 230.592 406.238 231.166 406.238Z" fill="#D8B4FE"/>
<path d="M254.339 601.429C254.126 601.269 253.922 601.124 253.717 601.004C253.804 600.932 254.119 601.221 254.339 601.429Z" fill="#D8B4FE" stroke="#DBC34C" stroke-width="0.14" stroke-miterlimit="10"/>
<path d="M234.849 596.532C231.339 599.276 227.838 602.013 224.328 604.757C217.624 600.276 210.92 595.795 204.216 591.314C205.42 591.186 206.624 591.05 207.82 590.914C207.907 590.962 207.993 591.018 208.08 591.066C208.025 590.994 208.009 590.938 208.033 590.89C208.135 590.866 208.245 590.842 208.347 590.81C211.369 590.066 214.39 589.322 217.412 588.578C221.976 590.65 226.539 592.723 231.103 594.795H231.111C231.677 594.987 232.173 595.203 232.606 595.475H232.614C233.361 595.827 234.101 596.179 234.849 596.532Z" fill="#D8B4FE"/>
<path d="M208.347 590.81C208.245 590.842 208.135 590.866 208.032 590.89C208.064 590.818 208.166 590.802 208.347 590.81Z" fill="#D8B4FE"/>
<path d="M341.915 474.367C333.449 468.205 328.256 461.499 325.352 457.066C315.627 445.976 309.922 435.781 306.554 428.548C301.707 418.169 299.197 408.543 297.348 401.597C294.563 391.043 294.751 388.354 292.328 379.784C291.47 376.407 290.416 373.119 289.369 369.838C287.418 363.732 284.176 353.562 279.368 348.449C270.084 331.781 259.091 320.266 252.883 314.313C247.839 309.464 238.83 300.894 224.627 292.82C203.925 280.993 182.074 275.936 180.453 278.768C179.257 280.889 190.604 285.45 196.733 298.429C199.07 303.382 200.014 310.928 200.298 313.529C200.329 313.945 199.904 314.233 199.503 314.049C195.506 312.32 178.879 305.215 167.045 302.198C155.895 299.341 137.247 296.172 137.247 297.221C137.247 298.269 146.626 309.12 149.797 319.314C151.221 323.907 152.016 330.957 152.244 333.053C152.276 333.341 151.993 333.549 151.678 333.469C148.656 332.661 135.28 329.068 126.066 327.996C118.425 327.1 106.764 327.212 103.31 327.236C102.909 327.236 102.712 327.652 102.972 327.916C104.994 330.092 111.297 337.094 114.436 343.28H114.491C116.86 347.937 118.229 352.266 119.031 355.843C105.576 365.005 95.945 378.256 90.3584 387.866C78.768 402.101 56.6102 433.621 51.8183 478.792C51.7002 479.864 51.5271 481.488 51.354 483.585C50.7796 490.458 47.1444 546.391 85.1887 596.867C88.2024 600.86 92.8527 606.646 99.2183 613.127C99.2419 613.103 99.2734 613.079 99.297 613.047L100.399 614.256L126.821 589.426L125.428 587.889C125.153 587.409 124.736 586.529 124.673 585.361C124.657 585.065 124.618 583.896 125.232 582.608C125.838 581.336 126.632 580.872 128.041 579.607C128.828 578.903 129.913 577.855 131.117 576.423C125.948 571.805 120.558 567.172 114.948 562.547C113.075 560.995 111.202 559.475 109.337 557.978C107.787 560.163 105.828 562.579 103.357 565.02C102.759 565.604 102.169 566.156 101.587 566.684L85.8418 518.065L145.517 487.009C144.038 491.547 141.559 497.676 138.325 505.694C134.454 515.272 130.622 522.922 127.852 528.131C134.894 533.957 141.937 539.79 148.979 545.623C149.766 539.662 150.34 534.205 150.222 531.652C149.585 531.884 149.144 532.06 148.947 531.836C148.625 534.237 148.444 534.301 148.389 534.309C148.255 534.325 148.121 533.965 148.106 533.933C147.995 533.628 148.428 532.116 148.94 531.092C148.94 531.092 148.942 531.087 148.947 531.076C149.018 530.844 149.121 530.66 149.136 530.66C149.144 530.66 149.144 530.684 149.121 530.74C149.357 530.34 149.593 530.084 149.789 530.124C150.041 530.18 150.175 530.724 150.222 531.652C150.702 531.468 151.292 531.26 151.969 531.172C153.173 531.012 154.219 531.276 154.959 531.548C154.274 529.78 153.417 527.179 152.905 523.946C152.441 520.977 151.623 513.448 155.337 503.221C162.497 483.489 177.746 477.815 175.716 465.268C175.512 464.004 175.181 463.004 174.961 462.396C173.175 458.411 168.902 457.25 164.283 446.24C161.97 440.791 158.579 432.429 160.687 422.386C162.371 414.264 167.218 407.159 169.044 407.343C171.097 407.551 163.599 426.947 169.76 441.207C174.205 451.457 181.594 457.411 190.659 464.564C197.276 469.781 200.809 471.486 233.463 488.602C248.524 496.492 260.814 503.069 267.573 513.584C271.453 519.609 273.074 526.059 273.074 526.059C274.702 532.484 273.074 541.446 273.931 541.446C274.789 541.446 319.333 518.513 318.562 517.697C317.791 516.889 310.41 517.801 304.477 515.76C298.229 513.608 294.122 510.303 292.013 508.343C289.503 505.51 286.655 501.789 284.082 497.172C280.635 490.93 279.864 481.808 278.039 480.816C276.213 479.824 271.681 481.864 266.834 481.08C261.326 480.184 257.423 477.983 255.369 476.647C251.892 472.294 248.154 466.973 244.676 460.659C240.427 452.921 235.517 440.735 235.832 439.71C236.147 438.694 240.592 437.694 244.275 437.174C252.576 435.965 259.186 438.59 265.402 441.183C270.941 443.463 279.549 447.816 288.331 455.938C290.589 460.187 292.894 465.116 294.948 470.726C297.033 476.383 298.261 485.793 299.457 486.345C300.684 486.873 306.554 483.489 313.455 484.801C320.127 486.081 324.125 489.858 325.376 491.146C327.233 493.763 329.428 497.516 330.994 502.333C333.079 508.783 331.907 517.305 332.764 517.985C336.455 520.929 347.966 513.824 355.04 505.166C360.973 497.892 363.279 490.13 364.278 485.249C362.909 484.409 350.5 480.608 341.915 474.367ZM65.9816 517.433C65.958 517.393 65.958 517.337 65.9659 517.273L66.0367 517.489C66.0367 517.489 65.9895 517.457 65.9816 517.433ZM254.622 385.738C254.693 391.099 253.017 396.356 249.193 399.925C247.336 386.826 243.48 372.39 238.956 362.804C244.259 364.893 248.665 369.182 251.12 373.183C251.742 374.231 252.316 375.359 252.773 376.511C252.82 376.511 252.867 376.487 252.914 376.479C254.016 380.784 254.606 383.233 254.779 384.665C254.819 385.009 254.858 385.346 254.889 385.674C254.803 385.698 254.708 385.722 254.622 385.738Z" fill="#D8B4FE"/>
</g>
</g>
<g filter="url(#filter1_dddddd_1191_5598)">
<path d="M1388.99 339.795C1388.96 341.367 1384.75 340.757 1381.51 340.994H1349.08C1337.85 340.994 1339.11 340.994 1339.11 349.408V463.588C1339.11 470.796 1335.36 474.407 1327.88 474.407H1301.68C1295.03 474.407 1291.71 471.202 1291.71 464.793V353.012C1291.71 344.199 1287.14 339.795 1277.99 339.795H1248.05C1243.06 339.795 1240.57 338.596 1240.57 333.786V307.345C1240.57 304.94 1240.57 302.535 1243.07 301.336C1244.31 300.137 1246.81 300.137 1249.3 300.137H1381.51C1385.25 300.137 1387.36 299.5 1388.61 303.104L1388.75 306.078C1388.75 306.078 1389 321.768 1389 328.976V339.795H1388.99Z" stroke="#D7B4FE" stroke-width="7" stroke-miterlimit="10"/>
</g>
<g filter="url(#filter2_dddddd_1191_5598)">
<path d="M855.167 300.13C856.412 300.13 856.412 306.139 856.412 309.743V464.78C856.412 474.393 856.412 475.599 845.184 474.393C833.956 473.194 822.735 474.393 812.752 474.393C806.516 474.393 804.02 473.194 804.02 467.185V307.345C804.02 304.94 803.458 299.994 805.265 300.137H855.153L855.167 300.13Z" stroke="#D7B4FE" stroke-width="7" stroke-miterlimit="10"/>
</g>
<g filter="url(#filter3_dddddd_1191_5598)">
<path d="M600.733 301.336V300.137" stroke="#D7B4FE" stroke-width="7" stroke-miterlimit="10"/>
</g>
<g filter="url(#filter4_dddddd_1191_5598)">
<path d="M488.611 302.535H532.13C534.625 303.734 533.374 307.345 533.374 309.743V381.852C533.374 384.257 533.374 386.662 534.618 389.06C537.114 387.861 538.359 385.456 539.61 383.051C557.074 357.809 575.782 333.773 593.239 308.537C594.483 306.132 596.979 302.528 600.719 301.329H650.608C654.348 303.734 650.608 306.139 649.363 307.338C630.655 333.779 611.947 361.42 593.239 387.861C589.499 391.465 589.499 398.68 593.239 402.284C643.127 470.789 693.016 539.294 742.911 607.799C756.628 627.025 771.596 647.457 785.319 666.69C786.564 667.89 787.815 670.294 786.564 671.5H737.919C734.179 671.5 730.439 670.301 727.943 666.69L618.183 516.457C599.475 491.215 580.767 465.979 562.058 439.538C559.563 435.934 557.067 435.934 554.578 439.538L535.87 468.384C534.625 470.789 533.374 473.194 534.625 475.592V665.485H537.121L592.001 504.439C595.742 506.844 598.237 510.448 600.733 514.052C610.71 528.475 620.686 542.898 631.914 556.115C634.409 558.52 634.409 563.323 633.158 566.934C628.166 578.952 623.182 590.971 616.946 602.989C614.45 607.799 615.701 608.998 620.686 608.998H663.094C666.834 608.998 669.33 608.998 671.826 611.403C680.558 623.421 689.289 634.24 698.021 646.258C695.526 648.663 693.03 647.457 691.785 647.457H608.221C598.244 647.457 598.244 648.656 593.253 657.07C584.521 675.098 590.757 671.494 570.804 671.494H494.72C490.586 671.494 487.24 668.262 487.24 664.285V608.998C487.24 605.014 483.886 601.79 479.759 601.79H421.139C414.903 601.79 412.407 602.989 412.407 610.204V663.086C412.407 667.734 408.498 671.5 403.675 671.5H372.481C367.489 671.5 365 670.301 365 664.292V503.246C365 499.927 367.792 497.237 371.237 497.237H406.157C409.602 497.237 412.393 499.927 412.393 503.246V553.724C412.393 557.707 415.747 560.932 419.874 560.932H478.494C482.628 560.932 485.974 557.701 485.974 553.724V309.75C485.827 308.524 485.616 305.536 485.644 303.294C485.651 302.562 487.844 302.542 488.604 302.542L488.611 302.535Z" stroke="#D7B4FE" stroke-width="7" stroke-miterlimit="10"/>
</g>
<g filter="url(#filter5_dddddd_1191_5598)">
<path d="M747.636 301.336H787.815C789.699 301.295 788.806 306.539 789.06 308.544V464.787C789.06 470.396 785.734 473.201 779.083 473.201H751.643C746.652 474.4 741.667 472.002 739.171 467.192C717.967 438.345 695.519 409.506 674.315 380.66C673.07 379.461 673.07 377.056 669.323 377.056V482.821C666.827 481.622 664.331 479.217 663.087 476.812L626.915 427.533C624.419 423.929 623.175 420.325 623.175 415.515V372.246C623.175 368.642 624.419 365.037 626.915 361.427L665.583 306.139C669.323 300.13 670.574 300.13 675.559 306.139L737.92 385.463C739.164 387.868 741.66 390.273 745.4 391.472V309.75C745.843 307.772 744.17 300.679 747.629 301.336H747.636Z" stroke="#D7B4FE" stroke-width="7" stroke-miterlimit="10"/>
</g>
<g filter="url(#filter6_dddddd_1191_5598)">
<path d="M1177.99 301.336H1225.34C1227.35 301.316 1226.86 306.146 1226.86 308.544V467.192C1226.86 473.201 1224.36 475.606 1218.12 475.606H1186.94C1180.71 475.606 1178.21 473.201 1178.21 468.398V416.721C1178.21 407.108 1178.21 405.902 1168.24 405.902H1113.36C1107.53 405.902 1104.62 409.106 1104.62 415.515V467.192C1104.62 473.601 1101.3 476.805 1094.65 476.805H1065.96C1060.14 476.805 1057.23 474 1057.23 468.391V309.75C1057.23 307.345 1057.11 301.336 1059.38 301.336H1101.19C1103.51 301.919 1103.38 306.146 1103.38 308.544V356.617C1103.38 362.626 1104.62 365.031 1110.86 365.031H1169.48C1175.72 365.031 1176.96 362.626 1176.96 357.823V309.75C1177.1 306.884 1176.94 301.316 1177.99 301.336Z" stroke="#D7B4FE" stroke-width="7" stroke-miterlimit="10"/>
</g>
<g filter="url(#filter7_dddddd_1191_5598)">
<path d="M1001.1 374.65H1036.02C1041.01 374.65 1043.5 375.85 1043.5 380.659V435.947C1043.5 439.551 1041 444.361 1037.26 446.766C1008.58 473.207 966.172 481.621 928.755 468.397C890.088 456.379 866.395 421.524 870.135 377.055C873.875 338.596 905.056 308.551 943.723 302.542C973.659 295.333 1004.84 303.741 1026.04 324.173C1041.01 338.596 1041.01 339.795 1022.3 349.415C1017.31 351.82 1011.08 354.225 1006.09 357.829C1001.1 361.433 999.855 360.234 997.359 356.63C986.131 341.008 966.179 334.999 947.471 342.207C922.526 353.026 910.054 380.666 921.275 404.703C932.503 428.739 961.187 440.757 986.131 429.945C987.376 429.945 987.376 428.746 988.627 428.746L992.367 427.547C996.108 425.142 997.359 420.338 996.108 416.727C994.863 411.918 991.116 413.123 988.627 413.123H963.683C958.691 413.123 957.447 411.924 957.447 407.114V380.673C957.447 375.863 959.943 373.465 964.927 373.465L1001.1 374.664V374.65Z" stroke="#D7B4FE" stroke-width="7" stroke-miterlimit="10"/>
</g>
<g filter="url(#filter8_dddddd_1191_5598)">
<path d="M963.683 565.742C966.179 565.742 967.423 563.337 968.675 560.932C983.643 542.905 997.359 523.671 1012.33 505.644C1014.82 500.834 1021.06 498.436 1026.04 498.436H1073.44C1074.68 500.841 1073.44 502.04 1072.19 503.246C1052.24 526.083 1032.28 550.12 1011.08 572.957C1007.34 576.561 1007.34 581.371 1009.83 584.975C1009.83 584.975 1009.83 586.174 1011.08 586.174C1031.03 611.416 1052.23 636.652 1072.19 663.093L1078.43 670.301C1075.93 672.706 1072.19 671.5 1069.7 671.5H1029.78C1024.79 672.699 1019.81 669.095 1017.31 665.491C1004.84 648.663 992.368 631.842 981.14 615.013C979.896 612.608 978.644 610.203 974.904 609.004C966.172 613.814 961.187 623.428 962.432 634.247C963.676 645.066 962.432 655.878 962.432 665.498C962.432 670.308 961.187 672.706 956.196 672.706H925.015C915.039 672.706 916.283 672.706 916.283 664.292V508.049C916.283 502.04 917.528 499.635 923.764 500.841H956.196C962.432 500.841 963.676 502.04 963.676 508.049V560.932C962.432 562.131 961.18 563.337 963.676 565.742H963.683Z" stroke="#D7B4FE" stroke-width="7" stroke-miterlimit="10"/>
</g>
<g filter="url(#filter9_dddddd_1191_5598)">
<path d="M1154.51 672.706C1129.57 673.905 1105.87 666.697 1085.92 653.48C1078.43 648.67 1078.43 647.471 1083.42 640.263C1088.41 633.055 1093.4 625.84 1098.39 618.631C1100.88 615.027 1103.38 613.821 1107.12 617.432C1119.59 628.251 1135.8 635.46 1152.02 635.46C1159.5 636.659 1166.99 635.46 1174.47 631.855C1179.46 630.656 1181.95 627.046 1181.95 622.242C1181.95 617.439 1178.21 615.034 1174.47 612.629C1163.24 609.025 1150.77 605.421 1139.55 604.215C1124.58 601.81 1110.87 595.801 1099.64 587.387C1079.69 568.161 1079.69 536.909 1099.64 517.676C1102.13 515.271 1105.87 512.866 1108.37 510.468C1138.31 493.64 1169.49 496.045 1200.67 508.063C1206.9 510.468 1214.38 514.072 1219.38 517.676C1223.12 520.081 1224.37 522.486 1220.62 527.289C1214.38 534.498 1209.39 541.713 1204.41 548.921C1201.91 552.525 1198.17 552.525 1194.43 550.12C1180.71 541.706 1164.5 536.903 1148.28 536.903C1144.54 536.903 1139.55 538.102 1135.81 539.308C1130.82 541.713 1129.57 546.516 1130.82 551.326C1132.06 553.731 1133.31 554.93 1135.81 556.136C1143.29 559.74 1152.02 562.145 1160.75 563.344C1173.23 565.749 1184.45 569.353 1196.93 572.957C1214.39 578.966 1226.86 594.588 1228.11 612.616C1230.6 633.048 1220.63 653.48 1201.91 664.292C1188.2 671.5 1170.73 673.905 1154.52 672.706H1154.51Z" stroke="#D7B4FE" stroke-width="7" stroke-miterlimit="10"/>
</g>
<g filter="url(#filter10_dddddd_1191_5598)">
<path d="M823.987 672.706H814.011C806.53 672.706 800.294 669.102 796.547 663.093C776.594 635.453 756.635 607.805 736.682 581.364C732.942 576.554 731.69 570.545 734.186 565.742C744.163 527.282 770.358 508.056 809.019 500.841C842.695 493.633 877.616 508.049 896.324 536.896C901.315 544.104 901.315 545.31 892.584 548.914C883.852 552.518 876.371 556.122 867.639 560.932C865.143 563.337 861.403 562.131 860.159 559.733C860.159 559.733 860.159 558.534 858.914 558.534C848.938 541.706 827.734 533.292 809.026 540.507C790.318 546.516 776.594 563.344 776.594 582.57C774.098 607.812 792.807 630.643 819.002 633.048H825.238C838.955 633.048 851.434 625.839 857.67 615.02C861.41 610.21 863.906 609.011 870.142 611.416C876.378 613.821 885.11 618.625 892.591 622.235C900.071 625.846 901.322 627.045 896.331 634.254C881.363 660.695 852.678 673.912 823.987 672.713V672.706Z" stroke="#D7B4FE" stroke-width="7" stroke-miterlimit="10"/>
</g>
<defs>
<filter id="filter0_dd_1191_5598" x="-1.38" y="225.62" width="511.76" height="511.76" filterUnits="userSpaceOnUse" color-interpolation-filters="sRGB">
<feFlood flood-opacity="0" result="BackgroundImageFix"/>
<feColorMatrix in="SourceAlpha" type="matrix" values="0 0 0 0 0 0 0 0 0 0 0 0 0 0 0 0 0 0 127 0" result="hardAlpha"/>
<feOffset/>
<feGaussianBlur stdDeviation="13.095"/>
<feColorMatrix type="matrix" values="0 0 0 0 0.419608 0 0 0 0 0.129412 0 0 0 0 0.658824 0 0 0 1 0"/>
<feBlend mode="normal" in2="BackgroundImageFix" result="effect1_dropShadow_1191_5598"/>
<feColorMatrix in="SourceAlpha" type="matrix" values="0 0 0 0 0 0 0 0 0 0 0 0 0 0 0 0 0 0 127 0" result="hardAlpha"/>
<feOffset/>
<feGaussianBlur stdDeviation="26.19"/>
<feColorMatrix type="matrix" values="0 0 0 0 0.419608 0 0 0 0 0.129412 0 0 0 0 0.658824 0 0 0 1 0"/>
<feBlend mode="normal" in2="effect1_dropShadow_1191_5598" result="effect2_dropShadow_1191_5598"/>
<feBlend mode="normal" in="SourceGraphic" in2="effect2_dropShadow_1191_5598" result="shape"/>
</filter>
<filter id="filter1_dddddd_1191_5598" x="1083.48" y="143.002" width="462.611" height="488.496" filterUnits="userSpaceOnUse" color-interpolation-filters="sRGB">
<feFlood flood-opacity="0" result="BackgroundImageFix"/>
<feColorMatrix in="SourceAlpha" type="matrix" values="0 0 0 0 0 0 0 0 0 0 0 0 0 0 0 0 0 0 127 0" result="hardAlpha"/>
<feOffset/>
<feGaussianBlur stdDeviation="1.82847"/>
<feColorMatrix type="matrix" values="0 0 0 0 0.419608 0 0 0 0 0.129412 0 0 0 0 0.658824 0 0 0 1 0"/>
<feBlend mode="normal" in2="BackgroundImageFix" result="effect1_dropShadow_1191_5598"/>
<feColorMatrix in="SourceAlpha" type="matrix" values="0 0 0 0 0 0 0 0 0 0 0 0 0 0 0 0 0 0 127 0" result="hardAlpha"/>
<feOffset/>
<feGaussianBlur stdDeviation="3.65693"/>
<feColorMatrix type="matrix" values="0 0 0 0 0.419608 0 0 0 0 0.129412 0 0 0 0 0.658824 0 0 0 1 0"/>
<feBlend mode="normal" in2="effect1_dropShadow_1191_5598" result="effect2_dropShadow_1191_5598"/>
<feColorMatrix in="SourceAlpha" type="matrix" values="0 0 0 0 0 0 0 0 0 0 0 0 0 0 0 0 0 0 127 0" result="hardAlpha"/>
<feOffset/>
<feGaussianBlur stdDeviation="12.7993"/>
<feColorMatrix type="matrix" values="0 0 0 0 0.419608 0 0 0 0 0.129412 0 0 0 0 0.658824 0 0 0 1 0"/>
<feBlend mode="normal" in2="effect2_dropShadow_1191_5598" result="effect3_dropShadow_1191_5598"/>
<feColorMatrix in="SourceAlpha" type="matrix" values="0 0 0 0 0 0 0 0 0 0 0 0 0 0 0 0 0 0 127 0" result="hardAlpha"/>
<feOffset/>
<feGaussianBlur stdDeviation="25.5985"/>
<feColorMatrix type="matrix" values="0 0 0 0 0.419608 0 0 0 0 0.129412 0 0 0 0 0.658824 0 0 0 1 0"/>
<feBlend mode="normal" in2="effect3_dropShadow_1191_5598" result="effect4_dropShadow_1191_5598"/>
<feColorMatrix in="SourceAlpha" type="matrix" values="0 0 0 0 0 0 0 0 0 0 0 0 0 0 0 0 0 0 127 0" result="hardAlpha"/>
<feOffset/>
<feGaussianBlur stdDeviation="43.8832"/>
<feColorMatrix type="matrix" values="0 0 0 0 0.419608 0 0 0 0 0.129412 0 0 0 0 0.658824 0 0 0 1 0"/>
<feBlend mode="normal" in2="effect4_dropShadow_1191_5598" result="effect5_dropShadow_1191_5598"/>
<feColorMatrix in="SourceAlpha" type="matrix" values="0 0 0 0 0 0 0 0 0 0 0 0 0 0 0 0 0 0 127 0" result="hardAlpha"/>
<feOffset/>
<feGaussianBlur stdDeviation="76.7956"/>
<feColorMatrix type="matrix" values="0 0 0 0 0.419608 0 0 0 0 0.129412 0 0 0 0 0.658824 0 0 0 1 0"/>
<feBlend mode="normal" in2="effect5_dropShadow_1191_5598" result="effect6_dropShadow_1191_5598"/>
<feBlend mode="normal" in="SourceGraphic" in2="effect6_dropShadow_1191_5598" result="shape"/>
</filter>
<filter id="filter2_dddddd_1191_5598" x="646.55" y="142.743" width="367.249" height="489.423" filterUnits="userSpaceOnUse" color-interpolation-filters="sRGB">
<feFlood flood-opacity="0" result="BackgroundImageFix"/>
<feColorMatrix in="SourceAlpha" type="matrix" values="0 0 0 0 0 0 0 0 0 0 0 0 0 0 0 0 0 0 127 0" result="hardAlpha"/>
<feOffset/>
<feGaussianBlur stdDeviation="1.83199"/>
<feColorMatrix type="matrix" values="0 0 0 0 0.419608 0 0 0 0 0.129412 0 0 0 0 0.658824 0 0 0 1 0"/>
<feBlend mode="normal" in2="BackgroundImageFix" result="effect1_dropShadow_1191_5598"/>
<feColorMatrix in="SourceAlpha" type="matrix" values="0 0 0 0 0 0 0 0 0 0 0 0 0 0 0 0 0 0 127 0" result="hardAlpha"/>
<feOffset/>
<feGaussianBlur stdDeviation="3.66398"/>
<feColorMatrix type="matrix" values="0 0 0 0 0.419608 0 0 0 0 0.129412 0 0 0 0 0.658824 0 0 0 1 0"/>
<feBlend mode="normal" in2="effect1_dropShadow_1191_5598" result="effect2_dropShadow_1191_5598"/>
<feColorMatrix in="SourceAlpha" type="matrix" values="0 0 0 0 0 0 0 0 0 0 0 0 0 0 0 0 0 0 127 0" result="hardAlpha"/>
<feOffset/>
<feGaussianBlur stdDeviation="12.8239"/>
<feColorMatrix type="matrix" values="0 0 0 0 0.419608 0 0 0 0 0.129412 0 0 0 0 0.658824 0 0 0 1 0"/>
<feBlend mode="normal" in2="effect2_dropShadow_1191_5598" result="effect3_dropShadow_1191_5598"/>
<feColorMatrix in="SourceAlpha" type="matrix" values="0 0 0 0 0 0 0 0 0 0 0 0 0 0 0 0 0 0 127 0" result="hardAlpha"/>
<feOffset/>
<feGaussianBlur stdDeviation="25.6479"/>
<feColorMatrix type="matrix" values="0 0 0 0 0.419608 0 0 0 0 0.129412 0 0 0 0 0.658824 0 0 0 1 0"/>
<feBlend mode="normal" in2="effect3_dropShadow_1191_5598" result="effect4_dropShadow_1191_5598"/>
<feColorMatrix in="SourceAlpha" type="matrix" values="0 0 0 0 0 0 0 0 0 0 0 0 0 0 0 0 0 0 127 0" result="hardAlpha"/>
<feOffset/>
<feGaussianBlur stdDeviation="43.9678"/>
<feColorMatrix type="matrix" values="0 0 0 0 0.419608 0 0 0 0 0.129412 0 0 0 0 0.658824 0 0 0 1 0"/>
<feBlend mode="normal" in2="effect4_dropShadow_1191_5598" result="effect5_dropShadow_1191_5598"/>
<feColorMatrix in="SourceAlpha" type="matrix" values="0 0 0 0 0 0 0 0 0 0 0 0 0 0 0 0 0 0 127 0" result="hardAlpha"/>
<feOffset/>
<feGaussianBlur stdDeviation="76.9436"/>
<feColorMatrix type="matrix" values="0 0 0 0 0.419608 0 0 0 0 0.129412 0 0 0 0 0.658824 0 0 0 1 0"/>
<feBlend mode="normal" in2="effect5_dropShadow_1191_5598" result="effect6_dropShadow_1191_5598"/>
<feBlend mode="normal" in="SourceGraphic" in2="effect6_dropShadow_1191_5598" result="shape"/>
</filter>
<filter id="filter3_dddddd_1191_5598" x="596.177" y="299.08" width="9.11311" height="3.31233" filterUnits="userSpaceOnUse" color-interpolation-filters="sRGB">
<feFlood flood-opacity="0" result="BackgroundImageFix"/>
<feColorMatrix in="SourceAlpha" type="matrix" values="0 0 0 0 0 0 0 0 0 0 0 0 0 0 0 0 0 0 127 0" result="hardAlpha"/>
<feOffset/>
<feGaussianBlur stdDeviation="0.0125781"/>
<feColorMatrix type="matrix" values="0 0 0 0 0.419608 0 0 0 0 0.129412 0 0 0 0 0.658824 0 0 0 1 0"/>
<feBlend mode="normal" in2="BackgroundImageFix" result="effect1_dropShadow_1191_5598"/>
<feColorMatrix in="SourceAlpha" type="matrix" values="0 0 0 0 0 0 0 0 0 0 0 0 0 0 0 0 0 0 127 0" result="hardAlpha"/>
<feOffset/>
<feGaussianBlur stdDeviation="0.0251561"/>
<feColorMatrix type="matrix" values="0 0 0 0 0.419608 0 0 0 0 0.129412 0 0 0 0 0.658824 0 0 0 1 0"/>
<feBlend mode="normal" in2="effect1_dropShadow_1191_5598" result="effect2_dropShadow_1191_5598"/>
<feColorMatrix in="SourceAlpha" type="matrix" values="0 0 0 0 0 0 0 0 0 0 0 0 0 0 0 0 0 0 127 0" result="hardAlpha"/>
<feOffset/>
<feGaussianBlur stdDeviation="0.0880464"/>
<feColorMatrix type="matrix" values="0 0 0 0 0.419608 0 0 0 0 0.129412 0 0 0 0 0.658824 0 0 0 1 0"/>
<feBlend mode="normal" in2="effect2_dropShadow_1191_5598" result="effect3_dropShadow_1191_5598"/>
<feColorMatrix in="SourceAlpha" type="matrix" values="0 0 0 0 0 0 0 0 0 0 0 0 0 0 0 0 0 0 127 0" result="hardAlpha"/>
<feOffset/>
<feGaussianBlur stdDeviation="0.176093"/>
<feColorMatrix type="matrix" values="0 0 0 0 0.419608 0 0 0 0 0.129412 0 0 0 0 0.658824 0 0 0 1 0"/>
<feBlend mode="normal" in2="effect3_dropShadow_1191_5598" result="effect4_dropShadow_1191_5598"/>
<feColorMatrix in="SourceAlpha" type="matrix" values="0 0 0 0 0 0 0 0 0 0 0 0 0 0 0 0 0 0 127 0" result="hardAlpha"/>
<feOffset/>
<feGaussianBlur stdDeviation="0.301874"/>
<feColorMatrix type="matrix" values="0 0 0 0 0.419608 0 0 0 0 0.129412 0 0 0 0 0.658824 0 0 0 1 0"/>
<feBlend mode="normal" in2="effect4_dropShadow_1191_5598" result="effect5_dropShadow_1191_5598"/>
<feColorMatrix in="SourceAlpha" type="matrix" values="0 0 0 0 0 0 0 0 0 0 0 0 0 0 0 0 0 0 127 0" result="hardAlpha"/>
<feOffset/>
<feGaussianBlur stdDeviation="0.528279"/>
<feColorMatrix type="matrix" values="0 0 0 0 0.419608 0 0 0 0 0.129412 0 0 0 0 0.658824 0 0 0 1 0"/>
<feBlend mode="normal" in2="effect5_dropShadow_1191_5598" result="effect6_dropShadow_1191_5598"/>
<feBlend mode="normal" in="SourceGraphic" in2="effect6_dropShadow_1191_5598" result="shape"/>
</filter>
<filter id="filter4_dddddd_1191_5598" x="3.13205" y="-60.5393" width="1145.81" height="1094.2" filterUnits="userSpaceOnUse" color-interpolation-filters="sRGB">
<feFlood flood-opacity="0" result="BackgroundImageFix"/>
<feColorMatrix in="SourceAlpha" type="matrix" values="0 0 0 0 0 0 0 0 0 0 0 0 0 0 0 0 0 0 127 0" result="hardAlpha"/>
<feOffset/>
<feGaussianBlur stdDeviation="4.26629"/>
<feColorMatrix type="matrix" values="0 0 0 0 0.419608 0 0 0 0 0.129412 0 0 0 0 0.658824 0 0 0 1 0"/>
<feBlend mode="normal" in2="BackgroundImageFix" result="effect1_dropShadow_1191_5598"/>
<feColorMatrix in="SourceAlpha" type="matrix" values="0 0 0 0 0 0 0 0 0 0 0 0 0 0 0 0 0 0 127 0" result="hardAlpha"/>
<feOffset/>
<feGaussianBlur stdDeviation="8.53258"/>
<feColorMatrix type="matrix" values="0 0 0 0 0.419608 0 0 0 0 0.129412 0 0 0 0 0.658824 0 0 0 1 0"/>
<feBlend mode="normal" in2="effect1_dropShadow_1191_5598" result="effect2_dropShadow_1191_5598"/>
<feColorMatrix in="SourceAlpha" type="matrix" values="0 0 0 0 0 0 0 0 0 0 0 0 0 0 0 0 0 0 127 0" result="hardAlpha"/>
<feOffset/>
<feGaussianBlur stdDeviation="29.864"/>
<feColorMatrix type="matrix" values="0 0 0 0 0.419608 0 0 0 0 0.129412 0 0 0 0 0.658824 0 0 0 1 0"/>
<feBlend mode="normal" in2="effect2_dropShadow_1191_5598" result="effect3_dropShadow_1191_5598"/>
<feColorMatrix in="SourceAlpha" type="matrix" values="0 0 0 0 0 0 0 0 0 0 0 0 0 0 0 0 0 0 127 0" result="hardAlpha"/>
<feOffset/>
<feGaussianBlur stdDeviation="59.7281"/>
<feColorMatrix type="matrix" values="0 0 0 0 0.419608 0 0 0 0 0.129412 0 0 0 0 0.658824 0 0 0 1 0"/>
<feBlend mode="normal" in2="effect3_dropShadow_1191_5598" result="effect4_dropShadow_1191_5598"/>
<feColorMatrix in="SourceAlpha" type="matrix" values="0 0 0 0 0 0 0 0 0 0 0 0 0 0 0 0 0 0 127 0" result="hardAlpha"/>
<feOffset/>
<feGaussianBlur stdDeviation="102.391"/>
<feColorMatrix type="matrix" values="0 0 0 0 0.419608 0 0 0 0 0.129412 0 0 0 0 0.658824 0 0 0 1 0"/>
<feBlend mode="normal" in2="effect4_dropShadow_1191_5598" result="effect5_dropShadow_1191_5598"/>
<feColorMatrix in="SourceAlpha" type="matrix" values="0 0 0 0 0 0 0 0 0 0 0 0 0 0 0 0 0 0 127 0" result="hardAlpha"/>
<feOffset/>
<feGaussianBlur stdDeviation="179.184"/>
<feColorMatrix type="matrix" values="0 0 0 0 0.419608 0 0 0 0 0.129412 0 0 0 0 0.658824 0 0 0 1 0"/>
<feBlend mode="normal" in2="effect5_dropShadow_1191_5598" result="effect6_dropShadow_1191_5598"/>
<feBlend mode="normal" in="SourceGraphic" in2="effect6_dropShadow_1191_5598" result="shape"/>
</filter>
<filter id="filter5_dddddd_1191_5598" x="459.727" y="137.845" width="492.781" height="510.488" filterUnits="userSpaceOnUse" color-interpolation-filters="sRGB">
<feFlood flood-opacity="0" result="BackgroundImageFix"/>
<feColorMatrix in="SourceAlpha" type="matrix" values="0 0 0 0 0 0 0 0 0 0 0 0 0 0 0 0 0 0 127 0" result="hardAlpha"/>
<feOffset/>
<feGaussianBlur stdDeviation="1.90414"/>
<feColorMatrix type="matrix" values="0 0 0 0 0.419608 0 0 0 0 0.129412 0 0 0 0 0.658824 0 0 0 1 0"/>
<feBlend mode="normal" in2="BackgroundImageFix" result="effect1_dropShadow_1191_5598"/>
<feColorMatrix in="SourceAlpha" type="matrix" values="0 0 0 0 0 0 0 0 0 0 0 0 0 0 0 0 0 0 127 0" result="hardAlpha"/>
<feOffset/>
<feGaussianBlur stdDeviation="3.80828"/>
<feColorMatrix type="matrix" values="0 0 0 0 0.419608 0 0 0 0 0.129412 0 0 0 0 0.658824 0 0 0 1 0"/>
<feBlend mode="normal" in2="effect1_dropShadow_1191_5598" result="effect2_dropShadow_1191_5598"/>
<feColorMatrix in="SourceAlpha" type="matrix" values="0 0 0 0 0 0 0 0 0 0 0 0 0 0 0 0 0 0 127 0" result="hardAlpha"/>
<feOffset/>
<feGaussianBlur stdDeviation="13.329"/>
<feColorMatrix type="matrix" values="0 0 0 0 0.419608 0 0 0 0 0.129412 0 0 0 0 0.658824 0 0 0 1 0"/>
<feBlend mode="normal" in2="effect2_dropShadow_1191_5598" result="effect3_dropShadow_1191_5598"/>
<feColorMatrix in="SourceAlpha" type="matrix" values="0 0 0 0 0 0 0 0 0 0 0 0 0 0 0 0 0 0 127 0" result="hardAlpha"/>
<feOffset/>
<feGaussianBlur stdDeviation="26.658"/>
<feColorMatrix type="matrix" values="0 0 0 0 0.419608 0 0 0 0 0.129412 0 0 0 0 0.658824 0 0 0 1 0"/>
<feBlend mode="normal" in2="effect3_dropShadow_1191_5598" result="effect4_dropShadow_1191_5598"/>
<feColorMatrix in="SourceAlpha" type="matrix" values="0 0 0 0 0 0 0 0 0 0 0 0 0 0 0 0 0 0 127 0" result="hardAlpha"/>
<feOffset/>
<feGaussianBlur stdDeviation="45.6994"/>
<feColorMatrix type="matrix" values="0 0 0 0 0.419608 0 0 0 0 0.129412 0 0 0 0 0.658824 0 0 0 1 0"/>
<feBlend mode="normal" in2="effect4_dropShadow_1191_5598" result="effect5_dropShadow_1191_5598"/>
<feColorMatrix in="SourceAlpha" type="matrix" values="0 0 0 0 0 0 0 0 0 0 0 0 0 0 0 0 0 0 127 0" result="hardAlpha"/>
<feOffset/>
<feGaussianBlur stdDeviation="79.974"/>
<feColorMatrix type="matrix" values="0 0 0 0 0.419608 0 0 0 0 0.129412 0 0 0 0 0.658824 0 0 0 1 0"/>
<feBlend mode="normal" in2="effect5_dropShadow_1191_5598" result="effect6_dropShadow_1191_5598"/>
<feBlend mode="normal" in="SourceGraphic" in2="effect6_dropShadow_1191_5598" result="shape"/>
</filter>
<filter id="filter6_dddddd_1191_5598" x="899.12" y="143.226" width="485.897" height="491.688" filterUnits="userSpaceOnUse" color-interpolation-filters="sRGB">
<feFlood flood-opacity="0" result="BackgroundImageFix"/>
<feColorMatrix in="SourceAlpha" type="matrix" values="0 0 0 0 0 0 0 0 0 0 0 0 0 0 0 0 0 0 127 0" result="hardAlpha"/>
<feOffset/>
<feGaussianBlur stdDeviation="1.84059"/>
<feColorMatrix type="matrix" values="0 0 0 0 0.419608 0 0 0 0 0.129412 0 0 0 0 0.658824 0 0 0 1 0"/>
<feBlend mode="normal" in2="BackgroundImageFix" result="effect1_dropShadow_1191_5598"/>
<feColorMatrix in="SourceAlpha" type="matrix" values="0 0 0 0 0 0 0 0 0 0 0 0 0 0 0 0 0 0 127 0" result="hardAlpha"/>
<feOffset/>
<feGaussianBlur stdDeviation="3.68118"/>
<feColorMatrix type="matrix" values="0 0 0 0 0.419608 0 0 0 0 0.129412 0 0 0 0 0.658824 0 0 0 1 0"/>
<feBlend mode="normal" in2="effect1_dropShadow_1191_5598" result="effect2_dropShadow_1191_5598"/>
<feColorMatrix in="SourceAlpha" type="matrix" values="0 0 0 0 0 0 0 0 0 0 0 0 0 0 0 0 0 0 127 0" result="hardAlpha"/>
<feOffset/>
<feGaussianBlur stdDeviation="12.8841"/>
<feColorMatrix type="matrix" values="0 0 0 0 0.419608 0 0 0 0 0.129412 0 0 0 0 0.658824 0 0 0 1 0"/>
<feBlend mode="normal" in2="effect2_dropShadow_1191_5598" result="effect3_dropShadow_1191_5598"/>
<feColorMatrix in="SourceAlpha" type="matrix" values="0 0 0 0 0 0 0 0 0 0 0 0 0 0 0 0 0 0 127 0" result="hardAlpha"/>
<feOffset/>
<feGaussianBlur stdDeviation="25.7683"/>
<feColorMatrix type="matrix" values="0 0 0 0 0.419608 0 0 0 0 0.129412 0 0 0 0 0.658824 0 0 0 1 0"/>
<feBlend mode="normal" in2="effect3_dropShadow_1191_5598" result="effect4_dropShadow_1191_5598"/>
<feColorMatrix in="SourceAlpha" type="matrix" values="0 0 0 0 0 0 0 0 0 0 0 0 0 0 0 0 0 0 127 0" result="hardAlpha"/>
<feOffset/>
<feGaussianBlur stdDeviation="44.1742"/>
<feColorMatrix type="matrix" values="0 0 0 0 0.419608 0 0 0 0 0.129412 0 0 0 0 0.658824 0 0 0 1 0"/>
<feBlend mode="normal" in2="effect4_dropShadow_1191_5598" result="effect5_dropShadow_1191_5598"/>
<feColorMatrix in="SourceAlpha" type="matrix" values="0 0 0 0 0 0 0 0 0 0 0 0 0 0 0 0 0 0 127 0" result="hardAlpha"/>
<feOffset/>
<feGaussianBlur stdDeviation="77.3048"/>
<feColorMatrix type="matrix" values="0 0 0 0 0.419608 0 0 0 0 0.129412 0 0 0 0 0.658824 0 0 0 1 0"/>
<feBlend mode="normal" in2="effect5_dropShadow_1191_5598" result="effect6_dropShadow_1191_5598"/>
<feBlend mode="normal" in="SourceGraphic" in2="effect6_dropShadow_1191_5598" result="shape"/>
</filter>
<filter id="filter7_dddddd_1191_5598" x="712.435" y="142.687" width="488.379" height="489.193" filterUnits="userSpaceOnUse" color-interpolation-filters="sRGB">
<feFlood flood-opacity="0" result="BackgroundImageFix"/>
<feColorMatrix in="SourceAlpha" type="matrix" values="0 0 0 0 0 0 0 0 0 0 0 0 0 0 0 0 0 0 127 0" result="hardAlpha"/>
<feOffset/>
<feGaussianBlur stdDeviation="1.83112"/>
<feColorMatrix type="matrix" values="0 0 0 0 0.419608 0 0 0 0 0.129412 0 0 0 0 0.658824 0 0 0 1 0"/>
<feBlend mode="normal" in2="BackgroundImageFix" result="effect1_dropShadow_1191_5598"/>
<feColorMatrix in="SourceAlpha" type="matrix" values="0 0 0 0 0 0 0 0 0 0 0 0 0 0 0 0 0 0 127 0" result="hardAlpha"/>
<feOffset/>
<feGaussianBlur stdDeviation="3.66223"/>
<feColorMatrix type="matrix" values="0 0 0 0 0.419608 0 0 0 0 0.129412 0 0 0 0 0.658824 0 0 0 1 0"/>
<feBlend mode="normal" in2="effect1_dropShadow_1191_5598" result="effect2_dropShadow_1191_5598"/>
<feColorMatrix in="SourceAlpha" type="matrix" values="0 0 0 0 0 0 0 0 0 0 0 0 0 0 0 0 0 0 127 0" result="hardAlpha"/>
<feOffset/>
<feGaussianBlur stdDeviation="12.8178"/>
<feColorMatrix type="matrix" values="0 0 0 0 0.419608 0 0 0 0 0.129412 0 0 0 0 0.658824 0 0 0 1 0"/>
<feBlend mode="normal" in2="effect2_dropShadow_1191_5598" result="effect3_dropShadow_1191_5598"/>
<feColorMatrix in="SourceAlpha" type="matrix" values="0 0 0 0 0 0 0 0 0 0 0 0 0 0 0 0 0 0 127 0" result="hardAlpha"/>
<feOffset/>
<feGaussianBlur stdDeviation="25.6356"/>
<feColorMatrix type="matrix" values="0 0 0 0 0.419608 0 0 0 0 0.129412 0 0 0 0 0.658824 0 0 0 1 0"/>
<feBlend mode="normal" in2="effect3_dropShadow_1191_5598" result="effect4_dropShadow_1191_5598"/>
<feColorMatrix in="SourceAlpha" type="matrix" values="0 0 0 0 0 0 0 0 0 0 0 0 0 0 0 0 0 0 127 0" result="hardAlpha"/>
<feOffset/>
<feGaussianBlur stdDeviation="43.9468"/>
<feColorMatrix type="matrix" values="0 0 0 0 0.419608 0 0 0 0 0.129412 0 0 0 0 0.658824 0 0 0 1 0"/>
<feBlend mode="normal" in2="effect4_dropShadow_1191_5598" result="effect5_dropShadow_1191_5598"/>
<feColorMatrix in="SourceAlpha" type="matrix" values="0 0 0 0 0 0 0 0 0 0 0 0 0 0 0 0 0 0 127 0" result="hardAlpha"/>
<feOffset/>
<feGaussianBlur stdDeviation="76.9069"/>
<feColorMatrix type="matrix" values="0 0 0 0 0.419608 0 0 0 0 0.129412 0 0 0 0 0.658824 0 0 0 1 0"/>
<feBlend mode="normal" in2="effect5_dropShadow_1191_5598" result="effect6_dropShadow_1191_5598"/>
<feBlend mode="normal" in="SourceGraphic" in2="effect6_dropShadow_1191_5598" result="shape"/>
</filter>
<filter id="filter8_dddddd_1191_5598" x="759.182" y="341.383" width="477.616" height="488.376" filterUnits="userSpaceOnUse" color-interpolation-filters="sRGB">
<feFlood flood-opacity="0" result="BackgroundImageFix"/>
<feColorMatrix in="SourceAlpha" type="matrix" values="0 0 0 0 0 0 0 0 0 0 0 0 0 0 0 0 0 0 127 0" result="hardAlpha"/>
<feOffset/>
<feGaussianBlur stdDeviation="1.82801"/>
<feColorMatrix type="matrix" values="0 0 0 0 0.419608 0 0 0 0 0.129412 0 0 0 0 0.658824 0 0 0 1 0"/>
<feBlend mode="normal" in2="BackgroundImageFix" result="effect1_dropShadow_1191_5598"/>
<feColorMatrix in="SourceAlpha" type="matrix" values="0 0 0 0 0 0 0 0 0 0 0 0 0 0 0 0 0 0 127 0" result="hardAlpha"/>
<feOffset/>
<feGaussianBlur stdDeviation="3.65602"/>
<feColorMatrix type="matrix" values="0 0 0 0 0.419608 0 0 0 0 0.129412 0 0 0 0 0.658824 0 0 0 1 0"/>
<feBlend mode="normal" in2="effect1_dropShadow_1191_5598" result="effect2_dropShadow_1191_5598"/>
<feColorMatrix in="SourceAlpha" type="matrix" values="0 0 0 0 0 0 0 0 0 0 0 0 0 0 0 0 0 0 127 0" result="hardAlpha"/>
<feOffset/>
<feGaussianBlur stdDeviation="12.7961"/>
<feColorMatrix type="matrix" values="0 0 0 0 0.419608 0 0 0 0 0.129412 0 0 0 0 0.658824 0 0 0 1 0"/>
<feBlend mode="normal" in2="effect2_dropShadow_1191_5598" result="effect3_dropShadow_1191_5598"/>
<feColorMatrix in="SourceAlpha" type="matrix" values="0 0 0 0 0 0 0 0 0 0 0 0 0 0 0 0 0 0 127 0" result="hardAlpha"/>
<feOffset/>
<feGaussianBlur stdDeviation="25.5922"/>
<feColorMatrix type="matrix" values="0 0 0 0 0.419608 0 0 0 0 0.129412 0 0 0 0 0.658824 0 0 0 1 0"/>
<feBlend mode="normal" in2="effect3_dropShadow_1191_5598" result="effect4_dropShadow_1191_5598"/>
<feColorMatrix in="SourceAlpha" type="matrix" values="0 0 0 0 0 0 0 0 0 0 0 0 0 0 0 0 0 0 127 0" result="hardAlpha"/>
<feOffset/>
<feGaussianBlur stdDeviation="43.8723"/>
<feColorMatrix type="matrix" values="0 0 0 0 0.419608 0 0 0 0 0.129412 0 0 0 0 0.658824 0 0 0 1 0"/>
<feBlend mode="normal" in2="effect4_dropShadow_1191_5598" result="effect5_dropShadow_1191_5598"/>
<feColorMatrix in="SourceAlpha" type="matrix" values="0 0 0 0 0 0 0 0 0 0 0 0 0 0 0 0 0 0 127 0" result="hardAlpha"/>
<feOffset/>
<feGaussianBlur stdDeviation="76.7765"/>
<feColorMatrix type="matrix" values="0 0 0 0 0.419608 0 0 0 0 0.129412 0 0 0 0 0.658824 0 0 0 1 0"/>
<feBlend mode="normal" in2="effect5_dropShadow_1191_5598" result="effect6_dropShadow_1191_5598"/>
<feBlend mode="normal" in="SourceGraphic" in2="effect6_dropShadow_1191_5598" result="shape"/>
</filter>
<filter id="filter9_dddddd_1191_5598" x="922.644" y="341.147" width="463.143" height="489.155" filterUnits="userSpaceOnUse" color-interpolation-filters="sRGB">
<feFlood flood-opacity="0" result="BackgroundImageFix"/>
<feColorMatrix in="SourceAlpha" type="matrix" values="0 0 0 0 0 0 0 0 0 0 0 0 0 0 0 0 0 0 127 0" result="hardAlpha"/>
<feOffset/>
<feGaussianBlur stdDeviation="1.83097"/>
<feColorMatrix type="matrix" values="0 0 0 0 0.419608 0 0 0 0 0.129412 0 0 0 0 0.658824 0 0 0 1 0"/>
<feBlend mode="normal" in2="BackgroundImageFix" result="effect1_dropShadow_1191_5598"/>
<feColorMatrix in="SourceAlpha" type="matrix" values="0 0 0 0 0 0 0 0 0 0 0 0 0 0 0 0 0 0 127 0" result="hardAlpha"/>
<feOffset/>
<feGaussianBlur stdDeviation="3.66194"/>
<feColorMatrix type="matrix" values="0 0 0 0 0.419608 0 0 0 0 0.129412 0 0 0 0 0.658824 0 0 0 1 0"/>
<feBlend mode="normal" in2="effect1_dropShadow_1191_5598" result="effect2_dropShadow_1191_5598"/>
<feColorMatrix in="SourceAlpha" type="matrix" values="0 0 0 0 0 0 0 0 0 0 0 0 0 0 0 0 0 0 127 0" result="hardAlpha"/>
<feOffset/>
<feGaussianBlur stdDeviation="12.8168"/>
<feColorMatrix type="matrix" values="0 0 0 0 0.419608 0 0 0 0 0.129412 0 0 0 0 0.658824 0 0 0 1 0"/>
<feBlend mode="normal" in2="effect2_dropShadow_1191_5598" result="effect3_dropShadow_1191_5598"/>
<feColorMatrix in="SourceAlpha" type="matrix" values="0 0 0 0 0 0 0 0 0 0 0 0 0 0 0 0 0 0 127 0" result="hardAlpha"/>
<feOffset/>
<feGaussianBlur stdDeviation="25.6336"/>
<feColorMatrix type="matrix" values="0 0 0 0 0.419608 0 0 0 0 0.129412 0 0 0 0 0.658824 0 0 0 1 0"/>
<feBlend mode="normal" in2="effect3_dropShadow_1191_5598" result="effect4_dropShadow_1191_5598"/>
<feColorMatrix in="SourceAlpha" type="matrix" values="0 0 0 0 0 0 0 0 0 0 0 0 0 0 0 0 0 0 127 0" result="hardAlpha"/>
<feOffset/>
<feGaussianBlur stdDeviation="43.9433"/>
<feColorMatrix type="matrix" values="0 0 0 0 0.419608 0 0 0 0 0.129412 0 0 0 0 0.658824 0 0 0 1 0"/>
<feBlend mode="normal" in2="effect4_dropShadow_1191_5598" result="effect5_dropShadow_1191_5598"/>
<feColorMatrix in="SourceAlpha" type="matrix" values="0 0 0 0 0 0 0 0 0 0 0 0 0 0 0 0 0 0 127 0" result="hardAlpha"/>
<feOffset/>
<feGaussianBlur stdDeviation="76.9007"/>
<feColorMatrix type="matrix" values="0 0 0 0 0.419608 0 0 0 0 0.129412 0 0 0 0 0.658824 0 0 0 1 0"/>
<feBlend mode="normal" in2="effect5_dropShadow_1191_5598" result="effect6_dropShadow_1191_5598"/>
<feBlend mode="normal" in="SourceGraphic" in2="effect6_dropShadow_1191_5598" result="shape"/>
</filter>
<filter id="filter10_dddddd_1191_5598" x="576.259" y="342.38" width="480.063" height="487.032" filterUnits="userSpaceOnUse" color-interpolation-filters="sRGB">
<feFlood flood-opacity="0" result="BackgroundImageFix"/>
<feColorMatrix in="SourceAlpha" type="matrix" values="0 0 0 0 0 0 0 0 0 0 0 0 0 0 0 0 0 0 127 0" result="hardAlpha"/>
<feOffset/>
<feGaussianBlur stdDeviation="1.82291"/>
<feColorMatrix type="matrix" values="0 0 0 0 0.419608 0 0 0 0 0.129412 0 0 0 0 0.658824 0 0 0 1 0"/>
<feBlend mode="normal" in2="BackgroundImageFix" result="effect1_dropShadow_1191_5598"/>
<feColorMatrix in="SourceAlpha" type="matrix" values="0 0 0 0 0 0 0 0 0 0 0 0 0 0 0 0 0 0 127 0" result="hardAlpha"/>
<feOffset/>
<feGaussianBlur stdDeviation="3.64582"/>
<feColorMatrix type="matrix" values="0 0 0 0 0.419608 0 0 0 0 0.129412 0 0 0 0 0.658824 0 0 0 1 0"/>
<feBlend mode="normal" in2="effect1_dropShadow_1191_5598" result="effect2_dropShadow_1191_5598"/>
<feColorMatrix in="SourceAlpha" type="matrix" values="0 0 0 0 0 0 0 0 0 0 0 0 0 0 0 0 0 0 127 0" result="hardAlpha"/>
<feOffset/>
<feGaussianBlur stdDeviation="12.7604"/>
<feColorMatrix type="matrix" values="0 0 0 0 0.419608 0 0 0 0 0.129412 0 0 0 0 0.658824 0 0 0 1 0"/>
<feBlend mode="normal" in2="effect2_dropShadow_1191_5598" result="effect3_dropShadow_1191_5598"/>
<feColorMatrix in="SourceAlpha" type="matrix" values="0 0 0 0 0 0 0 0 0 0 0 0 0 0 0 0 0 0 127 0" result="hardAlpha"/>
<feOffset/>
<feGaussianBlur stdDeviation="25.5207"/>
<feColorMatrix type="matrix" values="0 0 0 0 0.419608 0 0 0 0 0.129412 0 0 0 0 0.658824 0 0 0 1 0"/>
<feBlend mode="normal" in2="effect3_dropShadow_1191_5598" result="effect4_dropShadow_1191_5598"/>
<feColorMatrix in="SourceAlpha" type="matrix" values="0 0 0 0 0 0 0 0 0 0 0 0 0 0 0 0 0 0 127 0" result="hardAlpha"/>
<feOffset/>
<feGaussianBlur stdDeviation="43.7498"/>
<feColorMatrix type="matrix" values="0 0 0 0 0.419608 0 0 0 0 0.129412 0 0 0 0 0.658824 0 0 0 1 0"/>
<feBlend mode="normal" in2="effect4_dropShadow_1191_5598" result="effect5_dropShadow_1191_5598"/>
<feColorMatrix in="SourceAlpha" type="matrix" values="0 0 0 0 0 0 0 0 0 0 0 0 0 0 0 0 0 0 127 0" result="hardAlpha"/>
<feOffset/>
<feGaussianBlur stdDeviation="76.5621"/>
<feColorMatrix type="matrix" values="0 0 0 0 0.419608 0 0 0 0 0.129412 0 0 0 0 0.658824 0 0 0 1 0"/>
<feBlend mode="normal" in2="effect5_dropShadow_1191_5598" result="effect6_dropShadow_1191_5598"/>
<feBlend mode="normal" in="SourceGraphic" in2="effect6_dropShadow_1191_5598" result="shape"/>
</filter>
<clipPath id="clip0_1191_5598">
<rect width="407" height="407" fill="white" transform="translate(51 278)"/>
</clipPath>
</defs>
</svg>
