<?xml version="1.0" encoding="UTF-8"?>
<svg id="Layer_2" data-name="Layer 2" xmlns="http://www.w3.org/2000/svg" viewBox="0 0 334.25 93.88">
  <defs>
    <style>
      .cls-1 {
        fill: #e5be26;
      }

      .cls-1, .cls-2 {
        fill-rule: evenodd;
      }
    </style>
  </defs>
  <g id="Layer_5" data-name="Layer 5">
    <g id="logo">
      <path class="cls-1" d="M47.11,0c14.54.07,28.9,7.24,37.66,19.1,8.52,11.54,11.36,27.09,7.31,41.01-3.91,13.44-14.11,24.86-27.1,30.26-14.06,5.85-30.96,4.33-43.81-4.13C10.02,78.9,2.23,66.67.42,53.39-1.6,38.7,3.79,23.18,14.65,12.88,23.22,4.77,34.81.06,46.81,0c.1,0,.2,0,.3,0ZM46.82,5.23c-12.89.06-25.52,6.36-33.31,16.78-9,12.04-10.9,29.12-4.18,43.06,5.63,11.67,16.93,20.45,29.73,22.91,13.03,2.5,27.14-1.62,36.79-10.87,11.28-10.82,15.84-28.23,10.66-43.51-5.52-16.3-21.74-28.28-39.42-28.36-.09,0-.18,0-.27,0ZM30.33,48.13c-.2-2.97.38-5.99,1.72-8.65,2.75-5.44,8.54-9.12,14.79-9.18.07,0,.14,0,.22,0,2.41.02,4.79.61,6.96,1.64l-.63,1.1c-1.82-.84-3.8-1.33-5.81-1.42v4.24c4.92.31,9.39,4.14,10.32,9.01.6,3.11-.24,6.46-2.17,8.96l-.96-1c1.58-2.16,2.35-4.94,1.87-7.59-.79-4.41-4.82-7.99-9.49-8.09-.08,0-.17,0-.25,0-1.96.02-3.87.68-5.47,1.8l-.96-1c.56-.41,1.15-.77,1.79-1.07,1.28-.6,2.68-.94,4.09-1.02v-4.24c-5.37.24-10.49,3.45-13,8.2-2.21,4.19-2.33,9.44-.29,13.74,2.28,4.8,7.21,8.17,12.56,8.7v1.34c-.57-.04-1.15-.12-1.72-.22-5.13-.95-9.71-4.46-11.98-9.17-.74-1.53-1.22-3.18-1.46-4.86l-4.21.42c.35,2.63,1.18,5.2,2.49,7.51,5.26,9.27,18.18,13.62,28.3,8.04,5.14-2.84,8.99-7.91,10.31-13.62.26-1.11.41-2.24.48-3.38h1.29c-.2,3.36-1.14,6.67-2.8,9.6-3.71,6.53-10.99,10.8-18.65,11.16v3.25c10.4-.33,20.38-7.57,23.55-17.97,1.89-6.2,1.29-13.1-1.65-18.87-.6-1.18-1.3-2.3-2.08-3.37l2.04-1.65c.88,1.18,1.66,2.44,2.34,3.76,4.63,9.03,3.86,20.56-2.1,28.94-6.17,8.67-17.55,13.35-28.2,11.27-5.88-1.15-11.27-4.34-15.31-8.79l1.98-1.61c4.63,4.99,11.27,8.16,18.21,8.3v-3.23c-3.41-.03-6.86-.84-10.07-2.59-5.54-3.01-9.69-8.46-11.09-14.6-1.13-4.98-.39-10.3,1.88-14.88l1.06.61c-.08.16-.15.31-.23.47-1.51,3.23-2.13,6.85-1.86,10.41l4.21-.42ZM37.79,23.33c-3.03,1.17-5.83,2.91-8.2,5.13-7.76,7.27-10.31,19.55-5.57,29.45.66,1.38,1.45,2.69,2.36,3.92l-1.97,1.6c-2.68-3.62-4.53-7.88-5.19-12.46-.81-5.66.15-11.56,2.74-16.66,4.61-9.07,14.32-15.21,24.69-15.33.12,0,.24,0,.36,0,7.77.04,15.39,3.53,20.66,9.27l-2.04,1.66c-4.72-5.07-11.52-8.24-18.47-8.32-.11,0-.22,0-.33,0-2.69.01-5.36.47-7.9,1.31l.96,2.99c2.23-.74,4.57-1.14,6.91-1.16.07,0,.14,0,.22,0,8.42.04,16.54,5.24,20.09,12.84,1.15,2.47,1.82,5.15,1.99,7.86h-1.32c-.32-3.78-1.65-7.49-3.84-10.61l-3.48,2.4c.52.71.98,1.46,1.38,2.24,2.29,4.54,2.34,10.15.13,14.73-2.48,5.14-7.75,8.74-13.49,9.34v-1.28c.45-.04.91-.11,1.36-.19,6.27-1.2,11.48-6.7,12.33-13.04.65-4.85-1.18-9.96-4.77-13.3-.48-.45-1-.87-1.54-1.25l.63-1.09c1.18.82,2.25,1.79,3.19,2.88l3.52-2.42c-1.05-1.33-2.27-2.53-3.63-3.56-3.53-2.67-7.93-4.17-12.35-4.23-.11,0-.23,0-.34,0-6.79.03-13.36,3.62-17.2,9.14l-1.1-.63c1.39-2.1,3.13-3.96,5.18-5.48,1.53-1.13,3.22-2.06,4.99-2.76l-.96-2.99ZM38.4,39.95l.91.95c-.98,1.2-1.69,2.62-2,4.16-.63,3.2.44,6.67,2.78,8.95,2.71,2.65,7.01,3.53,10.58,2.07.74-.3,1.44-.71,2.07-1.19l.93.96c-3.05,2.27-7.31,2.91-10.92,1.44-3.56-1.46-6.25-4.88-6.81-8.69-.45-3.06.53-6.25,2.46-8.65Z"/>
    </g>
    <g id="ai">
      <path class="cls-2" d="M167.4,67.48h-8.18V25.68h8.18v41.81ZM154.8,67.48h-8.6l-3.34-9.26h-12.84l-3.17,9.26h-8.18l15.05-42.1h6.03l15.05,42.1ZM136.7,35.77h-.3l-1.25,6.63-3.05,9.26h8.96l-3.11-9.32-1.25-6.57Z"/>
    </g>
    <g id="at-ucf">
      <path class="cls-2" d="M206.75,59.72c-.6.84-1.24,1.65-1.94,2.45-.7.8-1.46,1.5-2.3,2.12-.84.62-1.75,1.1-2.75,1.46s-2.09.54-3.28.54c-.96,0-1.87-.21-2.75-.63s-1.63-1.01-2.27-1.76c-.64-.76-1.14-1.67-1.52-2.75-.38-1.07-.57-2.27-.57-3.58,0-2.47.4-4.87,1.19-7.2.8-2.33,1.88-4.39,3.25-6.18,1.37-1.79,2.97-3.23,4.78-4.33s3.73-1.64,5.76-1.64c1.39,0,2.57.21,3.52.63.96.42,1.83.97,2.63,1.64l1.85-1.91h4.18l-2.87,16.18c-.32,1.87-.33,3.22-.03,4.06.3.84.97,1.25,2,1.25s2.05-.24,3.05-.72c1-.48,1.89-1.21,2.69-2.21s1.44-2.25,1.94-3.76c.5-1.51.75-3.3.75-5.37,0-2.99-.5-5.53-1.49-7.64s-2.36-3.85-4.09-5.23c-1.73-1.37-3.77-2.38-6.12-3.02-2.35-.64-4.88-.96-7.58-.96-3.11,0-5.99.56-8.66,1.67s-4.99,2.65-6.96,4.6c-1.97,1.95-3.51,4.27-4.63,6.96-1.11,2.69-1.67,5.6-1.67,8.75s.47,5.89,1.4,8.36,2.3,4.57,4.09,6.3c1.79,1.74,4.01,3.07,6.66,4,2.65.94,5.68,1.4,9.11,1.4,1.15,0,2.47-.13,3.94-.42,1.47-.28,2.81-.7,4-1.25l1.85,5.73c-1.63.8-3.29,1.36-4.99,1.67-1.69.32-3.63.49-5.82.49-3.86,0-7.43-.56-10.72-1.67-3.28-1.12-6.13-2.78-8.54-4.97-2.41-2.19-4.29-4.9-5.64-8.15-1.35-3.24-2.03-7-2.03-11.26s.78-8.26,2.33-11.76c1.55-3.5,3.64-6.49,6.27-8.96,2.63-2.47,5.67-4.37,9.14-5.7,3.46-1.33,7.13-2,10.99-2,3.66,0,7.07.53,10.21,1.58,3.15,1.06,5.87,2.57,8.18,4.54,2.31,1.97,4.12,4.38,5.43,7.23,1.31,2.85,1.97,6.08,1.97,9.7,0,2.55-.45,4.94-1.34,7.17s-2.13,4.16-3.7,5.79-3.4,2.93-5.49,3.88c-2.09.96-4.33,1.43-6.72,1.43-1,0-1.92-.11-2.78-.33-.86-.22-1.57-.59-2.15-1.1-.58-.52-1.01-1.19-1.28-2.03-.28-.84-.36-1.87-.24-3.11h-.24ZM304.39,65.75c-1.27.92-2.9,1.57-4.87,1.97-1.97.4-3.99.6-6.06.6-2.51,0-4.89-.39-7.14-1.16-2.25-.78-4.23-2.03-5.94-3.76s-3.08-3.98-4.09-6.75c-1.02-2.77-1.52-6.12-1.52-10.06s.57-7.53,1.7-10.3c1.13-2.77,2.61-5,4.42-6.69,1.81-1.69,3.83-2.91,6.06-3.64,2.23-.74,4.46-1.1,6.69-1.1,2.39,0,4.41.16,6.06.48,1.65.32,3.02.7,4.09,1.13l-1.61,6.93c-.92-.44-2-.76-3.25-.96s-2.78-.3-4.57-.3c-3.3,0-5.96,1.17-7.97,3.52-2.01,2.35-3.02,5.99-3.02,10.93,0,2.15.24,4.11.72,5.88.48,1.77,1.2,3.28,2.18,4.54.98,1.25,2.19,2.23,3.64,2.93,1.45.7,3.14,1.05,5.05,1.05,1.79,0,3.3-.18,4.54-.54,1.23-.36,2.31-.82,3.22-1.37l1.67,6.69ZM261.34,25.68h7.76v26.99c0,2.71-.36,5.04-1.07,6.99-.72,1.95-1.71,3.56-2.99,4.84-1.27,1.27-2.83,2.21-4.66,2.81-1.83.59-3.84.9-6.03.9-10.59,0-15.89-4.84-15.89-14.52v-28.01h8.18v26.4c0,1.63.15,3.02.45,4.15.3,1.13.77,2.05,1.4,2.75s1.43,1.19,2.39,1.49c.96.3,2.07.45,3.34.45,2.51,0,4.32-.7,5.43-2.09,1.11-1.39,1.67-3.64,1.67-6.75v-26.4ZM334.25,32.96h-16.6v10.33h15.29v7.29h-15.29v16.9h-8.18V25.68h24.78v7.29ZM208.6,45.8c-.52-.44-1.06-.78-1.61-1.02s-1.25-.36-2.09-.36c-1.19,0-2.3.34-3.31,1.02s-1.89,1.55-2.63,2.63-1.3,2.28-1.7,3.61c-.4,1.33-.6,2.64-.6,3.91s.27,2.39.81,3.22c.54.84,1.46,1.25,2.78,1.25.56,0,1.15-.17,1.79-.51.64-.34,1.25-.79,1.85-1.34.6-.56,1.17-1.19,1.73-1.91.56-.72,1.06-1.47,1.49-2.27l1.49-8.24Z"/>
    </g>
  </g>
</svg>