<?xml version="1.0" encoding="UTF-8"?>
<svg id="Layer_2" data-name="Layer 2" xmlns="http://www.w3.org/2000/svg" viewBox="0 0 496.28 74.32">
  <defs>
    <style>
      .cls-1 {
        fill: #f4c92a;
      }
    </style>
  </defs>
  <g id="Layer_5" data-name="Layer 5">
    <path d="M68.69,6.23v66.98c0,.41-1.17.58-1.58.47V6.23h1.58Z"/>
    <g>
      <path d="M246.17,68.64h-5.37v-11.19c0-2.67-4.1-3.77-5.52-1.73-.22.31-.79,2.09-.79,2.36v10.56h-5.37v-11.19c0-2.67-4.1-3.77-5.52-1.73-.22.31-.79,2.09-.79,2.36v10.56h-5.37v-18.6h5.37c.11,0-.08,1.91,0,2.21,2.18-2.33,5.2-3.31,8.3-2.14,1,.38,2.42,2.2,2.87,2.12.28-.05,1.17-1.18,1.67-1.5,1.96-1.25,5.79-1.49,7.8-.32.9.53,2.73,2.93,2.73,3.89v14.34Z"/>
      <path d="M255.96,66.44v7.88h-5.37v-24.27h5.37c.11,0-.08,1.91,0,2.21,8.26-7.31,17.42,1.78,13.95,11.25-2.15,5.86-9.69,7.51-13.95,2.94ZM259.34,54.53c-4.56.95-4.36,8.96.26,9.68,7.49,1.16,7.16-11.22-.26-9.68Z"/>
      <path d="M178.51,43.82c4.4-.63,9.33.12,12.37,3.59.06.36-2.94,3.91-3.61,3.91-.29,0-3.18-2.21-5.13-2.45-10.4-1.27-10.62,16.11.05,15.01,2.21-.23,5.1-2.75,5.41-2.74.28,0,3.06,3.14,3.62,3.57-5.32,6.03-15.63,5.9-20.46-.68-5.24-7.14-1.38-18.88,7.76-20.19Z"/>
      <path d="M201.25,49.81c16.52-2.39,16.67,21.3-.06,19.12-10.48-1.37-10.73-17.56.06-19.12ZM202.18,54.53c-5.64,1.16-4.35,11.05,2.63,9.56,5.64-1.21,4.16-10.96-2.63-9.56Z"/>
      <path d="M327.64,61.08h-12.95c.99,4.44,6.15,4.32,9,1.63,1.71,1.95,4.44,1.99,1.57,4.35-5.79,4.75-15.6,1.01-16.22-6.81-1.12-14.27,20.78-14.07,18.59.83ZM322.27,57.61c-.65-4.72-6.99-4.66-7.58,0h7.58Z"/>
      <g>
        <path d="M153.64,43.11v25.53h-5.37c-.11,0,.08-1.91,0-2.21-4.36,4.75-11.96,2.64-13.8-3.4-2.83-9.31,5.48-17.59,13.81-11.1v-8.83h5.37ZM146.9,55.51c-.28-.28-1.32-.9-1.7-.99-7.76-1.74-7.59,11.69.24,9.56,3.16-.86,3.66-6.36,1.46-8.57Z"/>
        <path d="M108.48,68.64h-5.37c-.09,0,.2-1.41-.16-1.57-4.86,4.07-13.03,1.97-11.77-5.44.82-4.83,8.28-5.07,11.92-3.7-.27-5.1-5.83-3.4-9.17-2.65l-1.24-4.26c4.23-1.65,11.64-2.7,14.46,1.77.41.64,1.31,3.1,1.31,3.73v12.14ZM103.08,61.11c-.54-.64-6.06-1.07-6.54,1.14-.87,4.05,5.32,3.45,6.33.95.18-.45.45-1.81.21-2.09Z"/>
        <path d="M130.27,68.64h-5.37v-11.19c0-.08-.56-1.36-.67-1.53-1.04-1.55-4.14-1.66-5.16-.2-.22.31-.79,2.09-.79,2.36v10.56h-5.37v-18.6h5.37c.11,0-.21,1.95.16,2.2,2.29-2.91,7.42-3.62,10.12-.96.41.41,1.73,2.56,1.73,3.01v14.34Z"/>
      </g>
      <path d="M279.64,50.05v10.56c0,.39.61,2.15.94,2.53.99,1.13,3.76,1.13,4.75,0,.33-.38.94-2.14.94-2.53v-10.56h5.37v18.6h-5.37c-.11,0,.08-1.91,0-2.21-2.32,2.86-7.57,3.68-10.23.91-.4-.41-1.77-2.87-1.77-3.28v-14.03h5.37Z"/>
      <path d="M302.38,45v4.73h4.42v5.04h-4.42v7.72c0,2.39,2.98,1.64,4.42,1.1-.15,1.21.21,2.79,0,3.94-.32,1.74-5.31,1.62-6.64,1.27-1.17-.31-3.15-2.32-3.15-3.48v-10.56c0-.11-2.21.11-2.21,0v-5.04c.43-.07,2.11.11,2.21,0,.24-.24-.45-4.73.47-4.73h4.89Z"/>
      <path d="M342.8,49.73v5.67c-2.59-.14-4.72.99-5.47,3.52-.11.37-.53,2.39-.53,2.62v7.09h-5.37v-18.6h5.37c.03.78-.04,1.58,0,2.37.02.36-.21.86.31.78.82-2.51,3.09-3.77,5.69-3.46Z"/>
      <g>
        <path d="M371.83,50.98c-2.31-1.1-5.83-3.23-8.5-2.03-1.22.55-1.59,2.32-.44,3.27,2.93,2.42,11.27,1.48,12.09,7.47,1.31,9.48-8.67,11.08-15.56,7.96-.83-.37-3.2-1.73-3.53-2.47-.26-.58,2.61-3.48,3.17-4.09,1.72,2.27,8.27,4.24,10.13,1.9,1.04-1.31.32-2.19-.91-2.93-3.64-2.19-10.56-1.49-11.52-7.1-1.77-10.39,11.58-11.53,17.6-6.21l-2.55,4.21Z"/>
        <path d="M427.43,61.08h-12.95c.99,4.44,6.15,4.32,9,1.63,1.71,1.95,4.44,1.99,1.57,4.35-5.79,4.75-15.6,1.01-16.22-6.81-1.12-14.27,20.78-14.07,18.59.83ZM422.07,57.61c-.65-4.72-6.99-4.66-7.58,0h7.58Z"/>
        <path d="M448.59,68.64h-5.37v-11.19c0-.08-.56-1.36-.67-1.53-1.04-1.55-4.14-1.66-5.16-.2-.22.31-.79,2.09-.79,2.36v10.56h-5.37v-18.6h5.37c.11,0-.21,1.95.16,2.2,2.29-2.91,7.42-3.62,10.12-.96.41.41,1.73,2.56,1.73,3.01v14.34Z"/>
        <path d="M385.99,49.81c3.45-.5,7.36-.02,9.53,2.96.04.25-2.71,3.51-3.02,3.56-.33.06-1.85-1.41-2.69-1.66-7.82-2.27-8.33,10.76-.44,9.54,1.1-.17,3-1.82,3.18-1.82.27,0,2.77,2.86,3.31,3.26-6.44,7.11-18.75,2.5-17.64-7.53.43-3.93,3.82-7.73,7.78-8.3Z"/>
        <g>
          <path d="M489.96,61.08h-12.95c.99,4.44,6.15,4.32,9,1.63,1.71,1.95,4.44,1.99,1.57,4.35-5.79,4.75-15.6,1.01-16.22-6.81-1.12-14.27,20.78-14.07,18.59.83ZM484.59,57.61c-.65-4.72-6.99-4.66-7.58,0h7.58Z"/>
          <path d="M459.89,49.81c3.45-.5,7.36-.02,9.53,2.96.04.25-2.71,3.51-3.02,3.56-.33.06-1.85-1.41-2.69-1.66-7.82-2.27-8.33,10.76-.44,9.54,1.1-.17,3-1.82,3.18-1.82.27,0,2.77,2.86,3.31,3.26-6.44,7.11-18.75,2.5-17.64-7.53.43-3.93,3.82-7.73,7.78-8.3Z"/>
        </g>
        <rect x="399.33" y="50.05" width="5.37" height="18.6"/>
        <rect x="399.01" y="43.11" width="6" height="4.73"/>
      </g>
    </g>
    <g>
      <path d="M350.38,30.98c-.05.33-.78,2.06-.99,2.48-2.98,6.01-12.41,4.82-17.63,2.7-.02-1.63,1.23-2.87,1.57-4.39,4.21,2.13,12.48,3.25,11.52-3.78-3.49,4.3-10.99,3.06-13.28-1.88-4.19-9.04,5.95-17.61,13.28-10.42.37-.26.05-2.2.16-2.2h5.37v17.49ZM343.96,18.95c-3.54-3.52-10.38.87-6.84,5.41,3.58,4.58,11.07-1.2,6.84-5.41Z"/>
      <path d="M202.27,30.98c-.05.33-.78,2.06-.99,2.48-2.98,6.01-12.41,4.82-17.63,2.7-.02-1.63,1.23-2.87,1.57-4.39,4.21,2.13,12.48,3.25,11.52-3.78-3.49,4.3-10.99,3.06-13.28-1.88-4.19-9.04,5.95-17.61,13.28-10.42.37-.26.05-2.2.16-2.2h5.37v17.49ZM195.85,18.95c-3.54-3.52-10.38.87-6.84,5.41s11.07-1.2,6.84-5.41Z"/>
      <path d="M305.22,7.49v4.57s-.44.47-.47.47h-12.79v4.73h11.68v4.57s-.44.47-.47.47h-11.21v4.73h13.11s.47.44.47.47v4.57h-18.95V7.49h18.63Z"/>
      <g>
        <path d="M101.77,7.26c4.4-.63,9.33.12,12.37,3.59.06.36-2.94,3.91-3.61,3.91-.29,0-3.18-2.21-5.13-2.45-10.4-1.27-10.62,16.11.05,15.01,2.21-.23,5.1-2.75,5.41-2.74.28,0,3.06,3.14,3.62,3.57-5.32,6.03-15.63,5.9-20.46-.68-5.24-7.14-1.38-18.88,7.76-20.19Z"/>
        <path d="M124.83,13.25c16.52-2.39,16.67,21.3-.06,19.12-10.48-1.37-10.73-17.56.06-19.12ZM125.76,17.97c-5.64,1.16-4.35,11.05,2.63,9.56,5.64-1.21,4.16-10.96-2.63-9.56Z"/>
      </g>
      <path d="M246.09,13.25c16.52-2.39,16.67,21.3-.06,19.12-10.48-1.37-10.73-17.56.06-19.12ZM247.03,17.97c-5.64,1.16-4.35,11.05,2.63,9.56,5.64-1.21,4.16-10.96-2.63-9.56Z"/>
      <path d="M179.54,24.52h-12.95c.99,4.44,6.15,4.32,9,1.63,1.71,1.95,4.44,1.99,1.57,4.35-5.79,4.75-15.6,1.01-16.22-6.81-1.12-14.27,20.78-14.07,18.59.83ZM174.17,21.05c-.65-4.72-6.99-4.66-7.58,0h7.58Z"/>
      <path d="M224.69,24.52h-12.95c.99,4.44,6.15,4.32,9,1.63,1.71,1.95,4.44,1.99,1.57,4.35-5.79,4.75-15.6,1.01-16.22-6.81-1.12-14.27,20.78-14.07,18.59.83ZM219.33,21.05c-.65-4.72-6.99-4.66-7.58,0h7.58Z"/>
      <path d="M405.01,24.52h-12.95c.99,4.44,6.15,4.32,9,1.63,1.71,1.95,4.44,1.99,1.57,4.35-5.79,4.75-15.6,1.01-16.22-6.81-1.12-14.27,20.78-14.07,18.59.83ZM399.64,21.05c-.65-4.72-6.99-4.66-7.58,0h7.58Z"/>
      <path d="M426.49,24.52h-12.95c.99,4.44,6.15,4.32,9,1.63,1.71,1.95,4.44,1.99,1.57,4.35-5.79,4.75-15.6,1.01-16.22-6.81-1.12-14.27,20.78-14.07,18.59.83ZM421.12,21.05c-.65-4.72-6.99-4.66-7.58,0h7.58Z"/>
      <path d="M382.91,32.08h-5.37v-11.19c0-.08-.56-1.36-.67-1.53-1.04-1.55-4.14-1.66-5.16-.2-.22.31-.79,2.09-.79,2.36v10.56h-5.37V13.48h5.37c.11,0-.21,1.95.16,2.2,2.29-2.91,7.42-3.62,10.12-.96.41.41,1.73,2.56,1.73,3.01v14.34Z"/>
      <path d="M327.01,32.08h-5.37v-11.19c0-.08-.56-1.36-.67-1.53-1.04-1.55-4.14-1.66-5.16-.2-.22.31-.79,2.09-.79,2.36v10.56h-5.37V13.48h5.37c.11,0-.21,1.95.16,2.2,2.29-2.91,7.42-3.62,10.12-.96.41.41,1.73,2.56,1.73,3.01v14.34Z"/>
      <g>
        <path d="M496.28,30.98c-.05.33-.78,2.06-.99,2.48-2.98,6.01-12.41,4.82-17.63,2.7-.02-1.63,1.23-2.87,1.57-4.39,4.21,2.13,12.48,3.25,11.52-3.78-3.49,4.3-10.99,3.06-13.28-1.88-4.19-9.04,5.95-17.61,13.28-10.42.37-.26.05-2.2.16-2.2h5.37v17.49ZM489.85,18.95c-3.54-3.52-10.38.87-6.84,5.41s11.07-1.2,6.84-5.41Z"/>
        <path d="M472.91,32.08h-5.37v-11.19c0-.08-.56-1.36-.67-1.53-1.04-1.55-4.14-1.66-5.16-.2-.22.31-.79,2.09-.79,2.36v10.56h-5.37V13.48h5.37c.11,0-.21,1.95.16,2.2,2.29-2.91,7.42-3.62,10.12-.96.41.41,1.73,2.56,1.73,3.01v14.34Z"/>
      </g>
      <path d="M273.01,6.55v4.73c-2.33-.56-4.78-1-4.42,2.21h4.42v4.41h-4.42v14.18h-5.37v-14.18c0-.11-2.21.11-2.21,0v-4.41c3.21.25,1.9-.13,2.21-2.36.78-5.52,5.25-5.33,9.79-4.57Z"/>
      <rect x="141.01" y="6.55" width="5.37" height="25.53"/>
      <rect x="151.75" y="6.55" width="5.37" height="25.53"/>
      <path d="M441.64,13.17v5.67c-2.59-.14-4.72.99-5.47,3.52-.11.37-.53,2.39-.53,2.62v7.09h-5.37V13.48h5.37c.03.78-.04,1.58,0,2.37.02.36-.21.86.31.78.82-2.51,3.09-3.77,5.69-3.46Z"/>
      <rect x="355.12" y="13.48" width="5.37" height="18.6"/>
      <rect x="445.12" y="13.48" width="5.37" height="18.6"/>
      <rect x="444.8" y="6.55" width="6" height="4.73"/>
      <rect x="354.8" y="6.55" width="6" height="4.73"/>
    </g>
    <g>
      <path class="cls-1" d="M40.27,26.41l-1.74,5.04c-1.66,3.79-4.22,7.16-7.41,9.78.12-1.01.87-1.79,1.17-2.77,2.6-8.56-7.8-13.12-12.15-18.82,2.71-4.31,5.84-8.2,11.47-7.74.85.07,3.45,1.06,3.6.95.14-.1.51-2.13,1.27-2.2,0,2.32,2.57,8.89,1.73,10.71-.25.55-2.74,2.4-2.99,2.21-.41-1.58-1.68-4.75-3.65-4.72-2.16.03-2.03,6.72,2.54,6.31,1.29-.12,3.42-1.68,4.41-2.54.6-.52,1.43-1.89,1.74-2.06.68-.37,2.59,1.85,2.84,2.55-.26,2.39-.12,4.86-.31,7.24-.11,1.34-.22,4.57-.94,5.37-.83.93-2.4.9-3.48,1.41-.26-.35.59-5.12,2.21-4.1.24-.52-.32-1.19-.32-1.42v-5.2Z"/>
      <path class="cls-1" d="M29.22.25l-5.99,1.73c-7.45,3.87-10.32,10.15-4.73,17.32,5.07,6.51,18.82,12.07,11.52,21.91-.03-1.29.57-2.16.45-3.58-.47-5.73-7.54-7.07-11.75-9.4-6.67-3.69-11.83-10.39-9.36-18.36C11.77,2.01,21.8-.92,29.22.25Z"/>
      <path class="cls-1" d="M12.8,3.72c-8.38,8.07-4.97,18.76,4.21,24.32,5.14,3.11,17.24,5.5,11.1,13.81.16-1.56.28-2.68-.65-4.08-1.98-2.97-12.65-4.53-16.78-6.9C-1.27,24.01.87,8.99,12.8,3.72Z"/>
      <path class="cls-1" d="M26.06,43.11c.53-4.38-6.51-3.38-9.59-3.82-5.15-.75-11.46-2.91-14-7.77C.22,27.23,0,20.74,1.9,16.32c-.3,8.57,4.32,13.66,11.94,16.76,3.03,1.23,6.29,1.64,9.22,2.77,3.38,1.3,6.1,3.87,3,7.26Z"/>
      <path class="cls-1" d="M4.27,35.55c.22-.21,2.84,1.6,3.35,1.85,2.13,1.02,5.26,2.15,7.58,2.52,2.54.41,7.26-.02,9.2.9,1.7.81,1.24,3.02-.43,3.83-5.82,2.79-14.36-2.38-18.12-6.75-.25-.29-1.81-2.14-1.59-2.35Z"/>
      <path class="cls-1" d="M27.95,5.92l-2.21,1.41-.63,1.74c-.72-.45-.69-1.59-1.41-2.21-.51-.44-1.09-.61-1.75-.62.37-.69,1.43-.62,2.03-1.27.4-.44.67-1.29.81-1.87l1.41,2.21,1.74.63Z"/>
    </g>
    <g>
      <path d="M3.64,53.83v9.3c0,.68,1.09,2.29,1.88,2.54,6.63,2.07,3.19-8.35,4.17-11.32.31-.94,2.61-.38,3.43-.52v10.56c0,1.02-1.67,3.13-2.62,3.69-4.25,2.52-9.69.53-10.29-4.67-.19-1.66-.31-7.29-.03-8.79.26-1.38,2.44-.6,3.47-.79Z"/>
      <path d="M36.48,57.3v2.52h6.47c.7,0,.7,3.47,0,3.47h-6.47v5.2c0,.72-2.84.43-3.47.47v-15.13h10.89c.7,0,.7,3.47,0,3.47h-7.42Z"/>
      <path d="M21.11,58.03c-3.08,3.1-.46,9.18,4.55,7.53,2.26-.74,1.96-2.48,4.17,1-5.46,5.33-14.43,1.7-13.56-6.27.7-6.5,9.43-8.8,13.57-4.1-.66.32-1.61,2.25-2.08,2.35-.34.07-1.3-.98-1.89-1.22-1.56-.63-3.52-.54-4.76.71Z"/>
    </g>
  </g>
</svg>