<svg xmlns="http://www.w3.org/2000/svg" viewBox="0 0 873.33 437.63"><defs><style>.cls-1{fill:#fff;}.cls-2{fill:#f1c31b;}.cls-3{fill:#090b0b;}.cls-4{fill:#949599;}.cls-5{fill:#c7c8c9;}</style></defs><title>GDK_Logo_Color_1_1</title><g id="Layer_2" data-name="Layer 2"><g id="Layer_1-2" data-name="Layer 1"><polygon class="cls-1" points="529.51 196.1 521.56 161.28 493.78 119.81 510.76 67.09 525.33 63.99 526.5 60.29 534.6 58.37 544.56 35.13 548.38 51.19 556.8 32.19 561.55 52.27 567.73 50.88 609.86 88.34 614.55 110.29 605.11 111.95 605.84 116.2 590.99 114.95 589.98 109.65 554.9 106.53 604.25 135.12 631.22 143.71 643.2 164.26 667.62 139.38 687.08 139.97 693.35 150.84 701.13 149.63 724.52 162.78 614.52 187.09 537.29 196.1 529.51 196.1"/><path class="cls-1" d="M556.22,38.44l3.84,16.22,7.11-1.61L608,89.4l4.12,19.28-9.36,1.64.63,3.67-10.76-.9-1-5.3-45.56-4.05L603.43,137l26.45,8.42,12.91,22.15,25.64-26.12,17.47.53L692.31,153l8.45-1.31L719,162,614.19,185.12l-77,9H531.1l-7.67-33.62L496,119.5l16.33-50.69,14.57-3.11L528.06,62l8-1.9,8-18.61,3.8,16,8.41-19M557.38,26l-4.81,10.86L549,45l-1.05-4.41-2.8-11.77L540.33,39.9l-7.18,16.75-6,1.43-2.2.53-.69,2.16-.48,1.5-12.3,2.63-2.26.48-.71,2.2-16.33,50.69-.59,1.84,1.08,1.61,27,40.37,7.5,32.9.71,3.11h9.5l.23,0,77-9,.2,0,.2,0,104.79-23.16,10.23-2.26-9.13-5.13-18.22-10.25-1.21-.68-1.37.21-5.74.9-5-8.71L688.25,138l-2.23-.07-17.47-.53-1.75,0-1.22,1.25-22,22.38-10.27-17.63-.78-1.33-1.46-.46-26-8.29-41.35-24,24.59,2.19.44,2.33.57,3,3,.25,10.76.91,5.15.43-.83-4.84,5.44-.95,4.08-.72-.86-4.06L612,88.57l-.27-1.28-1-.87L569.83,50.06,568.3,48.7l-2,.45-3.25.73-2.92-12.37L557.38,26Z"/><polygon class="cls-1" points="336.04 196.1 258.81 187.09 148.81 162.78 172.2 149.63 179.98 150.84 186.26 139.97 205.72 139.38 230.13 164.26 242.11 143.71 269.09 135.12 318.43 106.53 283.36 109.65 282.34 114.95 267.49 116.2 268.23 111.95 258.78 110.29 263.47 88.34 305.6 50.88 311.78 52.27 316.53 32.19 324.95 51.19 328.78 35.13 338.74 58.37 346.83 60.29 348 63.99 362.58 67.09 379.55 119.81 351.77 161.28 343.83 196.1 336.04 196.1"/><path class="cls-1" d="M317.11,38.44l8.42,19,3.79-16,8,18.61,8,1.9,1.18,3.72L361,68.81l16.32,50.69-27.45,41-7.67,33.62h-6.07l-77-9L154.35,162l18.23-10.25L181,153l6.4-11.08,17.47-.53,25.64,26.12,12.91-22.15L269.9,137l57.34-33.22-45.57,4.05-1,5.3-10.76.9.64-3.67-9.37-1.64,4.12-19.28,40.87-36.35,7.11,1.61,3.84-16.22M316,26l-2.73,11.56-2.93,12.37L307,49.15l-2-.45-1.54,1.36L262.63,86.42l-1,.87-.27,1.28-4.12,19.27-.87,4.06,4.09.72,5.44.95-.84,4.84,5.16-.43,10.76-.91,3-.25.57-3,.45-2.33,24.59-2.19-41.35,24-26,8.29-1.47.46-.77,1.33L229.73,161l-22-22.38-1.23-1.25-1.75,0-17.47.53-2.23.07L184,139.94l-5,8.71-5.75-.9-1.37-.21-1.2.68-18.23,10.25-9.12,5.13,10.22,2.26L258.28,189l.2,0,.2,0,77,9,.24,0h9.49l.71-3.11,7.51-32.9,27-40.37,1.07-1.61-.59-1.84L364.83,67.58l-.7-2.2-2.27-.48-12.3-2.63-.48-1.5-.68-2.16-2.2-.53-6-1.43L333,39.9l-4.77-11.12-2.8,11.77L324.38,45l-3.61-8.15L316,26Z"/><polygon class="cls-2" points="526.88 65.7 512.31 68.81 495.98 119.5 523.43 160.48 526.88 65.7"/><polygon class="cls-3" points="544.58 69.76 536.04 60.08 528.06 61.98 512.31 111.71 531.1 194.1 537.18 194.1 546.1 103.74 535.47 95.39 544.58 69.76"/><polygon class="cls-4" points="544.01 41.47 547.81 57.42 563.19 71.28 546.1 103.74 544.58 69.76 536.04 60.08 544.01 41.47"/><polygon class="cls-4" points="546.1 103.74 603.43 136.96 610.72 169.58 555.97 147.97 546.1 103.74"/><polygon class="cls-3" points="547.81 57.42 556.22 38.44 560.06 54.66 567.17 53.05 608.04 89.4 588.24 93.87 547.81 57.42"/><polygon class="cls-4" points="563.19 71.28 582.45 66.64 597.79 80.28 588.24 93.87 563.19 71.28"/><polygon class="cls-3" points="603.43 136.96 629.88 145.38 642.79 167.53 668.43 141.41 685.9 141.94 692.3 153.02 700.76 151.71 718.98 161.96 614.19 185.12 603.43 136.96"/><polygon class="cls-3" points="546.1 103.74 588.24 93.87 591.66 107.79 546.1 103.74"/><polygon class="cls-3" points="608.04 89.4 592.67 113.09 603.43 113.99 602.8 110.32 612.16 108.68 608.04 89.4"/><polygon class="cls-2" points="563.19 71.28 571.87 69.19 578.82 75.45 570.14 77.55 563.19 71.28"/><polygon class="cls-2" points="346.45 65.7 361.03 68.81 377.35 119.5 349.9 160.48 346.45 65.7"/><polygon class="cls-3" points="328.75 69.76 337.3 60.08 345.27 61.98 361.03 111.71 342.23 194.1 336.16 194.1 327.24 103.74 337.87 95.39 328.75 69.76"/><polygon class="cls-4" points="329.32 41.47 325.53 57.42 310.15 71.28 327.24 103.74 328.75 69.76 337.3 60.08 329.32 41.47"/><polygon class="cls-4" points="327.24 103.74 269.9 136.96 262.62 169.58 317.36 147.97 327.24 103.74"/><polygon class="cls-3" points="325.53 57.42 317.11 38.44 313.27 54.66 306.16 53.05 265.29 89.4 285.09 93.87 325.53 57.42"/><polygon class="cls-4" points="310.15 71.28 290.88 66.64 275.55 80.28 285.09 93.87 310.15 71.28"/><polygon class="cls-3" points="269.9 136.96 243.45 145.38 230.54 167.53 204.9 141.41 187.43 141.94 181.03 153.02 172.58 151.71 154.35 161.96 259.15 185.12 269.9 136.96"/><polygon class="cls-3" points="327.24 103.74 285.09 93.87 281.67 107.79 327.24 103.74"/><polygon class="cls-3" points="265.29 89.4 280.66 113.09 269.9 113.99 270.54 110.32 261.17 108.68 265.29 89.4"/><polygon class="cls-2" points="310.15 71.28 301.46 69.19 294.52 75.45 303.2 77.55 310.15 71.28"/><path class="cls-2" d="M677,190.29c-13.81,0-22.72-7-23-13.57-.1-2,.52-8.56,12.65-9.78,41.69-4.21,58-27.14,70.68-62.77l2-5.58,1.79,5.65a68.15,68.15,0,0,1,1.12,30.94c-3,15.6-13.22,37-44.82,50.58A51.79,51.79,0,0,1,677,190.29Z"/><path class="cls-1" d="M739.21,104.84s17,53.54-42.59,79.09A49.93,49.93,0,0,1,677,188.29c-21.27,0-29.45-17.42-10.19-19.36,42.83-4.32,59.56-28.23,72.37-64.09m.22-12.5-4,11.16c-12.46,34.9-28.35,57.35-69,61.45-11,1.11-14.7,6.86-14.45,11.87.38,7.61,9.85,15.47,25,15.47a53.69,53.69,0,0,0,21.16-4.69c32.41-13.89,42.91-36,46-52A70.76,70.76,0,0,0,743,103.63l-3.59-11.29Z"/><path class="cls-2" d="M707,180.36c-18.5,0-39.75-3.2-63.16-9.5l.67-3.93s2.54.19,6.82.19c27.87,0,120.35-7.42,140.1-102.92l1-5,2.63,4.41c5.42,9.09,9.66,47.22-7.07,76.7C773.2,166.5,745.17,180.36,707,180.36Z"/><path class="cls-1" d="M793.43,64.61C801.49,78.1,810.81,178.36,707,178.36c-17.48,0-38.17-2.85-62.64-9.43,0,0,2.55.19,7,.19,26.67,0,121.88-6.94,142.06-104.51M791.6,53.73,789.52,63.8c-19.45,94-110.66,101.32-138.15,101.32-4.19,0-6.64-.18-6.67-.18l-1.34,7.85c23.58,6.35,45,9.57,63.68,9.57,20.94,0,38.88-4,53.32-12a74.94,74.94,0,0,0,29.46-29.1c9.65-17,11.93-35.19,12.15-47.46.23-13-1.87-25.83-5.1-31.25l-5.27-8.83Z"/><path class="cls-2" d="M761.71,204.92c-.31-.07-30.93-6.83-61.09-14.24-62.63-15.38-62.39-18.26-62.18-20.81s3.89-2.84,5.86-2.94c4.61-.23,9-.35,13.47-.35,5.39,0,10.05.17,14.56.33,4.18.14,8.13.28,12.38.28,9.06,0,21.35-.57,43.88-4.78,76.23-14.27,117.1-93.55,120.71-142.64L850,10l3.17,9.31c.43,1.28,10.56,31.73,4.65,70.06a138.62,138.62,0,0,1-24.86,61c-16.25,22.36-39.8,40.69-70,54.46l-.61.28Z"/><path class="cls-1" d="M851.3,19.92s41.9,123.28-89.16,183c0,0-147.51-32.53-117.74-34,5-.26,9.38-.35,13.36-.35,10.34,0,18,.61,27,.61,10.75,0,23.25-.89,44.25-4.82C809.43,149.32,847.88,66.26,851.3,19.92M848.75,0l-1.44,19.62c-3.57,48.47-43.89,126.75-119.08,140.82-22.38,4.19-34.56,4.75-43.52,4.75-4.21,0-8.15-.14-12.31-.28-4.52-.16-9.2-.33-14.63-.33-4.49,0-8.93.12-13.57.35-2.21.11-7.38.37-7.75,4.77-.34,4,4.25,5.85,7.6,7.18s8,2.85,14.06,4.66c10.13,3,24.27,6.72,42,11.08C730.33,200,761,206.8,761.28,206.87l1.3.29,1.22-.56c30.53-13.92,54.35-32.46,70.8-55.1a140.75,140.75,0,0,0,25.22-61.86c6-38.82-4.3-69.71-4.74-71L848.75,0Z"/><path class="cls-2" d="M732.23,231.9C684,231.9,624.82,216.11,556.3,185a47,47,0,0,1-6.23-2.87l1.85-3.54,5.93,2.72a62.81,62.81,0,0,0,22.37,4.2,57.72,57.72,0,0,0,27.33-6.87c17.36-9.22,31.82-13,49.93-13,18.38,0,41.1,3.84,76,12.82a104.91,104.91,0,0,0,26.06,3.35c63.86,0,106.48-61.42,106.91-62l4.28-6.28-.64,7.57c-.09,1.13-2.53,28.08-20.73,55.45a116.49,116.49,0,0,1-41.47,38.12C786.92,226.08,761.47,231.9,732.23,231.9Z"/><path class="cls-1" d="M868.08,120.87s-9.14,109-135.85,109c-43.25,0-100.2-12.71-175.15-46.77a64.94,64.94,0,0,0,23.14,4.35,59.55,59.55,0,0,0,28.27-7.11c15.49-8.23,29.52-12.75,49-12.75,18.37,0,41.59,4,75.48,12.75a106.1,106.1,0,0,0,26.55,3.42c65.71,0,108.57-62.92,108.57-62.92m-317,59.5c2,.94,4,1.85,6,2.76a45.36,45.36,0,0,1-6-2.76m322.25-74.32-8.56,12.57a169.88,169.88,0,0,1-29.06,30.78c-16.73,13.87-43.53,30.39-76.2,30.39A102.77,102.77,0,0,1,734,176.5c-35.05-9-57.93-12.88-76.48-12.88s-33.2,3.83-50.87,13.22a55.65,55.65,0,0,1-26.39,6.64,61.05,61.05,0,0,1-21.59-4l-5.87-2.69-3.7,7.07a48.26,48.26,0,0,0,6.47,3c68.76,31.24,128.21,47.08,176.7,47.08,29.58,0,55.36-5.9,76.6-17.53A118.49,118.49,0,0,0,851,177.6c18.48-27.79,21-55.24,21.07-56.39l1.26-15.16Z"/><path class="cls-2" d="M743.31,262.08c-51.64,0-114.45-26.19-186.69-77.84L552,180.91l5.75-.3h.12c.68,0,3.49.17,11,2.31a66.81,66.81,0,0,0,18.63,3,47.75,47.75,0,0,0,15.92-2.75c12.2-4.24,22.35-6.13,32.91-6.13,22.27,0,45.93,9.14,72.32,27.92a90,90,0,0,0,53.23,16.77c45.63,0,86.15-30.4,86.55-30.7l5.36-4.07-2.27,6.33c-.25.71-6.35,17.46-22.76,34.44C813.56,243.41,786.46,262.08,743.31,262.08Z"/><path class="cls-1" d="M636.27,179.06c19.09,0,41.84,6.69,71.16,27.55a91.9,91.9,0,0,0,54.39,17.14c46.83,0,87.76-31.11,87.76-31.11s-24.09,67.44-106.27,67.44c-43.71,0-103.83-19.06-185.52-77.47h.06c.41,0,3,.1,10.41,2.23a69,69,0,0,0,19.18,3.1A49.81,49.81,0,0,0,604,185.08c9.78-3.4,20.3-6,32.25-6m0-4c-10.79,0-21.14,1.93-33.56,6.24a46,46,0,0,1-15.27,2.64A65.12,65.12,0,0,1,569.36,181c-7.51-2.16-10.55-2.39-11.51-2.39h-.28l-11,.85,8.86,6.4c72.58,51.9,135.79,78.22,187.85,78.22,19.32,0,37.13-3.67,52.94-10.9a111.64,111.64,0,0,0,33.89-24c16.7-17.28,23-34.43,23.21-35.15l4.52-12.68-10.71,8.15c-.4.3-40.46,30.29-85.34,30.29a88,88,0,0,1-52.07-16.4c-26.74-19-50.78-28.29-73.48-28.29Z"/><path class="cls-2" d="M739.21,282.3c-54.48,0-120.82-32.19-197.17-95.68l-1.79-1.48,1.73-1.55c.15-.14,3.79-3.31,11.47-3.31a32.4,32.4,0,0,1,4.62.35c3.23.47,6.86,1.37,11.06,2.42,8.21,2,18.42,4.57,29.38,4.57,2.16,0,4.31-.1,6.38-.3,1.78-.16,3.59-.25,5.37-.25,27.44,0,50,19.35,71.85,38.05,6.66,5.71,12.95,11.1,19.26,15.83C712.59,249.36,732.5,254,757.44,254c25.66,0,48.61-4.74,57.17-9.19l6.65-3.46-4,6.31C816.31,249.07,794.38,282.3,739.21,282.3Z"/><path class="cls-1" d="M553.45,182.28a30.3,30.3,0,0,1,4.34.33c9.56,1.4,24.08,7,40.72,7q3.24,0,6.57-.3c1.74-.17,3.47-.25,5.18-.25,35,0,63,33.29,89.91,53.48C713.4,252.47,735.68,256,757.44,256c24.69,0,48.71-4.54,58.09-9.42,0,0-21.61,33.72-76.32,33.72-43,0-106.43-20.82-195.9-95.22,0,0,3.13-2.8,10.14-2.8m0-4c-8.3,0-12.37,3.43-12.8,3.82l-3.46,3.09,3.57,3c41.53,34.54,80.66,60.14,116.29,76.08,29.75,13.31,57.4,20.06,82.16,20.06,29.29,0,49.31-9.55,60.95-17.56,12.76-8.79,18.5-17.63,18.74-18L827,236.11,813.69,243c-8.47,4.41-31.83,9-56.25,9s-44-4.49-54.87-12.65c-6.26-4.7-12.52-10.06-19.16-15.75-21.08-18.06-45-38.53-73.15-38.53-1.85,0-3.72.09-5.56.26-2,.19-4.09.29-6.19.29-10.71,0-20.8-2.5-28.9-4.51-4.25-1.06-7.93-2-11.25-2.46a33.56,33.56,0,0,0-4.91-.37Z"/><path class="cls-2" d="M689.66,301.59c-53.67,0-95.92-19.42-121.91-35.71-28.17-17.65-43.43-35-44.06-35.78l-.74-.85.34-1.07c.59-1.83,14.57-44.66,36.64-44.66.39,0,.78,0,1.17,0a139.91,139.91,0,0,1,91,43.85c49,51.88,100.7,55.91,115.39,55.91,2.33,0,3.62-.11,3.63-.11l15.72-1.3-14.89,5.19C744.3,296.71,716.63,301.59,689.66,301.59Z"/><path class="cls-1" d="M559.93,185.52c.34,0,.69,0,1,0,24.71,1.69,60.23,12.07,89.65,43.24,49.72,52.68,102.48,56.53,116.84,56.53,2.46,0,3.8-.11,3.8-.11-29.43,10.25-56.72,14.38-81.59,14.38-103,0-164.46-70.8-164.46-70.8s13.87-43.27,34.73-43.27m0-4c-10.21,0-19.85,8-28.68,23.67a135,135,0,0,0-9.86,22.37l-.69,2.15,1.48,1.7c.64.74,16.08,18.35,44.51,36.17a240.16,240.16,0,0,0,52.58,24.75,225.67,225.67,0,0,0,70.39,11.26c27.19,0,55.09-4.92,82.9-14.61l30-10.43-31.61,2.67s-1.24.1-3.46.1c-14.49,0-65.52-4-113.93-55.28a143,143,0,0,0-47.92-33.6,137.52,137.52,0,0,0-44.37-10.88c-.43,0-.87,0-1.3,0Z"/><path class="cls-2" d="M674.35,302.46c-40.73,0-95-7-122.26-40.19C536.26,243,531.47,217,537.82,185.12l.12-.57.4-.42c.23-.23,5.71-5.87,15.76-5.87,13.3,0,35,10.08,62.71,58.05C648,290.18,693.48,296,711.61,296a68.79,68.79,0,0,0,8.85-.51l.44-.06.63,3.94-.52.08A349.41,349.41,0,0,1,674.35,302.46Z"/><path class="cls-1" d="M554.1,180.26c12.8,0,33.74,9.92,61,57.06C646.48,291.63,692,298,711.61,298a68.87,68.87,0,0,0,9.12-.53,349.58,349.58,0,0,1-46.38,3c-60.1,0-154.41-15.36-134.56-114.94,0,0,5-5.26,14.31-5.26M721.2,297.4l-.47.07.47-.07M554.1,176.26c-10.89,0-17,6.23-17.21,6.49l-.8.84-.23,1.14c-6.48,32.52-1.54,59,14.68,78.81,27.75,33.82,82.65,40.92,123.81,40.92a353,353,0,0,0,46.94-3l.56-.08-1.26-7.9-.41.06a65.7,65.7,0,0,1-8.57.49c-17.78,0-62.45-5.72-93.07-58.69-12.49-21.61-24.88-37.52-36.83-47.29-9.54-7.8-18.83-11.76-27.61-11.76Z"/><path class="cls-2" d="M196.31,190.29a51.75,51.75,0,0,1-20.38-4.53c-31.6-13.54-41.82-35-44.83-50.58a68.32,68.32,0,0,1,1.12-30.94l1.8-5.65,2,5.58c12.73,35.63,29,58.56,70.68,62.77,12.14,1.22,12.76,7.79,12.66,9.78-.33,6.53-9.23,13.57-23,13.57Z"/><path class="cls-1" d="M134.13,104.84c12.8,35.86,29.54,59.77,72.36,64.09,19.26,1.94,11.08,19.36-10.18,19.36a49.89,49.89,0,0,1-19.59-4.36c-59.62-25.55-42.59-79.09-42.59-79.09m-.22-12.5-3.59,11.29a70.43,70.43,0,0,0-1.18,31.93c3.1,16.08,13.59,38.15,46,52a53.7,53.7,0,0,0,21.17,4.69c15.18,0,24.65-7.86,25-15.47.25-5-3.42-10.76-14.46-11.87-40.64-4.1-56.53-26.55-69-61.45l-4-11.16Z"/><path class="cls-2" d="M166.29,180.36c-38.13,0-66.15-13.87-81-40.09-16.73-29.48-12.49-67.6-7.06-76.69l2.63-4.41,1,5C101.61,159.7,194.09,167.12,222,167.12c4.28,0,6.79-.19,6.81-.19l.67,3.93c-23.41,6.3-44.65,9.5-63.15,9.5Z"/><path class="cls-1" d="M79.9,64.61C100.09,162.18,195.29,169.12,222,169.12c4.42,0,7-.19,7-.19-24.46,6.58-45.15,9.43-62.64,9.43C62.52,178.36,71.85,78.1,79.9,64.61m1.84-10.88-5.27,8.83c-3.24,5.42-5.33,18.27-5.1,31.25.21,12.27,2.5,30.46,12.15,47.46A75,75,0,0,0,113,170.37c14.44,8,32.38,12,53.32,12,18.68,0,40.1-3.22,63.68-9.57l-1.34-7.85s-2.48.18-6.66.18c-27.5,0-118.7-7.31-138.15-101.32L81.74,53.73Z"/><path class="cls-2" d="M110.37,204.78c-30.21-13.77-53.77-32.1-70-54.46a138.63,138.63,0,0,1-24.87-61C9.58,51,19.71,20.55,20.15,19.27L23.31,10,24,19.77c3.62,49.09,44.48,128.37,120.71,142.64,22.54,4.22,34.83,4.78,43.88,4.78,4.25,0,8.2-.14,12.38-.28,4.51-.16,9.17-.33,14.57-.33,4.45,0,8.86.12,13.46.35,2,.1,5.64.28,5.86,2.94s.46,5.43-62.18,20.81c-30.16,7.41-60.78,14.17-61.08,14.24l-.65.14Z"/><path class="cls-1" d="M22,19.92c3.41,46.34,41.86,129.4,122.33,144.45,21,3.93,33.5,4.82,44.25,4.82,8.91,0,16.61-.61,26.95-.61,4,0,8.37.09,13.36.35,29.78,1.5-117.73,34-117.73,34C-19.86,143.2,22,19.92,22,19.92M24.58,0,18.25,18.63c-.44,1.3-10.72,32.19-4.73,71A140.63,140.63,0,0,0,38.74,151.5c16.45,22.64,40.27,41.18,70.8,55.1l1.21.56,1.31-.29c.3-.07,30.94-6.84,61.13-14.25,17.76-4.36,31.9-8.09,42-11.08,6.09-1.81,10.83-3.37,14.06-4.66s7.93-3.15,7.59-7.18c-.36-4.4-5.54-4.66-7.75-4.77-4.64-.23-9.07-.35-13.56-.35-5.43,0-10.11.17-14.64.33-4.16.14-8.09.28-12.31.28-9,0-21.14-.56-43.51-4.75C69.91,146.37,29.6,68.09,26,19.62L24.58,0Z"/><path class="cls-2" d="M141.1,231.9c-29.24,0-54.69-5.82-75.64-17.29A116.47,116.47,0,0,1,24,176.49C5.8,149.12,3.36,122.17,3.26,121l-.63-7.57,4.28,6.28c.42.62,43,62,106.9,62h0a104.84,104.84,0,0,0,26.05-3.35c34.89-9,57.61-12.82,76-12.82,18.1,0,32.56,3.77,49.92,13a57.63,57.63,0,0,0,27.33,6.87,63,63,0,0,0,22.37-4.2c2-.89,3.94-1.8,5.93-2.72l1.86,3.54A47.57,47.57,0,0,1,317,185c-68.52,31.14-127.71,46.93-175.92,46.93Z"/><path class="cls-1" d="M5.26,120.87s42.85,62.92,108.56,62.92a106.1,106.1,0,0,0,26.55-3.42c33.89-8.72,57.11-12.75,75.49-12.75,19.46,0,33.49,4.52,49,12.75a59.58,59.58,0,0,0,28.27,7.11,65,65,0,0,0,23.15-4.35c-75,34.06-131.91,46.77-175.16,46.77-126.71,0-135.84-109-135.84-109m317,59.5a46.18,46.18,0,0,1-6,2.76c2-.91,4-1.82,6-2.76M0,106.05l1.27,15.16c.1,1.15,2.58,28.6,21.06,56.39A118.57,118.57,0,0,0,64.5,216.37c21.25,11.63,47,17.53,76.6,17.53,48.5,0,108-15.84,176.71-47.08a49,49,0,0,0,6.47-3l-3.71-7.07-5.86,2.69a61.11,61.11,0,0,1-21.6,4,55.71,55.71,0,0,1-26.39-6.64c-17.67-9.39-32.4-13.21-50.86-13.22s-41.43,3.85-76.48,12.88a102.91,102.91,0,0,1-25.56,3.29c-32.75,0-59.6-16.6-76.37-30.53A169.43,169.43,0,0,1,8.56,118.62L0,106.05Z"/><path class="cls-2" d="M130,262.08c-43.16,0-70.26-18.68-85.4-34.34-16.4-17-22.51-33.72-22.76-34.43L19.61,187,25,191.05c.41.3,41,30.7,86.56,30.7A89.93,89.93,0,0,0,164.74,205c26.4-18.78,50.06-27.92,72.33-27.92,10.55,0,20.7,1.89,32.9,6.13a47.75,47.75,0,0,0,15.92,2.75,66.82,66.82,0,0,0,18.64-3c7.47-2.14,10.28-2.31,11-2.31h.17l5.7.3-4.65,3.33c-72.23,51.65-135,77.84-186.67,77.84Z"/><path class="cls-1" d="M237.07,179.06c12,0,22.46,2.62,32.24,6a49.89,49.89,0,0,0,16.58,2.86,69,69,0,0,0,19.19-3.1c7.44-2.13,10-2.23,10.41-2.23h.06C233.86,241,173.73,260.08,130,260.08c-82.19,0-106.28-67.44-106.28-67.44s40.93,31.11,87.77,31.11a91.86,91.86,0,0,0,54.38-17.14c29.32-20.86,52.08-27.55,71.17-27.55m0-4c-22.7,0-46.74,9.26-73.49,28.29a88,88,0,0,1-52.06,16.4c-45,0-84.95-30-85.35-30.29l-10.71-8.15L20,194c.26.72,6.5,17.87,23.21,35.15a111.64,111.64,0,0,0,33.89,24c15.8,7.23,33.61,10.9,52.94,10.9,52.06,0,115.26-26.32,187.85-78.22l8.95-6.4-11.07-.85h-.27c-1,0-4,.23-11.52,2.39a65.06,65.06,0,0,1-18.08,2.94,45.94,45.94,0,0,1-15.26-2.64c-12.42-4.31-22.77-6.23-33.56-6.24Z"/><path class="cls-2" d="M134.12,282.3c-55.17,0-77.1-33.23-78-34.64l-4-6.31,6.65,3.46c8.57,4.45,31.52,9.19,57.17,9.19,24.94,0,44.86-4.64,56.07-13.05,6.32-4.73,12.6-10.12,19.26-15.83,21.84-18.7,44.41-38.05,71.86-38.05,1.78,0,3.59.09,5.36.25,2.08.2,4.22.3,6.38.3,11,0,21.18-2.54,29.39-4.57,4.2-1.05,7.83-2,11.05-2.42a32.54,32.54,0,0,1,4.63-.35c7.68,0,11.31,3.17,11.46,3.31l1.73,1.55-1.78,1.48C255,250.11,188.61,282.3,134.12,282.3Z"/><path class="cls-1" d="M319.89,182.28c7,0,10.13,2.8,10.13,2.8-89.46,74.4-152.9,95.22-195.9,95.22-54.71,0-76.32-33.72-76.32-33.72,9.38,4.88,33.4,9.42,58.09,9.42,21.76,0,44-3.53,57.27-13.45,26.92-20.19,54.94-53.48,89.92-53.48,1.71,0,3.43.08,5.18.25q3.33.3,6.56.3c16.64,0,31.17-5.61,40.73-7a30.2,30.2,0,0,1,4.34-.33m0-4h0a33.7,33.7,0,0,0-4.92.37c-3.32.49-7,1.4-11.25,2.46-8.1,2-18.18,4.51-28.9,4.51-2.09,0-4.18-.1-6.19-.29-1.84-.17-3.71-.26-5.55-.26-28.19,0-52.08,20.47-73.16,38.53-6.63,5.69-12.9,11.05-19.16,15.75C159.89,247.51,140.4,252,115.89,252s-47.77-4.56-56.24-9l-13.31-6.92,8.09,12.63c.24.37,6,9.21,18.75,18,11.63,8,31.65,17.56,60.94,17.56,24.77,0,52.41-6.75,82.16-20.06,35.63-15.94,74.76-41.54,116.3-76.08l3.56-3-3.45-3.09c-.44-.39-4.51-3.82-12.8-3.82Z"/><path class="cls-2" d="M183.68,301.59c-27,0-54.65-4.88-82.25-14.49l-14.9-5.19,15.72,1.3s1.31.11,3.63.11c14.69,0,66.43-4,115.39-55.91a139.93,139.93,0,0,1,91-43.85c.39,0,.78,0,1.16,0,22.07,0,36.06,42.83,36.64,44.66l.35,1.07-.74.85c-.64.73-15.89,18.13-44.06,35.78C279.6,282.17,237.35,301.59,183.68,301.59Z"/><path class="cls-1" d="M313.4,185.52c20.87,0,34.74,43.27,34.74,43.27s-61.48,70.8-164.46,70.8c-24.87,0-52.16-4.13-81.59-14.38,0,0,1.33.11,3.79.11,14.37,0,67.12-3.85,116.85-56.53,29.41-31.17,64.93-41.55,89.64-43.24l1,0m0-4h0c-.43,0-.87,0-1.3,0a137.48,137.48,0,0,0-44.36,10.88A142.91,142.91,0,0,0,219.82,226c-48.41,51.29-99.45,55.28-113.94,55.28-2.22,0-3.45-.1-3.46-.1l-31.24-2.55L100.77,289c27.82,9.69,55.71,14.61,82.91,14.61a225.61,225.61,0,0,0,70.38-11.26,240.24,240.24,0,0,0,52.59-24.75c28.42-17.82,43.86-35.43,44.51-36.17l1.47-1.7-.68-2.15a135.94,135.94,0,0,0-9.87-22.37c-8.82-15.71-18.47-23.67-28.67-23.67Z"/><path class="cls-2" d="M199,302.46a349.51,349.51,0,0,1-46.65-3l-.52-.08.63-3.94.44.06a68.73,68.73,0,0,0,8.84.51c18.13,0,63.67-5.82,94.8-59.69,27.74-48,49.41-58.05,62.71-58.05,10,0,15.54,5.64,15.77,5.87l.4.42.11.57c6.36,31.91,1.56,57.86-14.26,77.15C294,295.49,239.72,302.46,199,302.46Z"/><path class="cls-1" d="M319.23,180.26c9.31,0,14.32,5.26,14.32,5.26C353.4,285.1,259.09,300.46,199,300.46a349.91,349.91,0,0,1-46.38-3,69.16,69.16,0,0,0,9.12.53c19.62,0,65.14-6.37,96.54-60.68,27.24-47.14,48.17-57.06,61-57.06M152.14,297.4l.46.07-.46-.07M319.23,176.26c-8.78,0-18.06,4-27.6,11.76-11.95,9.77-24.34,25.68-36.84,47.29-30.61,53-75.28,58.69-93.07,58.69a65.63,65.63,0,0,1-8.56-.49l-.42-.06-1.26,7.9.57.08a352.77,352.77,0,0,0,46.93,3c41.17,0,96.06-7.1,123.82-40.92C339,243.76,344,217.25,337.47,184.73l-.22-1.14-.81-.84c-.25-.26-6.31-6.49-17.21-6.49Z"/><path class="cls-3" d="M435.84,435.06c-1.53-.7-37.87-17.83-83.53-89.34-34.16-53.51-37-102.51-35.58-127V171.11c-.2-4.62,3.07-8.68,7.29-9l18.08-1.24c1.27-.08,2.36-.2,3.35-.36,22.06-3.67,52.39-12.13,71.61-31.6a75.29,75.29,0,0,0,14.13-20.48L436.67,97l5.47,11.43a75.07,75.07,0,0,0,14.13,20.48c19.22,19.47,49.54,27.93,71.6,31.6,1,.16,2.08.28,3.34.36l18.09,1.24c4.22.29,7.49,4.35,7.29,9.05v47.53c1.38,24.48-1.41,73.48-35.58,127-45.66,71.51-82,88.64-83.52,89.34l-.83.37Z"/><path class="cls-1" d="M436.67,101.66l3.67,7.66a77.44,77.44,0,0,0,14.5,21c18.57,18.81,47.67,28,72.71,32.16a34.83,34.83,0,0,0,3.54.39l18.08,1.23c3.16.22,5.58,3.33,5.43,7v47.67c1.08,19.06.71,69.51-35.26,125.86-45.87,71.83-82.67,88.6-82.67,88.6s-36.81-16.77-82.67-88.6c-36-56.35-36.35-106.8-35.27-125.86V171.11c-.15-3.65,2.27-6.76,5.43-7l18.08-1.23a35.47,35.47,0,0,0,3.54-.39c25-4.16,54.13-13.35,72.7-32.16a77.25,77.25,0,0,0,14.51-21l3.67-7.66m0-9.26-3.61,7.53-3.67,7.66a73.1,73.1,0,0,1-13.75,20c-18.84,19.09-48.74,27.41-70.51,31a30.51,30.51,0,0,1-3.13.33l-18.11,1.24c-5.35.37-9.35,5.21-9.15,11.05v47.48c-1.39,24.74,1.46,74.18,35.9,128.12,46,72,82.83,89.38,84.38,90.09l1.66.75,1.66-.75c1.54-.71,38.4-18.08,84.38-90.09C557.15,292.85,560,243.41,558.6,218.67V171.19c.2-5.84-3.81-10.68-9.16-11.05l-18.08-1.23c-1.21-.08-2.24-.19-3.16-.34-21.76-3.62-51.67-11.94-70.51-31a73.32,73.32,0,0,1-13.75-20l-3.66-7.66-3.61-7.53Z"/><path class="cls-2" d="M436.67,121.77l3.29,6.74A68.23,68.23,0,0,0,453,147c16.68,16.53,42.81,24.6,65.3,28.26,1.06.17,2.12.27,3.18.34l16.24,1.09c2.84.19,5,2.92,4.88,6.13V224.7c1,16.75.64,61.08-31.68,110.61-41.2,63.13-74.26,77.86-74.26,77.86s-33.06-14.73-74.26-77.86c-32.32-49.53-32.65-93.86-31.68-110.61V182.81c-.13-3.21,2-5.94,4.88-6.13l16.24-1.09c1.07-.07,2.13-.17,3.18-.34,22.49-3.66,48.63-11.73,65.31-28.26a68,68,0,0,0,13-18.48l3.3-6.74m0-9.1-3.6,7.34-3.29,6.74a63.57,63.57,0,0,1-12.26,17.39c-16.85,16.7-43.63,24-63.13,27.16a27.57,27.57,0,0,1-2.78.3l-16.27,1.08c-4.94.34-8.78,4.9-8.61,10.2v41.7c-1.25,21.82,1.32,65.39,32.33,112.91,41.37,63.39,74.59,78.71,76,79.33l1.63.73,1.63-.73c1.39-.62,34.61-15.94,76-79.33,31-47.52,33.57-91.09,32.33-112.91v-41.7c.18-5.3-3.66-9.86-8.61-10.2l-16.24-1.08a27.28,27.28,0,0,1-2.81-.3c-19.5-3.17-46.28-10.46-63.13-27.16a63.76,63.76,0,0,1-12.25-17.39l-3.3-6.74-3.59-7.34Z"/></g><g id="Layer_6" data-name="Layer 6"><polygon class="cls-4" points="641.11 397.95 649.32 353.97 753.42 387.7 712.89 398 727.36 426.5 641.11 397.95"/><path class="cls-1" d="M650.87,356.58l95.35,30.89-31.4,8L710,396.68l2.26,4.45,11.13,21.95-80-26.48,7.48-40m-3.1-5.21-8.95,47.93,92.52,30.63-15.53-30.61,44.82-11.39L647.77,351.37Z"/><polygon class="cls-3" points="656.79 291.71 751.78 361.98 640.39 396.71 656.79 291.71"/><path class="cls-1" d="M658.26,295.28l89.16,66-104.55,32.6,15.39-98.56m-2.93-7.15L637.92,399.58l118.22-36.87L655.33,288.13Z"/><polygon class="cls-4" points="159.54 398 119.01 387.7 223.11 353.97 231.33 397.95 145.08 426.5 159.54 398"/><path class="cls-1" d="M221.57,356.58l7.47,40-80,26.48,11.14-21.95,2.26-4.45-4.84-1.23-31.4-8,95.35-30.89m3.09-5.21L111.81,387.93l44.82,11.39L141.1,429.93l92.52-30.63-9-47.93Z"/><polygon class="cls-3" points="120.67 361.98 215.7 292.09 232.04 396.71 120.67 361.98"/><path class="cls-1" d="M214.23,295.65l15.34,98.19L125,361.25l89.19-65.6m2.94-7.12L116.3,362.71l118.21,36.87-17.34-111Z"/><path class="cls-4" d="M436.22,327.21,116.07,360.73a.1.1,0,0,1-.09-.06.09.09,0,0,1,0-.11l.06-.1,35.71-71.32a5.35,5.35,0,0,1,3.26-2.2l281.2-43.11,281.2,43.11a5.38,5.38,0,0,1,3.26,2.2l35.7,71.32.07.1s0,.05,0,.11-.06.06-.08.06Z"/><path class="cls-1" d="M436.22,245.86,717,288.9a3.38,3.38,0,0,1,1.92,1.27l34.14,68.2L436.63,325.24l-.41,0-.42,0L119.34,358.37l34.14-68.2a3.39,3.39,0,0,1,1.91-1.27l280.83-43m0-4.05L154.65,285a7.37,7.37,0,0,0-4.62,3.16l-35.71,71.33a2.11,2.11,0,0,0,1.75,3.27l.23,0,319.92-33.49,319.92,33.49.23,0a2.11,2.11,0,0,0,1.75-3.27l-35.71-71.33a7.41,7.41,0,0,0-4.63-3.16L436.22,241.81Z"/><path class="cls-3" d="M200,290.31c-2.5,5.08-3.74,7.63-6.23,12.71-8.91,1.73-13.37,2.63-22.27,4.51-2.84,2.69-4.27,4-7.16,6.74-3,5.58-4.49,8.37-7.49,14,.4,2,.61,3,1,5,5.68-1.21,8.52-1.79,14.2-2.93l3.23-6.38c-4.55.91-6.82,1.38-11.37,2.33,2.7-5.13,4-7.7,6.74-12.82,8-1.68,12-2.48,19.95-4l-15.57,31.8q-14,2.69-27.89,5.68c-1-4.51-1.53-6.78-2.38-11.31l13.64-24.71c6.62-6.2,9.89-9.27,16.31-15.4C184.83,293.29,189.88,292.26,200,290.31Z"/><path class="cls-3" d="M197.87,302.73c6.21-6,9.26-9,15.28-14.9,6.54-1.2,9.82-1.77,16.37-2.88,1.29,4.65,2,7,3.48,11.6l-15.43,37.09c-3.78.61-5.67.92-9.45,1.56,2.17-5,3.26-7.55,5.44-12.58-7.38,1.25-11.07,1.9-18.45,3.25l-5.89,12.65c-3.78.69-5.67,1-9.44,1.76Zm13-2.91c-2.67,2.61-4,3.91-6.71,6.52l-3.2,6.87c7.2-1.32,10.8-1.95,18-3.16l2.95-6.83c-.63-2-.93-3-1.52-5.07C216.62,298.81,214.71,299.14,210.91,299.82Z"/><path class="cls-3" d="M242.94,302.79q-5.58,14.32-11.18,28.63c-3.79.57-5.68.87-9.46,1.46q10.2-25,20.41-50.09l6.06-.94c1.87,5.79,2.88,8.68,5,14.46,7-7.1,10.4-10.63,17.09-17.64l6.06-.81q-8.4,24.79-16.81,49.57c-3.79.5-5.68.75-9.47,1.27q5.07-14.25,10.15-28.48c-5.35,5.46-8.07,8.2-13.6,13.71C245.43,309.48,244.57,307.25,242.94,302.79Z"/><path class="cls-3" d="M278.24,313.31c11.1-1.32,16.66-1.93,27.77-3-1.28,4.91-1.91,7.37-3.19,12.28q-19,1.86-37.92,4.26,8.18-24.76,16.36-49.51,17.14-2.08,34.31-3.86c-1.28,4.91-1.91,7.37-3.19,12.28-10.57,1-15.85,1.61-26.41,2.87L284,294.79c8.91-1.07,13.37-1.56,22.29-2.47L303,304.61c-9.15.93-13.72,1.44-22.86,2.53Z"/><path class="cls-3" d="M367.08,269.48c2.82,4.87,4.28,7.31,7.29,12.2L371.32,305c-4.53,5.26-6.84,7.9-11.57,13.2q-14,.76-28.08,1.87,5-24.43,10-48.87C351.83,270.39,356.91,270.05,367.08,269.48Zm-2.29,17.72c-1.3-2.14-1.94-3.21-3.2-5.34-5.45.32-8.17.5-13.6.88l-4.55,24.4c5.72-.4,8.58-.58,14.3-.92,2-2.33,3.06-3.49,5.07-5.82C363.6,295.12,364,292.48,364.79,287.2Z"/><path class="cls-3" d="M385.16,304.87c11.13-.43,16.7-.58,27.83-.78-.23,4.85-.35,7.27-.58,12.12q-19,.35-38,1.21,3-24.32,5.93-48.62,17.21-.71,34.39-1.09c-.23,4.85-.35,7.28-.58,12.13-10.59.19-15.88.34-26.47.74-.25,2.43-.37,3.65-.63,6.08,8.94-.35,13.41-.48,22.35-.67l-.7,12.13c-9.16.19-13.74.33-22.9.68C385.54,301.23,385.41,302.45,385.16,304.87Z"/><path class="cls-3" d="M419,267.64c3.44-.05,5.16-.06,8.6-.09-.2,9.9-.29,14.86-.49,24.76,3.38,4.62,5.11,6.93,8.66,11.57h.78c3.56-4.64,5.29-7,8.68-11.58-.17-9.9-.26-14.85-.44-24.76,3.44,0,5.16,0,8.6.09q.54,14.89,1.09,29.79c-5.38,7.41-8.18,11.12-14,18.58-3.48,0-5.22,0-8.7,0-5.79-7.46-8.58-11.17-13.94-18.57Z"/><path class="cls-3" d="M485.91,286.64c4.61-7.08,6.82-10.61,11-17.65l6.08.31c.5,3.44.74,5.17,1.24,8.61-3.62,6-5.51,9.08-9.44,15.15,5.43,6.49,8.22,9.75,13.95,16.3.5,3.44.74,5.17,1.24,8.61l-6.72-.35c-6.65-7.57-9.88-11.34-16.12-18.83-2.91-.11-4.36-.17-7.26-.26l1.6,18.21c-3.8-.13-5.7-.19-9.51-.28l-3.36-48.53c3.44.09,5.16.14,8.6.25l1.6,18.21C481.66,286.48,483.08,286.53,485.91,286.64Z"/><path class="cls-3" d="M519.46,290.87q2.4,14,4.78,27.94c-3.8-.24-5.69-.36-9.49-.58l-7.44-48.69,6.08.36q12.47,14.94,25.51,29.4l-5.82-28c3.44.27,5.16.41,8.59.71q5.52,24.47,11.05,48.95l-6.71-.56Q532.48,305.86,519.46,290.87Z"/><path class="cls-3" d="M567,322.22c-3.8-.36-5.7-.53-9.49-.87q-5.76-24.5-11.51-49c3.44.3,5.15.46,8.59.79Q560.74,297.69,567,322.22Z"/><path class="cls-3" d="M593.15,277.45c1.64,4.95,2.47,7.43,4.12,12.38-8.95-1.14-13.43-1.67-22.38-2.64-1,2.07-1.46,3.11-2.46,5.19,1.5,5.34,2.24,8,3.74,13.35,2.3,2.43,3.46,3.64,5.81,6.08,5.71.63,8.56,1,14.27,1.64-.78-2.47-1.17-3.7-1.94-6.18-4.57-.54-6.86-.81-11.43-1.32-1.45-4.93-2.17-7.39-3.61-12.32,8,.89,12,1.37,20.05,2.39q5.16,15.48,10.3,31-14-1.8-28-3.28c-5.4-5.55-8.05-8.31-13.24-13.82-2.47-9.4-3.7-14.1-6.16-23.51,2.34-4.76,3.45-7.13,5.59-11.88C577.93,275.57,583,276.16,593.15,277.45Z"/><path class="cls-3" d="M617.14,310.22l6.69,18.64c-3.79-.52-5.68-.78-9.47-1.27L597.43,278c3.43.45,5.15.68,8.57,1.15,2.68,7.46,4,11.19,6.69,18.64,7.12,1,10.68,1.5,17.8,2.58-2.94-7.49-4.41-11.24-7.36-18.74,3.43.52,5.14.79,8.56,1.33q10.26,25.07,20.53,50.11c-3.78-.6-5.68-.89-9.46-1.47-3-7.49-4.42-11.24-7.36-18.74C628.1,311.76,624.45,311.23,617.14,310.22Z"/><path class="cls-3" d="M670.16,289.69l6.14,12.7c-5.26-1-7.89-1.49-13.15-2.44q8.72,19,17.42,37.93c-3.78-.68-5.66-1-9.44-1.67q-8.39-18.9-16.75-37.8c-5.27-.92-7.9-1.36-13.17-2.21L636,283.65Q653.1,286.52,670.16,289.69Z"/><path class="cls-3" d="M700.72,295.91c4.9,4.66,7.38,7,12.4,11.71l5,9.13c-2.5-.56-3.76-.83-6.26-1.37-3.17-3-4.74-4.44-7.86-7.38-5.55-1.19-8.32-1.76-13.88-2.88-.22,1.1-.34,1.65-.57,2.75l3.82,3.63c7.1,1.44,10.65,2.18,17.73,3.71,5,4.69,7.55,7,12.67,11.77l6.52,11.81c-.67,3.44-1,5.16-1.81,8.59-9.1-2-13.66-2.91-22.77-4.73-5-4.64-7.5-6.95-12.41-11.55-1.76-3.6-2.65-5.4-4.41-9,2.58.49,3.86.75,6.44,1.26,3.09,2.91,4.65,4.37,7.8,7.29,5.83,1.18,8.75,1.79,14.58,3,.23-1.08.35-1.63.57-2.72l-4-3.7c-7.27-1.55-10.9-2.3-18.18-3.75-4.91-4.62-7.34-6.92-12.15-11.5-2.27-4.65-3.41-7-5.69-11.63.78-3.5,1.15-5.25,1.82-8.76C688.37,293.27,692.49,294.13,700.72,295.91Z"/></g><g id="Layer_10" data-name="Layer 10"><path class="cls-5" d="M479.92,244c-.37,0-3.78-.34-9-7.56-.7-1-1.38-1.93-2-2.88-4.08-5.79-7.6-10.79-13.14-10.89-6.93-.11-18.88-.12-19-.12s-12.14.12-19.08.12a7.11,7.11,0,0,0-1.11.09,11.64,11.64,0,0,0-5.54,2.8c-.34.3-.55.51-.58.54l-.09.09a55.2,55.2,0,0,0-5.81,7.38c-.66.95-1.34,1.91-2,2.87-5.25,7.22-8.66,7.55-9,7.56h-.18l-.17-.06c-10.27-3.36-12-9.91-11.62-21.61.15-5,2.31-16.17,11.71-40.71l.45-1.16c.75-2.09,3.35-4.74,4-5.35l1-2.07a3.64,3.64,0,0,1,.82-1.1c3.93-3.65,13.28-5.65,14.4-5.78l.46-.07a12.73,12.73,0,0,1,1.57-.14,6.64,6.64,0,0,1,3.66,1.17,4.87,4.87,0,0,0,2.37,1l.14,0h29.32l.14,0a5.16,5.16,0,0,0,2.37-1,6.61,6.61,0,0,1,3.65-1.17,12.73,12.73,0,0,1,1.57.14l.47.07c1.12.13,10.46,2.13,14.4,5.78a3.74,3.74,0,0,1,.81,1.1l1,2.07.44.45.6.65.51.57.5.61.22.28.23.3.27.37.22.31c.11.17.18.27.24.38l.19.31c.11.19.17.29.22.4s.11.22.15.32a4.12,4.12,0,0,1,.17.41l.44,1.15c9.41,24.53,11.56,35.68,11.71,40.71.35,11.7-1.35,18.25-11.61,21.61l-.17.06Z"/><path class="cls-3" d="M457.49,167a15.07,15.07,0,0,1,1.91.2c1.48.18,10.28,2.22,13.85,5.52a2.71,2.71,0,0,1,.6.82l1.09,2.22s.22.2.55.55h0l0,0,.15.15v0l.18.19,0,.05.17.19,0,0,.2.22,0,.06.18.2,0,0,.21.25.05.06.18.22,0,.06.21.26.05.06c.06.08.12.15.17.23l0,.07.21.27,0,.05.17.24,0,.07.19.29,0,0,.15.24,0,.07.15.28v0l.12.25,0,.07c0,.09.08.17.11.26.77,2.13,11.74,29.62,12.09,41.56S489.41,239.9,480,243c0,0-3.15-.12-8.27-7.15s-9-14.06-16-14.18-19-.12-19-.12h-.06s-12,.12-19,.12a8.68,8.68,0,0,0-1.26.1,12.79,12.79,0,0,0-6.05,3c-.41.36-.64.6-.64.6h0c-2.78,2.72-5.21,6.58-8,10.44-5.12,7-8.26,7.15-8.26,7.15-9.45-3.09-11.29-8.7-10.93-20.63s11.32-39.43,12.1-41.56,3.84-5.09,3.84-5.09l1.1-2.22a2.71,2.71,0,0,1,.6-.82c3.56-3.3,12.37-5.34,13.84-5.52a15.47,15.47,0,0,1,1.91-.2,5.64,5.64,0,0,1,3.12,1,5.78,5.78,0,0,0,2.91,1.12,1,1,0,0,0,.28,0h29a.94.94,0,0,0,.27,0,5.78,5.78,0,0,0,2.91-1.12,5.64,5.64,0,0,1,3.12-1m0-2a7.58,7.58,0,0,0-4.18,1.32,5,5,0,0,1-1.77.8l-.06,0H421.86l-.07,0a5,5,0,0,1-1.76-.8,7.59,7.59,0,0,0-4.19-1.32,11.94,11.94,0,0,0-1.7.15c-.15,0-.3.05-.45.06-1.22.15-10.77,2.16-15,6a4.66,4.66,0,0,0-1,1.4l-.95,1.92c-.84.84-3.29,3.42-4.08,5.6l-.44,1.15c-7.59,19.8-11.56,33.61-11.78,41-.36,12.19,1.44,19,12.31,22.59l.34.12.35,0c.69,0,4.39-.53,9.81-8,.7-1,1.38-1.93,2.05-2.88a53.24,53.24,0,0,1,5.76-7.31l0,0,0,0s.18-.19.51-.48a10.87,10.87,0,0,1,5-2.56,6.19,6.19,0,0,1,.95-.08c6.95,0,18.92-.12,19-.12h0c.12,0,12.06,0,19,.12,5,.09,8.26,4.67,12.34,10.47.67,1,1.35,1.92,2.06,2.89,5.41,7.44,9.11,7.95,9.8,8l.36,0,.34-.12c10.87-3.56,12.67-10.4,12.3-22.59-.22-7.42-4.18-21.23-11.77-41l-.44-1.15c-.05-.13-.1-.25-.16-.38l0-.1c-.05-.11-.1-.22-.16-.33s-.13-.26-.2-.38l-.05-.09-.18-.3h0l0,0-.21-.33-.05-.07-.19-.29,0-.06c-.07-.1-.15-.2-.22-.31l0-.05-.21-.28-.05-.06c-.08-.1-.15-.2-.23-.29l0,0-.21-.25-.05-.06-.23-.27h0l0,0-.19-.22,0-.06-.22-.24-.2-.22-.05-.06-.19-.2-.18-.18v0l0,0c-.12-.14-.23-.25-.32-.34l-.95-1.92a4.69,4.69,0,0,0-1-1.4c-4.18-3.88-13.74-5.89-15-6-.15,0-.3,0-.45-.06a12.23,12.23,0,0,0-1.71-.15Z"/><path class="cls-5" d="M477.3,178.34c.06.08.12.15.17.23C477.42,178.49,477.36,178.42,477.3,178.34Z"/><path class="cls-5" d="M478.53,180.22l.12.25Z"/><path class="cls-5" d="M478.68,180.54c0,.09.08.17.11.26C478.76,180.71,478.72,180.63,478.68,180.54Z"/><path class="cls-5" d="M477,178l.21.26Z"/><path class="cls-5" d="M478.37,179.91l.15.28Z"/><path class="cls-5" d="M478,179.27l.19.29Z"/><path class="cls-5" d="M477.52,178.64l.21.27Z"/><path class="cls-5" d="M476.82,177.74l.18.22Z"/><path class="cls-5" d="M477.76,179l.17.24Z"/><path class="cls-5" d="M417.62,221.66a8.68,8.68,0,0,0-1.26.1A10.36,10.36,0,0,1,417.62,221.66Z"/><path class="cls-5" d="M475.67,176.45l.18.19Z"/><path class="cls-5" d="M476.09,176.91l.2.22Z"/><path class="cls-5" d="M475.9,176.69l.17.19Z"/><path class="cls-5" d="M475.51,176.28l.15.15Z"/><path class="cls-5" d="M476.56,177.43l.21.25Z"/><path class="cls-5" d="M476.34,177.19l.18.2Z"/><path class="cls-5" d="M409.67,225.4c.21-.21.42-.41.64-.6C409.9,225.16,409.67,225.4,409.67,225.4Z"/><path class="cls-5" d="M478.18,179.6l.15.24Z"/><path class="cls-1" d="M490.88,222.36c-.35-11.94-11.32-39.43-12.09-41.56,0-.09-.07-.17-.11-.26l0-.07-.12-.25v0l-.15-.28,0-.07-.15-.24,0,0-.19-.29,0-.07-.17-.24,0-.05-1.17-1.48,0,0-.18-.2,0-.06-.2-.22,0,0-.17-.19,0-.05-.18-.19v0l-.15-.15,0,0h0a3.59,3.59,0,0,0-1.24-.84c-3-1.22-14.75-5.65-18.27-2-4.05,4.17-46.3,52-46.31,52h0s.23-.24.64-.6a12.79,12.79,0,0,1,6.05-3,8.68,8.68,0,0,1,1.26-.1c7,0,19-.12,19-.12h.06s12,0,19,.12,10.86,7.15,16,14.18S480,243,480,243C489.41,239.9,491.24,234.29,490.88,222.36Z"/><path class="cls-3" d="M456.18,204.29c.2-.46.38-.92.54-1.39s.31-1,.43-1.44l-3.68-2.39a16.69,16.69,0,0,0,.26-3.72l4-1.86a20.5,20.5,0,0,0-.57-2.93l-4.4-.23A16.78,16.78,0,0,0,451.1,187l2.52-3.61a21.93,21.93,0,0,0-2-2.25l-3.92,2a16.6,16.6,0,0,0-3.09-2.09l.37-4.37c-.45-.19-.91-.37-1.39-.54s-.95-.3-1.43-.43l-2.39,3.68a17.34,17.34,0,0,0-3.72-.25l-1.87-4a20.77,20.77,0,0,0-2.93.57l-.23,4.4a17.21,17.21,0,0,0-3.34,1.63l-3.61-2.51a19.91,19.91,0,0,0-2.25,2l2,3.92a17.13,17.13,0,0,0-2.08,3.1l-4.37-.38c-.19.46-.38.92-.54,1.4s-.3.95-.43,1.43l3.68,2.39a16.69,16.69,0,0,0-.26,3.72l-4,1.87a20.39,20.39,0,0,0,.58,2.92l4.39.23a16.52,16.52,0,0,0,1.64,3.35L420,208.74a21.93,21.93,0,0,0,2,2.25l3.92-2a16.93,16.93,0,0,0,3.09,2.09l-.37,4.37c.45.19.92.38,1.39.54s1,.3,1.43.43l2.39-3.68a16.76,16.76,0,0,0,3.72.25l1.87,4a20.77,20.77,0,0,0,2.93-.57l.23-4.39a17,17,0,0,0,3.35-1.64l3.61,2.52a20.82,20.82,0,0,0,2.24-2l-2-3.92a16.63,16.63,0,0,0,2.08-3.1Zm-21.72-1.43a7.19,7.19,0,1,1,9.14-4.47A7.19,7.19,0,0,1,434.46,202.86Z"/><path class="cls-1" d="M393.43,242.48c-9.39-3.11-10.82-8.73-10.48-20.11.15-4.91,2.28-15.87,11.61-40.21.23-.59.39-1,.46-1.19.72-2,3.69-4.88,3.72-4.9l.06-.06,1.14-2.3a2.11,2.11,0,0,1,.49-.67c3.42-3.18,12-5.2,13.56-5.39l.49-.07a10.77,10.77,0,0,1,1.36-.13,5,5,0,0,1,2.85.94,6.27,6.27,0,0,0,3.18,1.19,2.06,2.06,0,0,0,.33,0h28.93a2.19,2.19,0,0,0,.33,0,6.24,6.24,0,0,0,3.18-1.19,5,5,0,0,1,2.85-.94,10.43,10.43,0,0,1,1.36.13l.49.07c1.58.19,10.14,2.21,13.57,5.39a2.28,2.28,0,0,1,.49.67l.51,1c-2.84-1.12-8.83-3.24-13.41-3.24-2.24,0-3.88.52-4.88,1.55-3.84,3.95-46.08,51.73-46.34,52a55.19,55.19,0,0,0-6,7.62c-.66.94-1.33,1.9-2,2.85C396.81,241.63,393.92,242.39,393.43,242.48Z"/><path class="cls-3" d="M415.84,168a4.59,4.59,0,0,1,2.59.86,6.66,6.66,0,0,0,3.44,1.27,1.83,1.83,0,0,0,.37,0h28.85a1.9,1.9,0,0,0,.37,0,6.68,6.68,0,0,0,3.45-1.27,4.58,4.58,0,0,1,2.58-.86,8.54,8.54,0,0,1,1.3.13l.49.06c1.49.18,10,2.22,13.29,5.26a1.94,1.94,0,0,1,.32.42c-3.14-1.17-8.3-2.82-12.39-2.82-2.38,0-4.14.57-5.24,1.7-4,4.09-44.27,49.69-46.32,52a55.42,55.42,0,0,0-6.08,7.7c-.66.94-1.33,1.89-2,2.85-4.08,5.6-6.78,6.56-7.37,6.71-8.13-2.73-10.38-7.18-10-19.58.15-4.87,2.27-15.77,11.58-40l.46-1.2c.57-1.56,2.79-3.93,3.6-4.71l.12-.13.08-.15,1.1-2.22a1.75,1.75,0,0,1,.38-.53c3.28-3,11.79-5.08,13.28-5.26l.5-.06a8.42,8.42,0,0,1,1.29-.13m41.65-1a5.64,5.64,0,0,0-3.12,1,5.78,5.78,0,0,1-2.91,1.12.94.94,0,0,1-.27,0h-29a1,1,0,0,1-.28,0A5.78,5.78,0,0,1,419,168a5.64,5.64,0,0,0-3.12-1,15.47,15.47,0,0,0-1.91.2c-1.47.18-10.28,2.22-13.84,5.52a2.71,2.71,0,0,0-.6.82l-1.1,2.22s-3.07,3-3.84,5.09-11.74,29.62-12.1,41.56,1.48,17.54,10.93,20.63c0,0,3.14-.12,8.26-7.15,2.82-3.86,5.25-7.72,8-10.44,0,0,42.26-47.83,46.31-52,1-1,2.62-1.4,4.52-1.4,4.89,0,11.59,2.54,13.75,3.42a3.59,3.59,0,0,1,1.24.84c-.33-.35-.55-.55-.55-.55l-1.09-2.22a2.71,2.71,0,0,0-.6-.82c-3.57-3.3-12.37-5.34-13.85-5.52a15.07,15.07,0,0,0-1.91-.2Z"/><path class="cls-3" d="M482,215c.2-.3.4-.6.58-.92s.36-.63.52-1l-2.28-2.23a12.46,12.46,0,0,0,.72-2.62l3.11-.76a15.72,15.72,0,0,0,0-2.17l-3.1-.8a12.31,12.31,0,0,0-.68-2.62l2.31-2.22a15.17,15.17,0,0,0-1.07-1.88l-3.08.85a12.44,12.44,0,0,0-1.91-1.93l.9-3.07c-.3-.2-.6-.4-.92-.58s-.63-.36-1-.52l-2.23,2.28a12.42,12.42,0,0,0-2.62-.71l-.76-3.12a15.72,15.72,0,0,0-2.17,0l-.8,3.1a11.76,11.76,0,0,0-2.62.69l-2.22-2.32a15.17,15.17,0,0,0-1.88,1.07l.85,3.09a12.37,12.37,0,0,0-1.93,1.9l-3.06-.9c-.21.3-.41.6-.59.92s-.35.64-.51,1l2.28,2.24a11.65,11.65,0,0,0-.72,2.61l-3.12.76a15.72,15.72,0,0,0,0,2.17l3.1.8a12,12,0,0,0,.69,2.63l-2.32,2.21a16.06,16.06,0,0,0,1.07,1.89l3.09-.86a12.37,12.37,0,0,0,1.9,1.93l-.9,3.07c.3.2.6.4.92.58s.64.36,1,.52l2.24-2.28a12.73,12.73,0,0,0,2.62.72l.75,3.11a15.72,15.72,0,0,0,2.17,0l.8-3.1a12,12,0,0,0,2.63-.69l2.21,2.32a16.06,16.06,0,0,0,1.89-1.07L477,216a12.44,12.44,0,0,0,1.93-1.91Zm-15.23-4.27a5.11,5.11,0,1,1,7-1.82A5.11,5.11,0,0,1,466.78,210.73Z"/><path class="cls-3" d="M488.69,232.17c.1-.2.2-.41.29-.62s.16-.42.23-.64l-1.6-1.18a7.53,7.53,0,0,0,.22-1.69l1.86-.73a8.6,8.6,0,0,0-.18-1.35l-2-.23a7.91,7.91,0,0,0-.65-1.56l1.24-1.57a9.59,9.59,0,0,0-.82-1.08l-1.84.8a7.34,7.34,0,0,0-1.35-1l.3-2-.62-.29c-.21-.09-.42-.16-.64-.23l-1.19,1.6a7.45,7.45,0,0,0-1.68-.22l-.74-1.86a8.62,8.62,0,0,0-1.34.17l-.23,2a8.25,8.25,0,0,0-1.57.65l-1.57-1.24a10.47,10.47,0,0,0-1.07.82l.79,1.84a7.76,7.76,0,0,0-1,1.35l-2-.3c-.1.2-.19.41-.28.62s-.16.42-.24.64l1.61,1.19a7.45,7.45,0,0,0-.22,1.68l-1.87.74a10,10,0,0,0,.18,1.34l2,.23a8.25,8.25,0,0,0,.65,1.57l-1.25,1.56a9.67,9.67,0,0,0,.83,1.08l1.84-.79a8.07,8.07,0,0,0,1.34,1l-.29,2,.62.28.63.24,1.19-1.61a7.53,7.53,0,0,0,1.69.22l.73,1.86a8.59,8.59,0,0,0,1.35-.17l.23-2a7.91,7.91,0,0,0,1.56-.65l1.57,1.24a8.53,8.53,0,0,0,1.08-.82l-.8-1.84a7.62,7.62,0,0,0,1-1.34Zm-9.15-2.9a1.5,1.5,0,1,1,2-.81A1.5,1.5,0,0,1,479.54,229.27Z"/><path class="cls-3" d="M474.13,187c.09-.21.18-.42.26-.63s.14-.43.2-.65l-1.65-1.12a8,8,0,0,0,.15-1.69l1.83-.81a9.88,9.88,0,0,0-.24-1.34l-2-.14a7.69,7.69,0,0,0-.71-1.54l1.17-1.62a9.59,9.59,0,0,0-.87-1l-1.8.87a8,8,0,0,0-1.39-1l.21-2c-.21-.09-.42-.18-.63-.25s-.43-.15-.65-.21l-1.12,1.65a7.42,7.42,0,0,0-1.69-.14l-.82-1.83a9.72,9.72,0,0,0-1.33.23l-.14,2a7.21,7.21,0,0,0-1.54.72l-1.62-1.18a9.78,9.78,0,0,0-1,.87l.87,1.8a7.52,7.52,0,0,0-1,1.39l-2-.2c-.09.2-.18.41-.26.63s-.14.43-.2.64l1.65,1.12a8.11,8.11,0,0,0-.15,1.69l-1.82.82a8.73,8.73,0,0,0,.23,1.34l2,.14a7.36,7.36,0,0,0,.72,1.53l-1.18,1.63a10.65,10.65,0,0,0,.87,1l1.8-.88a8.08,8.08,0,0,0,1.39,1l-.2,2,.62.26.65.21,1.12-1.66a7.48,7.48,0,0,0,1.69.15l.82,1.83a9.74,9.74,0,0,0,1.33-.24l.15-2a7.87,7.87,0,0,0,1.53-.71l1.62,1.17a7.86,7.86,0,0,0,1-.87l-.87-1.8a7.2,7.2,0,0,0,1-1.39Zm-9.27-2.5a1.51,1.51,0,1,1,1.93-.9A1.51,1.51,0,0,1,464.86,184.47Z"/></g></g></svg>