<?xml version="1.0" encoding="UTF-8"?>
<svg id="Layer_2" data-name="Layer 2" xmlns="http://www.w3.org/2000/svg" viewBox="0 0 1423.18 714.48">
  <defs>
    <style>
      .cls-1 {
        fill: #f1c418;
      }
    </style>
  </defs>
  <g id="Layer_5" data-name="Layer 5">
    <g>
      <g>
        <path class="cls-1" d="M459.46,159.18l-2.59,14.81,71.17-4.76c.58-3.63-4.43-2.81-7.12-3.5-5.58-1.43-20-4.1-33.21-6.87,5.4-2.1,8.87-5.35,8.87-8.99,0-6.34-10.49-11.48-23.42-11.48-6.76,0-12.84,1.4-17.11,3.65-2.77-5.09-5.66-10.29-7.66-10.75-8.97,3.17-14.21,8.13-17.51,14.25l18.87,4.41c.05,3.8,3.88,7.17,9.73,9.24Z"/>
        <path class="cls-1" d="M282.61,263.47c-7.62,26.11.06,51.32,17.16,56.31,16.91,4.94,36.69-11.75,44.5-37.37,0,0,.01,0,.02,0,14.23,0,25.77-6.62,25.77-14.8,0-5.92-6.07-11.03-14.83-13.4-3.79-4.38-7.85-9.08-11.57-13.04-3.41-7.99-8.98-13.81-16.28-15.94-13.68-3.99-29.24,6.17-38.82,23.76-3.74-.45-9.47-3.11-12.04-.16,1.94,1.66,5.26,3.8,9.2,6.01-1.18,2.74-2.23,5.62-3.11,8.62Z"/>
        <path class="cls-1" d="M894.26,104.51c1.84.54,4.12-1.04,6.38-4.05,5.68,5.73,12.91,12.34,14.27,12.96,8.75,4.02,23.2-4.53,33.15-3.58,2.66-2.56-19.42-21.7-21.42-22.62-5.58-2.57-9,.57-14.15,1.26l-3.11-11.43c1.03-7.57.05-13.34-2.82-14.19-.34-.1-.69-.1-1.06-.07l-.12-.44-.19.49c-3.82.78-8.84,8.53-11.86,18.76-3.4,11.5-2.98,21.76.92,22.92Z"/>
        <path class="cls-1" d="M830.1,187.09c1.01.35,2.46-.72,4.2-2.92,0,.07,0,.14,0,.2l16.67,72.61,30.67,2.58,8.5-89.23-17.27-16.45,15.22-40.5c-6.19-7.58-14.41-21.7-25.1-14.27-.21-1.38-.64-2.25-1.32-2.49-3.85-1.34-14.04,17.82-22.76,42.8-8.72,24.98-12.67,46.32-8.82,47.67Z"/>
        <path class="cls-1" d="M1225.3,581.46c-.32-.88-2.48-1.04-5.99-.58-8.27-3.78-30.93-6.5-57.6-6.5-.25,0-.5,0-.76,0,3.96-2.71,7.58-5.88,10.77-9.41,5.63,1.13,11.71,2.13,18.39,3.48,3.6-11.43.7-20.54-4.88-28.6,1.17-4.63,1.8-9.47,1.8-14.45,0-32.99-27.3-59.74-60.97-59.74-1.3,0-2.58.05-3.86.13-9.35-21.22-30.9-36.08-55.99-36.08-18.82,0-35.64,8.36-46.82,21.49-10.74-17.03-29.96-28.38-51.89-28.38-27.14,0-50.13,17.38-58.03,41.4l-4.43-19.04-11.41-1.75-4.88,2.67,19.2,79.33,16.36,2.61-1.01-4.35c11.11,11.46,26.79,18.61,44.2,18.61,11.93,0,23.05-3.37,32.44-9.17.39.77.7,1.28.91,1.47,1.7,1.47,15.09,3.83,16.02,2.93l-4.06-15.04c.51-.56,1.02-1.11,1.51-1.68,10.74,17.03,29.96,28.38,51.89,28.38,1.3,0,2.58-.05,3.86-.13,5.19,11.78,14.14,21.59,25.37,27.99l-30.16-3.26c1.39-12.77,1.26-21.43-.67-21.79-3.01-.56-9.24,19.29-13.93,44.35-4.69,25.05-6.05,45.82-3.04,46.38.46.09.99-.31,1.58-1.12l89.53-28.15c1.93,2.44,21.77-2.33,45.11-10.9,11.88-4.36,22.42-8.88,29.91-12.69l.06-.02h-.02c1.25-.64,2.43-1.26,3.5-1.85,2.75-.97,4.52-2.03,5.11-3.14,2.09-1.49,3.13-2.67,2.86-3.41Z"/>
        <path class="cls-1" d="M996.26,227.77c-3.72-3.26-8-5.13-12.57-5.13-14.23,0-25.77,18.09-25.77,40.4s11.54,40.4,25.77,40.4c10.16,0,18.94-9.21,23.14-22.6l37.89-11.61c-9.49,11.27-14.8,20-12.84,21.96,2.66,2.66,17.82-8.1,34.88-24.52h39.14c8.53,0,31.3-12.36,39.14-17.83-3.21-3.69-11.33,1.37-14.38-.03-4.18-1.92-7.35-12.71-10.54-15.39-2.97-2.49-13.94-3.26-22.46-2.76,2.15-3.69,2.93-6.27,1.97-7.22-2.88-2.88-20.39,9.95-39.1,28.66-5.78,5.78-11,11.45-15.37,16.6l-18.8-31.7-30.11-9.23Z"/>
        <path class="cls-1" d="M990.79,145.51l-.1.02s.03.05.04.07l.06-.1Z"/>
        <path class="cls-1" d="M983.66,185.87l.31-6.68,13.9-2.91c-1.77-11.34-2.55-22.12-7.13-30.66l-23.67,37.87,16.59,2.38Z"/>
        <path class="cls-1" d="M918.43,171.62l46.25,2.37-3.76-21.5,29.78-6.95c-3.29-6.11-8.54-11.07-17.51-14.25l-15.06,21.3-64.61,14.32,24.91,4.71Z"/>
        <path class="cls-1" d="M539.9,259.56l30.54-2.71,16.73-74.81c.09-5.59-23.41-78.14-26.5-81.07-11.39-10.83-21,4.27-27.22,12.41l15.15,40.48-17.2,16.47,8.5,89.23Z"/>
        <path class="cls-1" d="M417.74,280.89c-3.63,17.13-4.16,29.7-.79,30.68,4.53,1.32,14.38-18.77,22.01-44.88,7.62-26.11,10.13-48.34,5.6-49.67-1.73-.51-4.24,2.12-7.1,7.01l-42.26,12.96-19,32.04c5.87-2.31,30.09,7.89,41.55,11.85Z"/>
        <path class="cls-1" d="M504.97,114.22c4.29-5.7,17.62-13.05,20.9-17.3,5.97-7.75-8.63-25.31-9.71-34.57l-7.11,26.13c-5.15-.7-8.57-3.83-14.15-1.26-2,.92-24.08,20.07-21.42,22.62l31.49,4.38Z"/>
        <path class="cls-1" d="M430.75,145.51l.06.1s.03-.05.04-.07l-.1-.02Z"/>
        <path class="cls-1" d="M437.58,179.19l.31,6.68,16.58-3.53-23.65-36.72c-4.57,8.54-5.37,19.32-7.13,30.66l13.9,2.91Z"/>
        <path class="cls-1" d="M711.59,674.89c42.69-27.04,87.68-72.82,114.03-116.21,1.8-2.97,4.59-5.24,3.8-9.24l-119.83-12.11-117.49,13.31c8.5,24.4,99.64,126.15,119.49,124.25Z"/>
        <path class="cls-1" d="M836.55,553.01c-33.81,49.56-71.85,99.07-124.97,129.01-54.12-27.76-92.54-79.79-126.6-129.01h-14.25c26.94,46.19,62.5,94.56,103.31,129.42,11.19,9.56,30.46,27.78,44.65,21.07,35.83-16.93,94.93-90.68,117.4-124.81,2.17-3.29,16.62-25.15,14.66-26.88l-14.22,1.19Z"/>
        <polygon class="cls-1" points="675.19 435.37 618.48 438.02 608.72 518.55 672.82 516.18 672.82 494.77 627.71 497.15 627.72 487.65 665.69 487.65 668.06 466.27 630.09 466.27 630.08 459.15 675.19 456.78 675.19 435.37"/>
        <path class="cls-1" d="M513.8,444.9l-16.04,2.05c-2.05-4.01-3.97-6.18-5.52-5.88-1.49.28-2.47,2.8-2.94,6.97l-1.74.22c-1.5-2.36-2.9-3.56-4.08-3.33-1.12.21-1.95,1.69-2.49,4.18l-10.19,1.31c-2.77-6.67-5.42-10.5-7.46-10.12-1.97.37-3.04,4.65-3.23,11.49l-5.17.66-1.01,3.42c-2.89-7.18-5.68-11.34-7.79-10.94-1.7.32-2.73,3.55-3.11,8.81-10.35,4.19-17.49,14.59-25.59,22.68-4.29-14.93-9.02-24.74-12.23-24.13-1.46.28-2.43,2.68-2.91,6.68-9.58-.41-13.68,9.57-17.12,18.78-.56-7.84-1.78-17.16-3.66-27.07-5.05-26.72-12.9-47.68-17.54-46.8s-4.31,23.25.74,49.98c.73,3.87,1.52,7.61,2.35,11.19-7.79,1.72-17.3,1.49-23.92,4.99-6.43,3.39-14.51,12.94-22.38,24.51-.44-2.78-.93-5.63-1.47-8.53-.13-.7-.27-1.38-.4-2.07l5.08-10.51c-.42-.38-3.24-.12-7.23.49-4.87-20.67-11.07-35.45-14.98-34.71-3.91.74-4.28,16.77-1.28,37.79-8.89,1.9-17.29,3.99-19.04,4.9-.79.42-2.32,1.68-4.24,3.42-2.15.21-4.28.53-6.36.96-4.59-17.47-9.97-29.39-13.49-28.73-3.67.69-4.23,14.88-1.79,34.03-19.7,9.9-33.2,29.99-33.2,53.18,0,16.14,6.54,30.77,17.16,41.52l-34.19,3.59,162.57,51.13c1.84,3.34,3.56,5.11,4.97,4.84,4.64-.88,4.3-23.25-.75-49.98-5.05-26.72-12.9-47.68-17.54-46.8-3.1.59-3.97,10.77-2.71,25.42l-16.74,1.76c5.37-8.47,8.64-18.35,9.1-28.95,3.39-.23,6.24-1.33,9.33-5.05,2.32-2.79,16.93-36.07,22.19-49.51.61,1.33,1.21,2.52,1.79,3.53-6.55,15.89-12.31,32.3-17.95,48.42,3.96-1.72,14.83-1.34,16.85-3.84,5.41-6.68,11.5-34.21,16.39-43.66l8.28,16.57,6.01-5.65c1.07,5.07,2.23,9.88,3.43,14.29l-5.89,15.15,10.21-1.53c3.18,8.47,6.3,13.5,8.62,13.06,3-.57,3.92-10.12,2.83-24.01l17.19-53.61c.39,4.28.96,8.92,1.71,13.79l-14.45,48.78,26.11-2.63c2.8,6.79,5.48,10.7,7.54,10.31,1.97-.37,3.04-4.61,3.24-11.4l4.53-.46c3.39,9.51,6.78,15.26,9.25,14.79,2.35-.44,3.42-6.42,3.25-15.69.01-.12.02-.25.02-.36l7.55-.76.24-1.02c3.4,9.57,6.8,15.36,9.29,14.89,1.81-.34,2.86-3.98,3.17-9.87,2.08,4.09,4.02,6.31,5.59,6.01,4.64-.88,4.3-23.25-.75-49.98-1.37-7.26-2.95-14.09-4.62-20.17l1.62-.14,7.01-22.65ZM332.59,509.59c-1.24-1.66-2.56-3.27-3.96-4.8,5.11-10.39,16.73-18.12,28.55-17.13,2.61,20.83-10.63,18.8-24.58,21.92ZM483.86,506.88c-.27-2.41-.58-4.91-.95-7.49.73-.11,1.44-.23,2.13-.36.54,2.63,1.1,5.2,1.68,7.68-.95.04-1.91.1-2.86.17ZM481.55,477.86l-2.51.33c-.61-2.76-1.25-5.43-1.91-7.99l3.6-.32c.21,2.53.49,5.2.83,7.98Z"/>
        <path class="cls-1" d="M583.33,520.43c25.87-18.12,34.42-56.74,13.67-81.56l-41.7,3.61-5.6,25.5c-.51-8.13-1.76-17.98-3.75-28.52-1.26-6.64-2.68-12.92-4.19-18.6l58.23-9.04h220.73l60.87,9.32c.75-.53,1.44-4.18,1.98-9.32h5.35c-.1,2.59-.18,5.17-.25,7.72l11.94,3.98c.03-3.72.34-7.65.78-11.69h4.92v-145.14h-17.31c-6.47-.37-13.65.23-17.74-.3-62.84-8.22-137.35-33.01-158.14-99.49-4.61-4.49-8.33,12.31-9.9,15.01-32.11,55.39-89.4,76.27-150.56,84.48-4.53.61-12.91-.16-20.19.31h-9.65v2.03c-1.36.68-2.43,1.55-3.1,2.69-3,5.08-1.13,72.24-1.06,84.48.03,6.21-2.72,12.11-2.67,18.9.09,14.68,4.85,33.54,4.96,48.73l5.11-1.7c.67,6.37,1.7,13.42,3.1,20.83,4.51,23.85,11.24,43.09,15.94,46.33l-7.54,34.32,45.78-2.85ZM566.25,461.76l23.15.1c6.47,24.79-1.63,43.78-30.5,37.66l7.35-37.75ZM694.62,216.05c2.66-4.27,13.36-29.77,14.99-30.18,4.6-1.14,3.08,1.4,4.1,3.07,4.94,8.04,8.16,18.99,13.21,27.1,14.87,23.88,39.92,40.13,67.24,50.63h-14.41c-30.23-13.96-56.48-35.56-66.64-66.52-5.53-1.2-3.79.74-5.28,3.05-2.88,4.48-4.58,10.79-7.93,15.75-14.56,21.58-35.09,36.97-58.22,47.72h-14.47c27.31-10.34,52.28-26.31,67.41-50.63Z"/>
        <path class="cls-1" d="M867.4,442.52l8.31,42.74-37.46-44.47-8.59-2.1-4.88,2.58,12.79,77.43,17.95,2.2c-1.98-11.81-6.24-25.02-7.09-36.88-.18-2.56-1.47-6.5,2.32-5.86.14,2.69,1.72,5.25,3.49,7.2,4.56,5.02,40.11,47.3,46.36,40.3l-16.7-83.04-16.5-.09Z"/>
        <path class="cls-1" d="M819.67,438.04l-11.22.11c-6.32,11.61-12.59,31.54-28.85,28.12l-2.62-30.64-14-.27,5.78,80.96,15.59,2.23-2.37-30.89c22.66-2.59,25.7,34.18,49.81,33.25,1.87-20.06-15.55-26.98-23.41-42.12,3.62-15.54,20.38-21.97,11.29-40.74Z"/>
        <path class="cls-1" d="M682.63,490.89c6.18,12.47,21.27,32.4,36.63,23.07,1.46-.88,19.68-24.75,20.71-27.06,2.27-5.1-.71-6.18-.71-7.56v-43.96h-16.62c-1.3,24.31,10.13,42.2-13.04,59.36-1.64-2.66-13.05-14.39-13.05-15.4v-43.96c-5.11.29-14.33-2.04-16.28,3.9,1.16,14.72-3.98,38.82,2.37,51.61Z"/>
      </g>
      <g>
        <path d="M759.66,276.09l-20.01,5.55,17.79-1.1-9.73,10.34c-9.98-.44-2.75,9.11-2.46,16.52l5.51-.16-.11,15.47-13.19-1c3.87-3.56,7.71-6.32,6.64-12.22l-8.79-3.63,2.11-9.74c-6.15-2.6-18.62,4.66-19.7,10.33-.5,2.62,12.44,25.16-7.76,24.68-8.59-.2-3.35-6.51-8.13-8.29l-13.38,17.77,8.83.11,3.41,11,6.63-6.1,8.95,8.36,4.82-9.14,14.11.23-.17-11.97,6.86-1.35c-5.01,8.43,6.34,5.71,0,17.78h8.93s-.01,8.93-.01,8.93l8.85-4.44,3.38,6.62,10.01-6.62c2.36,8.51-8.5,11.05-6.19,18.93.51,1.73,6.87-.18,1.72,7.76,5.07-.38,17.48,10.81,17.87.03l4.4,4.43c-1.58-7.53,4.66-10.61,6.49-17.53-4.53.35-6.02-9.24-9.17-10.66-1.64-.74-7.8,2.74-10.63-4.11l8.88-3.32c1.73-7.26-5.81-2.03-4.44-7.76l6.65-3.41v-3.28s-6.65-3.4-6.65-3.4l4.44-8.85h-8.93s.01-8.92.01-8.92l-5.54,4.45-5.17-5.89c-1.21-5.53,8.76-6.84,5.77-17.51-.49-1.75-6.85.24-1.7-7.75l-6.7-.02,4.42-6.63c.79,6.23,7.1,6.24,10.66,12.72,7.32,13.31,20.15,58.18,20.07,72.95-.07,13.1-7.16,35.15-24.04,26.73-5.5-2.74-17.85-26.91-22.97-29.25-18.67-8.51-61.37-.32-82.86-2.17l-26.9,32.64c-13.96-2.71-18.39-12.48-18.79-25.71-.54-17.74,16.06-75.57,29.25-86.68,14.24-12.01,22.22-5.8,36.48-5.64,13.37.15,26.91.24,40.27.01,10.42-.18,19.42-5.06,29.93-.08Z"/>
        <path d="M1155.97,512.04c-4.07,1.73-40.7-7-33.38-13.32,12.27-.99,26.74,1.57,33.38,13.32Z"/>
        <path d="M1169.32,543.22c-.97.87-21.91-3.53-24.92-4.66-.76-.28-8.7-6.8-6.23-8.68,10.46-.59,28.7.66,31.15,13.33Z"/>
        <path d="M559.31,498.69l6.68-37.83,22.26-1.27c12.01,23.96-.6,45.53-28.93,39.09Z"/>
        <path d="M358.91,485.35l-2.73,19.51-28.42,4.95c5.38-14.59,15.39-22.96,31.15-24.46Z"/>
        <circle cx="763.84" cy="335.64" r="8.67"/>
        <path d="M70.31,128.36c.31.62,2.85,1.01,3.59,2.4,12.9,24.07,25.54,47.08,46.78,65.15-4.37-29.61-11.41-78.94,8.28-104.05,1.43-1.82-.05-4.08,5.09-2.81,5.42,52.44,33.21,101.65,74.61,133.57-1.54-23.88-2.92-49.51,8.88-71.22,13.25,34.37,24.28,67.49,52.3,92.47,7.53-2.49,11.99-4.43,20.21-2.33l12.56-18.94,30.66.09,26.76,26.67,13.34,11.12,20.29-30.93c39.66-7.94,71.42-30.29,105.52-50.33-8.42-1.53-26.23-1.36-34.18,1.02-2.37.71-1.3,5.45-3.6,7.88-5.54,5.87-22.27,2.49-30.1,3.37l1.09-8.9-15.58-.02,11.12-43.42c20.17-12.2,44.7-46.21,63.34-56.88,5.16-2.95,9.06-2.24,14.59-2.12-.5-11.35,4.1-21.46,6.8-32.22.8-3.2-1.85-4.04,4.32-3.39l8.96,26.7c5.27-2.8,5.03-13.68,6.59-19,.95-3.25-1.26-3.87,4.49-3.25-.18,5.86,15.75,42.23,17.72,43.52,3.7,2.43,8.97.02,12.1.86,2.54.68.98,6.32,3.43,8.06,3.08,2.18,15.96,1.29,20.76,3.24l30.15,89.76c-3.03,6.26-38.48,54.2-35.15,57.15,41.03-6.47,87.17-31.54,108.68-68.29,2.72-4.64,13.19-31.45,14.89-31.9,4.5-1.19,3.09,2.13,4.4,4.41,5.28,9.22,7.91,19.32,13.58,28.81,21.51,35.99,67.36,60.6,107.78,66.97,3.32-2.95-32.12-50.89-35.15-57.15l28.26-88.39,21.06-3.93c4.13-.54,2.82-7.28,3.93-8.28,1.7-1.55,9.37,1.19,13.19-1.31,1.97-1.29,17.9-37.66,17.72-43.52,5.76-.62,3.54,0,4.49,3.25,1.56,5.32,1.32,16.2,6.59,19l8.42-23.85,4.96-2.86,6.7,35.61c5.53-.12,9.43-.84,14.59,2.12,3.63,2.08,59.76,52.33,62.32,55.67,7.34,9.57,8.21,32.52,12.14,44.63l-15.58.02,1.09,8.9-25.72-.99c-7.79-2.68-5.41-9.49-7.99-10.26-7.96-2.37-25.76-2.55-34.18-1.02,19.39,9.82,39.24,25.85,58.58,34.93,12.19,5.72,38.63,10.3,46.93,15.4,5.89,3.62,17.84,35.1,23.56,30.93-.04-6.85,6.7-7.67,10.06-11.12,5.81-5.96,15.38-20.73,22.14-24.61,8.62-4.95,24.98-.77,35.28-2.14l12.56,18.94c8.22-2.1,12.68-.15,20.21,2.33,28.02-24.98,39.05-58.1,52.3-92.47,11.8,21.71,10.43,47.34,8.88,71.22l32.29-29.95c21.21-30.73,39.5-65.48,42.32-103.62,5.14-1.27,3.66.99,5.09,2.81,20.41,26.02,11.28,73.49,9.36,104.04,6.95-8.02,14.25-15.33,20.75-23.78,25.32-32.91,42.71-71.46,52.81-111.94L1383.04,0c29,75.76,29.04,167.42-17.79,235.96,4.18.98,5.3-2.33,7.8-4.43,19.72-16.54,30.51-34.98,45.12-54.98,1.35-1.85,1.22-6.58,5-1.77-6.35,53.63-20.89,103.67-60.14,142.47,1.97,3.49,5.03-.74,6.92-1.98,8.99-5.89,16.75-14.14,26.44-19.18-8.81,35.2-30.32,63.25-55.64,87.96l4.47,2.17c-17.23,33.92-49.72,58.86-86.83,67.97,1.54,3.93,13.21,2.5,16.79,2.3,6.83-.38,13.04-2.21,19.85-2.43,2.48-.08,8.45-1.4,7.86,2.31l-115.76,33.45,46.66,98.82-60.01,20.25,62.35,22.27-71.27,18.95,24.48,48.95-148.13-48.87c-4.51-6.77,8.83-65.81,10.1-78l-193.25-19.59c-6.53,9.51-11.11,20.63-17.57,30.14-22.99,33.81-61.88,82.3-93.69,107.34-11.24,8.85-24.4,15.12-35.34,24.4-6.68-5.27-14.97-8.56-21.9-13.21-31.3-21-56.23-52.18-79.12-80.7-17.28-21.53-34.1-43.42-47.15-67.97l-193.07,19.74,10.89,77.59-150.2,49.16c6-16.54,15.79-32.22,23.36-48.98-10.41-.37-20.8-5.84-30.59-8.4-9.65-2.52-20.64-3.19-31.08-6.78-2.15-.74-7.7-2.06-7.33-4.86,17.58-6.74,40.49-9.98,57.29-17.31,2.4-1.05,5.6-2.02,2.8-4.95-3.23-3.37-52.85-11.55-59.97-19.11l46.54-97.66-113.46-34.68c-.59-3.72,5.42-2.44,7.85-2.29,5.98.35,11.57,2.71,17.63,2.42l19.02-2.3c-37.14-9.14-69.55-34-86.83-67.97l4.47-2.17-29.63-32.85c-10.53-16.15-19.98-33.42-26-51.82-.37-1.12-.61-3.63,1.07-3.29l32.29,22.23C24.42,281.45,4.3,236.25.5,185.87c-.2-2.63-1.86-12.19,2.17-12.2,9.81,20.69,28.11,43.15,45.66,57.88,2.5,2.1,3.62,5.4,7.8,4.43C12.44,172.18,8.34,82.45,34.65,10.78c1-2.73,3.08-10.2,5.89-10.78-.74,43.74,10.16,89.33,29.78,128.36ZM530.23,93.33l-15.43-30.99-5.61,24.5-2.19,2.08c-10.28-7.68-7.4-3.45-11.72.03-4.25,3.41-21.53,14.84-18.27,20.01l27.18,6.4,26.04-22.03ZM924.07,84.97l-10.81,3.09-8.83-25.72-13.26,30.98c9.14,2.96,19.6,23.55,29.38,22.12l23.95-7.48c1.58-5.18-14.43-15.83-18.38-19.02-1.45-1.17-1.83-3.88-2.05-3.97ZM569.91,255.51l17.79-75.75c-7.17-11.99-20.35-76.82-28.39-80.73-9.01-4.38-22.5,6.09-24.03,13.7-1.28,6.36,13.03,33.75,15.24,41.8-.15,1.83-16.59,6.99-17.97,15.9l8.95,90.05,28.41-4.98ZM871.17,155.55c-1.63-2.31,16.29-36.11,14.94-42.82-.36-1.79-8.95-12.08-11.18-13.15-9.14-4.37-14.57-1.44-18.41,7.27-9.57,21.73-12.86,52-22.93,74.56l17.17,73.18,29.14,5.89,8.95-90.05c-1.07-6.89-11.69-12.42-17.67-14.89ZM530.35,166.99c-29.59-8.97-66.04-3.96-81.33-35.65-14.8,3.89-25.37,27.74-23.4,41.14,1.18,8.03,9.5,5.38,15.69,5.64l-2.22,6.64,15.57-2.22-22.23-37.84,31.16,6.69-4.45,22.24h18.9s52.33-6.64,52.33-6.64ZM980.09,178.12l13.49-.99c4.22-17.78-2.75-36.66-19.25-45.68-4.22-1.01-11.73,14.71-15.34,17.76-11.76,9.93-51.92,12.31-67.94,17.78l52.33,6.63h18.9s-4.45-22.23-4.45-22.23l31.16-6.69c1.41,1.64-20.62,30.49-22.22,34.54-1.99,5.07,12.67,4.5,15.55,5.51l-2.22-6.64ZM712.89,166.98c-5.08-1.05-3.55.51-4.98,2.83-3.93,6.36-6.28,15.2-10.97,22.37-26.69,40.85-85.24,66.04-132.25,72.57-9.11,1.27-37.97-1.25-43.46,5.52l.22,150.52,13.36-.02c-.04-4.95-2.15-9.35-2.32-14.36-1.07-32.19-2.82-78.07,0-109.3.38-4.2.29-8.81,3.47-12.11,6.3-6.53,38.14-5.22,48.78-6.88,41.91-6.54,91.57-29.09,113.06-67.28l13.99-28.3c14.53,49.55,54.52,78.16,103.03,90.7,20.42,5.28,39.46,4.37,59.31,7.48,11.8,1.84,13.74,4.89,14.78,16.39,2.82,31.23,1.07,77.11,0,109.3-.17,5.01-2.28,9.41-2.32,14.36l13.36.02.22-150.52c-21.3-7.37-44.64-5.11-67.59-10.34-48.57-11.05-103.88-43.09-119.69-92.96ZM712.9,198.13c-5.8-1.03-3.44.84-4.63,3.17-31.52,61.52-79.18,77.29-145.66,85.86-6.11.79-18.52-2.15-22.25,2.24-2.35,4.55-2.99,9.36-3.4,14.41-3.01,36.64,1.49,77.94,2.32,114.75,8.87-1.33,18.94-1.26,27.59-2.47,42.5-5.95,89.84-18.06,131.86-21.76,26.99-2.38,81.48,8.99,110.82,13.31,24.16,3.56,47.94,10.37,72.58,10.91.83-36.81,5.33-78.12,2.32-114.75-.42-5.05-1.05-9.85-3.4-14.41-3.74-4.39-16.14-1.45-22.25-2.24-57.16-7.37-127.15-27.63-145.88-89.03ZM439.07,222.64l-43.97,13.9-18.36,32.82c17.42-.67,32.97,7.84,48.95,13.38l13.37-60.1ZM1026.3,236.54l-43.97-13.9,13.37,60.1c15.98-5.54,31.54-14.05,48.95-13.38l-18.36-32.82ZM344.32,241.75c-3.43-3.37-6.45-10.52-11.46-11.98-3.88-1.13-19.9-1.26-24.04-.48-8.14,1.55-10.17,16.41-14.44,19.11-3.78,2.39-17.31-6.77-15.59,3.14,11.73,3.17,22.78,10.63,34.71,13.18,19.68,4.22,36.89-2.35,56.56,2.41-8.47-8.64-17.21-16.99-25.74-25.38ZM1142.61,247.13l-15.59,1.27c-7.85-18.57-16.12-22.92-36.67-19.04-7.42,1.4-30.41,32.49-39.01,37.77,20.29-4.73,38.07,1.97,58.44-2.77,7.51-1.75,21.53-7.86,28.5-11.66,3.09-1.68,5.48.19,4.33-5.57ZM608.28,516.51h62.34l2.22-22.25-44.53,2.21c-1.09-4.69.13-11.12,5.58-11.12h32.28v-20.04h-35.62v-8.91h42.3l2.21-22.26-57.64,4.67-9.14,77.7ZM724.06,434.13v41.19c0,3.72-10.89,13.7-11.18,18.91-3.26,2.25-13.8-11.88-15.23-14.76-7.35-14.78,3.72-30.26-1.58-45.37l-14.32.03c3.34,16-5.97,38.53-.48,52.83.84,2.19,19.44,28.18,21,29.06,2.11,1.19,12.54,1.19,14.66,0,1.28-.72,16.37-20.79,17.9-23.25,9.29-14.95,4.27-41.52,2.49-58.51l-13.25-.12ZM777.5,436.35h-15.61s6.68,80.17,6.68,80.17l15.59-.03c-2.14-8.56-3.46-19.16-2.22-27.87.42-2.95-1.21-3.95,3.34-3.31,17.25,2.4,25.6,38.09,45.64,33.4-.82-19.11-15.41-26.27-24.04-41.57,4.57-14.24,19.09-21.76,12.78-38.42-.54-.52-11.44-.69-12.89.21-1.26.78-12.62,22.33-14.05,26l-11.72.49-3.5-29.08ZM599.03,438.95l-44.09,1.95-15.66,80.05,45.18-2.66c25.55-17.64,31.02-53.8,14.57-79.34ZM877.68,485.32c-4.19.9-5.39-2.04-7.62-4.61-7.83-9.02-22.41-32.27-30.36-38.66-3.99-3.2-8.27-3.88-13.22-3.47l11.43,79.84,15.26.3-5.57-42.28c6.66,6.53,43.13,55.41,52.32,46.73l-17.55-78.8-15.83-3.54,11.13,44.48ZM901.87,443.33c-3.61.1-14.25-3.04-13.09,3.03l17.93,78.95,15.49.09-20.33-82.08ZM514.77,445.29l-57.3,7.25-27.31,79.54,64.38-6.84,4.63-19.83-46.74,3.33c6.95-17.23,27.27-6.65,41.99-12.55l4.74-21.96-34.47,6.7-.89-7.57,3.46-3.22,40.45-5.2,7.04-19.64ZM966.25,452.41l-43.74-4.61c-.7,5.89-6.49,13.34-6.68,18.51-.17,4.47,6.36,31.2,8.46,35.87,1.44,3.21,18.8,23.52,21.69,24.98,12.56,6.34,33.7-.52,47.45,7.16l-18.08-53.15-33.11-2.49,4.54,19.92c10.9.55,22.83-2.19,24.4,11.2-16.56-2.18-27.53,2.05-34.52-15.56-3.41-8.58-4.6-17.99-.99-26.66l37.74,4.37-7.16-19.56ZM450.2,451.96c-17.2-.3-24.3,20.02-36.74,28.92l-7.91-22.18-12.72,2.66-31.66,81.86c4.27-1.5,14.09-1.38,16.73-4.4,5.51-6.32,9.56-34.99,17.78-42.33l6.66,15.56,18.91-17.8-13.33,40.05,15.27-.29,27.02-82.05ZM1026.84,489.77l-29.07-5.42c-6.73-12.73-4.94-34.94-24.35-32.4,2.75,10.05,23.04,78.99,26.61,81.34,3.32,2.19,9.48.72,13.46,1.01l-6.68-26.69c9.91.63,21.55-3.15,28.64,5.86,9.33,11.86,2.83,31.46,27.01,29.74l-33.24-80.85-15.73-3.72,13.36,31.13ZM1100.31,492.01l-11.18-21.08-53.36-10.07c-.83.79,7.58,19.79,8.92,21.11,5.86,5.78,17.29.97,21.15,5.57,5.28,8.31,22.62,57.62,27.24,60.14,1.99,1.09,15.84,5.11,13.85-1.03l-26.65-56.84,20.03,2.19ZM374.5,463.07c-9.81,2.91-20.71,1.49-29.71,7.01-1.21.74-19.25,18.03-20.46,19.57-13.14,16.61-20.18,46.41-32.19,64.69,18.94.13,18.97-10.09,25.94-24.58l29.71-4.32-8.89,20c20.18,1.6,16.54-9.97,22.44-22.73.76-1.64,3.37-1.86,4.09-3.49,2.46-5.58,11.97-29.37,12.58-33.76,1.02-7.23-4.42-14.83-3.51-22.39ZM323.3,474.22c-5.37.01-10.82-.49-16.17.51-21.24,3.99-44.42,21.67-55.7,40.14-2.14,3.5-16.44,30.47-16.82,32.25-1.12,5.28,5.96,11.91,4.1,18.38l46.32-9.34,24.9-53c-7.26,4.55-28.35,3.56-32.8,7.25-.83.69-10.54,18.49-9.47,19.45l15.57.03-2.6,8.51-24.1,4.82c-2.08-14.6,11.86-37.55,25.04-42.85,8.9-3.58,24.7-2.69,34.55-6.63l7.18-19.52ZM1150.59,490.73c-3.77-3.21-7.77-6.44-11.81-9.34l-30.49-7.33c-11.04,20.65,7.09,37.13,20.96,50.26l-6.69,1.11c-4.18,3.63,19.39,28.59,23.38,31.17,4.08,2.64,39.09,10.32,41,8.68,6.95-18.38-10.95-36.94-24.28-47.66l6.69-1.11-.06-4.41c-6.7.14-6.26-8.71-10.07-13.36-1.52-1.86-6.42-6.11-8.64-8.01ZM828.69,547.69l-119.1-11.14-116.91,12.27c.03,7.43,42.91,60.15,51.14,69.03,9.77,10.55,55.29,55.62,67.84,54.57,24.87-12.9,46.83-33.95,65.93-54.57,13.7-14.79,34.59-40.24,45.4-56.96,1.36-2.11,7.24-11.82,5.7-13.2ZM638.67,619.7c-7.7-8.55-16.28-17.05-23.65-26.44-10.55-13.44-20.5-27.47-28.98-42.35l-15.61,1.25c8.09,13.51,16.64,27.03,25.8,39.85,20.82,29.17,50.94,66.42,78.33,89.18,6.38,5.3,32.51,25.33,38.41,23.67,4.98-1.4,28.16-18.93,33.86-23.67,27.38-22.77,57.5-60.01,78.33-89.18,9.15-12.82,17.7-26.35,25.8-39.85l-15.61-1.25c-32.03,51-71.82,98.77-123.94,130-6.24.95-52.99-37.93-60.05-44.96-4.19-4.17-8.57-11.69-12.69-16.26ZM363.15,574.64l-157.82,15.31,166.95,51.23-9.13-66.54ZM1213.85,587.78l-158.07-13.39-8.89,66.79,166.96-53.4Z"/>
      </g>
    </g>
  </g>
</svg>