<?xml version="1.0" encoding="UTF-8"?>
<svg id="Layer_2" data-name="Layer 2" xmlns="http://www.w3.org/2000/svg" viewBox="0 0 294.53 197.26">
  <defs>
    <style>
      .cls-1 {
        fill: #2d509e;
      }

      .cls-2 {
        fill: #f8ffff;
      }

      .cls-3 {
        fill: #3053a1;
      }
    </style>
  </defs>
  <g id="Layer_5" data-name="Layer 5">
    <path class="cls-2" d="M225.07,0v123.32h-59.4v-61.54h49.33V0h10.06ZM175.74,71.59v41.92h39.52v-41.92h-39.52Z"/>
    <path class="cls-3" d="M79.77,0c.51.44,1.3.19,1.98.35,2.91.71,5,3.73,5.81,6.46,3.31,11.18-5.34,25.35-11.41,34.3-.07,2.7,1.11,9.26,5.04,7.97,4.21-1.38,9.5-13.28,12.33-16.86,2.49-1.09,5.86.34,7.94,1.89,9.39,6.98,4.22,21.4-7.54,20.04-3.96-.46-4.97-4.56-1.27-4.89,2.24-.2,3.43.57,5.91-.47,4.03-1.7,3.97-7.85.83-10.4-.73-.59-3.26-2.09-4.03-1.37-2.87,4.43-7.64,14.62-12.72,16.47-5.28,1.93-9.07-1.07-10.11-6.18-.45,0-1.84,2.29-2.32,2.83-3.68,4.13-9.26,5.99-12.63.34-.51-.85-1.62-3.88-1.62-4.76v-8.7l-5.9-.39c-.78,5.16-4.74,16.09-10.53,17.19-6.48,1.24-8.49-4.95-8.36-10.19l-10.25,13.41c-.86,8.4,2.43,27.25-4.84,33.16-4.56,3.7-10.55,1.29-12.51-3.92-2.75-7.33,2.27-16.18,6.3-22.14.84-1.24,6.34-7.86,6.34-8.38v-4.05c-1.06.38-1.86,1.17-2.95,1.59-5.57,2.15-11.35-1.29-12.69-6.93-.25-1.04-.23-2.04-.56-2.99.01-.16-.01-.33,0-.49.54-6.09,5.19-11.9,11.88-11.01,1.63.22,2.88,1.29,4.31,1.94-.32-1.98,2.76-2.58,3.92-1.59.13.11.74,1.15.74,1.22v16.79c3.7-4.19,7.05-9.09,9.54-14.13.48-.97,1.18-3.67,2.06-4.07,1.24-.58,3.12-.04,3.36,1.43.56,3.4-.29,8.35.02,12,.1,1.14.33,3.13,1.53,3.62,3.6,1.46,5.87-4.59,6.68-7.17.8-2.54.94-6.19,1.79-8.26.41-.99,1.01-1.67,2.13-1.8,1.82-.21,7.16.2,9.06.52,2.29.39,3.31,1.51,3.55,3.8.33,3.12-1.63,14.91,4.38,12.9,2.57-.86,5.39-6.33,6.44-8.77-.66-7.82-1.13-16.17-.74-24.02.3-6.02,1.31-15.56,8.85-16.29h.25ZM75.36,34.32c.59.09.81-.6,1.08-1,2.76-4.04,5.88-11.06,6.7-15.86.44-2.61,1.2-11.7-2.31-12.5-3.64-.83-4.46,2.47-4.91,5.29-.29,1.82-.49,4.2-.57,6.05-.26,5.94.22,12.07.01,18.03ZM9.27,36.59c-5.86.94-6.04,11.65-.25,12.63,1.98.34,6.17-.68,7.05-2.64.22-.47.25-6.01.12-6.73-.47-2.53-4.73-3.61-6.92-3.26ZM16.2,63.01c-.33-.37-1.37,1.24-1.57,1.5-3.8,4.95-8.07,12.95-6.91,19.35.75,4.14,5.76,4.84,7.37.72.83-2.12,1.02-5.4,1.12-7.71.2-4.6-.17-9.26-.01-13.86Z"/>
    <path class="cls-2" d="M293.8,61.78v34.08h-47.12v17.65h47.86v9.81h-57.68v-61.54h56.94ZM246.67,71.59v14.22h37.31v-14.22h-37.31Z"/>
    <path class="cls-2" d="M153.9,61.78v61.54h-59.4v-61.54h59.4ZM104.32,71.59v41.92h39.76v-41.92h-39.76Z"/>
    <polygon class="cls-2" points="82.96 61.78 82.96 71.59 41.48 71.59 41.48 113.51 82.96 113.51 82.96 123.32 31.67 123.32 31.67 61.78 82.96 61.78"/>
    <path class="cls-3" d="M168.13,34.81c2.54-2,5.16-3.57,8.56-2.79,5.33,1.23,3.39,10.87,4.32,14.81.65,2.76,2.86,3.21,5.02,1.56,2.49-1.9,1.46-2.73,1.47-5.13.03-5.07,3.59-10.86,8.98-11.4,15.26-1.53,12.21,23.34-.98,22.06-2.57-.25-4.25-1.6-5.93-3.41-2.77,2.35-5.12,4.25-9.03,3.15-6.01-1.68-3.79-11.1-4.91-15.44-1.12-4.36-6.09.63-7.45,2.39-.34,3.47.28,7.33-.04,10.75-.37,4.01-4.67,2.34-4.67,1.22v-18.51c-1,.37-1.78,1.06-2.78,1.51-1.23.55-2.52.83-3.8,1.24-.54,3.56-1.29,7.18-2.95,10.41-3.7,7.22-10.68,10.14-14.41,1.06-1.45,3.64-5.03,7.61-9.19,4.76-4.29-2.93-4.07-10.58-5.42-15.06-.49-.34-1.64.98-1.95,1.35-1,1.18-2.67,4.95-3.59,5.48-1.26.73-3.38-.36-3.28-1.79.08-1.2,4.14-6.98,5.14-8.12,8.17-9.21,7.99,4.97,9.41,10.23.33,1.24,1.05,3.97,2.53,4.12,3.16.32,4.27-6.99,4.51-9.19.19-1.74-.02-5.62.48-6.88.84-2.13,3.95-1.8,4.38.57.46,2.56-.02,6.41.31,9.25.25,2.14,1.2,8.04,4.65,5.88,4.01-2.52,4.54-12.35,5.03-16.55.28-.39,1.76-.21,2.4-.3,3.05-.46,6.12-1.83,8.49-3.77.72-6.99-1.7-19.87,2.78-25.66,3.14-4.06,10.36-2.66,12.57,1.83,4.52,9.19-3.77,20.67-10.64,26.32v4.05ZM168.13,24.76c4.5-3.78,7.82-10,7.09-16.03-.51-4.19-5.44-5.39-6.58-1.24-.14.52-.51,2.26-.51,2.68v14.59ZM196.29,36.59c-5.98,1.11-5.34,15.45,2.52,12.32,4.54-1.81,5.01-13.71-2.52-12.32Z"/>
    <path class="cls-3" d="M33.32,19.43c4.15-.74,5.22,4.24,1.88,5.8-4.64,2.17-6.42-4.98-1.88-5.8Z"/>
    <path class="cls-1" d="M15.91,134.77c1.21-.36,10.83-.32,12.45-.11.76.1,1.36.17,1.77.91l.2,18.13c-.1,7.07-.57,15.05.57,21.79,1.7,9.97,18.25,10.41,19.9-1.8l.34-38.12c.41-.75,1.01-.81,1.77-.91,2.26-.29,9.42-.3,11.67,0,1.88.25,2.42,1.58,2.46,3.35.02,11.89.85,25.1-.18,35.72-1.16,12-5.03,20.82-21.14,23.05-21.07,2.92-30.54-7.53-31-31,.13-9.21-.52-19-.04-29.11.04-.88.26-1.62,1.23-1.9Z"/>
    <path class="cls-1" d="M106.74,133.92c3.59-.18,8.1.55,11.51,1.64,1.88.6,8.77,3.51,8.69,5.61-.03.69-7.21,11.16-7.88,11.36-3.9-1.63-7.44-3.79-11.99-3.54-22.45,1.26-17.3,39.23,5.49,32.33,1.72-.52,5.31-3.07,6.47-2.76,1.91.51,6.09,8.86,7.74,10.66,1.05,2.28-3.5,4.19-5.32,5.01-23.01,10.35-47.93-8.39-44.52-33.34,2.01-14.71,15.09-26.24,29.82-26.97Z"/>
    <path class="cls-1" d="M178.63,134.66c.7,0,1.45.26,1.77.91.38.78.42,9.64.24,10.98-.1.76-.17,1.36-.91,1.77l-25.94.67c.03,4.31-.08,8.99,0,12.97h19.01c.08,0,.79.69.89.9.67,1.43.69,10.99-.89,12.52h-19.01c0,2.9.07,4.54.07,6.48,0,2.69.04,14.04.04,14.04,0,0-1.58,0-4.28.08-1.48.04-3.37-.02-3.89-.02h-7.37l-.67-.67v-60.51"/>
  </g>
</svg>