<?xml version="1.0" encoding="UTF-8"?>
<svg id="Layer_2" data-name="Layer 2" xmlns="http://www.w3.org/2000/svg" viewBox="0 0 111.05 176.05">
  <defs>
    <style>
      .cls-1 {
        fill: #ecc533;
      }
    </style>
  </defs>
  <g id="Layer_5" data-name="Layer 5">
    <g>
      <g>
        <g>
          <path class="cls-1" d="M111.05,100.34v6.63h-17.4v8.29l16.66.16-.08,6.47h-16.57v8.29h17.4v5.8c-.42-.01-1.07,0-1.24,0h-26.1v-35.64h27.35Z"/>
          <path class="cls-1" d="M43.09,101.16v5.8h-17.4v8.29h15.75v6.63h-15.75v8.29h17.4v5.8h-26.1c-.25,0-.64.22-1.24,0v-34.81h27.35Z"/>
          <path class="cls-1" d="M77.07,101.16v5.8h-17.38c0,1.18-.03,2.64-.02,8.29h15.75v6.63h-15.75v7.46h17.4v6.63h-26.52v-34.81h26.52Z"/>
          <path class="cls-1" d="M9.12,101.16v34.81H0v-34.81"/>
        </g>
        <g>
          <path class="cls-1" d="M25.69,152.54v16.16c0,5.28,11.6,4.24,11.6-.83v-15.33h4.14v16.99c0,.21-1.8,3.34-2.12,3.69-4.67,5.06-18.6,2.61-18.6-4.51v-16.16h4.97Z"/>
          <path class="cls-1" d="M58.68,151.91c3.16-.16,7.38.88,9.22,3.64l-2.14,2.72c-19.3-10.7-19.12,22.11,0,11.77l2.17,2.03c-2.12,4.35-9.26,4.63-13.24,3.27-13.01-4.46-9.56-22.73,3.98-23.42Z"/>
          <polygon class="cls-1" points="91.16 152.54 91.16 155.86 77.9 155.86 78.68 162.96 89.51 163.32 89.51 166.63 78.65 167.02 77.9 175.75 73.76 175.75 73.76 152.54 91.16 152.54"/>
          <rect class="cls-1" y="143.43" width="111.05" height=".83"/>
        </g>
      </g>
      <path class="cls-1" d="M80.73,68.38c-3.36,3-7.21,6.89-10.22,10.25-3.97,4.42-8.93,12.45-12.87,15.94-.96.85-1.64,1.99-3.21,1.55-9.48-12.05-19.11-23.99-30.83-33.88-4.42-3.73-12.18-8.13-15.72-11.62-.84-.83-1.55-1.77-1.87-2.92,6.77-6.71,15.12-11.69,22.18-18.21C37.87,20.56,45.82,9.92,54.46.18c.71-.24,1.42-.23,2.14-.02,1.5.44,16.81,20.63,20.06,23.92,4.15,4.22,10.29,9.42,14.93,13.25,1.83,1.52,13.65,9.38,13.64,10.38-7.31,7.84-16.52,13.53-24.5,20.67ZM69.13,75.01c4.32-3.69,9.03-7.42,12.9-11.57,2.7-2.89,11.06-12.5,10.45-16.18-.66-4-18.77-23.38-22.85-26.9-6.36-5.49-12.04-11.74-20.08-6.17-7.62,5.28-24.09,21.36-29.18,29.02-1.22,1.83-2.36,3.68-1.99,5.95.39,2.39,9.21,12.77,11.44,15.15,3.49,3.71,19.31,18.38,23.26,19.83,5.77,2.12,11.88-5.57,16.05-9.13Z"/>
      <path class="cls-1" d="M30.37,36.23c3.7-4.13,21.11-22.81,26.07-21.68,4.01.92,20.94,17.21,24.37,21.13,2.42,2.76,9.2,10.1,8.56,13.49-.77,4.09-17.43,20.81-21.41,24.24-3.03,2.62-9.74,8.47-13.62,7.85-3.64-.58-21.68-17.78-24.94-21.53-2.07-2.38-7.98-9.33-7.93-12.05.06-3.31,6.72-9.02,8.9-11.45ZM56.35,22.43c-1.42-.26-1.72.31-2.27,1.45-1.77,3.62-2.57,9.17-4.38,12.99l3.38,1.86-.87,13.54h5.81s.1-13.58.1-13.58l3.22-1.35-4.98-14.91ZM58.01,72.16v-15.75l-4.14-.82c4.91.6,18.82-.99,21.17-5.83,1.89-3.89-6.64-8.91-10.19-8.93-2.42-.01-1.49,3.38-.94,3.87.7.63,4.43-1.05,6.58,2.15,2.66,3.94-7.06,5.87-9.68,6.16-2.87.32-22.45-.03-19.02-5.7l7.09-3.34c.32-1.55-.42-1.62-1.44-2.28-5.25-3.39-12.19.72-14.34,6.01,3.32,6.7,12.4,7.81,19.1,7.87-.11,3.45.12,6.94.03,10.4-.14,5.57-2.99,6.61,5.76,6.18Z"/>
    </g>
  </g>
</svg>