<?xml version="1.0" encoding="UTF-8"?>
<svg id="Layer_2" data-name="Layer 2" xmlns="http://www.w3.org/2000/svg" viewBox="0 0 2772.76 845.89">
  <defs>
    <style>
      .cls-1 {
        fill: #0f6cb5;
      }

      .cls-2 {
        fill: #8cc53f;
      }
    </style>
  </defs>
  <g id="Layer_5" data-name="Layer 5">
    <g>
      <path class="cls-1" d="M2151.98,845.86c-27.18-9.62-24.88-39.89-4.36-55.67-30.26-43.55,51.23-51.8,37.71-10.69-2.12,6.45-12.43,14-12.61,14.97-.24,1.34,7.45,12.23,8.14,11.52.55-1.66,1.11-9.21,1.46-9.55.8-.78,13.72.41,16.46-.08,2.53,8.49-7.33,21.46-6.86,28.12.33,4.71,11.04,15.98,10.95,17.96-.12,2.77-15.81,2.57-18.53,2.03-3.21-.63-4.39-4.14-6.87-4.12-1.41,0-9.46,4.55-11.74,5.52h-13.76ZM2162.57,766.26c-8.53,2.13-.65,21.85,4.89,9.12,1.93-4.43.27-10.4-4.89-9.12ZM2168.49,826.6c1.53-2.17-10.29-17.34-11.69-20.6-10.46,10.3-4.51,27.71,11.69,20.6Z"/>
      <path class="cls-1" d="M1132.02,845.86h-16.52c-8.66-3.93-15.79-7.96-18.88-17.57-3.99-12.41-3.89-38.74-1.62-51.71,5.22-29.78,45.97-32.69,56-9.48,4.65,10.76,4.66,52.11.35,63.02-3.67,9.28-10.35,12.56-19.33,15.75ZM1118.58,826.28c5.79,5.77,12.3-.04,13.31-7.36,1.12-8.08,1.12-31.55,0-39.62-1.66-11.96-13.59-12.13-14.89-2.8-1.34,9.67-1.04,32.52-.18,42.6.18,2.13.24,5.65,1.76,7.17Z"/>
      <path class="cls-1" d="M765.88,845.86h-16.52c-8.98-3.72-16.17-7.07-19.36-17.1-3.98-12.51-4.1-45.71-.34-58.27,7.44-24.87,48.5-24.82,55.93,0,3.72,12.43,3.82,46.04-.37,58.25-3.68,10.74-9.6,12.9-19.34,17.12ZM754.47,770.51c-1.66.5-2.95,1.8-3.44,3.46-2.31,7.86-3.01,45.84,1.18,51.86,2.08,2.99,7.6,3.14,10.37.92,4.62-3.71,4.59-49.48.69-54.58-1.8-2.34-6.12-2.46-8.8-1.66Z"/>
      <path class="cls-1" d="M2384.6,845.86c-16.55-5.05-20.69-16.15-22-32.33-2.25-27.73-3.23-65.34,34.93-61,13.59,1.55,25.58,17.64,21.29,30.59-1.04,3.14-19.72,3.02-20.46,2.26-.48-.5.2-10.89-2.03-13.78-1.37-1.79-7.94-2.29-9.14-.54-3.85,5.63-3.88,54.04.34,56.76,1.03.66,5.77.43,7.16-.05,4.44-1.53,4.43-15.56,3.67-16.27-.68-.64-6.81,1.56-8.07-2.25-.8-2.42-.79-15.62,1.87-15.62h26.15c.15,0,2.06,1.92,2.06,2.06v46.75c0,2.62-18.19,5-17.2-3.43-3,4.54-7.48,4.49-11.71,6.87h-6.88Z"/>
      <path class="cls-1" d="M1641.31,845.86c-11.3-4.74-18-10.43-20.29-23.04-2.46-13.51-2.35-35.28-.03-48.82,3.31-19.31,25.64-25.99,42.33-19.56,12.79,4.93,16.56,19.82,16.53,32.29h-22.02c-.8,0,1.98-11.42-3.34-15.22-4.16-2.97-8.89-1.23-10.76,3.2s-1.73,36.27-1.11,43.02c.38,4.12,1.39,9.57,6.34,10.29,12.66,1.85,7.64-19.3,8.87-19.3h22.02c.46,16.75-3.97,32.91-22.02,37.12h-16.52Z"/>
      <path class="cls-1" d="M816.81,845.86c-9.99-3.47-16.79-7.29-19.98-17.85-3.48-11.5-3.71-51.24,1.38-61.91,9.17-19.21,43.76-18.78,52.66,1.06,1.59,3.55,5.24,16.58,1.82,18.98-1.37.96-16.44,1.07-18.47.41-5.16-1.69,2.35-18.15-11.13-16.34-2.65.35-3.5,1.61-4.53,3.83-2.79,5.98-2.78,44.2,0,50.15,1.04,2.22,1.89,3.47,4.53,3.83,11.77,1.58,8.57-11.56,8.87-19.28h22.02c1.28,16.66-3.57,31.88-20.65,37.12h-16.52Z"/>
      <path class="cls-1" d="M1579.37,845.86c-15.36-4.63-20.6-17.72-19.27-33h20.65c.8,0-2.04,12.94,3.67,14.9,6.34,2.17,9.71-1.19,9.42-7.37-.56-12.22-28.87-17.98-32.03-36.05-7.38-42.17,56.32-43.58,51.97-3.11h-19.27c-.4,0,.11-5.17-1.04-7.9-3.64-8.61-14.79-4.24-10.3,6.17,3.05,7.08,22.21,14.09,27.87,23.02,9.54,15.05,2.49,38.21-15.16,43.33h-16.52Z"/>
      <path class="cls-1" d="M1328.85,845.86c-12.27-4.44-18.13-12.54-19.14-25.63-.97-12.62,11.64-5.71,20.52-7.37-1.04,7.2,2.43,21.23,11.83,13.89,11.42-8.91-14.56-22.2-19.37-26.29-22.15-18.82-11.41-51.1,19.25-48.09,16.06,1.57,22.81,13.76,22.7,28.88h-20.65c-.66,0,1.54-10.46-3.67-12.18-6.44-2.12-9.97,3.72-8.01,9.34,3.2,9.21,25.83,13.98,30.64,28.59,5.56,16.87-.36,33.07-17.58,38.87h-16.52Z"/>
      <path class="cls-1" d="M2724.58,845.86c-14.37-4.68-20.8-16.99-18.67-31.71,1.14-1.64,19.34-2.02,20.05-1.29.8.82-1.88,13.87,4.82,15.18,5.41,1.05,9.25-1.87,8.91-7.51-.65-10.9-23.61-17.85-29.65-29.58-8.87-17.21.63-37.71,20.67-38.64,19.83-.92,29.1,9.63,29.65,28.93h-20.65c-.71,0,1.98-11.34-4.85-12.44-4.92-.79-7.78,2.85-7.51,7.53.56,9.61,26.52,16.1,31.32,30.66,5.44,16.5-.5,33.36-17.58,38.87h-16.52Z"/>
      <path class="cls-1" d="M1946.88,845.86c-14.37-4.68-20.8-16.99-18.67-31.71,1.14-1.64,19.34-2.02,20.05-1.29.8.82-1.88,13.87,4.82,15.18,5.41,1.05,9.25-1.87,8.91-7.51-.61-10.33-23.61-17.86-29.65-29.58-21.74-42.2,53.94-56.63,48.95-9.71h-19.27c-.71,0,1.98-11.34-4.85-12.44-4.92-.79-7.78,2.85-7.51,7.53.56,9.61,26.52,16.1,31.32,30.66,5.44,16.5-.5,33.36-17.58,38.87h-16.52Z"/>
      <path class="cls-1" d="M687.42,845.86c-16.21-4.37-21.04-17.25-19.28-33,4.22.8,16.53-1.37,19.36.61,3.28,2.29-1.91,13.45,6.19,14.56,6.11.84,8.18-3.4,7.45-8.86-1.55-11.68-28.89-16.45-31.51-34.61-6.28-43.5,54.71-42.95,52.19-3.32h-20.65c-.73,0,2.69-11.26-4.89-12.39-7.07-1.06-7.66,5.68-5.4,11,3.68,8.68,26.26,13.38,29.99,27.77,4.38,16.87-.8,33.11-18.33,38.24h-15.14Z"/>
      <path class="cls-1" d="M2059.75,845.86c-14.37-4.68-20.8-16.99-18.67-31.71,1.14-1.64,19.34-2.02,20.05-1.29.8.82-1.88,13.87,4.82,15.18,10.46,2.04,10.86-9.49,4.71-15.76-11.55-11.76-29.52-12.74-28.92-35.85.91-35,58.93-31.47,52.42,4.81h-19.27c-.71,0,1.96-11.38-4.86-12.45-5.23-.81-8.02,2.61-7.53,7.5,1.04,10.21,26.44,15.75,31.27,30.77,5.38,16.74-.32,33.14-17.51,38.8h-16.52Z"/>
      <g>
        <g>
          <path class="cls-1" d="M1891.83,568.13c1.51,20.75.88,39.05,24.49,44.97,7.81,1.96,20.2,2.81,28.44,3.21,50.37,2.44,109.42,1.15,159.74-1.42,23.91-1.22,52.58,4.55,55.72-26.84,2.11-21.08-3.26-35.46-25.59-39.03-27.21-4.35-63.57-1.58-92.14-2.84-32.85-1.44-66.07-3.98-98.99-5.61-88.96-4.42-167.61,5.72-174.24-107.82-2.59-44.4,2.05-109.54,45.46-133.45,59.17-32.59,203.85-23.24,273.19-21.23,50.52,1.47,146.11-1.53,172.17,52.13,9.91,20.41,14.33,60.98,11.71,83.31-.16,1.38-.63,4.74-2.13,4.74h-124.57c-1.73-11.32.41-27-10.55-34.15-11.99-7.83-46.77-6.41-61.77-7.04-39.63-1.68-85.92-5.49-125.26-2.86-24.16,1.61-54.1,9.22-51.54,39.23,1.59,18.66,13.49,21.92,29.59,24.06,83.87,11.15,175.62.53,259.94,12.58,94.84,13.55,106.49,61.31,101.42,150.41-5.87,103.41-65.43,109.86-153.59,113.32-83.13,3.26-227.09,9.76-304.83-13.01-64.93-19.02-63.72-75.1-63.32-132.68h126.63Z"/>
          <path class="cls-1" d="M2427.27,385.27v59.12h326.22v92.81c0,.15-1.92,2.06-2.06,2.06h-324.16v67.37h345.49v103.12h-472.81c-.15,0-2.06-1.92-2.06-2.06v-422.1c0-.15,1.92-2.06,2.06-2.06h469.37c.15,0,2.06,1.92,2.06,2.06v97.62c0,.15-1.92,2.06-2.06,2.06h-342.05Z"/>
        </g>
        <g>
          <path class="cls-1" d="M1031.54,418.26c-.91-11.29.13-27.16-10.55-34.15-11.96-7.82-46.79-6.41-61.77-7.04-39.63-1.68-85.92-5.49-125.26-2.86-26.98,1.8-60.78,12.73-49.52,46.82,4.37,13.22,15.19,14.84,27.56,16.46,83.97,11.05,175.61.53,259.94,12.58,95.59,13.66,106.65,62.26,101.42,151.79-5.97,102.3-66.88,108.54-153.59,111.94-59.43,2.33-120.69,3.3-180.32,1.5-40.89-1.24-125.04-4.67-156.82-30.34-34.16-27.6-30.41-77.19-31-116.84h126.63c1.92,20.48.97,39.07,24.49,44.97,7.81,1.96,20.2,2.81,28.44,3.21,50.37,2.44,109.42,1.15,159.74-1.42,23.91-1.22,52.58,4.55,55.72-26.84,2.12-21.22-3.34-35.57-25.62-39.01-27.59-4.26-63.3-1.6-92.11-2.86-32.4-1.42-65.15-4-97.62-5.61-89.38-4.45-168.74,6.39-175.54-107.89-2.95-49.59,2.38-114.7,53.69-137.45,62.84-27.87,194.3-19.2,264.89-17.15,50,1.45,141.73-1.42,170.28,48.52,11.98,20.97,16.4,63.18,13.61,86.92-.16,1.38-.63,4.74-2.13,4.74h-124.57Z"/>
          <path class="cls-1" d="M1647.5,709.74l-38.49-71.6-279.24.05-37.4,71.55h-147.97l217.24-410.65c4.63-4.53,4.98-15.06,11.86-15.65h195.62s4.07,1.44,4.07,1.44l220.79,421.58c.62,1.14-1.6,3.29-1.95,3.29h-144.53ZM1564.23,543.38l-80.5-158.13c-3.72-3.31-19.14-.29-24.85-1.46l-81.84,159.59h187.2Z"/>
        </g>
      </g>
      <g>
        <path class="cls-1" d="M.57,466.39c1.21-10.11,10.16-32.39,17.18-39.9,11.23-12.01,23.75.06,37.67-1.57,10.56-23.68,23.86-46.6,41.49-65.77-24.76,97.18,6.53,192.72,81.2,257.82,2.54,2.22,15.7,11.13,16.2,12,1.22,2.13,1.64,12.16,2.63,15.94,19.43,74.64,106.19,95.95,159.47,40.11,2.33-2.44,5.57-8.9,7.65-10.24,3.28-2.12,32.57-6.05,40.12-8.04,79.27-20.92,145.16-82.51,171.78-159.76l6.84-21.32c5.35,25.96,6.01,52.37,4.08,78.83.6,2.5,22.98,6.5,26.84,10.59,12.72,13.52-1.94,68.42-18,76.75-8.03,4.16-23.28-2.75-32.16-3.95-5.77,18.58-17.65,35.57-28.68,51.58.01,1.46,17.65,17.38,18.75,22.28,4.07,18.09-27.97,48.56-43.38,55.08-19.47,8.24-21.74-7.5-36.6-16.01-15.59,11.54-32.48,21.45-50.47,28.78,1.19,11.69,10.19,26.19,1.36,36.36-8.47,9.75-38.18,18.67-50.95,19.92h-9.64c-10.55.4-17.05-3.4-19.5-11.39l-5.93-18.93c-18.29,2.41-37.62,2.56-56.11-.35-1.51,10.35-4.57,30.95-20.31,30.66h-20.65c-28.8-2.48-62.02-12.55-47.48-48.21l.49-5.18c-16.11-8.16-31.89-16.92-47.35-26.28l-17.56,15.15c-18.47,9.85-41.59-13.31-52.44-26.58-19.93-24.37-15.83-34.61,6.17-53.16-11.18-14.95-22.27-31.33-27.74-49.09-37.86,20.84-52.77-12.69-54.97-45.88v-19.25c-5.13-10.89,25.95-22.3,30.42-21.78-2.48-14.74-2.15-36.68-.55-54.72l-16.25-4.33c-8.31-2.57-13.28-6.23-13.62-15.41.67-7.88-.92-17.07,0-24.75Z"/>
        <g>
          <path class="cls-1" d="M283.88,552c46.29-1.62,82.79,41.07,73.96,86.32-11.8,60.43-89.78,79.83-127.97,31.44-36.5-46.26-4.91-115.7,54.01-117.76Z"/>
          <g>
            <path class="cls-2" d="M450.85,259.93c109.39,66.45,134.1,223.57,50.06,320.57.66-9.91,3.68-19.64,4.81-29.57,6.07-53.67-11.28-108.34-46.08-149.18-3.09-3.63-13.82-12.23-15.14-15.13-2.02-4.45-.17-14.34-.74-19.89-8.49-83.96-118.5-113.4-166.85-44.34-2.06,2.94-8.89,16.55-9.66,17.16-1.61,1.3-13.32,3.15-16.91,4.42-52.01,18.36-93.5,54.67-116.5,104.99l-12.13,32.54c-25.88-126.87,73.54-250.52,202.2-255.85l48.17-183.59c3.35-15.36-16.44-10.19-20.63-20.36-3.32-8.05,2.32-23.78,13.15-21.47,50,15.72,108.49,23.49,157.34,40.92,11.38,4.06,14.42,8.91,9.24,21.01-7.87,18.42-24.31-3.74-31.67,12.36l-48.67,185.41ZM346.05,225.76c4.06.4,11.73,4.5,15.21,2.15l46.12-172.69c-1.09-1.86-14.49-6.53-15.67-1.76l-45.66,172.3Z"/>
            <path class="cls-2" d="M349.96,303.11c95.02-2.8,98.86,141.95,5.1,145.46-95.94,3.59-100.62-142.64-5.1-145.46Z"/>
          </g>
        </g>
      </g>
      <path class="cls-1" d="M1021.22,753.74l9.64,26.14c1.4-.03,6.14-26.14,9.64-26.14h21.34l-18.95,49.13c-2.14,11.42,1.69,27.3-.32,38.18-1.07,5.77-21.62,3.85-22.8,2.15-2.15-3.09.37-30.9-.69-37.81-1.87-12.18-13.2-27.72-15.07-40.64-3.09.21-.5,7.4-1.35,8.25-.59.58-13.91-.44-16.52,0v69.43c0,.15-1.92,2.06-2.06,2.06h-19.96v-71.5h-16.52v-19.25h73.64Z"/>
      <path class="cls-1" d="M2494.71,844.49l-13.78-46.74c-2.4-.33-1.29,3.12-1.35,4.78-.29,7.55,3.6,36.61.77,40.67-1.39,1.99-18.67,2.65-19.85-.97v-86.24c1.15-3.46,20.33-3.19,22.56-.92l15.78,45.4-1.17-44.49c1.42-4.33,15.03-1.45,19.08-2.25v90.74h-22.02Z"/>
      <path class="cls-1" d="M1798.91,753.74c1.3.37,2.93,3.33,3.53,4.72,5.25,12.18,7.98,29.17,12.32,42.01,2.38,0,1.51-6.01,1.43-7.62-.35-6.53-3.49-34.03-.84-37.83,1.39-1.99,18.67-2.65,19.85.97v86.24c-1.17,3.51-20.78,3.4-23.32.3l-15.02-46.16,1.17,45.86c-1.42,4.33-15.03,1.45-19.08,2.25v-90.74c5.37.97,15.34-1.33,19.96,0Z"/>
      <path class="cls-1" d="M1484.39,844.49c-4.05-.8-17.66,2.07-19.08-2.25v-86.24c1.08-3.3,19.74-3.05,21.89-1.62s13.68,42.74,15.1,48.86c3.82-.59-.02-6.64-.02-7.55v-41.93c4.05.8,17.66-2.07,19.08,2.25v86.24c-1.08,3.3-19.74,3.05-21.89,1.62-2.43-1.62-12.39-38.83-13.72-44.74-4.98,1.66-1.36,4.94-1.36,6.19v39.18Z"/>
      <path class="cls-1" d="M2317.15,844.49c-4.05-.8-17.66,2.07-19.08-2.25v-86.24c1.08-3.3,19.74-3.05,21.89-1.62s13.68,42.74,15.1,48.86c3.82-.59-.02-6.64-.02-7.55v-41.93c4.05.8,17.66-2.07,19.08,2.25v86.24c-1.08,3.3-19.74,3.05-21.89,1.62-2.47-1.65-12.07-38.87-13.72-44.74-4.98,1.66-1.36,4.94-1.36,6.19v39.18Z"/>
      <path class="cls-1" d="M2674.34,753.74c3.96.37,12.85,2.31,16.31,4.33,12.27,7.15,11.54,27.15,3.45,37.46-1.51,1.92-3.78,2.05-3.92,2.23-1.92,2.53,2.53,3.03,3.93,4.91,6.9,9.27,3.47,22.97,5.98,33.96.41,1.78,5.92,7.85,1.78,7.85h-22.02c-8.53-11.49,7.32-39.1-15.83-35.75v35.75h-20.65v-90.74c10.01.68,21.1-.93,30.97,0ZM2664.02,790.86c18.92,2.76,19.14-22.74,0-20.62v20.62Z"/>
      <path class="cls-1" d="M1460.99,844.49h-19.96c-2.44,0-3.94-15.05-3.43-17.88h-15.74c-1.21.17-1.03,17.88-4.23,17.88h-19.96l19.11-89.94c.89-1.33,24.17-1.63,25.68.52l18.52,89.43ZM1430.7,779.87c-3.45-.25-2.36-.33-2.71,2.06-1.4,9.38-1.99,18.93-4.16,28.17h11l-4.13-30.23Z"/>
      <path class="cls-1" d="M1246.95,844.49c-.65-.16-2.17-1.79-1.52-2.83,3.87-10.11,16.3-84.82,20.05-87.28,1.66-1.09,24.03-2.45,25.18,2.45l18.6,85.65c-.5,2.8-16.74,2.67-19.41,1.78-5.34-1.78-3.07-15.7-5.19-17.5-1.2-1.01-11.45.46-14.2-.23-1.62.28-2.62,17.96-3.55,17.96-5.01,0-16.02.96-19.96,0ZM1282.06,810.12c.85-.85-2.48-20.71-2.98-23.84-.36-2.26-.5-8.27-2.51-9.15l-4.15,32.99h9.65Z"/>
      <path class="cls-1" d="M2607.58,772.99v15.12h24.78c-.41,2.97,1.4,19.25-2.06,19.25h-22.71v17.87h27.53c-.41,2.97,1.4,19.25-2.06,19.25h-47.49v-90.74h47.49c3.1,0,3.1,19.25,0,19.25h-25.46Z"/>
      <path class="cls-1" d="M2549.77,772.99v15.12h24.78c-.41,2.97,1.4,19.25-2.06,19.25h-22.71v17.87h27.53c-.41,2.97,1.4,19.25-2.06,19.25h-47.49v-90.74h47.49c3.1,0,3.1,19.25,0,19.25h-25.46Z"/>
      <path class="cls-1" d="M2289.62,772.99h-27.53v15.12h24.78v19.25h-24.78v17.87h27.53c-.41,2.97,1.4,19.25-2.06,19.25h-45.42c-.15,0-2.06-1.92-2.06-2.06v-86.62c0-.15,1.92-2.06,2.06-2.06h45.42c3.46,0,1.65,16.28,2.06,19.25Z"/>
      <path class="cls-1" d="M944.82,772.99h-27.53v15.12h24.78c-.41,2.97,1.4,19.25-2.06,19.25h-22.71v17.87h27.53c-.41,2.97,1.4,19.25-2.06,19.25h-45.42c-.15,0-2.06-1.92-2.06-2.06v-86.62c0-.15,1.92-2.06,2.06-2.06h45.42c3.46,0,1.65,16.28,2.06,19.25Z"/>
      <path class="cls-1" d="M1769.32,753.74v19.25h-27.53v15.12h26.15c-.41,2.97,1.4,19.25-2.06,19.25h-24.09v17.87h27.53v19.25h-48.18v-90.74h48.18Z"/>
      <path class="cls-1" d="M1211.85,753.74v19.25h-27.53v15.12h26.15v17.87h-26.15v38.5h-19.96c-.15,0-2.06-1.92-2.06-2.06v-86.62c0-.15,1.92-2.06,2.06-2.06h47.49Z"/>
      <path class="cls-1" d="M1894.58,753.74v19.25h-16.52v69.43c0,.15-1.92,2.06-2.06,2.06h-19.96v-71.5h-16.52v-19.25h55.06Z"/>
      <path class="cls-1" d="M2039.11,753.74v19.25h-16.52v69.43c0,3.12-22.02,3.12-22.02,0v-69.43h-16.52c.41-3.22-1.38-19.25,2.07-19.25h52.99Z"/>
      <path class="cls-1" d="M863.61,844.49v-90.74h19.96c1.51,0,1.97,3.36,2.13,4.74,1.95,16.59,1.95,64.67,0,81.26-.16,1.39-.63,4.74-2.13,4.74h-19.96Z"/>
      <path class="cls-1" d="M1710.13,753.74v90.74h-19.96c-1.51,0-1.97-3.36-2.13-4.74-1.95-16.59-1.95-64.67,0-81.26.16-1.39.63-4.74,2.13-4.74h19.96Z"/>
      <path class="cls-1" d="M1373.78,753.93c2.87-.95,18.54-1.1,19.57,2.06l-.41,87.2c-1.38,1.97-20.04,2.67-21.23-.97l.41-87.2c.39-.62.99-.87,1.66-1.1Z"/>
      <path class="cls-1" d="M1900.96,753.93c2.87-.95,18.54-1.1,19.57,2.06l-.41,87.2c-1.38,1.97-20.04,2.67-21.23-.97l.41-87.2c.39-.62.99-.87,1.66-1.1Z"/>
      <path class="cls-1" d="M2430.9,753.93c2.87-.95,18.54-1.1,19.57,2.06l-.41,87.2c-1.38,1.97-20.04,2.67-21.23-.97l.41-87.2c.39-.62.99-.87,1.66-1.1Z"/>
    </g>
  </g>
</svg>