<?xml version="1.0" encoding="UTF-8"?>
<svg id="Layer_2" data-name="Layer 2" xmlns="http://www.w3.org/2000/svg" xmlns:xlink="http://www.w3.org/1999/xlink" viewBox="0 0 271.49 460.72">
  <defs>
    <style>
      .cls-1 {
        stroke: url(#Red_Blue_Yellow-47);
      }

      .cls-1, .cls-2, .cls-3, .cls-4, .cls-5, .cls-6, .cls-7, .cls-8, .cls-9, .cls-10, .cls-11, .cls-12, .cls-13, .cls-14, .cls-15, .cls-16, .cls-17, .cls-18, .cls-19, .cls-20, .cls-21, .cls-22, .cls-23, .cls-24, .cls-25, .cls-26, .cls-27, .cls-28, .cls-29, .cls-30, .cls-31, .cls-32, .cls-33, .cls-34, .cls-35, .cls-36, .cls-37, .cls-38, .cls-39, .cls-40, .cls-41, .cls-42, .cls-43, .cls-44, .cls-45, .cls-46, .cls-47 {
        fill: none;
        stroke-miterlimit: 10;
        stroke-width: .41px;
      }

      .cls-2 {
        stroke: url(#Red_Blue_Yellow-38);
      }

      .cls-3 {
        stroke: url(#Red_Blue_Yellow);
      }

      .cls-4 {
        stroke: url(#Red_Blue_Yellow-44);
      }

      .cls-5 {
        stroke: url(#Red_Blue_Yellow-34);
      }

      .cls-6 {
        stroke: url(#Red_Blue_Yellow-25);
      }

      .cls-7 {
        stroke: url(#Red_Blue_Yellow-5);
      }

      .cls-8 {
        stroke: url(#Red_Blue_Yellow-36);
      }

      .cls-9 {
        stroke: url(#Red_Blue_Yellow-7);
      }

      .cls-10 {
        stroke: url(#Red_Blue_Yellow-40);
      }

      .cls-11 {
        stroke: url(#Red_Blue_Yellow-37);
      }

      .cls-12 {
        stroke: url(#Red_Blue_Yellow-4);
      }

      .cls-13 {
        stroke: url(#Red_Blue_Yellow-19);
      }

      .cls-14 {
        stroke: url(#Red_Blue_Yellow-41);
      }

      .cls-15 {
        stroke: url(#Red_Blue_Yellow-21);
      }

      .cls-16 {
        stroke: url(#Red_Blue_Yellow-23);
      }

      .cls-17 {
        stroke: url(#Red_Blue_Yellow-26);
      }

      .cls-18 {
        stroke: url(#Red_Blue_Yellow-46);
      }

      .cls-19 {
        stroke: url(#Red_Blue_Yellow-24);
      }

      .cls-20 {
        stroke: url(#Red_Blue_Yellow-32);
      }

      .cls-21 {
        stroke: url(#Red_Blue_Yellow-45);
      }

      .cls-22 {
        stroke: url(#Red_Blue_Yellow-3);
      }

      .cls-23 {
        stroke: url(#Red_Blue_Yellow-13);
      }

      .cls-24 {
        stroke: url(#Red_Blue_Yellow-42);
      }

      .cls-25 {
        stroke: url(#Red_Blue_Yellow-10);
      }

      .cls-26 {
        stroke: url(#Red_Blue_Yellow-29);
      }

      .cls-27 {
        stroke: url(#Red_Blue_Yellow-30);
      }

      .cls-28 {
        stroke: url(#Red_Blue_Yellow-17);
      }

      .cls-29 {
        stroke: url(#Red_Blue_Yellow-9);
      }

      .cls-30 {
        stroke: url(#Red_Blue_Yellow-20);
      }

      .cls-31 {
        stroke: url(#Red_Blue_Yellow-11);
      }

      .cls-32 {
        stroke: url(#Red_Blue_Yellow-31);
      }

      .cls-33 {
        stroke: url(#Red_Blue_Yellow-35);
      }

      .cls-34 {
        stroke: url(#Red_Blue_Yellow-22);
      }

      .cls-35 {
        stroke: url(#Red_Blue_Yellow-18);
      }

      .cls-36 {
        stroke: url(#Red_Blue_Yellow-28);
      }

      .cls-37 {
        stroke: url(#Red_Blue_Yellow-8);
      }

      .cls-38 {
        stroke: url(#Red_Blue_Yellow-16);
      }

      .cls-39 {
        stroke: url(#Red_Blue_Yellow-14);
      }

      .cls-40 {
        stroke: url(#Red_Blue_Yellow-2);
      }

      .cls-41 {
        stroke: url(#Red_Blue_Yellow-33);
      }

      .cls-42 {
        stroke: url(#Red_Blue_Yellow-12);
      }

      .cls-43 {
        stroke: url(#Red_Blue_Yellow-15);
      }

      .cls-44 {
        stroke: url(#Red_Blue_Yellow-27);
      }

      .cls-45 {
        stroke: url(#Red_Blue_Yellow-39);
      }

      .cls-46 {
        stroke: url(#Red_Blue_Yellow-43);
      }

      .cls-47 {
        stroke: url(#Red_Blue_Yellow-6);
      }
    </style>
    <linearGradient id="Red_Blue_Yellow" data-name="Red, Blue, Yellow" x1="125.86" y1="220.65" x2="296.81" y2="220.65" gradientTransform="translate(-84.76 400.97) rotate(-73.84)" gradientUnits="userSpaceOnUse">
      <stop offset="0" stop-color="#ffdf81"/>
      <stop offset=".02" stop-color="#f3d982"/>
      <stop offset=".07" stop-color="#d5cb86"/>
      <stop offset=".13" stop-color="#a4b48c"/>
      <stop offset=".2" stop-color="#5f9494"/>
      <stop offset=".28" stop-color="#096b9e"/>
      <stop offset=".29" stop-color="#0067a0"/>
      <stop offset=".51" stop-color="#ca234d"/>
      <stop offset=".75" stop-color="#ffdf81"/>
      <stop offset=".78" stop-color="#fbdd81"/>
      <stop offset=".81" stop-color="#efd782"/>
      <stop offset=".84" stop-color="#dbce85"/>
      <stop offset=".87" stop-color="#bfc188"/>
      <stop offset=".91" stop-color="#9bb08d"/>
      <stop offset=".94" stop-color="#709b92"/>
      <stop offset=".97" stop-color="#3c8398"/>
      <stop offset="1" stop-color="#01679f"/>
      <stop offset="1" stop-color="#0067a0"/>
    </linearGradient>
    <linearGradient id="Red_Blue_Yellow-2" data-name="Red, Blue, Yellow" x1="127.55" y1="218.38" x2="295.12" y2="218.38" xlink:href="#Red_Blue_Yellow"/>
    <linearGradient id="Red_Blue_Yellow-3" data-name="Red, Blue, Yellow" x1="128.9" y1="216.11" x2="293.77" y2="216.11" xlink:href="#Red_Blue_Yellow"/>
    <linearGradient id="Red_Blue_Yellow-4" data-name="Red, Blue, Yellow" x1="129.9" y1="213.84" x2="292.77" y2="213.84" xlink:href="#Red_Blue_Yellow"/>
    <linearGradient id="Red_Blue_Yellow-5" data-name="Red, Blue, Yellow" x1="130.53" y1="211.57" x2="292.14" y2="211.57" xlink:href="#Red_Blue_Yellow"/>
    <linearGradient id="Red_Blue_Yellow-6" data-name="Red, Blue, Yellow" x1="130.79" y1="209.3" x2="291.88" y2="209.3" xlink:href="#Red_Blue_Yellow"/>
    <linearGradient id="Red_Blue_Yellow-7" data-name="Red, Blue, Yellow" x1="130.67" y1="207.03" x2="292" y2="207.03" xlink:href="#Red_Blue_Yellow"/>
    <linearGradient id="Red_Blue_Yellow-8" data-name="Red, Blue, Yellow" x1="130.18" y1="204.77" x2="292.49" y2="204.77" xlink:href="#Red_Blue_Yellow"/>
    <linearGradient id="Red_Blue_Yellow-9" data-name="Red, Blue, Yellow" x1="129.32" y1="202.5" x2="293.35" y2="202.5" xlink:href="#Red_Blue_Yellow"/>
    <linearGradient id="Red_Blue_Yellow-10" data-name="Red, Blue, Yellow" x1="128.11" y1="200.23" x2="294.56" y2="200.23" xlink:href="#Red_Blue_Yellow"/>
    <linearGradient id="Red_Blue_Yellow-11" data-name="Red, Blue, Yellow" x1="126.55" y1="197.96" x2="296.12" y2="197.96" xlink:href="#Red_Blue_Yellow"/>
    <linearGradient id="Red_Blue_Yellow-12" data-name="Red, Blue, Yellow" x1="124.66" y1="195.69" x2="298.01" y2="195.69" xlink:href="#Red_Blue_Yellow"/>
    <linearGradient id="Red_Blue_Yellow-13" data-name="Red, Blue, Yellow" x1="122.47" y1="193.42" x2="300.2" y2="193.42" xlink:href="#Red_Blue_Yellow"/>
    <linearGradient id="Red_Blue_Yellow-14" data-name="Red, Blue, Yellow" x1="119.99" y1="191.15" x2="302.68" y2="191.15" xlink:href="#Red_Blue_Yellow"/>
    <linearGradient id="Red_Blue_Yellow-15" data-name="Red, Blue, Yellow" x1="117.25" y1="188.89" x2="305.42" y2="188.89" xlink:href="#Red_Blue_Yellow"/>
    <linearGradient id="Red_Blue_Yellow-16" data-name="Red, Blue, Yellow" x1="114.28" y1="186.62" x2="308.39" y2="186.62" xlink:href="#Red_Blue_Yellow"/>
    <linearGradient id="Red_Blue_Yellow-17" data-name="Red, Blue, Yellow" x1="111.09" y1="184.35" x2="311.59" y2="184.35" xlink:href="#Red_Blue_Yellow"/>
    <linearGradient id="Red_Blue_Yellow-18" data-name="Red, Blue, Yellow" x1="107.7" y1="182.08" x2="314.97" y2="182.08" xlink:href="#Red_Blue_Yellow"/>
    <linearGradient id="Red_Blue_Yellow-19" data-name="Red, Blue, Yellow" x1="104.13" y1="179.81" x2="318.54" y2="179.81" xlink:href="#Red_Blue_Yellow"/>
    <linearGradient id="Red_Blue_Yellow-20" data-name="Red, Blue, Yellow" x1="100.4" y1="177.54" x2="322.27" y2="177.54" xlink:href="#Red_Blue_Yellow"/>
    <linearGradient id="Red_Blue_Yellow-21" data-name="Red, Blue, Yellow" x1="96.53" y1="175.27" x2="326.14" y2="175.27" xlink:href="#Red_Blue_Yellow"/>
    <linearGradient id="Red_Blue_Yellow-22" data-name="Red, Blue, Yellow" x1="92.53" y1="173" x2="330.14" y2="173" xlink:href="#Red_Blue_Yellow"/>
    <linearGradient id="Red_Blue_Yellow-23" data-name="Red, Blue, Yellow" x1="88.41" y1="170.74" x2="334.26" y2="170.74" xlink:href="#Red_Blue_Yellow"/>
    <linearGradient id="Red_Blue_Yellow-24" data-name="Red, Blue, Yellow" x1="84.19" y1="168.47" x2="338.48" y2="168.47" xlink:href="#Red_Blue_Yellow"/>
    <linearGradient id="Red_Blue_Yellow-25" data-name="Red, Blue, Yellow" x1="79.87" y1="166.2" x2="342.8" y2="166.2" xlink:href="#Red_Blue_Yellow"/>
    <linearGradient id="Red_Blue_Yellow-26" data-name="Red, Blue, Yellow" x1="75.46" y1="163.93" x2="347.21" y2="163.93" xlink:href="#Red_Blue_Yellow"/>
    <linearGradient id="Red_Blue_Yellow-27" data-name="Red, Blue, Yellow" x1="70.98" y1="161.66" x2="351.69" y2="161.66" xlink:href="#Red_Blue_Yellow"/>
    <linearGradient id="Red_Blue_Yellow-28" data-name="Red, Blue, Yellow" x1="66.42" y1="159.39" x2="356.25" y2="159.39" xlink:href="#Red_Blue_Yellow"/>
    <linearGradient id="Red_Blue_Yellow-29" data-name="Red, Blue, Yellow" x1="61.8" y1="157.12" x2="360.87" y2="157.12" xlink:href="#Red_Blue_Yellow"/>
    <linearGradient id="Red_Blue_Yellow-30" data-name="Red, Blue, Yellow" x1="57.12" y1="154.86" x2="365.55" y2="154.86" xlink:href="#Red_Blue_Yellow"/>
    <linearGradient id="Red_Blue_Yellow-31" data-name="Red, Blue, Yellow" x1="52.39" y1="152.59" x2="370.28" y2="152.59" xlink:href="#Red_Blue_Yellow"/>
    <linearGradient id="Red_Blue_Yellow-32" data-name="Red, Blue, Yellow" x1="47.61" y1="150.32" x2="375.06" y2="150.32" xlink:href="#Red_Blue_Yellow"/>
    <linearGradient id="Red_Blue_Yellow-33" data-name="Red, Blue, Yellow" x1="42.78" y1="148.05" x2="379.89" y2="148.05" xlink:href="#Red_Blue_Yellow"/>
    <linearGradient id="Red_Blue_Yellow-34" data-name="Red, Blue, Yellow" x1="37.92" y1="145.78" x2="384.75" y2="145.78" xlink:href="#Red_Blue_Yellow"/>
    <linearGradient id="Red_Blue_Yellow-35" data-name="Red, Blue, Yellow" x1="33.01" y1="143.51" x2="389.66" y2="143.51" xlink:href="#Red_Blue_Yellow"/>
    <linearGradient id="Red_Blue_Yellow-36" data-name="Red, Blue, Yellow" x1="28.07" y1="141.24" x2="394.6" y2="141.24" xlink:href="#Red_Blue_Yellow"/>
    <linearGradient id="Red_Blue_Yellow-37" data-name="Red, Blue, Yellow" x1="23.1" y1="138.98" x2="399.57" y2="138.98" xlink:href="#Red_Blue_Yellow"/>
    <linearGradient id="Red_Blue_Yellow-38" data-name="Red, Blue, Yellow" x1="18.1" y1="136.71" x2="404.57" y2="136.71" xlink:href="#Red_Blue_Yellow"/>
    <linearGradient id="Red_Blue_Yellow-39" data-name="Red, Blue, Yellow" x1="13.07" y1="134.44" x2="409.6" y2="134.44" xlink:href="#Red_Blue_Yellow"/>
    <linearGradient id="Red_Blue_Yellow-40" data-name="Red, Blue, Yellow" x1="8.02" y1="132.17" x2="414.65" y2="132.17" xlink:href="#Red_Blue_Yellow"/>
    <linearGradient id="Red_Blue_Yellow-41" data-name="Red, Blue, Yellow" x1="2.94" y1="129.9" x2="419.73" y2="129.9" xlink:href="#Red_Blue_Yellow"/>
    <linearGradient id="Red_Blue_Yellow-42" data-name="Red, Blue, Yellow" x1="-2.16" y1="127.63" x2="424.83" y2="127.63" xlink:href="#Red_Blue_Yellow"/>
    <linearGradient id="Red_Blue_Yellow-43" data-name="Red, Blue, Yellow" x1="-7.28" y1="125.36" x2="429.95" y2="125.36" xlink:href="#Red_Blue_Yellow"/>
    <linearGradient id="Red_Blue_Yellow-44" data-name="Red, Blue, Yellow" x1="-12.42" y1="123.09" x2="435.09" y2="123.09" xlink:href="#Red_Blue_Yellow"/>
    <linearGradient id="Red_Blue_Yellow-45" data-name="Red, Blue, Yellow" x1="-17.58" y1="120.83" x2="440.25" y2="120.83" xlink:href="#Red_Blue_Yellow"/>
    <linearGradient id="Red_Blue_Yellow-46" data-name="Red, Blue, Yellow" x1="-22.75" y1="118.56" x2="445.42" y2="118.56" xlink:href="#Red_Blue_Yellow"/>
    <linearGradient id="Red_Blue_Yellow-47" data-name="Red, Blue, Yellow" x1="-27.94" y1="116.29" x2="450.61" y2="116.29" gradientTransform="translate(-125.57 114.07)" xlink:href="#Red_Blue_Yellow"/>
  </defs>
  <g id="Layer_1-2" data-name="Layer 1">
    <g>
      <circle class="cls-3" cx="186" cy="259.41" r="85.27"/>
      <path class="cls-40" d="M265.38,277.01c-12.18,44.44-58.57,72.3-103.62,62.23-45.05-10.07-71.69-54.25-59.51-98.69,12.18-44.44,58.57-72.3,103.62-62.23,45.05,10.07,71.69,54.25,59.51,98.69Z"/>
      <path class="cls-22" d="M262.87,270.87c-11.25,43.64-56.74,73.32-101.6,66.29-44.86-7.03-72.11-48.1-60.86-91.74,11.25-43.64,56.74-73.32,101.6-66.29,44.86,7.03,72.11,48.1,60.86,91.74Z"/>
      <path class="cls-12" d="M260.36,264.73c-10.32,42.84-54.9,74.34-99.58,70.36-44.68-3.98-72.53-41.94-62.22-84.79,10.32-42.84,54.9-74.34,99.58-70.36,44.68,3.98,72.53,41.94,62.22,84.79Z"/>
      <path class="cls-7" d="M257.85,258.59c-9.39,42.05-53.07,75.37-97.56,74.43-44.49-.94-72.95-35.79-63.57-77.84,9.39-42.05,53.07-75.37,97.56-74.43,44.49.94,72.95,35.79,63.57,77.84Z"/>
      <path class="cls-47" d="M255.33,252.45c-8.46,41.25-51.23,76.39-95.54,78.49-44.31,2.1-73.37-29.64-64.92-70.89,8.46-41.25,51.23-76.39,95.54-78.49,44.31-2.1,73.37,29.64,64.92,70.89Z"/>
      <path class="cls-9" d="M252.82,246.31c-7.53,40.45-49.4,77.42-93.52,82.56-44.13,5.14-73.8-23.49-66.27-63.94,7.53-40.45,49.4-77.42,93.52-82.56,44.13-5.14,73.8,23.49,66.27,63.94Z"/>
      <path class="cls-37" d="M250.31,240.17c-6.6,39.66-47.56,78.44-91.51,86.62-43.94,8.18-74.22-17.33-67.62-56.99,6.6-39.66,47.56-78.44,91.51-86.62,43.94-8.18,74.22,17.33,67.62,56.99Z"/>
      <path class="cls-29" d="M247.8,234.04c-5.67,38.86-45.73,79.47-89.49,90.69-43.76,11.23-74.64-11.18-68.97-50.04,5.67-38.86,45.73-79.47,89.49-90.69,43.76-11.23,74.64,11.18,68.97,50.04Z"/>
      <path class="cls-25" d="M245.28,227.9c-4.73,38.07-43.9,80.49-87.47,94.76-43.57,14.27-75.06-5.03-70.32-43.09,4.73-38.07,43.9-80.49,87.47-94.76,43.57-14.27,75.06,5.03,70.32,43.09Z"/>
      <path class="cls-31" d="M242.77,221.76c-3.8,37.27-42.06,81.51-85.45,98.82-43.39,17.31-75.48,1.13-71.67-36.14,3.8-37.27,42.06-81.51,85.45-98.82,43.39-17.31,75.48-1.13,71.67,36.14Z"/>
      <path class="cls-42" d="M240.26,215.62c-2.87,36.47-40.23,82.54-83.43,102.89s-75.9,7.28-73.03-29.19c2.87-36.47,40.23-82.54,83.43-102.89,43.2-20.35,75.9-7.28,73.03,29.19Z"/>
      <path class="cls-23" d="M237.75,209.48c-1.94,35.68-38.39,83.56-81.41,106.96-43.02,23.39-76.32,13.43-74.38-22.24,1.94-35.68,38.39-83.56,81.41-106.96,43.02-23.39,76.32-13.43,74.38,22.24Z"/>
      <path class="cls-39" d="M235.23,203.34c-1.01,34.88-36.56,84.59-79.39,111.02-42.84,26.43-76.74,19.59-75.73-15.29,1.01-34.88,36.56-84.59,79.39-111.02,42.84-26.43,76.74-19.59,75.73,15.29Z"/>
      <path class="cls-43" d="M232.72,197.2c-.08,34.08-34.72,85.61-77.38,115.09-42.65,29.48-77.16,25.74-77.08-8.34.08-34.08,34.72-85.61,77.38-115.09,42.65-29.48,77.16-25.74,77.08,8.34Z"/>
      <path class="cls-38" d="M230.21,191.06c.85,33.29-32.89,86.64-75.36,119.15-42.47,32.52-77.58,31.89-78.43-1.39-.85-33.29,32.89-86.64,75.36-119.15,42.47-32.52,77.58-31.89,78.43,1.39Z"/>
      <path class="cls-28" d="M227.7,184.92c1.78,32.49-31.06,87.66-73.34,123.22-42.28,35.56-78,38.05-79.78,5.55-1.78-32.49,31.06-87.66,73.34-123.22,42.28-35.56,78-38.05,79.78-5.55Z"/>
      <path class="cls-35" d="M225.18,178.78c2.71,31.7-29.22,88.68-71.32,127.29-42.1,38.6-78.42,44.2-81.13,12.5-2.71-31.7,29.22-88.68,71.32-127.29,42.1-38.6,78.42-44.2,81.13-12.5Z"/>
      <path class="cls-13" d="M222.67,172.64c3.64,30.9-27.39,89.71-69.3,131.35-41.91,41.64-78.84,50.35-82.49,19.45-3.64-30.9,27.39-89.71,69.3-131.35,41.91-41.64,78.84-50.35,82.49-19.45Z"/>
      <path class="cls-30" d="M220.16,166.5c4.57,30.1-25.55,90.73-67.28,135.42-41.73,44.69-79.27,56.51-83.84,26.4s25.55-90.73,67.28-135.42c41.73-44.69,79.27-56.51,83.84-26.4Z"/>
      <path class="cls-15" d="M217.64,160.36c5.5,29.31-23.72,91.76-65.27,139.48-41.55,47.73-79.69,62.66-85.19,33.35-5.5-29.31,23.72-91.76,65.27-139.48,41.55-47.73,79.69-62.66,85.19-33.35Z"/>
      <path class="cls-34" d="M215.13,154.22c6.43,28.51-21.88,92.78-63.25,143.55-41.36,50.77-80.11,68.81-86.54,40.3-6.43-28.51,21.88-92.78,63.25-143.55,41.36-50.77,80.11-68.81,86.54-40.3Z"/>
      <path class="cls-16" d="M212.62,148.08c7.36,27.72-20.05,93.81-61.23,147.62-41.18,53.81-80.53,74.97-87.89,47.25-7.36-27.72,20.05-93.81,61.23-147.62,41.18-53.81,80.53-74.97,87.89-47.25Z"/>
      <path class="cls-19" d="M210.11,141.95c8.29,26.92-18.22,94.83-59.21,151.68-40.99,56.85-80.95,81.12-89.24,54.2-8.29-26.92,18.22-94.83,59.21-151.68,40.99-56.85,80.95-81.12,89.24-54.2Z"/>
      <path class="cls-6" d="M207.59,135.81c9.22,26.12-16.38,95.85-57.19,155.75-40.81,59.9-81.37,87.27-90.59,61.15-9.22-26.12,16.38-95.85,57.19-155.75,40.81-59.9,81.37-87.27,90.59-61.15Z"/>
      <path class="cls-17" d="M205.08,129.67c10.15,25.33-14.55,96.88-55.17,159.82-40.63,62.94-81.79,93.43-91.94,68.1-10.15-25.33,14.55-96.88,55.17-159.82,40.63-62.94,81.79-93.43,91.94-68.1Z"/>
      <path class="cls-44" d="M202.57,123.53c11.08,24.53-12.71,97.9-53.15,163.88-40.44,65.98-82.21,99.58-93.3,75.05-11.08-24.53,12.71-97.9,53.15-163.88,40.44-65.98,82.21-99.58,93.3-75.05Z"/>
      <path class="cls-36" d="M200.06,117.39c12.02,23.73-10.88,98.93-51.14,167.95-40.26,69.02-82.63,105.73-94.65,82-12.02-23.73,10.88-98.93,51.14-167.95,40.26-69.02,82.63-105.73,94.65-82Z"/>
      <path class="cls-26" d="M197.54,111.25c12.95,22.94-9.04,99.95-49.12,172.01-40.07,72.06-83.05,111.89-96,88.95-12.95-22.94,9.04-99.95,49.12-172.01,40.07-72.06,83.05-111.89,96-88.95Z"/>
      <path class="cls-27" d="M195.03,105.11c13.88,22.14-7.21,100.98-47.1,176.08-39.89,75.1-83.47,118.04-97.35,95.9-13.88-22.14,7.21-100.98,47.1-176.08,39.89-75.1,83.47-118.04,97.35-95.9Z"/>
      <path class="cls-32" d="M192.52,98.97c14.81,21.35-5.38,102-45.08,180.15-39.7,78.15-83.89,124.19-98.7,102.85-14.81-21.35,5.38-102,45.08-180.15,39.7-78.15,83.89-124.19,98.7-102.85Z"/>
      <path class="cls-20" d="M190.01,92.83c15.74,20.55-3.54,103.02-43.06,184.21-39.52,81.19-84.31,130.35-100.05,109.8-15.74-20.55,3.54-103.02,43.06-184.21,39.52-81.19,84.31-130.35,100.05-109.8Z"/>
      <path class="cls-41" d="M187.49,86.69c16.67,19.75-1.71,104.05-41.04,188.28-39.34,84.23-84.74,136.5-101.4,116.75s1.71-104.05,41.04-188.28c39.34-84.23,84.74-136.5,101.4-116.75Z"/>
      <path class="cls-5" d="M184.98,80.55c17.6,18.96.13,105.07-39.02,192.35-39.15,87.27-85.16,142.65-102.76,123.69-17.6-18.96-.13-105.07,39.02-192.35,39.15-87.27,85.16-142.65,102.76-123.69Z"/>
      <path class="cls-33" d="M182.47,74.41c18.53,18.16,1.96,106.1-37.01,196.41-38.97,90.31-85.58,148.81-104.11,130.64-18.53-18.16-1.96-106.1,37.01-196.41,38.97-90.31,85.58-148.81,104.11-130.64Z"/>
      <path class="cls-8" d="M179.96,68.27c19.46,17.37,3.8,107.12-34.99,200.48-38.78,93.36-86,154.96-105.46,137.59-19.46-17.37-3.8-107.12,34.99-200.48,38.78-93.36,86-154.96,105.46-137.59Z"/>
      <path class="cls-11" d="M177.44,62.13c20.39,16.57,5.63,108.15-32.97,204.54-38.6,96.4-86.42,161.11-106.81,144.54-20.39-16.57-5.63-108.15,32.97-204.54C109.23,110.28,157.05,45.56,177.44,62.13Z"/>
      <path class="cls-2" d="M174.93,55.99c21.32,15.77,7.46,109.17-30.95,208.61-38.41,99.44-86.84,167.27-108.16,151.49-21.32-15.77-7.46-109.17,30.95-208.61C105.19,108.05,153.61,40.22,174.93,55.99Z"/>
      <path class="cls-45" d="M172.42,49.85c22.25,14.98,9.3,110.19-28.93,212.68-38.23,102.48-87.26,173.42-109.51,158.44-22.25-14.98-9.3-110.19,28.93-212.68C101.14,105.82,150.17,34.88,172.42,49.85Z"/>
      <path class="cls-10" d="M169.91,43.72c23.18,14.18,11.13,111.22-26.91,216.74-38.05,105.52-87.68,179.57-110.86,165.39-23.18-14.18-11.13-111.22,26.91-216.74C97.09,103.58,146.72,29.54,169.91,43.72Z"/>
      <path class="cls-14" d="M167.39,37.58c24.11,13.38,12.97,112.24-24.89,220.81-37.86,108.57-88.1,185.72-112.21,172.34-24.11-13.38-12.97-112.24,24.89-220.81C93.04,101.35,143.28,24.19,167.39,37.58Z"/>
      <path class="cls-24" d="M164.88,31.44c25.04,12.59,14.8,113.27-22.88,224.87-37.68,111.61-88.52,191.88-113.57,179.29s-14.8-113.27,22.88-224.87C88.99,99.12,139.84,18.85,164.88,31.44Z"/>
      <path class="cls-46" d="M162.37,25.3c25.97,11.79,16.64,114.29-20.86,228.94-37.49,114.65-88.94,198.03-114.92,186.24-25.97-11.79-16.64-114.29,20.86-228.94C84.94,96.89,136.39,13.51,162.37,25.3Z"/>
      <path class="cls-4" d="M159.86,19.16c26.9,11,18.47,115.32-18.84,233.01-37.31,117.69-89.36,204.18-116.27,193.19-26.9-11-18.47-115.32,18.84-233.01C80.9,94.66,132.95,8.16,159.86,19.16Z"/>
      <path class="cls-21" d="M157.34,13.02c27.84,10.2,20.3,116.34-16.82,237.07-37.12,120.73-89.78,210.34-117.62,200.14-27.84-10.2-20.3-116.34,16.82-237.07C76.85,92.42,129.51,2.82,157.34,13.02Z"/>
      <path class="cls-18" d="M154.83,6.88c28.77,9.4,22.14,117.37-14.8,241.14-36.94,123.77-90.21,216.49-118.97,207.09-28.77-9.4-22.14-117.37,14.8-241.14C72.8,90.19,126.07-2.52,154.83,6.88Z"/>
      <ellipse class="cls-1" cx="85.77" cy="230.36" rx="239.07" ry="55.98" transform="translate(-159.37 248.61) rotate(-73.84)"/>
    </g>
  </g>
</svg>