<?xml version="1.0" encoding="UTF-8"?>
<svg id="Layer_2" data-name="Layer 2" xmlns="http://www.w3.org/2000/svg" xmlns:xlink="http://www.w3.org/1999/xlink" viewBox="0 0 395.9 571.31">
  <defs>
    <style>
      .cls-1 {
        stroke: url(#Red_Blue_White-15);
      }

      .cls-1, .cls-2, .cls-3, .cls-4, .cls-5, .cls-6, .cls-7, .cls-8, .cls-9, .cls-10, .cls-11, .cls-12, .cls-13, .cls-14, .cls-15, .cls-16, .cls-17, .cls-18, .cls-19, .cls-20, .cls-21, .cls-22, .cls-23, .cls-24, .cls-25, .cls-26, .cls-27, .cls-28, .cls-29, .cls-30 {
        fill: none;
        stroke-miterlimit: 10;
        stroke-width: .41px;
      }

      .cls-2 {
        stroke: url(#Red_Blue_White-27);
      }

      .cls-3 {
        stroke: url(#Red_Blue_White-24);
      }

      .cls-4 {
        stroke: url(#Red_Blue_White-28);
      }

      .cls-5 {
        stroke: url(#Red_Blue_White-25);
      }

      .cls-6 {
        stroke: url(#Red_Blue_White);
      }

      .cls-7 {
        stroke: url(#Red_Blue_White-13);
      }

      .cls-8 {
        stroke: url(#Red_Blue_White-7);
      }

      .cls-9 {
        stroke: url(#Red_Blue_White-21);
      }

      .cls-10 {
        stroke: url(#Red_Blue_White-30);
      }

      .cls-11 {
        stroke: url(#Red_Blue_White-29);
      }

      .cls-12 {
        stroke: url(#Red_Blue_White-2);
      }

      .cls-13 {
        stroke: url(#Red_Blue_White-11);
      }

      .cls-14 {
        stroke: url(#Red_Blue_White-9);
      }

      .cls-15 {
        stroke: url(#Red_Blue_White-3);
      }

      .cls-16 {
        stroke: url(#Red_Blue_White-16);
      }

      .cls-17 {
        stroke: url(#Red_Blue_White-6);
      }

      .cls-18 {
        stroke: url(#Red_Blue_White-8);
      }

      .cls-19 {
        stroke: url(#Red_Blue_White-17);
      }

      .cls-20 {
        stroke: url(#Red_Blue_White-19);
      }

      .cls-21 {
        stroke: url(#Red_Blue_White-20);
      }

      .cls-22 {
        stroke: url(#Red_Blue_White-26);
      }

      .cls-23 {
        stroke: url(#Red_Blue_White-14);
      }

      .cls-24 {
        stroke: url(#Red_Blue_White-22);
      }

      .cls-25 {
        stroke: url(#Red_Blue_White-23);
      }

      .cls-26 {
        stroke: url(#Red_Blue_White-4);
      }

      .cls-27 {
        stroke: url(#Red_Blue_White-12);
      }

      .cls-28 {
        stroke: url(#Red_Blue_White-18);
      }

      .cls-29 {
        stroke: url(#Red_Blue_White-5);
      }

      .cls-30 {
        stroke: url(#Red_Blue_White-10);
      }
    </style>
    <linearGradient id="Red_Blue_White" data-name="Red, Blue, White" x1="0" y1="191.24" x2="231.81" y2="191.24" gradientUnits="userSpaceOnUse">
      <stop offset="0" stop-color="#fff0da"/>
      <stop offset="0" stop-color="#f4e9d7"/>
      <stop offset=".02" stop-color="#bbcac9"/>
      <stop offset=".04" stop-color="#89afbc"/>
      <stop offset=".06" stop-color="#5f97b1"/>
      <stop offset=".07" stop-color="#3c84a9"/>
      <stop offset=".09" stop-color="#2275a2"/>
      <stop offset=".11" stop-color="#0f6b9d"/>
      <stop offset=".13" stop-color="#03659a"/>
      <stop offset=".15" stop-color="#00639a"/>
      <stop offset=".3" stop-color="#fff0da"/>
      <stop offset=".47" stop-color="#00639a"/>
      <stop offset=".64" stop-color="#ca255b"/>
      <stop offset=".75" stop-color="#fff0da"/>
      <stop offset=".86" stop-color="#00639a"/>
      <stop offset=".93" stop-color="#ca255b"/>
      <stop offset="1" stop-color="#fff0da"/>
    </linearGradient>
    <linearGradient id="Red_Blue_White-2" data-name="Red, Blue, White" x1="4.35" y1="196.64" x2="236.74" y2="196.64" xlink:href="#Red_Blue_White"/>
    <linearGradient id="Red_Blue_White-3" data-name="Red, Blue, White" x1="8.67" y1="202.03" x2="241.69" y2="202.03" xlink:href="#Red_Blue_White"/>
    <linearGradient id="Red_Blue_White-4" data-name="Red, Blue, White" x1="12.96" y1="207.43" x2="246.66" y2="207.43" xlink:href="#Red_Blue_White"/>
    <linearGradient id="Red_Blue_White-5" data-name="Red, Blue, White" x1="17.23" y1="212.83" x2="251.67" y2="212.83" xlink:href="#Red_Blue_White"/>
    <linearGradient id="Red_Blue_White-6" data-name="Red, Blue, White" x1="21.47" y1="218.23" x2="256.7" y2="218.23" xlink:href="#Red_Blue_White"/>
    <linearGradient id="Red_Blue_White-7" data-name="Red, Blue, White" x1="25.7" y1="223.62" x2="261.74" y2="223.62" xlink:href="#Red_Blue_White"/>
    <linearGradient id="Red_Blue_White-8" data-name="Red, Blue, White" x1="29.88" y1="229.02" x2="266.84" y2="229.02" xlink:href="#Red_Blue_White"/>
    <linearGradient id="Red_Blue_White-9" data-name="Red, Blue, White" x1="34.01" y1="234.42" x2="271.98" y2="234.42" xlink:href="#Red_Blue_White"/>
    <linearGradient id="Red_Blue_White-10" data-name="Red, Blue, White" x1="38.11" y1="239.82" x2="277.16" y2="239.82" xlink:href="#Red_Blue_White"/>
    <linearGradient id="Red_Blue_White-11" data-name="Red, Blue, White" x1="42.15" y1="245.21" x2="282.38" y2="245.21" xlink:href="#Red_Blue_White"/>
    <linearGradient id="Red_Blue_White-12" data-name="Red, Blue, White" x1="46.15" y1="250.61" x2="287.66" y2="250.61" xlink:href="#Red_Blue_White"/>
    <linearGradient id="Red_Blue_White-13" data-name="Red, Blue, White" x1="50.1" y1="256.01" x2="292.98" y2="256.01" xlink:href="#Red_Blue_White"/>
    <linearGradient id="Red_Blue_White-14" data-name="Red, Blue, White" x1="53.98" y1="261.4" x2="298.37" y2="261.4" xlink:href="#Red_Blue_White"/>
    <linearGradient id="Red_Blue_White-15" data-name="Red, Blue, White" x1="57.81" y1="266.8" x2="303.82" y2="266.8" xlink:href="#Red_Blue_White"/>
    <linearGradient id="Red_Blue_White-16" data-name="Red, Blue, White" x1="61.56" y1="272.2" x2="309.34" y2="272.2" xlink:href="#Red_Blue_White"/>
    <linearGradient id="Red_Blue_White-17" data-name="Red, Blue, White" x1="65.25" y1="277.6" x2="314.92" y2="277.6" xlink:href="#Red_Blue_White"/>
    <linearGradient id="Red_Blue_White-18" data-name="Red, Blue, White" x1="68.85" y1="282.99" x2="320.59" y2="282.99" xlink:href="#Red_Blue_White"/>
    <linearGradient id="Red_Blue_White-19" data-name="Red, Blue, White" x1="72.37" y1="288.39" x2="326.35" y2="288.39" xlink:href="#Red_Blue_White"/>
    <linearGradient id="Red_Blue_White-20" data-name="Red, Blue, White" x1="75.8" y1="293.79" x2="332.19" y2="293.79" xlink:href="#Red_Blue_White"/>
    <linearGradient id="Red_Blue_White-21" data-name="Red, Blue, White" x1="79.14" y1="299.19" x2="338.12" y2="299.19" xlink:href="#Red_Blue_White"/>
    <linearGradient id="Red_Blue_White-22" data-name="Red, Blue, White" x1="82.39" y1="304.58" x2="344.15" y2="304.58" xlink:href="#Red_Blue_White"/>
    <linearGradient id="Red_Blue_White-23" data-name="Red, Blue, White" x1="85.53" y1="309.98" x2="350.28" y2="309.98" xlink:href="#Red_Blue_White"/>
    <linearGradient id="Red_Blue_White-24" data-name="Red, Blue, White" x1="88.57" y1="315.38" x2="356.51" y2="315.38" xlink:href="#Red_Blue_White"/>
    <linearGradient id="Red_Blue_White-25" data-name="Red, Blue, White" x1="91.52" y1="320.78" x2="362.84" y2="320.78" xlink:href="#Red_Blue_White"/>
    <linearGradient id="Red_Blue_White-26" data-name="Red, Blue, White" x1="94.32" y1="326.17" x2="369.3" y2="326.17" xlink:href="#Red_Blue_White"/>
    <linearGradient id="Red_Blue_White-27" data-name="Red, Blue, White" x1="97.08" y1="331.57" x2="375.82" y2="331.57" xlink:href="#Red_Blue_White"/>
    <linearGradient id="Red_Blue_White-28" data-name="Red, Blue, White" x1="99.71" y1="336.97" x2="382.46" y2="336.97" xlink:href="#Red_Blue_White"/>
    <linearGradient id="Red_Blue_White-29" data-name="Red, Blue, White" x1="102.3" y1="342.37" x2="389.14" y2="342.37" xlink:href="#Red_Blue_White"/>
    <linearGradient id="Red_Blue_White-30" data-name="Red, Blue, White" x1="104.82" y1="347.76" x2="395.9" y2="347.76" xlink:href="#Red_Blue_White"/>
  </defs>
  <g id="Layer_1-2" data-name="Layer 1">
    <g>
      <path class="cls-6" d="M231.61,305.28c0,104.24-84.51,72.43-188.75,72.43s15.38-24.83,15.38-129.07S-61.39.2,42.86.2s188.75,200.83,188.75,305.08Z"/>
      <path class="cls-12" d="M47.83,5.14c103.65,0,187.96,198.96,188.7,302.52.9,104.21-80.75,77.36-184.4,77.36s8.56-30.65,7.83-134.22C59.15,146.89-55.82,5.14,47.83,5.14Z"/>
      <path class="cls-15" d="M52.81,9.94c103.06,0,187.17,197.09,188.64,299.97,1.8,104.17-76.99,82.3-180.05,82.3s1.74-36.48.29-139.37C60.08,149.26-50.25,9.94,52.81,9.94Z"/>
      <path class="cls-26" d="M57.81,14.6c102.48,0,186.16,195.22,188.59,297.42,2.48,104.14-73.22,87.24-175.7,87.24s-5.08-42.31-7.25-144.52C61.02,151.47-44.67,14.6,57.81,14.6Z"/>
      <path class="cls-29" d="M62.82,19.1c101.89,0,185.3,193.35,188.54,294.86,3.32,104.11-69.46,92.18-171.35,92.18s-11.9-48.13-14.79-149.66c-3.24-102.94-104.28-237.38-2.4-237.38Z"/>
      <path class="cls-17" d="M67.84,23.46c101.3,0,184.46,191.49,188.49,292.31,4.16,104.07-65.7,97.12-167,97.12s-18.72-53.96-22.33-154.81c-4.06-102.61-100.45-234.62.85-234.62Z"/>
      <path class="cls-8" d="M72.85,27.71c100.71,0,183.61,189.62,188.43,289.76,5.01,104.04-61.94,102.06-162.65,102.06s-25.32-59.79-29.88-159.96c-4.65-102.3-96.61-231.86,4.09-231.86Z"/>
      <path class="cls-18" d="M77.89,31.92c100.12,0,182.78,187.75,188.38,287.2,5.86,104.01-58.18,107-158.3,107s-32.12-65.62-37.42-165.11c-5.44-101.97-92.78-229.09,7.34-229.09Z"/>
      <path class="cls-14" d="M82.95,36.12c99.53,0,181.95,185.89,188.33,284.65,6.72,103.98-54.42,111.94-153.95,111.94s-38.91-71.45-44.96-170.26c-6.22-101.65-88.95-226.33,10.58-226.33Z"/>
      <path class="cls-30" d="M88.02,40.33c98.94,0,181.12,184.02,188.27,282.1,7.58,103.95-50.66,116.88-149.6,116.88s-45.71-77.28-52.5-175.41c-7.01-101.33-85.11-223.57,13.83-223.57Z"/>
      <path class="cls-13" d="M93.11,44.53c98.35,0,180.3,182.16,188.22,279.54,8.45,103.92-46.9,121.82-145.25,121.82s-52.51-83.11-60.04-180.55C68.23,164.33-5.24,44.53,93.11,44.53Z"/>
      <path class="cls-27" d="M98.22,48.74c97.76,0,179.49,180.29,188.17,276.99,9.32,103.89-43.14,126.75-140.9,126.75s-59.32-88.94-67.59-185.7C69.3,166.1.46,48.74,98.22,48.74Z"/>
      <path class="cls-7" d="M103.35,52.94c97.17,0,178.68,178.43,188.12,274.44,10.2,103.86-39.38,131.69-136.55,131.69s-66.13-94.77-75.13-190.85C70.39,167.86,6.18,52.94,103.35,52.94Z"/>
      <path class="cls-23" d="M108.5,57.15c96.58,0,177.88,176.56,188.06,271.88,11.09,103.83-35.62,136.63-132.2,136.63s-72.94-100.6-82.67-196C71.49,169.62,11.92,57.15,108.5,57.15Z"/>
      <path class="cls-1" d="M113.67,61.35c95.99,0,177.09,174.69,188.01,269.33,11.98,103.8-31.86,141.57-127.85,141.57s-79.75-106.43-90.21-201.15c-11.01-99.72-65.94-209.76,30.05-209.76Z"/>
      <path class="cls-16" d="M118.86,65.56c95.4,0,176.3,172.83,187.96,266.78,12.88,103.77-28.1,146.51-123.5,146.51s-86.57-112.26-97.75-206.3c-11.82-99.39-62.11-206.99,33.29-206.99Z"/>
      <path class="cls-19" d="M124.08,69.76c94.81,0,175.51,170.96,187.91,264.22,13.79,103.74-24.34,151.45-119.15,151.45s-93.39-118.09-105.3-211.44c-12.63-99.07-58.27-204.23,36.54-204.23Z"/>
      <path class="cls-28" d="M129.32,73.96c94.22,0,174.73,169.09,187.85,261.67,14.7,103.71-20.58,156.39-114.8,156.39s-100.21-123.92-112.84-216.59c-13.45-98.75-54.44-201.47,39.78-201.47Z"/>
      <path class="cls-20" d="M134.59,78.17c93.63,0,173.96,167.22,187.8,259.12,15.61,103.68-16.82,161.33-110.45,161.33s-107.04-129.74-120.38-221.74c-14.27-98.42-50.6-198.71,43.03-198.71Z"/>
      <path class="cls-21" d="M139.88,82.37c93.04,0,173.19,165.35,187.75,256.56,16.54,103.64-13.06,166.27-106.1,166.27s-113.87-135.57-127.92-226.89c-15.09-98.1-46.77-195.94,46.27-195.94Z"/>
      <path class="cls-9" d="M145.2,86.58c92.45,0,172.43,163.48,187.69,254.01,17.47,103.6-9.29,171.21-101.75,171.21s-120.71-141.4-135.46-232.04c-15.92-97.77-42.94-193.18,49.52-193.18Z"/>
      <path class="cls-24" d="M150.54,90.78c91.87,0,171.67,161.61,187.64,251.46,18.41,103.57-5.53,176.14-97.4,176.14s-127.54-147.22-143-237.18c-16.75-97.45-39.1-190.42,52.76-190.42Z"/>
      <path class="cls-25" d="M155.91,94.99c91.28,0,170.92,159.73,187.59,248.9,19.35,103.53-1.77,181.08-93.05,181.08s-134.38-153.05-150.55-242.33c-17.58-97.12-35.27-187.66,56.01-187.66Z"/>
      <path class="cls-3" d="M161.29,99.19c90.69,0,170.17,157.86,187.54,246.35,20.3,103.48,1.99,186.02-88.7,186.02s-141.23-158.87-158.09-247.48c-18.42-96.79-31.43-184.89,59.25-184.89Z"/>
      <path class="cls-5" d="M166.69,103.4c90.1,0,169.43,155.98,187.48,243.8,21.26,103.44,5.75,190.96-84.35,190.96s-148.07-164.69-165.63-252.63c-19.26-96.46-27.6-182.13,62.5-182.13Z"/>
      <path class="cls-22" d="M172.13,107.6c89.51,0,168.7,154.1,187.43,241.24,22.22,103.39,9.51,195.9-80,195.9S124.48,374.26,106.39,286.97c-20.28-96.09-23.77-179.37,65.74-179.37Z"/>
      <path class="cls-2" d="M177.53,111.8c88.92,0,167.97,152.22,187.38,238.69,23.2,103.34,13.27,200.84-75.65,200.84S127.36,375.03,108.55,288.41c-21.09-95.77-19.93-176.61,68.99-176.61Z"/>
      <path class="cls-4" d="M182.89,116.01c88.33,0,167.39,150.3,187.32,236.14,24.35,103.25,17.03,205.78-71.3,205.78s-168.71-182.13-188.26-268.07c-21.9-95.44-16.1-173.84,72.23-173.84Z"/>
      <path class="cls-11" d="M188.3,120.21c87.74,0,166.6,148.43,187.27,233.59,25.25,103.21,20.79,210.72-66.95,210.72s-175.53-187.96-195.8-273.22c-22.71-95.11-12.26-171.08,75.48-171.08Z"/>
      <path class="cls-10" d="M380.91,355.45c26.15,103.18,24.55,215.66-62.6,215.66s-182.35-193.79-203.34-278.37c-23.52-94.79-8.43-168.32,78.72-168.32s165.81,146.55,187.22,231.03Z"/>
    </g>
  </g>
</svg>