<?xml version="1.0" encoding="UTF-8"?>
<svg id="Layer_2" data-name="Layer 2" xmlns="http://www.w3.org/2000/svg" xmlns:xlink="http://www.w3.org/1999/xlink" viewBox="0 0 421.39 393.36">
  <defs>
    <style>
      .cls-1 {
        stroke: url(#linear-gradient-28);
      }

      .cls-1, .cls-2, .cls-3, .cls-4, .cls-5, .cls-6, .cls-7, .cls-8, .cls-9, .cls-10, .cls-11, .cls-12, .cls-13, .cls-14, .cls-15, .cls-16, .cls-17, .cls-18, .cls-19, .cls-20, .cls-21, .cls-22, .cls-23, .cls-24, .cls-25, .cls-26, .cls-27, .cls-28, .cls-29, .cls-30, .cls-31, .cls-32 {
        fill: none;
        stroke-miterlimit: 10;
        stroke-width: .46px;
      }

      .cls-2 {
        stroke: url(#linear-gradient);
      }

      .cls-3 {
        stroke: url(#linear-gradient-6);
      }

      .cls-4 {
        stroke: url(#linear-gradient-15);
      }

      .cls-5 {
        stroke: url(#linear-gradient-11);
      }

      .cls-6 {
        stroke: url(#linear-gradient-12);
      }

      .cls-7 {
        stroke: url(#linear-gradient-23);
      }

      .cls-8 {
        stroke: url(#linear-gradient-9);
      }

      .cls-9 {
        stroke: url(#linear-gradient-7);
      }

      .cls-10 {
        stroke: url(#linear-gradient-29);
      }

      .cls-11 {
        stroke: url(#linear-gradient-30);
      }

      .cls-12 {
        stroke: url(#linear-gradient-10);
      }

      .cls-13 {
        stroke: url(#linear-gradient-27);
      }

      .cls-14 {
        stroke: url(#linear-gradient-2);
      }

      .cls-15 {
        stroke: url(#linear-gradient-22);
      }

      .cls-16 {
        stroke: url(#linear-gradient-4);
      }

      .cls-17 {
        stroke: url(#linear-gradient-14);
      }

      .cls-18 {
        stroke: url(#Eggplant);
      }

      .cls-19 {
        stroke: url(#linear-gradient-8);
      }

      .cls-20 {
        stroke: url(#linear-gradient-17);
      }

      .cls-21 {
        stroke: url(#linear-gradient-13);
      }

      .cls-22 {
        stroke: url(#linear-gradient-20);
      }

      .cls-23 {
        stroke: url(#linear-gradient-21);
      }

      .cls-24 {
        stroke: url(#linear-gradient-19);
      }

      .cls-25 {
        stroke: url(#linear-gradient-3);
      }

      .cls-26 {
        stroke: url(#linear-gradient-18);
      }

      .cls-27 {
        stroke: url(#Plum);
      }

      .cls-28 {
        stroke: url(#linear-gradient-5);
      }

      .cls-29 {
        stroke: url(#linear-gradient-16);
      }

      .cls-30 {
        stroke: url(#linear-gradient-24);
      }

      .cls-31 {
        stroke: url(#linear-gradient-25);
      }

      .cls-32 {
        stroke: url(#linear-gradient-26);
      }
    </style>
    <linearGradient id="Eggplant" x1="137.76" y1="25.06" x2="187.06" y2="379.99" gradientTransform="translate(207.48 464.65) rotate(-135.93)" gradientUnits="userSpaceOnUse">
      <stop offset="0" stop-color="#2b275c"/>
      <stop offset=".06" stop-color="#312b64"/>
      <stop offset=".3" stop-color="#4a3c85"/>
      <stop offset=".5" stop-color="#5d4a93"/>
      <stop offset=".56" stop-color="#5f4c94"/>
      <stop offset=".59" stop-color="#655599"/>
      <stop offset=".62" stop-color="#7163a1"/>
      <stop offset=".65" stop-color="#8178ad"/>
      <stop offset=".67" stop-color="#908ab8"/>
      <stop offset="1" stop-color="#2b275c"/>
    </linearGradient>
    <linearGradient id="linear-gradient" x1="140.68" y1="24.46" x2="189.76" y2="377.81" gradientTransform="translate(207.48 464.65) rotate(-135.93)" gradientUnits="userSpaceOnUse">
      <stop offset="0" stop-color="#2e2a5e"/>
      <stop offset=".19" stop-color="#423577"/>
      <stop offset=".3" stop-color="#4c3b84"/>
      <stop offset=".37" stop-color="#534089"/>
      <stop offset=".5" stop-color="#5f4992"/>
      <stop offset=".56" stop-color="#604b93"/>
      <stop offset=".58" stop-color="#655196"/>
      <stop offset=".63" stop-color="#665297"/>
      <stop offset=".64" stop-color="#6c599a"/>
      <stop offset=".65" stop-color="#7565a1"/>
      <stop offset=".66" stop-color="#8376ab"/>
      <stop offset=".67" stop-color="#9187b5"/>
      <stop offset=".75" stop-color="#7971a0"/>
      <stop offset=".83" stop-color="#635c8d"/>
      <stop offset=".98" stop-color="#322f63"/>
      <stop offset="1" stop-color="#2e2a5f"/>
    </linearGradient>
    <linearGradient id="linear-gradient-2" x1="143.6" y1="23.83" x2="192.46" y2="375.63" gradientTransform="translate(207.48 464.65) rotate(-135.93)" gradientUnits="userSpaceOnUse">
      <stop offset="0" stop-color="#302c61"/>
      <stop offset=".19" stop-color="#453577"/>
      <stop offset=".3" stop-color="#4e3b84"/>
      <stop offset=".37" stop-color="#543f88"/>
      <stop offset=".5" stop-color="#614890"/>
      <stop offset=".56" stop-color="#624a91"/>
      <stop offset=".58" stop-color="#675095"/>
      <stop offset=".63" stop-color="#685196"/>
      <stop offset=".64" stop-color="#6d5899"/>
      <stop offset=".65" stop-color="#7764a0"/>
      <stop offset=".66" stop-color="#8475a9"/>
      <stop offset=".67" stop-color="#9185b2"/>
      <stop offset=".75" stop-color="#7b6f9e"/>
      <stop offset=".83" stop-color="#655c8c"/>
      <stop offset=".98" stop-color="#353266"/>
      <stop offset="1" stop-color="#302d61"/>
    </linearGradient>
    <linearGradient id="linear-gradient-3" x1="146.49" y1="23.21" x2="195.14" y2="373.46" gradientTransform="translate(207.48 464.65) rotate(-135.93)" gradientUnits="userSpaceOnUse">
      <stop offset="0" stop-color="#332f63"/>
      <stop offset=".19" stop-color="#483577"/>
      <stop offset=".3" stop-color="#503a83"/>
      <stop offset=".37" stop-color="#563e87"/>
      <stop offset=".5" stop-color="#63478f"/>
      <stop offset=".56" stop-color="#644990"/>
      <stop offset=".58" stop-color="#695093"/>
      <stop offset=".63" stop-color="#6a5194"/>
      <stop offset=".64" stop-color="#705898"/>
      <stop offset=".65" stop-color="#79649e"/>
      <stop offset=".66" stop-color="#8775a8"/>
      <stop offset=".67" stop-color="#9282b0"/>
      <stop offset=".75" stop-color="#7c6d9c"/>
      <stop offset=".83" stop-color="#665b8b"/>
      <stop offset=".98" stop-color="#373468"/>
      <stop offset="1" stop-color="#333064"/>
    </linearGradient>
    <linearGradient id="linear-gradient-4" x1="149.36" y1="22.59" x2="197.8" y2="371.3" gradientTransform="translate(207.48 464.65) rotate(-135.93)" gradientUnits="userSpaceOnUse">
      <stop offset="0" stop-color="#363165"/>
      <stop offset=".19" stop-color="#4a3676"/>
      <stop offset=".3" stop-color="#523a82"/>
      <stop offset=".37" stop-color="#573c87"/>
      <stop offset=".5" stop-color="#64468d"/>
      <stop offset=".56" stop-color="#66488e"/>
      <stop offset=".58" stop-color="#6c4f91"/>
      <stop offset=".63" stop-color="#6d5092"/>
      <stop offset=".64" stop-color="#725795"/>
      <stop offset=".65" stop-color="#7c639c"/>
      <stop offset=".66" stop-color="#8974a6"/>
      <stop offset=".67" stop-color="#9380ad"/>
      <stop offset=".75" stop-color="#7e6c9a"/>
      <stop offset=".83" stop-color="#685b8b"/>
      <stop offset=".98" stop-color="#3a376b"/>
      <stop offset="1" stop-color="#353366"/>
    </linearGradient>
    <linearGradient id="linear-gradient-5" x1="152.22" y1="21.97" x2="200.45" y2="369.16" gradientTransform="translate(207.48 464.65) rotate(-135.93)" gradientUnits="userSpaceOnUse">
      <stop offset="0" stop-color="#383468"/>
      <stop offset=".19" stop-color="#4d3676"/>
      <stop offset=".3" stop-color="#543982"/>
      <stop offset=".37" stop-color="#593b86"/>
      <stop offset=".5" stop-color="#66458c"/>
      <stop offset=".56" stop-color="#68478c"/>
      <stop offset=".58" stop-color="#6e4e8f"/>
      <stop offset=".63" stop-color="#6f4f90"/>
      <stop offset=".64" stop-color="#745693"/>
      <stop offset=".66" stop-color="#7e629a"/>
      <stop offset=".66" stop-color="#8b73a4"/>
      <stop offset=".67" stop-color="#937daa"/>
      <stop offset=".75" stop-color="#7f6a98"/>
      <stop offset=".83" stop-color="#695a8a"/>
      <stop offset=".98" stop-color="#3c3a6d"/>
      <stop offset="1" stop-color="#383669"/>
    </linearGradient>
    <linearGradient id="linear-gradient-6" x1="155.06" y1="21.35" x2="203.08" y2="367.03" gradientTransform="translate(207.48 464.65) rotate(-135.93)" gradientUnits="userSpaceOnUse">
      <stop offset="0" stop-color="#3b376a"/>
      <stop offset=".19" stop-color="#503676"/>
      <stop offset=".3" stop-color="#573881"/>
      <stop offset=".37" stop-color="#5a3a85"/>
      <stop offset=".5" stop-color="#68458b"/>
      <stop offset=".56" stop-color="#6a478b"/>
      <stop offset=".58" stop-color="#704d8e"/>
      <stop offset=".63" stop-color="#714e8f"/>
      <stop offset=".64" stop-color="#765592"/>
      <stop offset=".66" stop-color="#806199"/>
      <stop offset=".67" stop-color="#8d72a2"/>
      <stop offset=".67" stop-color="#947aa7"/>
      <stop offset=".75" stop-color="#816895"/>
      <stop offset=".84" stop-color="#6b5988"/>
      <stop offset=".98" stop-color="#3f3d70"/>
      <stop offset="1" stop-color="#3b396b"/>
    </linearGradient>
    <linearGradient id="linear-gradient-7" x1="157.89" y1="20.72" x2="205.7" y2="364.92" gradientTransform="translate(207.48 464.65) rotate(-135.93)" gradientUnits="userSpaceOnUse">
      <stop offset="0" stop-color="#3e396c"/>
      <stop offset=".19" stop-color="#533676"/>
      <stop offset=".3" stop-color="#593880"/>
      <stop offset=".37" stop-color="#5c3984"/>
      <stop offset=".5" stop-color="#6a4489"/>
      <stop offset=".56" stop-color="#6c4689"/>
      <stop offset=".58" stop-color="#724c8c"/>
      <stop offset=".63" stop-color="#734d8d"/>
      <stop offset=".65" stop-color="#785490"/>
      <stop offset=".66" stop-color="#826097"/>
      <stop offset=".67" stop-color="#8f71a1"/>
      <stop offset=".67" stop-color="#9578a5"/>
      <stop offset=".75" stop-color="#826693"/>
      <stop offset=".84" stop-color="#6c5988"/>
      <stop offset=".98" stop-color="#413f72"/>
      <stop offset="1" stop-color="#3d3c6e"/>
    </linearGradient>
    <linearGradient id="linear-gradient-8" x1="160.7" y1="20.1" x2="208.31" y2="362.85" gradientTransform="translate(207.48 464.65) rotate(-135.93)" gradientUnits="userSpaceOnUse">
      <stop offset="0" stop-color="#403c6f"/>
      <stop offset=".19" stop-color="#563676"/>
      <stop offset=".3" stop-color="#5b3780"/>
      <stop offset=".37" stop-color="#5e3883"/>
      <stop offset=".5" stop-color="#6c4388"/>
      <stop offset=".56" stop-color="#6e4588"/>
      <stop offset=".58" stop-color="#744c8a"/>
      <stop offset=".63" stop-color="#754d8b"/>
      <stop offset=".65" stop-color="#7a548f"/>
      <stop offset=".66" stop-color="#846095"/>
      <stop offset=".67" stop-color="#91719f"/>
      <stop offset=".67" stop-color="#9575a2"/>
      <stop offset=".75" stop-color="#846491"/>
      <stop offset=".84" stop-color="#6e5887"/>
      <stop offset=".98" stop-color="#444274"/>
      <stop offset="1" stop-color="#403e71"/>
    </linearGradient>
    <linearGradient id="linear-gradient-9" x1="163.49" y1="19.47" x2="210.9" y2="360.81" gradientTransform="translate(207.48 464.65) rotate(-135.93)" gradientUnits="userSpaceOnUse">
      <stop offset="0" stop-color="#433f71"/>
      <stop offset=".19" stop-color="#593676"/>
      <stop offset=".3" stop-color="#5d367f"/>
      <stop offset=".37" stop-color="#5f3782"/>
      <stop offset=".5" stop-color="#6e4287"/>
      <stop offset=".56" stop-color="#704487"/>
      <stop offset=".58" stop-color="#764b88"/>
      <stop offset=".63" stop-color="#774c89"/>
      <stop offset=".65" stop-color="#7d538d"/>
      <stop offset=".66" stop-color="#865f94"/>
      <stop offset=".67" stop-color="#94709d"/>
      <stop offset=".67" stop-color="#96729f"/>
      <stop offset=".75" stop-color="#85628f"/>
      <stop offset=".84" stop-color="#6f5886"/>
      <stop offset=".98" stop-color="#464577"/>
      <stop offset="1" stop-color="#434173"/>
    </linearGradient>
    <linearGradient id="linear-gradient-10" x1="166.27" y1="18.84" x2="213.49" y2="358.8" gradientTransform="translate(207.48 464.65) rotate(-135.93)" gradientUnits="userSpaceOnUse">
      <stop offset="0" stop-color="#464174"/>
      <stop offset=".19" stop-color="#5b3676"/>
      <stop offset=".3" stop-color="#5f367f"/>
      <stop offset=".37" stop-color="#613682"/>
      <stop offset=".5" stop-color="#6f4185"/>
      <stop offset=".56" stop-color="#714385"/>
      <stop offset=".58" stop-color="#784a87"/>
      <stop offset=".63" stop-color="#794b88"/>
      <stop offset=".65" stop-color="#7f528b"/>
      <stop offset=".66" stop-color="#885e92"/>
      <stop offset=".67" stop-color="#966f9b"/>
      <stop offset=".67" stop-color="#97709c"/>
      <stop offset=".75" stop-color="#87618d"/>
      <stop offset=".84" stop-color="#715886"/>
      <stop offset=".98" stop-color="#494879"/>
      <stop offset="1" stop-color="#454476"/>
    </linearGradient>
    <linearGradient id="linear-gradient-11" x1="169.03" y1="18.2" x2="216.07" y2="356.85" gradientTransform="translate(207.48 464.65) rotate(-135.93)" gradientUnits="userSpaceOnUse">
      <stop offset="0" stop-color="#484476"/>
      <stop offset=".19" stop-color="#5e3676"/>
      <stop offset=".3" stop-color="#61357e"/>
      <stop offset=".37" stop-color="#623581"/>
      <stop offset=".5" stop-color="#714084"/>
      <stop offset=".56" stop-color="#734284"/>
      <stop offset=".58" stop-color="#7a4985"/>
      <stop offset=".63" stop-color="#7b4a86"/>
      <stop offset=".65" stop-color="#805189"/>
      <stop offset=".66" stop-color="#8a5d90"/>
      <stop offset=".67" stop-color="#976d99"/>
      <stop offset=".75" stop-color="#885f8b"/>
      <stop offset=".84" stop-color="#725785"/>
      <stop offset=".98" stop-color="#4b4b7c"/>
      <stop offset="1" stop-color="#484778"/>
    </linearGradient>
    <linearGradient id="linear-gradient-12" x1="171.78" y1="17.56" x2="218.64" y2="354.96" gradientTransform="translate(207.48 464.65) rotate(-135.93)" gradientUnits="userSpaceOnUse">
      <stop offset="0" stop-color="#4b4678"/>
      <stop offset=".19" stop-color="#613775"/>
      <stop offset=".3" stop-color="#63357d"/>
      <stop offset=".37" stop-color="#643380"/>
      <stop offset=".5" stop-color="#733f82"/>
      <stop offset=".55" stop-color="#754182"/>
      <stop offset=".58" stop-color="#7d4883"/>
      <stop offset=".63" stop-color="#7e4984"/>
      <stop offset=".65" stop-color="#835087"/>
      <stop offset=".66" stop-color="#8c5c8e"/>
      <stop offset=".67" stop-color="#986b97"/>
      <stop offset=".75" stop-color="#8a5d89"/>
      <stop offset=".84" stop-color="#745785"/>
      <stop offset=".98" stop-color="#4d4d7e"/>
      <stop offset="1" stop-color="#4a4a7b"/>
    </linearGradient>
    <linearGradient id="linear-gradient-13" x1="174.51" y1="16.92" x2="221.21" y2="353.13" gradientTransform="translate(207.48 464.65) rotate(-135.93)" gradientUnits="userSpaceOnUse">
      <stop offset="0" stop-color="#4e497b"/>
      <stop offset=".19" stop-color="#643775"/>
      <stop offset=".3" stop-color="#65347d"/>
      <stop offset=".37" stop-color="#66327f"/>
      <stop offset=".5" stop-color="#753e81"/>
      <stop offset=".55" stop-color="#774081"/>
      <stop offset=".58" stop-color="#7f4881"/>
      <stop offset=".63" stop-color="#804982"/>
      <stop offset=".65" stop-color="#865086"/>
      <stop offset=".66" stop-color="#8f5c8d"/>
      <stop offset=".67" stop-color="#996894"/>
      <stop offset=".75" stop-color="#8b5b87"/>
      <stop offset=".84" stop-color="#755684"/>
      <stop offset=".98" stop-color="#505080"/>
      <stop offset="1" stop-color="#4d4d7e"/>
    </linearGradient>
    <linearGradient id="linear-gradient-14" x1="177.23" y1="16.28" x2="223.77" y2="351.36" gradientTransform="translate(207.48 464.65) rotate(-135.93)" gradientUnits="userSpaceOnUse">
      <stop offset="0" stop-color="#504c7d"/>
      <stop offset=".19" stop-color="#673775"/>
      <stop offset=".3" stop-color="#67337c"/>
      <stop offset=".37" stop-color="#67317e"/>
      <stop offset=".5" stop-color="#773d80"/>
      <stop offset=".55" stop-color="#793f80"/>
      <stop offset=".58" stop-color="#814780"/>
      <stop offset=".63" stop-color="#824881"/>
      <stop offset=".65" stop-color="#874f84"/>
      <stop offset=".66" stop-color="#915b8b"/>
      <stop offset=".67" stop-color="#996591"/>
      <stop offset=".75" stop-color="#8d5985"/>
      <stop offset=".84" stop-color="#775684"/>
      <stop offset=".98" stop-color="#525383"/>
      <stop offset="1" stop-color="#505080"/>
    </linearGradient>
    <linearGradient id="linear-gradient-15" x1="179.93" y1="15.63" x2="226.32" y2="349.64" gradientTransform="translate(207.48 464.65) rotate(-135.93)" gradientUnits="userSpaceOnUse">
      <stop offset="0" stop-color="#534e7f"/>
      <stop offset=".19" stop-color="#6a3775"/>
      <stop offset=".3" stop-color="#69337b"/>
      <stop offset=".37" stop-color="#69307d"/>
      <stop offset=".5" stop-color="#793c7e"/>
      <stop offset=".55" stop-color="#7b3e7e"/>
      <stop offset=".58" stop-color="#83467e"/>
      <stop offset=".63" stop-color="#84477f"/>
      <stop offset=".65" stop-color="#894e82"/>
      <stop offset=".66" stop-color="#935a89"/>
      <stop offset=".67" stop-color="#9a638e"/>
      <stop offset=".75" stop-color="#8e5783"/>
      <stop offset=".85" stop-color="#785683"/>
      <stop offset=".98" stop-color="#555685"/>
      <stop offset="1" stop-color="#525383"/>
    </linearGradient>
    <linearGradient id="linear-gradient-16" x1="182.62" y1="14.98" x2="228.86" y2="347.96" gradientTransform="translate(207.48 464.65) rotate(-135.93)" gradientUnits="userSpaceOnUse">
      <stop offset="0" stop-color="#565182"/>
      <stop offset=".19" stop-color="#6c3775"/>
      <stop offset=".3" stop-color="#6c327b"/>
      <stop offset=".37" stop-color="#6a2f7d"/>
      <stop offset=".5" stop-color="#7a3c7d"/>
      <stop offset=".55" stop-color="#7c3e7c"/>
      <stop offset=".58" stop-color="#85457c"/>
      <stop offset=".63" stop-color="#86467d"/>
      <stop offset=".65" stop-color="#8c4d81"/>
      <stop offset=".66" stop-color="#955988"/>
      <stop offset=".67" stop-color="#9b608c"/>
      <stop offset=".75" stop-color="#905680"/>
      <stop offset=".85" stop-color="#7a5683"/>
      <stop offset=".98" stop-color="#575888"/>
      <stop offset="1" stop-color="#555685"/>
    </linearGradient>
    <linearGradient id="linear-gradient-17" x1="185.29" y1="14.33" x2="231.39" y2="346.27" gradientTransform="translate(207.48 464.65) rotate(-135.93)" gradientUnits="userSpaceOnUse">
      <stop offset="0" stop-color="#595384"/>
      <stop offset=".19" stop-color="#6f3775"/>
      <stop offset=".3" stop-color="#6e327a"/>
      <stop offset=".37" stop-color="#6c2e7c"/>
      <stop offset=".5" stop-color="#7c3b7b"/>
      <stop offset=".55" stop-color="#7e3d7a"/>
      <stop offset=".58" stop-color="#87447a"/>
      <stop offset=".63" stop-color="#88457b"/>
      <stop offset=".65" stop-color="#8d4c7e"/>
      <stop offset=".66" stop-color="#975885"/>
      <stop offset=".67" stop-color="#9c5e89"/>
      <stop offset=".75" stop-color="#91547e"/>
      <stop offset=".85" stop-color="#7b5682"/>
      <stop offset=".98" stop-color="#5a5b8a"/>
      <stop offset="1" stop-color="#575988"/>
    </linearGradient>
    <linearGradient id="linear-gradient-18" x1="187.95" y1="13.67" x2="233.91" y2="344.55" gradientTransform="translate(207.48 464.65) rotate(-135.93)" gradientUnits="userSpaceOnUse">
      <stop offset="0" stop-color="#5b5686"/>
      <stop offset=".19" stop-color="#723775"/>
      <stop offset=".3" stop-color="#703179"/>
      <stop offset=".37" stop-color="#6d2d7b"/>
      <stop offset=".5" stop-color="#7e3a7a"/>
      <stop offset=".55" stop-color="#803c79"/>
      <stop offset=".58" stop-color="#894379"/>
      <stop offset=".63" stop-color="#8a447a"/>
      <stop offset=".65" stop-color="#8f4b7d"/>
      <stop offset=".67" stop-color="#995784"/>
      <stop offset=".67" stop-color="#9c5b86"/>
      <stop offset=".75" stop-color="#93527c"/>
      <stop offset=".85" stop-color="#7d5682"/>
      <stop offset=".98" stop-color="#5c5e8d"/>
      <stop offset="1" stop-color="#5a5c8a"/>
    </linearGradient>
    <linearGradient id="linear-gradient-19" x1="190.59" y1="13.01" x2="236.4" y2="342.76" gradientTransform="translate(207.48 464.65) rotate(-135.93)" gradientUnits="userSpaceOnUse">
      <stop offset="0" stop-color="#5e5989"/>
      <stop offset=".01" stop-color="#5e5788"/>
      <stop offset=".19" stop-color="#753775"/>
      <stop offset=".3" stop-color="#723079"/>
      <stop offset=".37" stop-color="#6f2c7a"/>
      <stop offset=".5" stop-color="#803979"/>
      <stop offset=".55" stop-color="#823b78"/>
      <stop offset=".58" stop-color="#8b4377"/>
      <stop offset=".64" stop-color="#8c4478"/>
      <stop offset=".65" stop-color="#924b7b"/>
      <stop offset=".67" stop-color="#9c5782"/>
      <stop offset=".67" stop-color="#9d5883"/>
      <stop offset=".75" stop-color="#94507a"/>
      <stop offset=".85" stop-color="#7e5682"/>
      <stop offset=".98" stop-color="#5f618f"/>
      <stop offset="1" stop-color="#5d5f8d"/>
    </linearGradient>
    <linearGradient id="linear-gradient-20" x1="193.23" y1="12.34" x2="238.86" y2="340.89" gradientTransform="translate(207.48 464.65) rotate(-135.93)" gradientUnits="userSpaceOnUse">
      <stop offset="0" stop-color="#615b8b"/>
      <stop offset=".02" stop-color="#625889"/>
      <stop offset=".19" stop-color="#783874"/>
      <stop offset=".3" stop-color="#743078"/>
      <stop offset=".37" stop-color="#712a79"/>
      <stop offset=".5" stop-color="#823877"/>
      <stop offset=".55" stop-color="#843a76"/>
      <stop offset=".58" stop-color="#8d4175"/>
      <stop offset=".58" stop-color="#8e4275"/>
      <stop offset=".64" stop-color="#8f4376"/>
      <stop offset=".66" stop-color="#944a7a"/>
      <stop offset=".67" stop-color="#9e5681"/>
      <stop offset=".75" stop-color="#964e78"/>
      <stop offset=".85" stop-color="#805682"/>
      <stop offset=".98" stop-color="#616391"/>
      <stop offset="1" stop-color="#5f6290"/>
    </linearGradient>
    <linearGradient id="linear-gradient-21" x1="195.85" y1="11.67" x2="241.3" y2="338.92" gradientTransform="translate(207.48 464.65) rotate(-135.93)" gradientUnits="userSpaceOnUse">
      <stop offset="0" stop-color="#635e8d"/>
      <stop offset=".03" stop-color="#665889"/>
      <stop offset=".19" stop-color="#7b3874"/>
      <stop offset=".3" stop-color="#762f77"/>
      <stop offset=".37" stop-color="#722978"/>
      <stop offset=".5" stop-color="#843776"/>
      <stop offset=".55" stop-color="#863975"/>
      <stop offset=".58" stop-color="#8f4073"/>
      <stop offset=".58" stop-color="#904173"/>
      <stop offset=".64" stop-color="#914274"/>
      <stop offset=".66" stop-color="#964978"/>
      <stop offset=".67" stop-color="#9e537e"/>
      <stop offset=".75" stop-color="#974c76"/>
      <stop offset=".86" stop-color="#815682"/>
      <stop offset=".98" stop-color="#636694"/>
      <stop offset="1" stop-color="#626592"/>
    </linearGradient>
    <linearGradient id="linear-gradient-22" x1="198.46" y1="11" x2="243.72" y2="336.86" gradientTransform="translate(207.48 464.65) rotate(-135.93)" gradientUnits="userSpaceOnUse">
      <stop offset="0" stop-color="#666090"/>
      <stop offset=".04" stop-color="#6a588a"/>
      <stop offset=".19" stop-color="#7d3874"/>
      <stop offset=".3" stop-color="#782f77"/>
      <stop offset=".37" stop-color="#742878"/>
      <stop offset=".5" stop-color="#853674"/>
      <stop offset=".55" stop-color="#873873"/>
      <stop offset=".58" stop-color="#903e72"/>
      <stop offset=".58" stop-color="#924072"/>
      <stop offset=".64" stop-color="#934172"/>
      <stop offset=".66" stop-color="#984876"/>
      <stop offset=".67" stop-color="#9f517b"/>
      <stop offset=".75" stop-color="#994b74"/>
      <stop offset=".86" stop-color="#835782"/>
      <stop offset=".98" stop-color="#666996"/>
      <stop offset="1" stop-color="#646895"/>
    </linearGradient>
    <linearGradient id="linear-gradient-23" x1="201.06" y1="10.32" x2="246.12" y2="334.74" gradientTransform="translate(207.48 464.65) rotate(-135.93)" gradientUnits="userSpaceOnUse">
      <stop offset="0" stop-color="#696392"/>
      <stop offset=".05" stop-color="#6e588a"/>
      <stop offset=".19" stop-color="#803874"/>
      <stop offset=".3" stop-color="#7a2e76"/>
      <stop offset=".37" stop-color="#752777"/>
      <stop offset=".5" stop-color="#873573"/>
      <stop offset=".55" stop-color="#893772"/>
      <stop offset=".58" stop-color="#923d70"/>
      <stop offset=".58" stop-color="#943f70"/>
      <stop offset=".64" stop-color="#954070"/>
      <stop offset=".66" stop-color="#9a4774"/>
      <stop offset=".67" stop-color="#a04e78"/>
      <stop offset=".75" stop-color="#9a4972"/>
      <stop offset=".86" stop-color="#845882"/>
      <stop offset=".98" stop-color="#686c99"/>
      <stop offset="1" stop-color="#676b97"/>
    </linearGradient>
    <linearGradient id="linear-gradient-24" x1="203.64" y1="9.64" x2="248.5" y2="332.57" gradientTransform="translate(207.48 464.65) rotate(-135.93)" gradientUnits="userSpaceOnUse">
      <stop offset="0" stop-color="#6b6695"/>
      <stop offset=".06" stop-color="#71588b"/>
      <stop offset=".19" stop-color="#833874"/>
      <stop offset=".3" stop-color="#7c2d76"/>
      <stop offset=".37" stop-color="#772676"/>
      <stop offset=".5" stop-color="#893472"/>
      <stop offset=".55" stop-color="#8b3671"/>
      <stop offset=".58" stop-color="#943d6e"/>
      <stop offset=".58" stop-color="#963f6e"/>
      <stop offset=".64" stop-color="#97406f"/>
      <stop offset=".66" stop-color="#9d4773"/>
      <stop offset=".67" stop-color="#a04b75"/>
      <stop offset=".75" stop-color="#9c4770"/>
      <stop offset=".86" stop-color="#865882"/>
      <stop offset=".98" stop-color="#6b6f9b"/>
      <stop offset="1" stop-color="#6a6d9a"/>
    </linearGradient>
    <linearGradient id="linear-gradient-25" x1="206.22" y1="8.96" x2="250.87" y2="330.39" gradientTransform="translate(207.48 464.65) rotate(-135.93)" gradientUnits="userSpaceOnUse">
      <stop offset="0" stop-color="#6e6897"/>
      <stop offset=".06" stop-color="#75588b"/>
      <stop offset=".19" stop-color="#863874"/>
      <stop offset=".3" stop-color="#7e2d75"/>
      <stop offset=".37" stop-color="#792575"/>
      <stop offset=".5" stop-color="#8b3370"/>
      <stop offset=".55" stop-color="#8d356f"/>
      <stop offset=".58" stop-color="#963c6c"/>
      <stop offset=".58" stop-color="#983e6c"/>
      <stop offset=".64" stop-color="#993f6d"/>
      <stop offset=".66" stop-color="#9f4671"/>
      <stop offset=".67" stop-color="#a14973"/>
      <stop offset=".75" stop-color="#9d456e"/>
      <stop offset=".86" stop-color="#875883"/>
      <stop offset=".98" stop-color="#6d719d"/>
      <stop offset="1" stop-color="#6c709d"/>
    </linearGradient>
    <linearGradient id="linear-gradient-26" x1="208.79" y1="8.27" x2="253.22" y2="328.19" gradientTransform="translate(207.48 464.65) rotate(-135.93)" gradientUnits="userSpaceOnUse">
      <stop offset="0" stop-color="#716b99"/>
      <stop offset=".07" stop-color="#79588b"/>
      <stop offset=".19" stop-color="#893874"/>
      <stop offset=".3" stop-color="#812c74"/>
      <stop offset=".37" stop-color="#7a2474"/>
      <stop offset=".5" stop-color="#8d336f"/>
      <stop offset=".55" stop-color="#8f356e"/>
      <stop offset=".58" stop-color="#983b6b"/>
      <stop offset=".58" stop-color="#9a3d6b"/>
      <stop offset=".65" stop-color="#9b3e6c"/>
      <stop offset=".67" stop-color="#a1456f"/>
      <stop offset=".67" stop-color="#a24670"/>
      <stop offset=".75" stop-color="#9f436b"/>
      <stop offset=".85" stop-color="#8b5680"/>
      <stop offset=".98" stop-color="#7074a0"/>
      <stop offset="1" stop-color="#6f739f"/>
    </linearGradient>
    <linearGradient id="linear-gradient-27" x1="211.35" y1="7.58" x2="255.57" y2="326" gradientTransform="translate(207.48 464.65) rotate(-135.93)" gradientUnits="userSpaceOnUse">
      <stop offset="0" stop-color="#736e9c"/>
      <stop offset=".07" stop-color="#7c588c"/>
      <stop offset=".19" stop-color="#8c3874"/>
      <stop offset=".3" stop-color="#832b74"/>
      <stop offset=".37" stop-color="#7c2373"/>
      <stop offset=".5" stop-color="#8f326e"/>
      <stop offset=".55" stop-color="#91346c"/>
      <stop offset=".58" stop-color="#9a3a69"/>
      <stop offset=".58" stop-color="#9c3c69"/>
      <stop offset=".65" stop-color="#9d3d6a"/>
      <stop offset=".67" stop-color="#a2436d"/>
      <stop offset=".75" stop-color="#a04169"/>
      <stop offset=".85" stop-color="#8e557e"/>
      <stop offset=".98" stop-color="#7277a2"/>
      <stop offset="1" stop-color="#7276a2"/>
    </linearGradient>
    <linearGradient id="linear-gradient-28" x1="213.9" y1="6.9" x2="257.92" y2="323.83" gradientTransform="translate(207.48 464.65) rotate(-135.93)" gradientUnits="userSpaceOnUse">
      <stop offset="0" stop-color="#76709e"/>
      <stop offset=".08" stop-color="#7f598c"/>
      <stop offset=".19" stop-color="#8e3973"/>
      <stop offset=".3" stop-color="#852b73"/>
      <stop offset=".37" stop-color="#7d2173"/>
      <stop offset=".5" stop-color="#90316c"/>
      <stop offset=".55" stop-color="#92326b"/>
      <stop offset=".58" stop-color="#9b3868"/>
      <stop offset=".58" stop-color="#9f3b67"/>
      <stop offset=".65" stop-color="#a03c67"/>
      <stop offset=".67" stop-color="#a3416a"/>
      <stop offset=".75" stop-color="#a24067"/>
      <stop offset=".84" stop-color="#92547c"/>
      <stop offset=".98" stop-color="#757aa5"/>
      <stop offset="1" stop-color="#7479a4"/>
    </linearGradient>
    <linearGradient id="linear-gradient-29" x1="216.45" y1="6.22" x2="260.26" y2="321.68" gradientTransform="translate(207.48 464.65) rotate(-135.93)" gradientUnits="userSpaceOnUse">
      <stop offset="0" stop-color="#7973a0"/>
      <stop offset=".08" stop-color="#83598c"/>
      <stop offset=".19" stop-color="#913973"/>
      <stop offset=".3" stop-color="#872a72"/>
      <stop offset=".37" stop-color="#7f2072"/>
      <stop offset=".5" stop-color="#92306b"/>
      <stop offset=".55" stop-color="#943169"/>
      <stop offset=".58" stop-color="#9d3866"/>
      <stop offset=".58" stop-color="#a13b65"/>
      <stop offset=".66" stop-color="#a23c66"/>
      <stop offset=".67" stop-color="#a43e68"/>
      <stop offset=".75" stop-color="#a33e65"/>
      <stop offset=".84" stop-color="#94527a"/>
      <stop offset=".98" stop-color="#777ca7"/>
      <stop offset="1" stop-color="#777ca7"/>
    </linearGradient>
    <linearGradient id="linear-gradient-30" x1="218.99" y1="5.56" x2="262.6" y2="319.56" gradientTransform="translate(207.48 464.65) rotate(-135.93)" gradientUnits="userSpaceOnUse">
      <stop offset="0" stop-color="#7b75a3"/>
      <stop offset=".08" stop-color="#86598d"/>
      <stop offset=".19" stop-color="#943973"/>
      <stop offset=".3" stop-color="#892a72"/>
      <stop offset=".37" stop-color="#801f71"/>
      <stop offset=".5" stop-color="#942f69"/>
      <stop offset=".55" stop-color="#963068"/>
      <stop offset=".58" stop-color="#9f3765"/>
      <stop offset=".58" stop-color="#a33a64"/>
      <stop offset=".67" stop-color="#a33b64"/>
      <stop offset=".67" stop-color="#a43c65"/>
      <stop offset=".75" stop-color="#a53c63"/>
      <stop offset=".83" stop-color="#975078"/>
      <stop offset=".98" stop-color="#7a7faa"/>
      <stop offset="1" stop-color="#797fa9"/>
    </linearGradient>
    <linearGradient id="Plum" x1="221.54" y1="4.95" x2="264.95" y2="317.47" gradientTransform="translate(207.48 464.65) rotate(-135.93)" gradientUnits="userSpaceOnUse">
      <stop offset="0" stop-color="#7e78a5"/>
      <stop offset=".09" stop-color="#89598d"/>
      <stop offset=".19" stop-color="#973973"/>
      <stop offset=".34" stop-color="#862370"/>
      <stop offset=".37" stop-color="#821e70"/>
      <stop offset=".58" stop-color="#a53962"/>
      <stop offset=".75" stop-color="#a63a61"/>
      <stop offset=".83" stop-color="#994e76"/>
      <stop offset=".98" stop-color="#7c82ac"/>
    </linearGradient>
  </defs>
  <g id="Layer_1-2" data-name="Layer 1">
    <g>
      <path class="cls-18" d="M176.24,38.51c-206.18,37.1-78.3,156.9-16.03,330,9.8,27.24,54.82,39.79,115.88-4.72,3.81-2.78,29.28-21.89,39.2-55.87,19.56-67-40.58-125.77-45.62-130.55-20.2-19.15-77.74-110.89-106.25-94.67-37.62,21.4-32.75,190.45,27.69,243.5,64.92,56.97,186.87,29.75,223.4-36.15,41.23-74.39-123.08-318.76-114.92-227.42,7.04,78.67-94.87-29.83-123.35-24.11"/>
      <path class="cls-2" d="M172.99,37.38c-202.96,36.89-78.07,159.78-17.57,327.78,9.84,27.11,56.37,42,117.43-2.51,3.81-2.78,29.28-21.89,39.2-55.87,19.56-67-40.58-125.77-45.62-130.55-20.2-19.15-73.41-107.91-101.92-91.69-37.62,21.4-37.08,187.48,23.36,240.52,64.92,56.97,187.7,29.81,223.51-37.89,39.32-74.34-120.71-312.66-115.03-225.68,4.92,75.33-94.91-29.91-123.35-24.11"/>
      <path class="cls-14" d="M169.75,36.26c-199.75,36.68-78.28,162.83-19.12,325.57,9.82,27,57.91,44.22,118.97-.29,3.81-2.78,29.28-21.89,39.2-55.87,19.56-67-40.58-125.77-45.62-130.55-20.2-19.15-69.08-104.93-97.59-88.72-37.62,21.4-41.41,184.5,19.04,237.54,64.92,56.97,188.54,29.9,223.63-39.63,37.47-74.24-118.35-306.59-115.15-223.95,2.79,71.97-94.96-29.99-123.35-24.11"/>
      <path class="cls-25" d="M166.5,35.13c-196.54,36.47-78.24,165.79-20.67,323.35,9.82,26.88,59.46,46.43,120.52,1.92,3.81-2.78,29.28-21.89,39.2-55.87,19.56-67-40.58-125.77-45.62-130.55-20.2-19.15-64.76-101.95-93.27-85.74-37.62,21.4-45.73,181.52,14.71,234.56,64.92,56.97,189.39,30.03,223.74-41.36,35.65-74.11-116-300.54-115.26-222.21.64,68.59-95.01-30.07-123.35-24.11"/>
      <path class="cls-16" d="M163.25,34c-193.33,36.27-78.2,168.74-22.21,321.14,9.83,26.77,61.01,48.65,122.06,4.14,3.81-2.78,29.28-21.89,39.2-55.87,19.56-67-40.58-125.77-45.62-130.55-20.2-19.15-60.43-98.97-88.94-82.76-37.62,21.4-50.06,178.54,10.39,231.59,64.92,56.97,190.27,30.19,223.86-43.1,33.89-73.93-113.65-294.53-115.38-220.48-1.52,65.19-95.06-30.15-123.35-24.11"/>
      <path class="cls-28" d="M160.01,32.87c-190.11,36.06-78.13,171.69-23.76,318.92,9.84,26.65,62.55,50.86,123.61,6.35,3.81-2.78,29.28-21.89,39.2-55.87,19.56-67-40.58-125.77-45.62-130.55-20.2-19.15-56.1-96-84.62-79.78-37.62,21.4-54.39,175.56,6.06,228.61,64.92,56.97,191.16,30.37,223.97-44.83,32.17-73.72-111.32-288.56-115.49-218.74-3.69,61.76-95.1-30.23-123.35-24.11"/>
      <path class="cls-3" d="M156.76,31.74c-186.9,35.85-78.06,174.64-25.3,316.71,9.85,26.53,64.1,53.08,125.16,8.57,3.81-2.78,29.28-21.89,39.2-55.87,19.56-67-40.58-125.77-45.62-130.55-20.2-19.15-51.78-93.02-80.29-76.8-37.62,21.4-58.71,172.59,1.73,225.63,64.92,56.97,192.07,30.59,224.09-46.57,30.49-73.47-109-282.63-115.61-217.01-5.87,58.3-95.15-30.31-123.35-24.11"/>
      <path class="cls-9" d="M153.51,30.62c-183.69,35.64-77.97,177.58-26.85,314.49,9.86,26.41,65.64,55.29,126.7,10.78,3.81-2.78,29.28-21.89,39.2-55.87,19.56-67-40.58-125.77-45.62-130.55-20.2-19.15-47.45-90.04-75.96-73.83-37.62,21.4-63.04,169.61-2.59,222.65,64.92,56.97,193.01,30.83,224.2-48.3,28.85-73.2-106.68-276.76-115.72-215.27-8.06,54.79-95.2-30.39-123.35-24.11"/>
      <path class="cls-19" d="M150.27,29.49c-180.47,35.44-77.86,180.52-28.4,312.28,9.87,26.3,67.19,57.51,128.25,13,3.81-2.78,29.28-21.89,39.2-55.87,19.56-67-40.58-125.77-45.62-130.55-20.2-19.15-43.12-87.06-71.64-70.85-37.62,21.4-67.36,166.63-6.92,219.67,64.92,56.97,193.98,31.1,224.32-50.04,27.26-72.9-104.35-270.97-115.84-213.53-10.25,51.24-95.25-30.47-123.35-24.11"/>
      <path class="cls-8" d="M147.02,28.36C-30.24,63.59,69.27,211.81,117.08,338.42c9.88,26.18,68.74,59.72,129.79,15.21,3.81-2.78,29.28-21.89,39.2-55.87,19.56-67-40.58-125.77-45.62-130.55-20.2-19.15-38.8-84.09-67.31-67.87-37.62,21.4-71.69,163.65-11.25,216.7,64.92,56.97,194.97,31.39,224.43-51.77C412.04,191.7,284.32-.98,270.37,52.47c-12.43,47.62-95.29-30.55-123.35-24.11"/>
      <path class="cls-12" d="M143.77,27.23C-30.28,62.25,66.16,213.61,112.29,335.08c9.9,26.06,70.28,61.94,131.34,17.43,3.81-2.78,29.28-21.89,39.2-55.87,19.56-67-40.58-125.77-45.62-130.55-20.2-19.15-34.47-81.11-62.98-64.89-37.62,21.4-76.02,160.67-15.57,213.72,64.92,56.97,196,31.69,224.55-53.51C407.4,189.18,283.57,1.78,267.13,51.34c-14.58,43.94-95.34-30.63-123.35-24.11"/>
      <path class="cls-5" d="M140.53,26.1C-30.31,60.92,63.06,215.4,107.49,331.73c9.91,25.94,71.83,64.15,132.89,19.64,3.81-2.78,29.28-21.89,39.2-55.87,19.56-67-40.58-125.77-45.62-130.55-20.2-19.15-30.15-78.13-58.66-61.91-37.62,21.4-80.34,157.7-19.9,210.74,64.92,56.97,197.06,32.02,224.67-55.24,22.73-71.86-97.19-254.11-116.18-208.33-16.67,40.19-95.39-30.71-123.35-24.11"/>
      <path class="cls-6" d="M137.28,24.98C-30.34,59.58,59.98,217.19,102.7,328.39c9.92,25.83,73.38,66.37,134.43,21.86,3.81-2.78,29.28-21.89,39.2-55.87,19.56-67-40.58-125.77-45.62-130.55-20.2-19.15-25.82-75.15-54.33-58.94-37.62,21.4-84.67,154.72-24.22,207.76,64.92,56.97,198.16,32.37,224.78-56.98,21.29-71.48-94.68-248.69-116.3-206.59-18.69,36.38-95.44-30.79-123.35-24.11"/>
      <path class="cls-21" d="M134.03,23.85C-30.38,58.24,56.91,218.97,97.91,325.05c9.94,25.71,74.92,68.58,135.98,24.07,3.81-2.78,29.28-21.89,39.2-55.87,19.56-67-40.58-125.77-45.62-130.55-20.2-19.15-21.49-72.17-50.01-55.96-37.62,21.4-89,151.74-28.55,204.79,64.92,56.97,199.3,32.73,224.9-58.71,19.9-71.08-92.03-243.37-116.42-204.86-20.58,32.51-95.48-30.87-123.35-24.11"/>
      <path class="cls-17" d="M130.79,22.72C-30.41,56.91,53.86,220.74,93.12,321.7c9.95,25.59,76.47,70.8,137.52,26.29,3.81-2.78,29.28-21.89,39.2-55.87,19.56-67-40.58-125.77-45.62-130.55-20.2-19.15-17.17-69.2-45.68-52.98-37.62,21.4-93.32,148.76-32.88,201.81,64.92,56.97,200.48,33.11,225.01-60.45,18.53-70.68-89.24-238.11-116.53-203.12-22.33,28.62-95.53-30.95-123.35-24.11"/>
      <path class="cls-4" d="M127.54,21.59C-30.45,55.57,50.82,222.52,88.32,318.36c9.97,25.47,78.01,73.01,139.07,28.5,3.81-2.78,29.28-21.89,39.2-55.87,19.56-67-40.58-125.77-45.62-130.55-20.2-19.15-12.84-66.22-41.35-50-37.62,21.4-97.65,145.79-37.2,198.83,64.92,56.97,201.7,33.49,225.13-62.19,17.2-70.26-86.25-232.87-116.65-201.39-23.9,24.75-95.58-31.03-123.35-24.11"/>
      <path class="cls-29" d="M124.29,20.46C-30.48,54.24,47.8,224.28,83.53,315.02c9.98,25.35,79.56,75.23,140.62,30.72,3.81-2.78,29.28-21.89,39.2-55.87,19.56-67-40.58-125.77-45.62-130.55-20.2-19.15-8.51-63.24-37.03-47.03-37.62,21.4-101.97,142.81-41.53,195.85,64.92,56.97,202.97,33.89,225.24-63.92,15.9-69.84-83.06-227.57-116.76-199.65-25.29,20.95-95.63-31.11-123.35-24.11"/>
      <path class="cls-20" d="M121.05,19.34C-30.51,52.9,44.79,226.04,78.74,311.68c10,25.23,81.11,77.44,142.16,32.93,3.81-2.78,29.28-21.89,39.2-55.87,19.56-67-40.58-125.77-45.62-130.55-20.2-19.15-4.19-60.26-32.7-44.05-37.62,21.4-106.3,139.83-45.86,192.87,64.92,56.97,204.28,34.3,225.36-65.66,14.63-69.41-79.68-222.12-116.88-197.92-26.54,17.27-95.67-31.19-123.35-24.11"/>
      <path class="cls-26" d="M117.8,18.21C-30.55,51.57,41.8,227.79,73.94,308.33c10.02,25.11,82.65,79.66,143.71,35.15,3.81-2.78,29.28-21.89,39.2-55.87,19.56-67-40.58-125.77-45.62-130.55-20.2-19.15.14-57.28-28.37-41.07-37.62,21.4-110.63,136.85-50.18,189.9,64.92,56.97,205.64,34.71,225.47-67.39,13.4-68.97-76.17-216.45-116.99-196.18-27.69,13.75-95.72-31.27-123.35-24.11"/>
      <path class="cls-24" d="M114.55,17.08C-30.58,50.23,38.83,229.54,69.15,304.99c10.05,24.99,84.2,81.87,145.26,37.36,3.81-2.78,29.28-21.89,39.2-55.87,19.56-67-40.58-125.77-45.62-130.55-20.2-19.15,4.46-54.31-24.05-38.09-37.62,21.4-114.95,133.87-54.51,186.92,64.92,56.97,207.05,35.13,225.59-69.13,12.18-68.54-72.59-210.51-117.11-194.44-28.81,10.4-95.77-31.35-123.35-24.11"/>
      <path class="cls-22" d="M111.31,15.95C-30.62,48.89,35.87,231.28,64.36,301.65c10.07,24.87,85.74,84.09,146.8,39.58,3.81-2.78,29.28-21.89,39.2-55.87,19.56-67-40.58-125.77-45.62-130.55-20.2-19.15,8.79-51.33-19.72-35.11-37.62,21.4-119.28,130.9-58.84,183.94,64.92,56.97,208.52,35.55,225.7-70.86,11-68.11-69.03-204.3-117.22-192.71-29.95,7.2-95.81-31.43-123.35-24.11"/>
      <path class="cls-23" d="M108.06,14.82C-30.65,47.56,32.93,233.02,59.57,298.3c10.1,24.75,87.29,86.3,148.35,41.79,3.81-2.78,29.28-21.89,39.2-55.87,19.56-67-40.58-125.77-45.62-130.55-20.2-19.15,13.12-48.35-15.4-32.14-37.62,21.4-123.61,127.92-63.16,180.96,64.92,56.97,210.03,35.97,225.82-72.6,9.84-67.67-65.57-197.83-117.34-190.97-31.18,4.13-95.86-31.51-123.35-24.11"/>
      <path class="cls-15" d="M104.81,13.7C-30.69,46.22,30,234.74,54.77,294.96c10.13,24.63,88.84,88.52,149.89,44.01,3.81-2.78,29.28-21.89,39.2-55.87,19.56-67-40.58-125.77-45.62-130.55-20.2-19.15,17.44-45.37-11.07-29.16-37.62,21.4-127.93,124.94-67.49,177.98,64.92,56.97,211.6,36.39,225.93-74.33,8.71-67.24-62.25-191.18-117.45-189.24-32.51,1.14-95.91-31.59-123.35-24.11"/>
      <path class="cls-7" d="M101.57,12.57C-30.72,44.89,27.1,236.47,49.98,291.62c10.17,24.5,90.38,90.73,151.44,46.22,3.81-2.78,29.28-21.89,39.2-55.87,19.56-67-40.58-125.77-45.62-130.55-20.2-19.15,21.77-42.4-6.74-26.18-37.62,21.4-132.26,121.96-71.81,175.01,64.92,56.97,213.22,36.8,226.05-76.07,7.59-66.82-59.08-184.41-117.57-187.5-33.96-1.8-95.96-31.67-123.35-24.11"/>
      <path class="cls-30" d="M98.32,11.44C-30.75,43.55,24.21,238.18,45.19,288.27c10.21,24.38,91.93,92.95,152.99,48.44,3.81-2.78,29.28-21.89,39.2-55.87,19.56-67-40.58-125.77-45.62-130.55-20.2-19.15,26.1-39.42-2.42-23.2-37.62,21.4-136.58,118.98-76.14,172.03,64.92,56.97,214.9,37.22,226.17-77.8,6.5-66.4-56.07-177.59-117.68-185.77-35.51-4.72-96-31.75-123.35-24.11"/>
      <path class="cls-31" d="M95.07,10.31C-30.79,42.22,21.33,239.89,40.39,284.93c10.26,24.24,93.47,95.16,154.53,50.65,3.81-2.78,29.28-21.89,39.2-55.87,19.56-67-40.58-125.77-45.62-130.55-20.2-19.15,30.42-36.44,1.91-20.22-37.62,21.4-140.91,116.01-80.47,169.05,64.92,56.97,216.64,37.62,226.28-79.54,5.43-65.99-53.19-170.76-117.8-184.03-37.16-7.64-96.05-31.84-123.35-24.11"/>
      <path class="cls-32" d="M91.83,9.18C-30.82,40.88,18.48,241.59,35.6,281.59c10.32,24.11,95.02,97.38,156.08,52.87,3.81-2.78,29.28-21.89,39.2-55.87,19.56-67-40.58-125.77-45.62-130.55-20.2-19.15,34.75-33.46,6.24-17.25-37.62,21.4-145.24,113.03-84.79,166.07,64.92,56.97,218.43,38.02,226.4-81.27,4.38-65.58-50.43-163.95-117.92-182.3C176.29,22.72,119.08,1.38,91.83,9.18"/>
      <path class="cls-13" d="M88.58,8.06C-30.86,39.54,15.64,243.28,30.81,278.25c10.4,23.97,96.57,99.59,157.62,55.08,3.81-2.78,29.28-21.89,39.2-55.87,19.56-67-40.58-125.77-45.62-130.55-20.2-19.15,39.07-30.48,10.56-14.27-37.62,21.4-149.56,110.05-89.12,163.1,64.92,56.97,220.28,38.41,226.51-83.01,3.34-65.19-47.74-157.18-118.03-180.56C171.25,18.63,115.79.17,88.58,8.06"/>
      <path class="cls-1" d="M85.33,6.93C-30.89,38.21,12.81,244.96,26.02,274.9c10.5,23.81,98.11,101.81,159.17,57.3,3.81-2.78,29.28-21.89,39.2-55.87,19.56-67-40.58-125.77-45.62-130.55-20.2-19.15,43.4-27.51,14.89-11.29-37.62,21.4-153.89,107.07-93.45,160.12,64.92,56.97,222.19,38.78,226.63-84.75,2.33-64.81-45.13-150.46-118.15-178.83C166.16,14.51,112.49-1.04,85.33,6.93"/>
      <path class="cls-10" d="M82.09,5.8C-30.93,36.87,10.01,246.64,21.22,271.56c10.64,23.64,99.66,104.02,160.72,59.51,3.81-2.78,29.28-21.89,39.2-55.87,19.56-67-40.58-125.77-45.62-130.55-20.2-19.15,47.73-24.53,19.21-8.31-37.62,21.4-158.22,104.1-97.77,157.14,64.92,56.97,224.16,39.14,226.74-86.48,1.32-64.43-42.56-143.78-118.26-177.09C161.03,10.37,109.2-2.25,82.09,5.8"/>
      <path class="cls-11" d="M78.84,4.67C-30.96,35.54,7.22,248.3,16.43,268.22c10.84,23.44,101.21,106.24,162.26,61.73,3.81-2.78,29.28-21.89,39.2-55.87,19.56-67-40.58-125.77-45.62-130.55-20.2-19.15,52.05-21.55,23.54-5.34-37.62,21.4-162.54,101.12-102.1,154.16,64.92,56.97,226.19,39.48,226.86-88.22.34-64.07-40.03-137.16-118.38-175.36C155.88,6.2,105.9-3.46,78.84,4.67"/>
      <path class="cls-27" d="M75.59,3.54C-30.99,34.2,4.45,249.95,11.64,264.87c11.17,23.17,102.75,108.45,163.81,63.94,3.81-2.78,29.28-21.89,39.2-55.87,19.56-67-40.58-125.77-45.62-130.55-20.2-19.15,56.38-18.57,27.87-2.36-37.62,21.4-166.87,98.14-106.42,151.18,64.92,56.97,228.27,39.81,226.97-89.95-.64-63.73-37.52-130.58-118.49-173.62C150.7,2.01,102.61-4.66,75.59,3.54"/>
    </g>
  </g>
</svg>