<?xml version="1.0" encoding="UTF-8"?>
<svg id="Layer_2" data-name="Layer 2" xmlns="http://www.w3.org/2000/svg" xmlns:xlink="http://www.w3.org/1999/xlink" viewBox="0 0 307.36 309.4">
  <defs>
    <style>
      .cls-1, .cls-2, .cls-3, .cls-4, .cls-5, .cls-6, .cls-7, .cls-8, .cls-9, .cls-10, .cls-11, .cls-12, .cls-13, .cls-14 {
        fill: white;
      }
    </style>
  </defs>
  <g id="Layer_2-2" data-name="Layer 2">
    <path id="path3" class="cls-14" d="M261.36,194.34c14.92-28.55,23.03-70.67,14.96-103.44-1.19-4.85-5.08-13.23-4.67-13.86h0c.7-.48,5.75,6.15,8.33,9.31,55.16,67.5,21.16,158.34-49.97,203.25-55.28,33.77-131.3,20.45-187.87-10.89l36.83-35.06c6.93,3.07,19.44,13.82,26.7,16.11,77.26,18.18,138.85-33.2,155.7-65.43h0Z"/>
    <path id="path2-0" class="cls-2" d="M72.24,182.57c-.14-.03-.32.16-.49.44.02-.04.02-.06.01-.06-.01,0-.09.13-.14.3,0,0,0,0,0,.01-.37.74-.69,1.82-.61,2.04.01.02.11.28.21.27.04,0,.17-.05.41-1.78.14.16.46.04.93-.13-.04-.67-.13-1.06-.32-1.1h0Z"/>
    <path id="path16" class="cls-6" d="M119.07,222.67c3.63-5.43,7.99-11.26,13.19-17.22,1.09-1.24,5.82-6.61,12.79-13.11,4.87-4.54,9.37-8.26,13.14-11.19-.67-1.22-1.34-2.45-2.05-3.69-1.39-2.45-2.8-4.8-4.2-7.07-2.17-2.52-4.28-4.22-5.84-5.33-1.64-1.17-2.98-1.87-5.43-3.18-1.51-.8-3.53-1.87-6.32-2.97-2.26-.9-2.46-.8-3.62-1.33-1.71-.77-4.02-2.21-6.35-5.12-1.43,1.67-2.86,3.35-4.29,5.02-3.95,4.46-8.74,9.27-14.49,14.07-10.17,8.49-20.22,14.35-28.53,18.37-.52,1.6-1.1,3.39-1.62,4.99-.54,1.66-1.08,3.33-1.62,5-7.78-5.88-15.57-11.76-23.35-17.64l12.04-22.9-31.56,17.81,7.54,23.57,3.54-3.14c2.88,2.3,5.78,4.59,8.71,6.88,4.46,3.5,8.91,6.95,13.33,10.34-1.18,2.17-2.38,4.35-3.56,6.52.78.91,1.56,1.81,2.34,2.72-15.23,15.49-30.46,30.97-45.68,46.46-.33.03-7.15.69-9.87,6.19-2.46,4.97.27,10.18,2.94,12.87,3.14,3.17,9.14,5.85,14.59,3.21,4.21-2.04,6.73-6.59,6.34-11.45,16.07-14.99,32.15-29.99,48.22-44.97,2.23,1.7,1.65,1.3,3.78,2.85,2.87-1.53,4.78-2.53,7.62-4.17,2.59,2.21,5.45,4.6,8.18,6.9,3.85,3.24,7.62,6.08,11.21,8.55-.68,1.18-1.4,2.39-2.14,3.62-.84,1.38-1.69,2.71-2.54,4,9.11.64,18.21,1.28,27.33,1.91,3.78-11.87,7.56-23.75,11.33-35.62-.9.8-8.98,8-9.91,8.83-.57.51-7.24,6.45-7.82,6.96-6.33-4.76-12.67-9.52-19-14.28.05-.02,4.42-1.23,4.47-1.24.13-.04,7.05-1.96,7.19-2h0ZM93.79,214.63l-2.5-2.32-2.49-2.3c9.17-9.53,18.34-19.06,27.51-28.59,3.21-.64,6.41-1.28,9.62-1.92-.29,2.85-.58,5.69-.86,8.54-10.43,8.86-20.84,17.73-31.27,26.59h0Z"/>
    <path id="path18" class="cls-5" d="M127.19,179.5l-.02.18s-.03-.06-.04-.09c.02-.03.04-.06.06-.09h0Z"/>
    <path id="path19" class="cls-7" d="M127.12,180.22l.04-.55c.06.12.12.23.19.33l-.24.22Z"/>
    <path id="path20" class="cls-13" d="M144.72,130.13c-1.31,5.22,6.45,10.8,8.07,11.97,2.48,1.78,4.55,3.27,7.57,3.48,3.57.25,5.34-1.5,7.3-.31.99.61,1.6,2.37,2.77,5.86,1.34,3.99,1.3,4.94,2.26,5.37,1.7.76,4.72-.89,5.8-3.17.36-.76.56-1.73.25-3.9-.55-3.84-2.03-6.65-2.52-7.57-3.59-6.71-5.39-10.07-5.54-10.26-3.38-4.25-11.09-11.21-17.39-9.28-2.58.79-5,3.09-5.49,3.56-1.46,1.42-2.67,2.59-3.08,4.24h0s0,0,0,0Z"/>
    <path id="path21" class="cls-10" d="M187.38,101c2.89,5.91,6.45,12.31,10.84,18.97,2.73,4.14,5.49,7.93,8.19,11.38l77.59-78.71,2.89-34.61-34.22,5.45-66.75,72.79,1.44,4.74h0s0,0,0,0Z"/>
    <path id="path24" class="cls-8" d="M127.19,179.5l-.02.18s-.03-.06-.04-.09c.02-.03.04-.06.06-.09h0Z"/>
    <path id="path27" class="cls-11" d="M127.19,179.5l-.02.18s-.03-.06-.04-.09c.02-.03.04-.06.06-.09h0Z"/>
    <path id="path29" class="cls-3" d="M127.19,179.5l-.02.18s-.03-.06-.04-.09c.02-.03.04-.06.06-.09h0Z"/>
    <path id="path30" class="cls-12" d="M127.12,180.22l.04-.55c.06.12.12.23.19.33l-.24.22Z"/>
    <path id="path31" class="cls-4" d="M127.19,179.5l-.02.18s-.03-.06-.04-.09c.02-.03.04-.06.06-.09h0Z"/>
    <path id="path41" class="cls-1" d="M212.63,142.51c-6.19-4.43-9.98-9.25-12.1-12.43-7.11-7.97-11.27-15.29-13.73-20.49-3.54-7.46-5.38-14.37-6.73-19.37-2.7-10.07-5.8-22.79-5.83-22.82-1.42-4.39-7.31-15.37-7.31-15.37-6.78-11.98-14.82-20.25-19.35-24.53-3.68-3.48-10.27-9.64-20.65-15.44C111.8,3.56,90.97-.9,89.66.15c-.36.45.98,1.36,3.07,2.74,3.31,2.18,7.71,5.45,11.09,9.98,3.05,3.99,4.75,9.2,5.32,14.07.02.3-.29.51-.58.37-2.92-1.24-15.07-6.35-23.72-8.52-8.15-2.05-22.04-5.35-23.57-4.32-.47.47,11.75,17.43,12.75,26.49.02.21-.18.36-.42.3-2.21-.58-11.98-3.16-18.71-3.93-3.44-.4-18.56-2.71-19.31-1.41-.88,1.09,8.52,7.95,10.81,12.39h.04c1.73,3.35,2.73,6.46,3.32,9.03-9.83,6.58-21.63,22.54-21.66,22.42-7.87,11.06-23.94,33.47-27.44,65.92-.09.77-.21,1.94-.34,3.44-.42,4.94-3.53,46.48,24.27,82.75-.64-.1,10.6,13.7,10.6,13.7l20.68-19.87c-3.49-4.16.18-6.95,2.73-9.88-3.78-3.32-7.72-6.65-11.81-9.97-1.37-1.12-2.74-2.21-4.1-3.28-1.91,2.08-3.56,4.38-5.66,6.26l-11.51-34.94,43.61-22.31c-1.08,3.26-2.89,7.66-5.26,13.43-2.83,6.88-5.63,12.38-7.65,16.12,5.15,4.19,10.29,8.38,15.44,12.57.58-4.28,1-8.21.91-10.04h0c.75-.29,1.87-.65,3.46-.08-.5-1.27-1.13-3.14-1.5-5.46-.34-2.13-.94-7.54,1.78-14.89,5.23-14.18,16.37-18.25,14.89-27.27-2.32-5.23-2.44-4.86-8.35-13.67-1.69-3.92-4.17-9.92-2.63-17.14,1.23-5.84,4.77-10.94,6.11-10.81,1.5.15-3.98,14.09.52,24.33,3.25,7.37,8.65,11.64,15.27,16.78,4.84,3.75,7.42,4.97,31.28,17.27,11,5.67,19.99,10.39,24.92,17.95,2.84,4.33,4.02,8.96,4.02,8.96,1.19,4.62,0,11.06.63,11.06s33.18-16.48,32.61-17.07c-.56-.58-5.96.08-10.29-1.39-4.56-1.55-7.57-3.92-9.11-5.33-1.84-2.04-3.92-4.71-5.8-8.03-2.52-4.48-3.08-11.04-4.42-11.75-1.33-.71-4.64.75-8.19.19-4.02-.64-6.88-2.22-8.38-3.18-2.54-3.13-5.27-6.95-7.81-11.49-3.1-5.56-6.69-14.32-6.46-15.05.23-.73,3.48-1.45,6.17-1.82,6.07-.87,10.89,1.02,15.44,2.88,4.05,1.64,10.34,4.77,16.75,10.6,1.65,3.05,3.34,6.6,4.84,10.63,1.52,4.06,2.42,10.83,3.3,11.22.9.38,5.19-2.05,10.23-1.11,4.88.92,7.8,3.63,8.71,4.56,1.36,1.88,2.96,4.58,4.1,8.04,1.52,4.63.67,10.76,1.29,11.25,2.7,2.12,11.11-2.99,16.28-9.21,4.34-5.23,6.02-10.8,6.75-14.31-1-.6-10.07-3.34-16.34-7.82h0ZM144.87,89.02c-1.36-9.41-4.17-19.79-7.48-26.67,9.83,8.54,14.89,15.8,7.48,26.67h0Z"/>
    <path id="path21-2" class="cls-9" d="M196.83,3.97s0,29.83-33.36,30.14c0,0,33.36-.59,33.36,30.34,0-30.93,30.24-30.24,30.24-30.24,0,0-30.24-.69-30.24-30.24Z"/>
  </g>
</svg>