<?xml version="1.0" encoding="UTF-8"?>
<svg id="Layer_2" data-name="Layer 2" xmlns="http://www.w3.org/2000/svg" xmlns:xlink="http://www.w3.org/1999/xlink" viewBox="0 0 853.78 309.4">
  <defs>
    <style>
      .cls-1 {
        fill: url(#linear-gradient-15);
      }

      .cls-2 {
        fill: url(#linear-gradient-13);
      }

      .cls-3 {
        fill: url(#linear-gradient-2);
      }

      .cls-4 {
        fill: url(#linear-gradient-25);
      }

      .cls-5 {
        fill: url(#linear-gradient-10);
      }

      .cls-6 {
        fill: url(#linear-gradient-12);
      }

      .cls-7 {
        fill: url(#linear-gradient-4);
      }

      .cls-8 {
        fill: url(#linear-gradient-3);
      }

      .cls-9 {
        fill: url(#linear-gradient-5);
      }

      .cls-10 {
        fill: url(#linear-gradient-22);
      }

      .cls-11 {
        fill: url(#linear-gradient-24);
      }

      .cls-12 {
        fill: url(#linear-gradient-8);
      }

      .cls-13 {
        fill: url(#linear-gradient-14);
      }

      .cls-14 {
        fill: url(#linear-gradient-20);
      }

      .cls-15 {
        fill: url(#linear-gradient-17);
      }

      .cls-16 {
        fill: url(#linear-gradient-7);
      }

      .cls-17 {
        fill: url(#linear-gradient-9);
      }

      .cls-18 {
        fill: url(#linear-gradient-11);
      }

      .cls-19 {
        fill: url(#linear-gradient-19);
      }

      .cls-20 {
        fill: url(#linear-gradient-6);
      }

      .cls-21 {
        fill: url(#linear-gradient-21);
      }

      .cls-22 {
        fill: url(#linear-gradient-16);
      }

      .cls-23 {
        fill: url(#linear-gradient);
      }

      .cls-24 {
        fill: url(#linear-gradient-23);
      }

      .cls-25 {
        fill: url(#linear-gradient-18);
      }
    </style>
    <linearGradient id="linear-gradient" x1="725.1" y1="181.5" x2="774.86" y2="267.69" gradientUnits="userSpaceOnUse">
      <stop offset="0" stop-color="#fe73fe"/>
      <stop offset="1" stop-color="#fdc0fd"/>
    </linearGradient>
    <linearGradient id="linear-gradient-2" x1="475.27" y1="207.89" x2="531.64" y2="264.27" xlink:href="#linear-gradient"/>
    <linearGradient id="linear-gradient-3" x1="324.98" y1="200.29" x2="429.48" y2="304.78" xlink:href="#linear-gradient"/>
    <linearGradient id="linear-gradient-4" x1="415.11" y1="200.75" x2="488.41" y2="274.06" xlink:href="#linear-gradient"/>
    <linearGradient id="linear-gradient-5" x1="614.98" y1="193.36" x2="700.51" y2="278.89" xlink:href="#linear-gradient"/>
    <linearGradient id="linear-gradient-6" x1="536.36" y1="204.14" x2="602.49" y2="270.27" xlink:href="#linear-gradient"/>
    <linearGradient id="linear-gradient-7" x1="817.01" y1="191.41" x2="817.01" y2="280.76" xlink:href="#linear-gradient"/>
    <linearGradient id="linear-gradient-8" x1="347.99" y1="52.02" x2="460.69" y2="164.72" gradientUnits="userSpaceOnUse">
      <stop offset="0" stop-color="#fe34fe"/>
      <stop offset="1" stop-color="#fe73fe"/>
    </linearGradient>
    <linearGradient id="linear-gradient-9" x1="790.67" y1="108.17" x2="833.99" y2="108.17" xlink:href="#linear-gradient-8"/>
    <linearGradient id="linear-gradient-10" x1="466.28" y1="66.28" x2="611.62" y2="150.19" xlink:href="#linear-gradient-8"/>
    <linearGradient id="linear-gradient-11" x1="595.91" y1="52.45" x2="788.81" y2="163.82" xlink:href="#linear-gradient-8"/>
    <linearGradient id="linear-gradient-12" x1="143.75" y1="150.88" x2="225.4" y2="292.3" gradientUnits="userSpaceOnUse">
      <stop offset="0" stop-color="#fe38fe"/>
      <stop offset="1" stop-color="#fe7bfe"/>
    </linearGradient>
    <linearGradient id="linear-gradient-13" x1="71.26" y1="183.81" x2="72.17" y2="184.34" gradientUnits="userSpaceOnUse">
      <stop offset="0" stop-color="#a80cfe"/>
      <stop offset="1" stop-color="#feabfe"/>
    </linearGradient>
    <linearGradient id="linear-gradient-14" x1="20.95" y1="194.49" x2="133.23" y2="259.31" gradientUnits="userSpaceOnUse">
      <stop offset="0" stop-color="#d31cfe"/>
      <stop offset="1" stop-color="#fe40fe"/>
    </linearGradient>
    <linearGradient id="linear-gradient-15" x1="127.14" y1="179.57" x2="127.21" y2="179.61" xlink:href="#linear-gradient-13"/>
    <linearGradient id="linear-gradient-16" x1="127.05" y1="179.89" x2="127.33" y2="180.06" xlink:href="#linear-gradient-13"/>
    <linearGradient id="linear-gradient-17" x1="145.83" y1="127.82" x2="181.38" y2="148.34" gradientUnits="userSpaceOnUse">
      <stop offset="0" stop-color="#d31cfe"/>
      <stop offset="1" stop-color="#eb28fe"/>
    </linearGradient>
    <linearGradient id="linear-gradient-18" x1="225.25" y1="39.31" x2="260.39" y2="100.18" xlink:href="#linear-gradient-17"/>
    <linearGradient id="linear-gradient-19" x1="127.14" y1="179.57" x2="127.21" y2="179.61" xlink:href="#linear-gradient-13"/>
    <linearGradient id="linear-gradient-20" x1="127.14" y1="179.57" x2="127.21" y2="179.61" xlink:href="#linear-gradient-13"/>
    <linearGradient id="linear-gradient-21" x1="127.14" y1="179.57" x2="127.21" y2="179.61" xlink:href="#linear-gradient-13"/>
    <linearGradient id="linear-gradient-22" x1="127.05" y1="179.89" x2="127.33" y2="180.06" xlink:href="#linear-gradient-13"/>
    <linearGradient id="linear-gradient-23" x1="127.14" y1="179.57" x2="127.21" y2="179.61" xlink:href="#linear-gradient-13"/>
    <linearGradient id="linear-gradient-24" x1="33.51" y1="30.52" x2="139.84" y2="214.7" gradientUnits="userSpaceOnUse">
      <stop offset="0" stop-color="#a80cfe"/>
      <stop offset="1" stop-color="#fe38fe"/>
    </linearGradient>
    <linearGradient id="linear-gradient-25" x1="171.77" y1="19.75" x2="219.52" y2="47.31" xlink:href="#linear-gradient-13"/>
  </defs>
  <g id="Layer_2-2" data-name="Layer 2">
    <path id="path42-4" class="cls-23" d="M776.41,212.4h-13.99c-7.33,0-6.96.3-6.96,6.04l-.05,56.94c0,3.7-1.85,5.56-5.56,5.56h-12.97c-3.29,0-4.94-1.65-4.94-4.94v-57.43c0-6.15.27-6.79-6.79-6.79h-14.82c-2.47,0-3.7-.62-3.7-3.09v-13.59c0-3.69-.02-3.71,4.32-3.7l65.36.03c3.91,0,3.9-.02,3.87,3.01.07,3.73.03,8.13.03,11.84.11,6.14.03,6.08-3.79,6.12h0Z"/>
    <path id="path43-8" class="cls-3" d="M508.54,191.48c7.85.05,7.9.08,7.9,4.86v79.66c0,4.94,0,4.58-5.56,4.57-5.67-.04-11.11,0-16.06,0-3.09,0-4.32-.25-4.32-3.33v-82.13c0-3.64-.03-3.66,6.66-3.65,7.38-.03,4.09-.02,11.37.02h0Z"/>
    <path id="path51-7" class="cls-8" d="M352.25,191.53c4.25.03,4.26.02,4.26,4.82v37.05c0,1.24,0,2.47.62,3.7,1.24-.62,1.85-1.85,2.47-3.09,8.65-12.97,17.91-25.32,26.55-38.28,1.46-2.42,2.38-3.73,4.03-4.19l18.38-.02c7.49-.11,7.51,0,5.38,3.59-9.26,13.59-18.53,27.79-27.79,41.37-1.85,1.85-1.85,5.56,0,7.41,24.7,35.2,4.17,7.02,28.88,42.22,4.88,7.11,9.61,14.25,11.95,17.65,1.75,2.54.85,3.81-2.71,3.81h-19.07c-1.85,0-3.96.14-5.2-1.71-26.97-39.18-2.4-3.58-29.28-42.83-1.24-1.85-2.47-1.85-3.7,0l-9.26,14.82c-.47.94-.97,18.37-1.05,26.68-.02,2.03-1.15,3.05-3.38,3.05h-18.31c-1.53,0-2.29-1.02-2.29-3.05l.09-108.23c.08-4.81-.6-4.9,4.95-4.81,8.79.01,12.87-.01,14.51.04h0Z"/>
    <path id="path52-5" class="cls-7" d="M477.92,191.41c5.07.02,5.16.31,5.15,4.27l-.03,80.63c0,4.3-.13,4.32-4.94,4.32h-13.59c-4.24-.09-4.48-.97-6.12-3.39-10.5-14.82-21.61-29.64-32.11-44.46-.79-.85-1.3-1.14-2.47-1.85v54.34c-2.09-1.87-2.08-1.85-3.09-3.09l-17.91-25.32c-1.24-1.85-1.85-3.7-1.85-6.18v-22.23c0-1.85.62-3.7,1.85-5.56l19.57-28.91c2.2-3.22,2.24-3.15,4.37-.43l31.02,41.69c1.55,1.59,1.57,1.58,3.74,3.59l-.04-42.49c.08-4.52.86-4.88,3.89-4.93,8.59.04,3.14.02,12.55-.01h0Z"/>
    <path id="path53-7" class="cls-9" d="M695.9,191.42c3.99.02,3.94.07,3.94,4.31v81.51c0,3.09-1.24,4.32-4.32,4.32h-15.44c-3.09,0-4.32-1.24-4.32-3.7v-26.55c0-4.94,0-5.56-4.94-5.56h-27.17c-2.88,0-4.32,1.65-4.32,4.94v26.55c0,3.29-1.65,4.94-4.94,4.94h-14.2c-2.88,0-4.32-1.44-4.32-4.32v-81.51c0-4.63.08-4.75,2.39-4.76l18.18-.04c2.38.02,2.28.16,2.28,4.18v24.7c0,3.09.62,4.32,3.7,4.32h29.02c3.09,0,3.7-1.24,3.7-3.7v-24.7c.09-4.24.12-4.85,3.44-4.91l17.33-.02h0Z"/>
    <path id="path54-1" class="cls-20" d="M588.07,229.7h17.29c2.47,0,3.7.62,3.7,3.09v28.41s-.25,3.1-3.09,5.56c-14.2,13.59-35.2,17.91-53.72,11.11-19.14-6.18-30.87-24.08-29.02-46.93,1.85-19.76,17.29-35.2,36.43-38.28,14.82-3.7,30.26.62,40.76,11.11,7.41,7.41,7.41,8.03-1.85,12.97-2.47,1.24-5.29,2.9-8.03,4.32-2.75,1.42-3.09,1.24-4.32-.62-5.56-8.03-15.44-11.11-24.7-7.41-12.35,5.56-18.53,19.76-12.97,32.11,5.56,12.35,20.21,18.58,32.46,13.43,7.77-4.57,7.62-9.1.88-9.1h-12.35c-2.47,0-3.09-.62-3.09-3.09v-13.59c0-2.47,1.24-3.1,3.7-3.1h17.91s0,0,0,0h0Z"/>
    <path id="path56-8" class="cls-16" d="M783.18,271.07c-3.7-2.47-3.7-3.09-1.24-6.79,2.47-3.7,4.94-7.41,7.41-11.11,1.24-1.85,2.47-2.47,4.32-.62,6.18,5.56,14.2,9.26,22.23,9.26,5.03.26,14.6.42,14.82-6.79.25-8.01-14.82-8.45-20.99-9.26-7.41-1.24-14.2-4.32-19.76-8.65-9.88-9.88-9.88-25.94,0-35.82,1.52-1.63,1.59-1.68,4.32-3.7,14.82-8.65,30.26-7.41,45.7-1.24,3.09,1.24,6.79,3.09,9.26,4.94,1.85,1.24,2.47,2.47.62,4.94-2.66,3.92-5.27,8.63-8.31,12.19-1.74,1.78-1.94,1.92-4.51.4-6.79-4.32-15.25-6.79-23.71-7.65-1.41-.14-7.06-.79-8.72,3.19-1.75,4.88,1.38,5.72,3.26,6.41,4.13,1.42,8.6,2.66,13.21,4.13,6.32,1.95,13.16,3.8,19.34,5.65,8.65,3.09,12.53,10.26,13.15,19.52,1.24,10.5-3.2,21.57-13.33,26.34-12.85,6.33-37.21,6.71-57.07-5.34h0Z"/>
    <path id="path54-1-1" class="cls-12" d="M436.55,95.72h29.87c4.27,0,6.4,1.03,6.4,5.18v47.62c0,.05-.43,5.19-5.33,9.32-24.54,22.78-60.81,30.02-92.82,18.63-33.08-10.35-53.35-40.38-50.14-78.68,3.2-33.13,29.87-59.01,62.95-64.18,25.61-6.21,52.28,1.03,70.42,18.63,12.8,12.42,12.8,13.46-3.2,21.74-4.27,2.07-9.14,4.87-13.87,7.25-4.75,2.38-5.33,2.07-7.47-1.03-9.6-13.46-26.67-18.63-42.68-12.42-21.34,9.32-32.01,33.13-22.41,53.83,9.6,20.7,34.93,31.14,56.09,22.51,13.43-7.65,13.17-15.25,1.52-15.25h-21.34c-4.27,0-5.33-1.03-5.33-5.18v-22.78c0-4.14,2.13-5.19,6.4-5.19h30.94s0,0,0,0h0Z"/>
    <path id="path43-8-5" class="cls-17" d="M820.79,34.88c13.11.08,13.2.13,13.2,8v131.1c0,8.13,0,7.54-9.28,7.52-9.46-.07-18.56,0-26.82,0-5.16,0-7.22-.41-7.22-5.49V40.86c0-5.99-.04-6.02,11.13-6.01,12.32-.05,6.84-.03,18.99.04h0Z"/>
    <path class="cls-5" d="M520.87,68.29v23.9h58.64c1.3,0,2.36,1.06,2.36,2.36v27.51c0,1.3-1.06,2.36-2.36,2.36h-58.64v25.15h71.11c1.34,0,2.42,1.08,2.42,2.42v27.39c0,1.34-1.08,2.42-2.42,2.42h-76.3c-.15,0-.3,0-.46,0-.72,0-1.53-.01-2.45-.01-8.26-.07-16.19,0-23.4,0-4.5,0-6.3-.41-6.3-5.5V40.87c0-6-.04-6.04,9.71-6.02,10.75-.05,5.96-.03,16.57.04,3.04.02,5.28.04,6.92.2h75.7c1.34,0,2.42,1.08,2.42,2.42v28.37c0,1.34-1.08,2.42-2.42,2.42h-71.11Z"/>
    <path class="cls-18" d="M780.22,40.87v135.41c0,5.09-2.06,5.5-7.22,5.5-8.26,0-17.35-.07-26.82,0-9.28.02-9.28.61-9.28-7.53v-84.37l-34.85,47.94c-.95,2.62-3.46,4.48-6.41,4.48h-6.53c-3.07,0-5.66-2.02-6.52-4.8l-34.62-47.62v84.37c0,8.14,0,7.55-9.28,7.53-9.46-.07-18.56,0-26.81,0-5.16,0-7.22-.41-7.22-5.5V40.87c0-6-.04-6.04,11.13-6.02,12.32-.05,6.84-.03,18.99.04,3.04.02,5.38.03,7.18.15,3.59-.05,7.14,1.59,9.41,4.71l41.07,56.49,41.07-56.49c2.27-3.12,5.83-4.76,9.41-4.71h0c1.8-.11,4.14-.13,7.17-.15,12.16-.07,6.67-.09,18.99-.04,11.17-.01,11.13.02,11.13,6.02h0Z"/>
    <path id="path3" class="cls-6" d="M261.36,194.34c14.92-28.55,23.03-70.67,14.96-103.44-1.19-4.85-5.08-13.23-4.67-13.86h0c.7-.48,5.75,6.15,8.33,9.31,55.16,67.5,21.16,158.34-49.97,203.25-55.28,33.77-131.3,20.45-187.87-10.89l36.83-35.06c6.93,3.07,19.44,13.82,26.7,16.11,77.26,18.18,138.85-33.2,155.7-65.43h0Z"/>
    <path id="path2-0" class="cls-2" d="M72.24,182.57c-.14-.03-.32.16-.49.44.02-.04.02-.06.01-.06-.01,0-.09.13-.14.3,0,0,0,0,0,.01-.37.74-.69,1.82-.61,2.04.01.02.11.28.21.27.04,0,.17-.05.41-1.78.14.16.46.04.93-.13-.04-.67-.13-1.06-.32-1.1h0Z"/>
    <path id="path16" class="cls-13" d="M119.07,222.67c3.63-5.43,7.99-11.26,13.19-17.22,1.09-1.24,5.82-6.61,12.79-13.11,4.87-4.54,9.37-8.26,13.14-11.19-.67-1.22-1.34-2.45-2.05-3.69-1.39-2.45-2.8-4.8-4.2-7.07-2.17-2.52-4.28-4.22-5.84-5.33-1.64-1.17-2.98-1.87-5.43-3.18-1.51-.8-3.53-1.87-6.32-2.97-2.26-.9-2.46-.8-3.62-1.33-1.71-.77-4.02-2.21-6.35-5.12-1.43,1.67-2.86,3.35-4.29,5.02-3.95,4.46-8.74,9.27-14.49,14.07-10.17,8.49-20.22,14.35-28.53,18.37-.52,1.6-1.1,3.39-1.62,4.99-.54,1.66-1.08,3.33-1.62,5-7.78-5.88-15.57-11.76-23.35-17.64l12.04-22.9-31.56,17.81,7.54,23.57,3.54-3.14c2.88,2.3,5.78,4.59,8.71,6.88,4.46,3.5,8.91,6.95,13.33,10.34-1.18,2.17-2.38,4.35-3.56,6.52.78.91,1.56,1.81,2.34,2.72-15.23,15.49-30.46,30.97-45.68,46.46-.33.03-7.15.69-9.87,6.19-2.46,4.97.27,10.18,2.94,12.87,3.14,3.17,9.14,5.85,14.59,3.21,4.21-2.04,6.73-6.59,6.34-11.45,16.07-14.99,32.15-29.99,48.22-44.97,2.23,1.7,1.65,1.3,3.78,2.85,2.87-1.53,4.78-2.53,7.62-4.17,2.59,2.21,5.45,4.6,8.18,6.9,3.85,3.24,7.62,6.08,11.21,8.55-.68,1.18-1.4,2.39-2.14,3.62-.84,1.38-1.69,2.71-2.54,4,9.11.64,18.21,1.28,27.33,1.91,3.78-11.87,7.56-23.75,11.33-35.62-.9.8-8.98,8-9.91,8.83-.57.51-7.24,6.45-7.82,6.96-6.33-4.76-12.67-9.52-19-14.28.05-.02,4.42-1.23,4.47-1.24.13-.04,7.05-1.96,7.19-2h0ZM93.79,214.63l-2.5-2.32-2.49-2.3c9.17-9.53,18.34-19.06,27.51-28.59,3.21-.64,6.41-1.28,9.62-1.92-.29,2.85-.58,5.69-.86,8.54-10.43,8.86-20.84,17.73-31.27,26.59h0Z"/>
    <path id="path18" class="cls-1" d="M127.19,179.5l-.02.18s-.03-.06-.04-.09c.02-.03.04-.06.06-.09h0Z"/>
    <path id="path19" class="cls-22" d="M127.12,180.22l.04-.55c.06.12.12.23.19.33l-.24.22Z"/>
    <path id="path20" class="cls-15" d="M144.72,130.13c-1.31,5.22,6.45,10.8,8.07,11.97,2.48,1.78,4.55,3.27,7.57,3.48,3.57.25,5.34-1.5,7.3-.31.99.61,1.6,2.37,2.77,5.86,1.34,3.99,1.3,4.94,2.26,5.37,1.7.76,4.72-.89,5.8-3.17.36-.76.56-1.73.25-3.9-.55-3.84-2.03-6.65-2.52-7.57-3.59-6.71-5.39-10.07-5.54-10.26-3.38-4.25-11.09-11.21-17.39-9.28-2.58.79-5,3.09-5.49,3.56-1.46,1.42-2.67,2.59-3.08,4.24h0s0,0,0,0Z"/>
    <path id="path21" class="cls-25" d="M187.38,101c2.89,5.91,6.45,12.31,10.84,18.97,2.73,4.14,5.49,7.93,8.19,11.38l77.59-78.71,2.89-34.61-34.22,5.45-66.75,72.79,1.44,4.74h0s0,0,0,0Z"/>
    <path id="path24" class="cls-19" d="M127.19,179.5l-.02.18s-.03-.06-.04-.09c.02-.03.04-.06.06-.09h0Z"/>
    <path id="path27" class="cls-14" d="M127.19,179.5l-.02.18s-.03-.06-.04-.09c.02-.03.04-.06.06-.09h0Z"/>
    <path id="path29" class="cls-21" d="M127.19,179.5l-.02.18s-.03-.06-.04-.09c.02-.03.04-.06.06-.09h0Z"/>
    <path id="path30" class="cls-10" d="M127.12,180.22l.04-.55c.06.12.12.23.19.33l-.24.22Z"/>
    <path id="path31" class="cls-24" d="M127.19,179.5l-.02.18s-.03-.06-.04-.09c.02-.03.04-.06.06-.09h0Z"/>
    <path id="path41" class="cls-11" d="M212.63,142.51c-6.19-4.43-9.98-9.25-12.1-12.43-7.11-7.97-11.27-15.29-13.73-20.49-3.54-7.46-5.38-14.37-6.73-19.37-2.7-10.07-5.8-22.79-5.83-22.82-1.42-4.39-7.31-15.37-7.31-15.37-6.78-11.98-14.82-20.25-19.35-24.53-3.68-3.48-10.27-9.64-20.65-15.44C111.8,3.56,90.97-.9,89.66.15c-.36.45.98,1.36,3.07,2.74,3.31,2.18,7.71,5.45,11.09,9.98,3.05,3.99,4.75,9.2,5.32,14.07.02.3-.29.51-.58.37-2.92-1.24-15.07-6.35-23.72-8.52-8.15-2.05-22.04-5.35-23.57-4.32-.47.47,11.75,17.43,12.75,26.49.02.21-.18.36-.42.3-2.21-.58-11.98-3.16-18.71-3.93-3.44-.4-18.56-2.71-19.31-1.41-.88,1.09,8.52,7.95,10.81,12.39h.04c1.73,3.35,2.73,6.46,3.32,9.03-9.83,6.58-21.63,22.54-21.66,22.42-7.87,11.06-23.94,33.47-27.44,65.92-.09.77-.21,1.94-.34,3.44-.42,4.94-3.53,46.48,24.27,82.75-.64-.1,10.6,13.7,10.6,13.7l20.68-19.87c-3.49-4.16.18-6.95,2.73-9.88-3.78-3.32-7.72-6.65-11.81-9.97-1.37-1.12-2.74-2.21-4.1-3.28-1.91,2.08-3.56,4.38-5.66,6.26l-11.51-34.94,43.61-22.31c-1.08,3.26-2.89,7.66-5.26,13.43-2.83,6.88-5.63,12.38-7.65,16.12,5.15,4.19,10.29,8.38,15.44,12.57.58-4.28,1-8.21.91-10.04h0c.75-.29,1.87-.65,3.46-.08-.5-1.27-1.13-3.14-1.5-5.46-.34-2.13-.94-7.54,1.78-14.89,5.23-14.18,16.37-18.25,14.89-27.27-2.32-5.23-2.44-4.86-8.35-13.67-1.69-3.92-4.17-9.92-2.63-17.14,1.23-5.84,4.77-10.94,6.11-10.81,1.5.15-3.98,14.09.52,24.33,3.25,7.37,8.65,11.64,15.27,16.78,4.84,3.75,7.42,4.97,31.28,17.27,11,5.67,19.99,10.39,24.92,17.95,2.84,4.33,4.02,8.96,4.02,8.96,1.19,4.62,0,11.06.63,11.06s33.18-16.48,32.61-17.07c-.56-.58-5.96.08-10.29-1.39-4.56-1.55-7.57-3.92-9.11-5.33-1.84-2.04-3.92-4.71-5.8-8.03-2.52-4.48-3.08-11.04-4.42-11.75-1.33-.71-4.64.75-8.19.19-4.02-.64-6.88-2.22-8.38-3.18-2.54-3.13-5.27-6.95-7.81-11.49-3.1-5.56-6.69-14.32-6.46-15.05.23-.73,3.48-1.45,6.17-1.82,6.07-.87,10.89,1.02,15.44,2.88,4.05,1.64,10.34,4.77,16.75,10.6,1.65,3.05,3.34,6.6,4.84,10.63,1.52,4.06,2.42,10.83,3.3,11.22.9.38,5.19-2.05,10.23-1.11,4.88.92,7.8,3.63,8.71,4.56,1.36,1.88,2.96,4.58,4.1,8.04,1.52,4.63.67,10.76,1.29,11.25,2.7,2.12,11.11-2.99,16.28-9.21,4.34-5.23,6.02-10.8,6.75-14.31-1-.6-10.07-3.34-16.34-7.82h0ZM144.87,89.02c-1.36-9.41-4.17-19.79-7.48-26.67,9.83,8.54,14.89,15.8,7.48,26.67h0Z"/>
    <path id="path21-2" class="cls-4" d="M196.83,3.97s0,29.83-33.36,30.14c0,0,33.36-.59,33.36,30.34,0-30.93,30.24-30.24,30.24-30.24,0,0-30.24-.69-30.24-30.24Z"/>
  </g>
</svg>