<?xml version="1.0" encoding="utf-8"?>
<!-- Generator: Adobe Illustrator 26.0.2, SVG Export Plug-In . SVG Version: 6.00 Build 0)  -->
<svg version="1.1" id="Layer_1" xmlns="http://www.w3.org/2000/svg" xmlns:xlink="http://www.w3.org/1999/xlink" x="0px" y="0px"
	 viewBox="0 0 512 512" style="enable-background:new 0 0 512 512;" xml:space="preserve">
<style type="text/css">
	.st0{fill:#2D9BAD;}
	.st1{fill:#00243D;}
</style>
<g>
	<path class="st0" d="M127.9,256l-54.2,20.8L31,293.2L58.4,256L31,218.8l42.7,16.4L127.9,256z"/>
	<path class="st1" d="M142.8,207.5H213c27.1,0,33.8,11.8,33.8,22.4v1.4c0,11.8-10.3,19-17.4,19.9c10.7,1.5,22.1,9.4,22.1,24.6v1.4
		c0,12.8-7.8,27.3-38.1,27.3h-70.6L142.8,207.5L142.8,207.5z M172.5,227.5v16.7h33.1c7.9,0,10.3-3.8,10.3-8.3
		c0-4.6-2.5-8.4-10.3-8.4L172.5,227.5L172.5,227.5z M172.5,263.9v18.3h35.1c9.3,0,11.8-4.7,11.8-9.5v-0.1c0-4.7-2.5-8.6-11.8-8.6
		H172.5z"/>
	<path class="st1" d="M296.2,207.5l39.9,54.1v-54.1h29.8v96.9h-35L291.5,251v53.4h-29.7v-96.9H296.2L296.2,207.5z"/>
	<path class="st1" d="M407.3,264.1l-41.7-56.6h36.8l20.9,28.4l20.9-28.4H481l-41.7,56.6v40.4h-32V264.1z"/>
</g>
</svg>
