<?xml version="1.0" encoding="utf-8"?>
<!-- Generator: Adobe Illustrator 27.7.0, SVG Export Plug-In . SVG Version: 6.00 Build 0)  -->
<svg version="1.1" id="Layer_1" xmlns="http://www.w3.org/2000/svg" xmlns:xlink="http://www.w3.org/1999/xlink" x="0px" y="0px"
	 viewBox="0 0 640.7 749.5" style="enable-background:new 0 0 640.7 749.5;" xml:space="preserve">
<style type="text/css">
	.st0{fill-rule:evenodd;clip-rule:evenodd;}
</style>
<g>
	<path class="st0" d="M248.9,119.1c0,0-6.5,26.7-42.4,34.2c0,0-15.8,1-23.9-11.8c-14.6-22.9,28.3-36.9,40.8-8
		c0,0,32.3-44.5,4.9-72.1c-22.3-22.4-47.8-8.5-47.8-8.5L149.4,0l-31,52.9c0,0-25.5-13.9-47.8,8.5c-27.4,27.6,4.9,72.1,4.9,72.1
		c12.5-28.8,55.3-14.9,40.8,8c-8.2,12.8-23.9,11.8-23.9,11.8C56.5,145.8,50,119.1,50,119.1l-23.4,16L82,219h134.8l55.4-83.9
		L248.9,119.1L248.9,119.1z M203.2,195H95.6l-21.7-28.3c0,0,35.7,17.9,57.6-6.4c21.2-23.5,4.9-47,1.6-51c-4.9-6.1-22.3-20-46.2-12
		c0,0-13-9.1,0-19.8c13-10.7,24.4-3,29.1,1.6c5.4,5.3,3.8,3.7,10.6,11.2c-0.5,1.6,22.8-47,22.8-47s23.4,48.6,22.8,47
		c6.8-7.5,5.1-5.9,10.6-11.2c4.7-4.6,16-12.3,29.1-1.6c13,10.7,0,19.8,0,19.8c-23.9-8-41.3,5.9-46.2,12c-3.3,4-19.6,27.5,1.6,51
		c21.9,24.3,57.6,6.4,57.6,6.4L203.2,195L203.2,195z"/>
	<path class="st0" d="M640.6,237.2c0.1-0.5,0-58.2,0-59.3c0-1.1-38,0-38,0c27.2-7.5,38-37.9,36.9-37.9c-1.1,0,1.1-44.9,0-44.9h-27.4
		c15.5-16.2,0.1-41.2,0-42C597.8,35.3,570,36.3,570,36.3h-65.2v32H317.8v68.4c0,0,1,8.2,5.4,13.9c5.2,6.7,15.2,9.6,15.2,9.6
		l-20.7,7.5c-46.7,12.8-16.3-35.2-16.3-35.2l-8.2-6.4c-19.6,21.4-23.9,35.2-23.6,43.3c1.6,43.3,55.7,15.5,55.7,15.5
		c35.6-22.2,57.6-2.1,57.6-2.1l25.2,18.2c-11.7,11.5-30.1-7.5-30.1-7.5h-60.3v96.1l32.1-18.7c15.2-12.3,36.4-5.9,36.4-5.9l26.1,4.3
		l-78.2,40.6l-114.6-71.6h-119c-37-3.7-53.2,19.2-53.2,19.2l-29.3,43.8l25.5,40.1c-10.3,9.6-23.6,22.9-33.7,47
		C-0.5,412.9-2.7,442.8,3.3,469c8.7,38.2,41.8,74.8,41.8,74.8L19,585.5l34.8,42.7v71.6h247.8l23.9,49.7l21.7-49.7h251v-75.8
		l35.9-38.5l-26.6-39.5c28.8-10.7,33.2-42.8,33.2-42.8s0-49.7,0-48.6c0,1.1-38,0-38,0c34.8-13.9,38-40.6,38-40.6v-49.2h-38
		c20.7-8.5,33.4-13.4,38-43.8v-48.6l-38,0.3C622.7,266,638.4,246.3,640.6,237.2L640.6,237.2z M385.8,162.1c0,0,11.4-2.7,15.8-2.1
		c4.3,0.5,10-0.8,17.4,9.3c7.4,10.3,0,19.2,0,19.2L385.8,162.1L385.8,162.1z M328.5,346.1l62.5-32.9v40.1c0,0,1.3,18.2-17.1,27.8
		l-68.7,37.9v-41.7C305.1,377.4,302.9,359.8,328.5,346.1L328.5,346.1z M328.5,444.5l62.5-32.9v40.1c0,0,1.3,18.2-17.1,27.8
		l-68.7,37.9v-41.7C305.1,475.7,302.9,458,328.5,444.5L328.5,444.5z M390.9,509.6v50.5l-48.4-9.9c0,0-22.6-4,1.4-16.6L390.9,509.6
		L390.9,509.6z M63,281c0,0,5.4-13.9,34.2-13.9h86.4c0,0,17.4-3.2,40.2,9.6l79.9,49.2c0,0-27,23.6-25.5,42.7c0,0-31.4-63.7-125.8-65
		c-53.2-0.7-68.3,11.4-85.6,18.5l-14.7-20.3L63,281L63,281z M186.6,429.2h-74.4c0,0-2.2-19.5,4.9-32.3c0,0,18.2,2.4,32.3,1.9
		c16,0.5,32.3-1.9,32.3-1.9C188.8,409.7,186.6,429.2,186.6,429.2L186.6,429.2z M181.8,483.7c0,0-16.3-2.4-32.3-1.9
		c-14.1-0.5-32.3,1.9-32.3,1.9c-7.1-12.8-4.9-32.3-4.9-32.3h74.4C186.6,451.4,188.8,470.9,181.8,483.7L181.8,483.7z M173.5,331.9
		c3-2.9,55,12.7,67.5,33c0,0-12.5,5.6-17.2,6.9c-11.3,3-23,4.6-23,4.6C196.4,358.7,173.5,331.9,173.5,331.9L173.5,331.9z
		 M176.9,378.7c-13.9,2.9-27.4,2.7-27.4,2.7s-13.6,0.3-27.4-2.7c0,0,15.2-46.2,27.4-51C161.7,332.5,176.9,378.7,176.9,378.7
		L176.9,378.7z M98.1,376.3c0,0-11.7-1.6-23-4.6c-4.7-1.3-17.3-6.9-17.3-6.9c12.5-20.3,64.5-35.9,67.5-33
		C125.4,331.9,102.4,358.7,98.1,376.3L98.1,376.3z M125.4,548.7c-3,2.9-55-12.7-67.5-33c0,0,12.5-5.6,17.3-6.8
		c11.3-3.1,23-4.6,23-4.6C102.4,521.9,125.4,548.7,125.4,548.7L125.4,548.7z M122,501.9c13.8-2.9,27.4-2.7,27.4-2.7
		s13.6-0.3,27.4,2.7c0,0-15.2,46.2-27.4,51C137.2,548.1,122,501.9,122,501.9L122,501.9z M200.8,504.3c0,0,11.7,1.6,23,4.6
		c4.7,1.3,17.2,6.8,17.2,6.8c-12.5,20.3-64.5,35.9-67.5,33C173.5,548.7,196.4,521.9,200.8,504.3L200.8,504.3z M229.8,491.4
		c-13.9-3.2-23.4-4.3-23.4-4.3c2.3-6.1,7.1-23,7.3-35.5h53.5c0,0,3.3,29.9-15.6,47.4C251.7,499,239.5,493.7,229.8,491.4L229.8,491.4
		z M267.3,428.9h-53.5c-0.3-12.6-5-29.4-7.3-35.5c0,0,9.5-1.1,23.4-4.3c9.7-2.2,21.9-7.6,21.9-7.6
		C270.6,399,267.3,428.9,267.3,428.9L267.3,428.9z M47.2,381.5c0,0,12.2,5.4,21.9,7.6c13.8,3.2,23.4,4.3,23.4,4.3
		c-2.3,6.1-7.1,23-7.3,35.5H31.5C31.5,428.9,28.3,399,47.2,381.5L47.2,381.5z M47.2,499c-18.9-17.5-15.6-47.4-15.6-47.4H85
		c0.3,12.5,5,29.4,7.3,35.5c0,0-9.5,1.1-23.4,4.3C59.4,493.7,47.2,499,47.2,499L47.2,499z M79.3,667.7v-18.2h192.4
		c11.9-2.1,16.3,18.2,16.3,18.2H79.3L79.3,667.7z M569.4,667.7H360.8c0,0,4.4-20.3,16.3-18.2h192.3V667.7L569.4,667.7z M577.6,605.7
		c0,0,0,7.5-18.5,8.6c-18.5,1.1-181.5,0-181.5,0s-50,2.1-54.3,53.4h-2.7c0,0-2.7-53.4-54.9-53.4H98.3c0,0-11.9,4.3-26.1-9.6
		l-18.5-21.4L69,559.8c0,0,34.7,12.6,52,16.6c23.6,5.4,64.6,4.7,93.1-9c32.2-15.5,46.1-27.6,61.3-49.3c0,0-2.2,40.6,36.4,52.3
		l104.9,20.3V563l111.9,27.8v-36.3c0,0,14.1,11.8,55.4,9.6l14.1,16L577.6,605.7L577.6,605.7z M485.5,322.9l-68.7,37.9v-41.7
		c0,0-2.2-17.6,23.4-31.2l62.5-32.9v40.1C502.6,295.1,503.9,313.3,485.5,322.9L485.5,322.9z M440.1,388.3l62.5-32.9v40.1
		c0,0,1.3,18.2-17.1,27.8l-68.7,37.9v-41.7C416.7,419.6,414.6,402,440.1,388.3L440.1,388.3z M502.6,456.4v91.1l-53.5-9.3
		c0,0-68.7-15-3.5-52.9L502.6,456.4L502.6,456.4z M598.2,510.4c0,0,0.3,28.6-33.7,28c-34-0.5-35.9-9.3-35.9-27.5v-45.4
		c0,0,4.9,5.9,17.4,7.2l52.1-0.3V510.4L598.2,510.4z M598.2,419.6c0,0,0.3,28.6-33.7,28c-34-0.5-35.9-9.3-35.9-27.5v-45.4
		c0,0,4.9,5.9,17.4,7.2l52.1-0.3V419.6L598.2,419.6z M598.2,326.4c0,0,0.3,28.6-33.7,28.1c-34-0.5-35.9-9.4-35.9-27.5v-45.4
		c0,0,4.9,5.9,17.4,7.2l52.1-0.3V326.4L598.2,326.4z M598.2,233.2c0,0-3.5,28.9-34.5,29.1c-31,0.3-35-10.9-35-21.4v-41.7l69.5,0.3
		V233.2L598.2,233.2z M598.2,147.7c0,0-3.5,26.7-25.5,28c-9.8,0.6-25.3,2.7-35.3-7.2c-7.4-7.3-7.9-10.2-8.7-19.5h-23.9v45.4
		c0,0-1.3,44.9-39.9,48.6c-11.1,1.1-19,2.4-41.8-0.3c0,0-53-13.6-79.1,2.7V215c0,0,23.1,0,23.4,0c0,0,31.5,31.9,68.5,0
		c19.8-17.1,15.6-43.3,8.7-55c-8.1-13.9-23.4-25.6-42.1-25.1h-34.5c0,0-23.9,2.7-23.9-18.4V95.1h98.9v34.7h47.8
		c0,0,5.4-22.4-13.6-22.4h-11.4V95.1h63V61.4h46.2c20.4,0,26.1,30.7,0,33.7v21.1h23.4V147.7L598.2,147.7z"/>
	<path class="st0" d="M612,53.1c0.1,0.1,0.2,0.2,0.3,0.3C612.1,53.1,612,53,612,53.1L612,53.1z"/>
</g>
</svg>
