<?xml version="1.0" encoding="UTF-8" standalone="no"?>
<!-- Created with Inkscape (http://www.inkscape.org/) -->

<svg
   width="210mm"
   height="297mm"
   viewBox="0 0 210 297"
   version="1.1"
   id="svg1"
   xml:space="preserve"
   inkscape:version="1.4.2 (f4327f4, 2025-05-13)"
   sodipodi:docname="pipes.svg"
   xmlns:inkscape="http://www.inkscape.org/namespaces/inkscape"
   xmlns:sodipodi="http://sodipodi.sourceforge.net/DTD/sodipodi-0.dtd"
   xmlns="http://www.w3.org/2000/svg"
   xmlns:svg="http://www.w3.org/2000/svg"
   xmlns:rdf="http://www.w3.org/1999/02/22-rdf-syntax-ns#"
   xmlns:cc="http://creativecommons.org/ns#"
   xmlns:dc="http://purl.org/dc/elements/1.1/"><title
     id="title37">pipesss</title><sodipodi:namedview
     id="namedview1"
     pagecolor="#ffffff"
     bordercolor="#000000"
     borderopacity="0.25"
     inkscape:showpageshadow="2"
     inkscape:pageopacity="0.0"
     inkscape:pagecheckerboard="0"
     inkscape:deskcolor="#d1d1d1"
     inkscape:document-units="mm"
     showguides="false"
     inkscape:zoom="0.51339147"
     inkscape:cx="105.18289"
     inkscape:cy="567.79284"
     inkscape:window-width="1920"
     inkscape:window-height="1017"
     inkscape:window-x="-8"
     inkscape:window-y="-8"
     inkscape:window-maximized="1"
     inkscape:current-layer="layer1" /><defs
     id="defs1"><inkscape:path-effect
       effect="bend_path"
       id="path-effect14"
       is_visible="true"
       lpeversion="1"
       bendpath="M -0.19792074,69.594557 116.27208,70.05037"
       prop_scale="1.03"
       scale_y_rel="false"
       vertical="false"
       hide_knot="false"
       bendpath-nodetypes="cc" /></defs><path
     id="rect36"
     style="fill:#465066;fill-opacity:0.585938;fill-rule:evenodd;stroke:#080600;stroke-width:1.174;stroke-linecap:round;stroke-linejoin:round;stroke-dasharray:none;stroke-opacity:0.234375"
     d="M 94.019584 -0.58704427 L 94.019584 29.882414 L 0 29.882414 L 0 39.357288 L 104.99979 39.357288 L 104.99979 29.882414 L 104.99979 -0.58704427 L 94.019584 -0.58704427 z " /><path
     id="rect34"
     style="fill:#465066;fill-opacity:0.585938;fill-rule:evenodd;stroke:#080600;stroke-width:1.174;stroke-linecap:round;stroke-linejoin:round;stroke-dasharray:none;stroke-opacity:0.234375"
     d="M 152.51627 63.389929 L 152.51627 70.825651 L 152.51627 120.33736 L 161.30902 120.33736 L 210.0001 120.33736 L 210.0001 112.34921 L 161.30902 112.34921 L 161.30902 70.825651 L 211.73643 70.825651 L 211.73643 63.389929 L 152.51627 63.389929 z " /><path
     id="rect32"
     style="fill:#465066;fill-opacity:0.5859375;fill-rule:evenodd;stroke:#080600;stroke-width:1.174;stroke-linecap:round;stroke-linejoin:round;stroke-dasharray:none;stroke-opacity:0.234375"
     d="M 0 123.902 L 0 132.64772 L 72.923714 132.64772 L 72.923714 185.62226 L -0.58704427 185.62226 L -0.58704427 195.32296 L 72.923714 195.32296 L 81.629643 195.32296 L 81.629643 132.64772 L 81.629643 123.902 L 0 123.902 z " /><path
     id="rect29"
     style="fill:#465066;fill-opacity:0.760417;fill-rule:evenodd;stroke:#080600;stroke-width:1.174;stroke-linecap:round;stroke-linejoin:round;stroke-dasharray:none;stroke-opacity:0.617188"
     d="M 153.10332 245.82841 L 153.10332 296.99996 L 161.82423 296.99996 L 161.82423 253.55868 L 211.73643 253.55868 L 211.73643 245.82841 L 161.82423 245.82841 L 153.10332 245.82841 z " /><path
     id="rect27"
     style="fill:#465066;fill-opacity:0.760417;fill-rule:evenodd;stroke:#080600;stroke-width:1.174;stroke-linecap:round;stroke-linejoin:round;stroke-dasharray:none;stroke-opacity:0.617188"
     d="M 170.91153 0 L 170.91153 107.503 L 181.47988 107.503 L 210.0001 107.503 L 210.0001 96.935168 L 181.47988 96.935168 L 181.47988 0 L 170.91153 0 z " /><g
     inkscape:label="Layer 1"
     inkscape:groupmode="layer"
     id="layer1"><path
       id="rect14"
       style="fill:#465066;fill-opacity:1;fill-rule:evenodd;stroke:#080600;stroke-width:1.174;stroke-linecap:round;stroke-linejoin:round;stroke-dasharray:none"
       d="M 51.536389 -7.4729289 L 51.536389 86.838627 L -42.775167 86.838627 L -42.775167 104.61894 L 51.536389 104.61894 L 69.316182 104.61894 L 69.316182 86.838627 L 69.316182 -7.4729289 L 51.536389 -7.4729289 z " /><path
       id="rect15"
       style="fill:#465066;fill-opacity:1;fill-rule:evenodd;stroke:#080600;stroke-width:1.174;stroke-linecap:round;stroke-linejoin:round;stroke-dasharray:none"
       d="m -25.651148,212.09054 v 17.85679 H 31.562414 V 354.94229 H 52.192163 V 212.09054 H 51.605119 31.562414 Z" /><path
       id="rect16"
       style="fill:#465066;fill-opacity:1;fill-rule:evenodd;stroke:#080600;stroke-width:1.174;stroke-linecap:round;stroke-linejoin:round;stroke-dasharray:none"
       d="M 150.86883 127.83612 L 150.86883 148.49998 L 150.86883 235.04922 L 171.27585 235.04922 L 222.29444 235.04922 L 222.29444 216.46379 L 171.27585 216.46379 L 171.27585 148.49998 L 227.03214 148.49998 L 227.03214 127.83612 L 150.86883 127.83612 z " /><path
       id="rect19"
       style="fill:#465066;fill-opacity:1;fill-rule:evenodd;stroke:#080600;stroke-width:1.174;stroke-linecap:round;stroke-linejoin:round;stroke-dasharray:none"
       d="M 96.206014 260.55826 L 96.206014 305.7462 L 115.52008 305.7462 L 115.52008 277.32157 L 191.68339 277.32157 L 191.68339 306.33324 L 210.0001 306.33324 L 210.0001 260.55826 L 191.68339 260.55826 L 115.52008 260.55826 L 96.206014 260.55826 z " /><path
       id="rect22"
       style="fill:#465066;fill-opacity:1;fill-rule:evenodd;stroke:#080600;stroke-width:1.174;stroke-linecap:round;stroke-linejoin:round;stroke-dasharray:none"
       d="M 133.01204 0 L 133.01204 48.572746 L 150.28178 48.572746 L 211.73643 48.572746 L 211.73643 32.574756 L 150.28178 32.574756 L 150.28178 0 L 133.01204 0 z " /><path
       id="rect23"
       style="fill:#465066;fill-opacity:0.76041669;fill-rule:evenodd;stroke:#080600;stroke-width:1.174;stroke-linecap:round;stroke-linejoin:round;stroke-dasharray:none;stroke-opacity:0.6171875"
       d="M 0 158.15727 L 0 170.54721 L 104.99979 170.54721 L 104.99979 230.45363 L 60.351355 230.45363 L 60.351355 245.25273 L 60.351355 296.41292 L 74.928243 296.41292 L 74.928243 245.25273 L 104.99979 245.25273 L 117.70651 245.25273 L 117.70651 158.15727 L 104.99979 158.15727 L 0 158.15727 z " /></g><path
     id="rect28"
     style="fill:#465066;fill-opacity:0.760417;fill-rule:evenodd;stroke:#080600;stroke-width:1.174;stroke-linecap:round;stroke-linejoin:round;stroke-dasharray:none;stroke-opacity:0.617188"
     d="M 26.966829 -11.296985 L 26.966829 48.572746 L 0 48.572746 L 0 59.399992 L 38.628133 59.399992 L 38.628133 48.572746 L 38.628133 -11.296985 L 26.966829 -11.296985 z " /><rect
     style="fill:#647392;fill-opacity:1;fill-rule:evenodd;stroke:#080600;stroke-width:0.857;stroke-linecap:round;stroke-linejoin:round;stroke-dasharray:none;stroke-opacity:1"
     id="rect37"
     width="25.254528"
     height="4.4541073"
     x="47.865868"
     y="72.296249" /><rect
     style="fill:#647392;fill-opacity:1;fill-rule:evenodd;stroke:#080600;stroke-width:0.857;stroke-linecap:round;stroke-linejoin:round;stroke-dasharray:none;stroke-opacity:1"
     id="rect37-1"
     width="25.254528"
     height="4.4541073"
     x="47.865868"
     y="9.1262522" /><rect
     style="fill:#647392;fill-opacity:1;fill-rule:evenodd;stroke:#080600;stroke-width:0.857;stroke-linecap:round;stroke-linejoin:round;stroke-dasharray:none;stroke-opacity:1"
     id="rect37-7"
     width="25.254528"
     height="4.4541073"
     x="83.349609"
     y="-41.442188"
     transform="rotate(90)" /><rect
     style="fill:#647392;fill-opacity:1;fill-rule:evenodd;stroke:#080600;stroke-width:0.857;stroke-linecap:round;stroke-linejoin:round;stroke-dasharray:none;stroke-opacity:1"
     id="rect37-7-2"
     width="25.254528"
     height="4.4541073"
     x="83.349609"
     y="20.682003"
     transform="rotate(90)" /><rect
     style="fill:#647392;fill-opacity:1;fill-rule:evenodd;stroke:#080600;stroke-width:0.857;stroke-linecap:round;stroke-linejoin:round;stroke-dasharray:none;stroke-opacity:1"
     id="rect37-16"
     width="25.254528"
     height="4.4541073"
     x="128.92178"
     y="11.781806" /><rect
     style="fill:#647392;fill-opacity:1;fill-rule:evenodd;stroke:#080600;stroke-width:0.857;stroke-linecap:round;stroke-linejoin:round;stroke-dasharray:none;stroke-opacity:1"
     id="rect37-7-6"
     width="25.254528"
     height="4.4541073"
     x="27.317024"
     y="-167.47496"
     transform="rotate(90)" /><rect
     style="fill:#647392;fill-opacity:1;fill-rule:evenodd;stroke:#080600;stroke-width:0.890523;stroke-linecap:round;stroke-linejoin:round;stroke-dasharray:none;stroke-opacity:1"
     id="rect37-2"
     width="27.475721"
     height="4.4205837"
     x="147.53387"
     y="160.06517" /><rect
     style="fill:#647392;fill-opacity:1;fill-rule:evenodd;stroke:#080600;stroke-width:0.890523;stroke-linecap:round;stroke-linejoin:round;stroke-dasharray:none;stroke-opacity:1"
     id="rect37-2-4"
     width="27.475721"
     height="4.4205837"
     x="147.53387"
     y="202.87592" /><rect
     style="fill:#647392;fill-opacity:1;fill-rule:evenodd;stroke:#080600;stroke-width:0.890523;stroke-linecap:round;stroke-linejoin:round;stroke-dasharray:none;stroke-opacity:1"
     id="rect37-2-1"
     width="27.475721"
     height="4.4205837"
     x="124.8486"
     y="-188.50522"
     transform="rotate(90)" /><rect
     style="fill:#647392;fill-opacity:1;fill-rule:evenodd;stroke:#080600;stroke-width:0.890523;stroke-linecap:round;stroke-linejoin:round;stroke-dasharray:none;stroke-opacity:1"
     id="rect37-2-1-4"
     width="27.475721"
     height="4.4205837"
     x="211.62975"
     y="-188.50522"
     transform="rotate(90)" /><rect
     style="fill:#647392;fill-opacity:1;fill-rule:evenodd;stroke:#080600;stroke-width:0.885834;stroke-linecap:round;stroke-linejoin:round;stroke-dasharray:none;stroke-opacity:1"
     id="rect37-9"
     width="27.158308"
     height="4.4252734"
     x="28.033852"
     y="242.81113" /><rect
     style="fill:#647392;fill-opacity:1;fill-rule:evenodd;stroke:#080600;stroke-width:0.857;stroke-linecap:round;stroke-linejoin:round;stroke-dasharray:none;stroke-opacity:1"
     id="rect37-7-8"
     width="25.254528"
     height="4.4541073"
     x="208.57654"
     y="-18.153114"
     transform="rotate(90)" /><rect
     style="fill:#647392;fill-opacity:1;fill-rule:evenodd;stroke:#080600;stroke-width:0.825268;stroke-linecap:round;stroke-linejoin:round;stroke-dasharray:none;stroke-opacity:1"
     id="rect37-2-1-4-2"
     width="23.402889"
     height="4.4571681"
     x="257.05728"
     y="-132.7428"
     transform="rotate(90)" /><rect
     style="fill:#647392;fill-opacity:1;fill-rule:evenodd;stroke:#080600;stroke-width:0.843819;stroke-linecap:round;stroke-linejoin:round;stroke-dasharray:none;stroke-opacity:1"
     id="rect37-2-4-2"
     width="24.596798"
     height="4.4336138"
     x="93.257965"
     y="288.75571" /><rect
     style="fill:#647392;fill-opacity:1;fill-rule:evenodd;stroke:#080600;stroke-width:0.825268;stroke-linecap:round;stroke-linejoin:round;stroke-dasharray:none;stroke-opacity:1"
     id="rect37-2-1-4-2-5"
     width="23.402889"
     height="4.4571681"
     x="257.05728"
     y="-175.56366"
     transform="rotate(90)" /><rect
     style="fill:#647392;fill-opacity:1;fill-rule:evenodd;stroke:#080600;stroke-width:0.843819;stroke-linecap:round;stroke-linejoin:round;stroke-dasharray:none;stroke-opacity:1"
     id="rect37-2-4-2-0"
     width="24.596798"
     height="4.4336138"
     x="189.0984"
     y="288.75571" /><metadata
     id="metadata37"><rdf:RDF><cc:Work
         rdf:about=""><dc:title>pipesss</dc:title></cc:Work></rdf:RDF></metadata></svg>
