<?xml version="1.0" encoding="UTF-8"?>
<svg xmlns="http://www.w3.org/2000/svg" viewBox="0 0 1194.17 372.25">
  <defs>
    <style>
      .cls-1 {
        fill: #1b1b37;
      }

      .cls-2 {
        fill: #d22027;
      }

      .cls-3 {
        fill: #1c1c38;
      }

      .cls-4 {
        fill: #d40b0b;
      }
    </style>
  </defs>
  <g id="Layer_1" data-name="Layer 1">
    <g>
      <g>
        <g>
          <path class="cls-1" d="M987.46,254.21v24.81c-16.63,5.44-36.82,6.37-46.88-11.28-25.6,23.47-86.17,24.25-88.84-20.82-2.18-36.83,31.62-48.16,60.92-46.9,7.31.31,15.56,2.96,22.58,3.44,3.26.23.63-9.34-.02-11.28-8.39-25.12-55.28-13.63-72.68-5.65v-32.71c37.04-11.76,98.72-18.9,108.44,33.61,3.69,19.95-.26,42.01,1.88,62.32,2.62,6.44,8.97,5.95,14.59,4.46ZM910.78,222.96c-12.49,1.22-27.28,8.9-20.65,24.36,5.65,13.17,27.5,10.36,37.75,4.82,11.93-6.44,9.88-14.37,7.96-26.77-8.33-1.18-16.64-3.24-25.06-2.41Z"/>
          <path class="cls-1" d="M487.84,149.32v80.64c0,.51,1.55,5.92,1.93,7.01,5.82,16.81,27.19,16.92,39.74,8.44,2.13-1.44,11.1-10.12,11.1-12.06v-84.03h35.54v130.83h-32.31v-15.79c-23.02,27.41-71.93,27.02-87.07-8.62-1.15-2.71-4.46-12.18-4.46-14.5v-91.92h35.54Z"/>
          <path class="cls-1" d="M1098.38,156.08v31.58c-8.91-8.74-53.63-20.8-59.51-7.63-3.32,7.44.82,11.86,6.7,15.01,21.19,11.36,58.9,10.53,62.38,44.06,5.67,54.58-76.45,50.58-106.49,33.16v-31.58c15.93,9.24,35.94,15.35,54.36,13.52,20.49-2.04,19.91-14.63,1.92-22.27-20.33-8.64-53.32-11.6-57.08-40.6-6.92-53.4,67.05-52.43,97.71-35.24Z"/>
          <path class="cls-1" d="M799.26,122.82v26.46h36.5v31.59h-36.5v59.23c0,1.23,4.21,7.48,5.57,8.47,8.59,6.32,24.86,2.83,33.98-1.14v29.9c-19.37,9.28-54.16,11.3-67.34-10.82-2.33-3.9-6.68-15.33-6.68-19.64v-66h-20.28v-31.59h20.28v-26.47c11.49,0,22.98,0,34.48,0Z"/>
          <path class="cls-1" d="M677.71,145.93v37.22c-12.21-2.19-26.8.17-36.63,8.45-1.5,1.26-9.68,10.37-9.68,11.29v77.26h-35.54v-130.83h31.23v19.17c12-16.77,30.86-23.75,50.61-22.56Z"/>
          <path class="cls-1" d="M729.39,137.32v142.83h-35.54v-142.83c5.91,10.77,11.83,21.53,17.74,32.29,5.93-10.77,11.86-21.53,17.79-32.29Z"/>
        </g>
        <path class="cls-2" d="M693.91,116.73c5.93-5.94,11.85-11.88,17.78-17.82,5.89,5.86,11.77,11.72,17.66,17.58-5.91,11-11.83,21.99-17.74,32.99-5.9-10.92-11.79-21.84-17.69-32.76Z"/>
      </g>
      <g>
        <g>
          <path class="cls-4" d="M172.94,206.23c-.13.07-.27.14-.4.22-6.81-6.77-13.61-13.55-20.42-20.32-22.06,21.94-44.12,43.88-66.18,65.83,3.3,10.37,6.6,20.73,9.9,31.1,1.37,4.29,2.73,8.58,4.1,12.87,36.64-36.51,73.28-73.01,109.92-109.52.07-.04.26-.23.28-.28-12.4,6.7-24.8,13.4-37.2,20.1Z"/>
          <path class="cls-4" d="M172.95,166.03c12.4,6.7,24.79,13.4,37.19,20.1-.02-.05-.2-.23-.28-.28-36.64-36.51-73.28-73.01-109.92-109.52-1.37,4.29-2.73,8.58-4.1,12.87-3.3,10.37-6.6,20.73-9.9,31.1,22.06,21.94,44.12,43.88,66.18,65.83,6.81-6.77,13.61-13.55,20.42-20.32l.41.22Z"/>
        </g>
        <path class="cls-3" d="M172.95,166.03c-.14-.07-.27-.15-.41-.22-6.81,6.77-13.61,13.55-20.42,20.32,6.81,6.77,13.61,13.55,20.42,20.32.13-.07.27-.14.4-.22,12.4-6.7,24.8-13.4,37.2-20.1-12.4-6.7-24.79-13.4-37.19-20.1Z"/>
      </g>
    </g>
  </g>
  <g id="Layer_2" data-name="Layer 2">
    <path class="cls-1" d="M329.58,90.96l-73.73,189.52h40.92l12.81-35.4,82.32-.52,15.25,35.91h39.3l-74.34-189.52h-42.53ZM322.61,210.55l28.01-81.21,30.14,81.21h-58.15Z"/>
  </g>
</svg>