<?xml version="1.0" encoding="utf-8"?>
<svg id="Layer_1" xmlns="http://www.w3.org/2000/svg" version="1.1" viewBox="0 0 960 342.8">
  <defs>
    <style>
      .st0, .st1 {
        fill: #4285f4;
      }

      .st2 {
        fill: #fbbc05;
      }

      .st3, .st4, .st5, .st1 {
        fill-rule: evenodd;
      }

      .st3, .st6 {
        fill: #ea4335;
      }

      .st4, .st7 {
        fill: #34a853;
      }

      .st5 {
        fill: #fbbc04;
      }

      .st8 {
        fill: #5f6368;
      }

      .st9 {
        fill: #3c4043;
      }
    </style>
    <filter id="filter0_f_10859_4895" x="-19.8236" y="13.1523" width="39.2739" height="43.2171" filterUnits="userSpaceOnUse" color-interpolation-filters="sRGB">
      <feFlood flood-opacity="0" result="BackgroundImageFix"/>
      <feBlend mode="normal" in="SourceGraphic" in2="BackgroundImageFix" result="shape"/>
      <feGaussianBlur stdDeviation="2.45965" result="effect1_foregroundBlur_10859_4895"/>
    </filter>
    <filter id="filter1_f_10859_4895" x="-15.001" y="-40.257" width="84.8677" height="85.6878" filterUnits="userSpaceOnUse" color-interpolation-filters="sRGB">
      <feFlood flood-opacity="0" result="BackgroundImageFix"/>
      <feBlend mode="normal" in="SourceGraphic" in2="BackgroundImageFix" result="shape"/>
      <feGaussianBlur stdDeviation="11.8911" result="effect1_foregroundBlur_10859_4895"/>
    </filter>
    <filter id="filter2_f_10859_4895" x="-20.7758" y="11.9273" width="79.454" height="90.9166" filterUnits="userSpaceOnUse" color-interpolation-filters="sRGB">
      <feFlood flood-opacity="0" result="BackgroundImageFix"/>
      <feBlend mode="normal" in="SourceGraphic" in2="BackgroundImageFix" result="shape"/>
      <feGaussianBlur stdDeviation="10.1086" result="effect1_foregroundBlur_10859_4895"/>
    </filter>
    <filter id="filter3_f_10859_4895" x="-20.7758" y="11.9273" width="79.454" height="90.9166" filterUnits="userSpaceOnUse" color-interpolation-filters="sRGB">
      <feFlood flood-opacity="0" result="BackgroundImageFix"/>
      <feBlend mode="normal" in="SourceGraphic" in2="BackgroundImageFix" result="shape"/>
      <feGaussianBlur stdDeviation="10.1086" result="effect1_foregroundBlur_10859_4895"/>
    </filter>
    <filter id="filter4_f_10859_4895" x="-19.8449" y="15.459" width="79.7306" height="81.5048" filterUnits="userSpaceOnUse" color-interpolation-filters="sRGB">
      <feFlood flood-opacity="0" result="BackgroundImageFix"/>
      <feBlend mode="normal" in="SourceGraphic" in2="BackgroundImageFix" result="shape"/>
      <feGaussianBlur stdDeviation="10.1086" result="effect1_foregroundBlur_10859_4895"/>
    </filter>
    <filter id="filter5_f_10859_4895" x="29.8324" y="-11.5524" width="75.1172" height="73.7582" filterUnits="userSpaceOnUse" color-interpolation-filters="sRGB">
      <feFlood flood-opacity="0" result="BackgroundImageFix"/>
      <feBlend mode="normal" in="SourceGraphic" in2="BackgroundImageFix" result="shape"/>
      <feGaussianBlur stdDeviation="9.60613" result="effect1_foregroundBlur_10859_4895"/>
    </filter>
    <filter id="filter6_f_10859_4895" x="-38.5827" y="-16.2526" width="78.1352" height="78.7578" filterUnits="userSpaceOnUse" color-interpolation-filters="sRGB">
      <feFlood flood-opacity="0" result="BackgroundImageFix"/>
      <feBlend mode="normal" in="SourceGraphic" in2="BackgroundImageFix" result="shape"/>
      <feGaussianBlur stdDeviation="8.70591" result="effect1_foregroundBlur_10859_4895"/>
    </filter>
    <filter id="filter7_f_10859_4895" x="8.1068" y="-5.96578" width="78.877" height="77.5394" filterUnits="userSpaceOnUse" color-interpolation-filters="sRGB">
      <feFlood flood-opacity="0" result="BackgroundImageFix"/>
      <feBlend mode="normal" in="SourceGraphic" in2="BackgroundImageFix" result="shape"/>
      <feGaussianBlur stdDeviation="7.77473" result="effect1_foregroundBlur_10859_4895"/>
    </filter>
    <filter id="filter8_f_10859_4895" x="13.5873" y="-18.4881" width="56.2718" height="51.8102" filterUnits="userSpaceOnUse" color-interpolation-filters="sRGB">
      <feFlood flood-opacity="0" result="BackgroundImageFix"/>
      <feBlend mode="normal" in="SourceGraphic" in2="BackgroundImageFix" result="shape"/>
      <feGaussianBlur stdDeviation="6.95694" result="effect1_foregroundBlur_10859_4895"/>
    </filter>
    <filter id="filter9_f_10859_4895" x="-15.5259" y="-31.297" width="70.8565" height="69.3059" filterUnits="userSpaceOnUse" color-interpolation-filters="sRGB">
      <feFlood flood-opacity="0" result="BackgroundImageFix"/>
      <feBlend mode="normal" in="SourceGraphic" in2="BackgroundImageFix" result="shape"/>
      <feGaussianBlur stdDeviation="5.87598" result="effect1_foregroundBlur_10859_4895"/>
    </filter>
    <filter id="filter10_f_10859_4895" x="-14.1676" y="20.9644" width="55.5015" height="51.5714" filterUnits="userSpaceOnUse" color-interpolation-filters="sRGB">
      <feFlood flood-opacity="0" result="BackgroundImageFix"/>
      <feBlend mode="normal" in="SourceGraphic" in2="BackgroundImageFix" result="shape"/>
      <feGaussianBlur stdDeviation="7.27253" result="effect1_foregroundBlur_10859_4895"/>
    </filter>
    <linearGradient id="paint0_linear_10859_4895" x1="18.4474" y1="43.4202" x2="52.1528" y2="15.0035" gradientUnits="userSpaceOnUse">
      <stop stop-color="#4893FC"/>
      <stop offset="0.27" stop-color="#4893FC"/>
      <stop offset="0.777" stop-color="#969DFF"/>
      <stop offset="1" stop-color="#BD99FE"/>
    </linearGradient>
  </defs>
  <g>
    <path id="path1" class="st1" d="M880,168.1c-9.5,0-17.2,7.7-17.2,17.2s7.7,17.2,17.2,17.2h28.5c1.8,0,3.3,1.5,3.3,3.3s-1.8,4.1-4.1,4.1h-27.7c-13.6,0-24.6-11-24.6-24.6s11-24.6,24.6-24.6h24.1c2,0,3.7,1.7,3.7,3.7s-1.7,3.7-3.7,3.7h-24.1Z"/>
    <path id="path2" class="st3" d="M897.5,218.6c1.3,1.6,1.1,3.9-.5,5.2l-9.8,8.2,9.8,8.2c1.6,1.3,1.8,3.7.5,5.2-1.3,1.6-3.7,1.8-5.2.5l-13-10.8c-1.9-1.6-1.9-4.5,0-6.1l13-10.8c1.6-1.3,3.9-1.1,5.2.5Z"/>
    <path id="path3" class="st3" d="M915,218.6c-1.3,1.6-1.1,3.9.5,5.2l9.8,8.2-9.8,8.2c-1.6,1.3-1.8,3.7-.5,5.2,1.3,1.6,3.7,1.8,5.2.5l13-10.8c1.9-1.6,1.9-4.5,0-6.1l-13-10.8c-1.6-1.3-3.9-1.1-5.2.5Z"/>
    <path id="path4" class="st4" d="M910.1,168.1c9.5,0,17.2,7.7,17.2,17.2s-7.7,17.2-17.2,17.2h-24.1c-2,0-3.7,1.7-3.7,3.7s1.7,3.7,3.7,3.7h24.1c13.6,0,24.6-11,24.6-24.6s-11-24.6-24.6-24.6h-24.1c-2,0-3.7,1.7-3.7,3.7s1.7,3.7,3.7,3.7h24.1Z"/>
    <path id="path5" class="st5" d="M862.8,222.4h6c2,0,3.7-1.7,3.7-3.7s-1.7-3.7-3.7-3.7h-7.4c-3.3,0-6,2.7-6,6v22.3c0,3.3,2.7,6,6,6h7.4c2,0,3.7-1.7,3.7-3.7s-1.7-3.7-3.7-3.7h-6v-19.5Z"/>
    <path id="path6" class="st1" d="M880,168.1c-9.5,0-17.2,7.7-17.2,17.2s7.7,17.2,17.2,17.2h28.5c1.8,0,3.3,1.5,3.3,3.3s-1.8,4.1-4.1,4.1h-27.7c-13.6,0-24.6-11-24.6-24.6s11-24.6,24.6-24.6h24.1c2,0,3.7,1.7,3.7,3.7s-1.7,3.7-3.7,3.7h-24.1Z"/>
    <path id="path7" class="st0" d="M885.1,185.3c0,2.3-1.9,4.2-4.2,4.2s-4.2-1.9-4.2-4.2,1.9-4.2,4.2-4.2,4.2,1.9,4.2,4.2Z"/>
    <path id="path8" class="st0" d="M913.9,185.3c0,2.3-1.9,4.2-4.2,4.2s-4.2-1.9-4.2-4.2,1.9-4.2,4.2-4.2,4.2,1.9,4.2,4.2Z"/>
    <path id="path9" class="st9" d="M847.6,268.9h11.3l16.8,45h-10.8l-3.5-10.1h-16.5l-3.5,10.1h-10.8l16.8-45ZM858.4,294.9l-3.3-9.4-1.5-5.5h-.6l-1.5,5.5-3.3,9.4h10.2ZM878,268.9h15.9c3.6,0,6.8.5,9.7,1.6,2.9,1.1,5.3,2.6,7.4,4.6,2,2,3.5,4.3,4.6,7.1,1.1,2.8,1.6,5.8,1.6,9.2s-.5,6.4-1.6,9.2c-1,2.8-2.6,5.1-4.6,7.1-2,2-4.5,3.5-7.4,4.6-2.9,1.1-6.1,1.6-9.7,1.6h-15.9v-45ZM893.3,304.6c2.4,0,4.5-.3,6.3-.9,1.8-.7,3.2-1.6,4.3-2.8,1.2-1.2,2-2.6,2.6-4.1.5-1.6.8-3.4.8-5.3s-.3-3.7-.8-5.3c-.5-1.6-1.4-3-2.6-4.2-1.1-1.2-2.6-2.1-4.3-2.7-1.8-.7-3.9-1-6.3-1h-5.6v26.4h5.6ZM920.9,268.9h9.8v17.3h.6l14.8-17.3h11.6v.6l-16,18.3,18,25.4v.6h-11.9l-12.8-18.3-4.3,5v13.3h-9.8v-45Z"/>
  </g>
  <g>
    <g id="g1">
      <path id="path11" data-name="path1" d="M833,137.4s3.5-9.4,7.8-20.8c4.3-11.4,7.9-21,8-21.3l.2-.6h9.2l8,21.2c4.4,11.6,8,21.2,8,21.3,0,.2-.2.2-4.4.1h-4.4s-1.7-5.1-1.7-5.1l-1.7-5.1h-8.2s-8.2,0-8.2,0l-.5,1.4c-.3.8-1.1,3-1.8,5.1l-1.3,3.7h-4.4c-2.4,0-4.4,0-4.4,0h0ZM858.8,118.7c-.2-.7-1.1-3.1-1.9-5.4-.8-2.3-1.8-5.3-2.2-6.6-.4-1.3-.7-2.4-.8-2.5,0-.1-.1-.2-.3-.2-.3,0-.2-.3-1.3,3.5-.3,1.1-3.7,10.8-4.3,12.2,0,.2.2.2,5.6.2h5.6l-.4-1.2ZM878,133.8v-3.6l7.7-7.7c4.5-4.5,8.1-8.2,8.6-8.8,1.9-2.4,2.6-3.7,2.7-5.7.1-1.6-.3-2.8-1.5-4-1.2-1.2-2.4-1.6-4.3-1.6-1.2,0-2.3.2-3.1.7-.3.2-.9.6-1.3,1.1-.8.8-1.3,1.7-1.7,2.8-.1.3-.2.5-.3.5-.2,0-7-2.8-7.1-2.9,0,0,.3-1.1.8-2.1,1.8-3.5,5-6.1,8.8-7,2.4-.6,5.1-.7,7.6-.1,2.6.5,5,1.8,6.8,3.6,2.8,2.8,4,6.7,3.1,11-.5,2.6-1.8,5.3-3.9,7.9-.4.5-3.3,3.5-6.5,6.7-4.4,4.4-5.8,5.9-5.7,6,0,.2.7.2,8.5.2h8.5v7h-27.7v-3.6ZM908.9,137.3c0,0,3.6-9.7,8-21.3l8-21.2h9.2v.3c.2.2,3.8,9.7,8.1,21.3,4.3,11.6,7.9,21,7.9,21.1s-2,0-4.4,0h-4.4s-1.7-4.9-1.7-4.9c-.9-2.7-1.7-5-1.8-5.1v-.2h-16.4l-1.8,5.1-1.8,5.1h-4.5c-4.2,0-4.4,0-4.4-.1h0ZM935,119.8c-.5-1.4-4-11.4-4.3-12.3-1-3.3-1-3.5-1.3-3.5s-.3,0-.4.5c-.8,2.7-1.6,5.3-2.9,8.8-.8,2.3-1.7,4.7-1.9,5.3l-.4,1.2h5.6c4.5,0,5.6,0,5.6-.1h0ZM841.7,74.8c-1.1-.2-1.8-.9-2.3-1.9-.4-.7-.4-.8-.4-1.8s0-1.1.3-1.6c.4-.7,1.3-1.6,2-1.9l.6-.2h6.4c7.5,0,7,0,8.1,1,.8.8,1.2,1.4,1.3,2.4.2,1.8-.9,3.4-2.5,3.9-.6.2-.9.2-6.8.2-3.4,0-6.4,0-6.6,0h0ZM867.8,74.8c-1.1-.3-2.1-1.3-2.4-2.4-.2-.8-.2-2.1.2-2.8.5-1.1,1.5-1.9,2.8-2.1.4,0,5.2,0,16.1,0,17.7,0,15.9,0,17.1,1,.8.8,1.2,1.4,1.2,2.4.2,1.8-.9,3.4-2.5,3.9-.6.2-.9.2-16.2.2-13.3,0-15.7,0-16.1-.2h0ZM912.9,74.8c-1.1-.3-2.1-1.3-2.4-2.4-.2-.8-.2-2.1.2-2.8.8-1.8,3.1-2.6,5-1.8.6.3,1.4,1,1.8,1.7.3.6.3.7.3,1.7s0,1.1-.3,1.7c-.4.8-1,1.4-1.8,1.7-.7.3-1.9.4-2.7.2h0ZM928.1,74.8c-1.5-.4-2.6-1.7-2.7-3.3,0-.8.1-1.8.5-2.3.4-.6,1.2-1.3,1.8-1.5l.6-.2h8.3c9.6,0,8.9,0,10,1,.8.8,1.2,1.4,1.3,2.4.2,1.8-.9,3.4-2.5,3.9-.6.2-.9.2-8.7.2-4.5,0-8.3,0-8.5,0h0ZM849.4,59.9c-1.2-.2-2.1-.9-2.6-1.9-.2-.5-.3-.7-.3-1.6,0-.8,0-1.1.2-1.6.3-.8,1-1.6,1.9-2l.7-.3h20.8l.6.3c.7.3,1.6,1.3,1.9,1.9.2.4.2.7.2,1.5s0,1.1-.3,1.6c-.5,1.1-1.5,1.8-2.7,2.1-.7.1-19.5.1-20.2,0h0ZM883.2,59.9c-1.2-.2-2.3-1.1-2.7-2.1-.2-.5-.2-.8-.2-1.6,0-.9,0-1,.3-1.6.4-.8,1-1.4,1.8-1.8.6-.3.8-.3,1.6-.3,1.2,0,1.6.2,2.5,1,.9.9,1.2,1.5,1.2,2.7,0,.8,0,.9-.4,1.6-.8,1.6-2.3,2.3-4.1,2h0ZM898.3,59.9c-1.1-.2-2.1-.9-2.6-1.8-1-2.1-.3-4.4,1.8-5.3l.6-.3h6.6q6.6,0,7.1.2c.6.3,1.6,1.2,1.9,1.9.2.4.3.6.3,1.6,0,1,0,1.2-.3,1.7-.5,1.1-1.6,1.9-2.8,2.1-.7.1-12,.1-12.6,0h0ZM924.5,59.8c-.7-.1-1.6-.6-2-1.1-.2-.2-.4-.6-.6-1-.3-.6-.3-.8-.3-1.5,0-1.2.2-1.8.9-2.6.4-.4.8-.7,1.2-.9l.6-.3h13.2l.6.3c.7.3,1.6,1.3,1.9,1.9.2.4.2.7.2,1.5s0,1.1-.3,1.6c-.5,1.1-1.5,1.8-2.7,2.1-.7.1-11.9.1-12.7,0h0ZM851.3,42.8c-5.7-.8-10.7-4.2-13.6-9.1-5.6-9.5-1.9-21.7,8-26.4,2.1-1,4.1-1.6,6.3-1.8.8,0,5.2,0,14,0,14.1,0,13.5,0,15.9.6,1.4.4,3.9,1.4,3.9,1.6s-.3.6-.7,1.2c-.8,1.4-1.6,2.8-2.2,4.3-.2.6-.5,1.1-.5,1.2s-.4-.1-.8-.3c-.8-.4-1.9-.7-3.1-.9-.4,0-5.5,0-13.4-.1-12.4,0-12.7,0-13.7.2-2.9.6-5.4,2.3-7.1,4.7-.6.9-1.3,2.4-1.6,3.5-.2.9-.3,1.1-.3,2.9,0,1.6,0,2,.2,2.7,1.2,4.4,4.4,7.4,8.8,8.4.8.2,1.5.2,13.7.2s12.9,0,13.8-.2c1.9-.4,3.2-.9,4.3-2,1.8-1.6,2.7-3.7,4.2-9.8,1.3-5.1,1.8-6.6,2.9-8.8,2.2-4.6,5.6-7.4,10.2-8.5,2.5-.6,1.9-.6,15.9-.6,9,0,13.2,0,13.9,0,5,.5,9.4,2.8,12.7,6.6,1.8,2.1,3.3,5.1,3.9,8,1,4.5.3,9.4-2,13.3-2.9,5-8,8.5-13.7,9.3-1,.1-2.9.2-14,.2s-13.2,0-13.8-.1c-2.2-.2-4.4-.8-6-1.6l-.9-.4.6-.9c.7-1,1.9-3.4,2.4-4.8.2-.5.4-1,.4-1,0,0,.4.1.8.3,1,.5,2.3.8,3.9.9.9,0,5.1,0,13.4,0,12,0,12.2,0,13-.2,4.3-1.1,7.4-4.1,8.5-8.3.3-1.2.4-3.5,0-4.9-.9-4.3-4-7.5-8.2-8.7l-1-.3h-13c-11.5,0-13.1,0-14,.1-3.6.6-5.5,2.2-7,5.8-.5,1.3-1,2.7-1.9,6.5-1.2,4.7-1.6,6-2.7,8.2-.9,2-1.9,3.4-3.3,4.8-2.6,2.6-5.5,3.9-9.6,4.4-1.6.2-26.8.2-28.1,0h0ZM852.8,27.9c-1.4-.4-2.3-1.5-2.6-3-.3-1.7.5-3.2,2-4,.7-.3.8-.4,1.6-.4,1.2,0,1.9.3,2.7,1.2.7.7,1,1.3,1.1,2.3.1,1.6-.8,3.1-2.2,3.7-.6.3-2,.3-2.6.2h0ZM875.4,27.9c-1.4-.4-2.3-1.5-2.6-3-.3-1.7.5-3.2,2-4,.7-.3.8-.4,1.6-.4,1.2,0,1.9.3,2.7,1.2.7.7,1,1.3,1.1,2.3.1,1.6-.8,3.1-2.2,3.7-.6.3-2,.3-2.6.2h0ZM905.5,27.9c-1.5-.4-2.6-1.7-2.7-3.3,0-.8.1-1.8.5-2.3.3-.5,1.1-1.2,1.6-1.4,1-.4,2.3-.4,3.3,0,.6.3,1.4,1.1,1.7,1.6.5,1,.6,2.3,0,3.3-.3.7-1.1,1.5-1.8,1.8-.7.3-1.9.4-2.6.2h0ZM928.1,27.9c-1.5-.4-2.6-1.7-2.7-3.3,0-.8.1-1.8.5-2.3.3-.5,1.1-1.2,1.6-1.4,1-.4,2.3-.4,3.3,0,.6.3,1.4,1.1,1.7,1.6.5,1,.6,2.3,0,3.3-.3.7-1.1,1.5-1.8,1.8-.7.3-1.9.4-2.6.2Z"/>
    </g>
  </g>
  <g style="" transform="matrix(1.048198, 0, 0, 1.048198, 4.314348, -6.594697)">
    <path class="st6" d="M94.2,49.2h4.3l12.2-12.2.6-5.2c-22.7-20-57.3-17.9-77.4,4.8-5.6,6.3-9.6,13.8-11.8,21.9,1.4-.6,2.9-.6,4.3-.3l24.4-4s1.2-2.1,1.9-1.9c10.8-11.9,29.1-13.3,41.6-3.2h0Z"/>
    <path class="st0" d="M128,58.6c-2.8-10.3-8.6-19.6-16.6-26.7l-17.1,17.1c7.2,5.9,11.3,14.8,11.2,24.1v3c8.4,0,15.2,6.8,15.2,15.2s-6.8,15.2-15.2,15.2h-30.5l-3,3.1v18.3l3,3h30.5c21.9.2,39.8-17.4,39.9-39.3.1-13.3-6.4-25.7-17.4-33.1Z"/>
    <path class="st7" d="M44.5,130.8h30.5v-24.4h-30.5c-2.2,0-4.3-.5-6.3-1.4l-4.3,1.3-12.3,12.2-1.1,4.3c6.9,5.2,15.3,8,23.9,8Z"/>
    <path class="st2" d="M44.5,51.7c-21.9.1-39.5,18-39.4,39.9,0,12.2,5.8,23.7,15.5,31.2l17.7-17.7c-7.7-3.5-11.1-12.5-7.6-20.2s12.5-11.1,20.2-7.6c3.4,1.5,6.1,4.2,7.6,7.6l17.7-17.7c-7.5-9.8-19.2-15.6-31.6-15.5Z"/>
    <path class="st8" d="M226.5,113.8c-10.6.1-20.8-4.1-28.2-11.6-7.7-7.2-12-17.3-11.9-27.9-.1-10.5,4.2-20.7,11.9-27.9,7.4-7.6,17.6-11.9,28.2-11.8,10.1-.1,19.9,3.8,27.1,10.9l-7.6,7.7c-5.2-5-12.2-7.8-19.5-7.7-7.6,0-14.9,3-20.1,8.6-5.4,5.4-8.4,12.7-8.3,20.3,0,7.5,2.9,14.8,8.3,20.1,11,11,28.8,11.2,40,.5,3.4-3.7,5.4-8.3,5.9-13.3h-25.7v-11h36.3c.4,2.2.5,4.4.4,6.7.5,9.3-2.9,18.5-9.4,25.2-7.2,7.5-17.2,11.5-27.5,11.2ZM311,106.5c-10.1,9.7-26.1,9.7-36.2,0-4.9-4.8-7.6-11.4-7.4-18.2-.2-6.8,2.5-13.4,7.4-18.2,10.1-9.7,26.1-9.7,36.2,0,4.9,4.8,7.6,11.4,7.4,18.2.2,6.8-2.5,13.4-7.4,18.2h0ZM282.8,99.4c5.2,5.6,14,5.9,19.6.6.2-.2.4-.4.6-.6,2.9-3,4.4-6.9,4.3-11,.1-4.1-1.4-8.1-4.3-11.1-5.4-5.6-14.3-5.8-19.9-.4-.1.1-.3.3-.4.4-2.9,3-4.4,7-4.3,11.1-.1,4.1,1.4,8.1,4.3,11h0ZM366.7,106.5c-10.1,9.7-26.1,9.7-36.2,0-4.9-4.8-7.6-11.4-7.4-18.2-.2-6.8,2.5-13.4,7.4-18.2,10.1-9.7,26.1-9.7,36.2,0,4.9,4.8,7.6,11.4,7.4,18.2.2,6.8-2.5,13.4-7.4,18.2ZM338.5,99.4c5.2,5.6,14,5.9,19.6.6.2-.2.4-.4.6-.6,2.9-3,4.4-6.9,4.3-11,.1-4.1-1.4-8.1-4.3-11.1-5.4-5.6-14.3-5.8-19.9-.4-.1.1-.3.3-.4.4-2.9,3-4.4,7-4.3,11.1-.1,4.1,1.4,8.1,4.3,11h0ZM403.3,136.7c-5.1.2-10.2-1.4-14.2-4.5-3.6-2.7-6.5-6.4-8.3-10.5l9.8-4.1c1.1,2.5,2.7,4.7,4.8,6.4,2.3,1.8,5.1,2.8,8,2.7,3.7.2,7.4-1.2,10-3.9,2.6-3.1,3.9-7.1,3.6-11.1v-3.7h-.4c-3.3,3.9-8.3,6.1-13.4,5.8-6.5,0-12.7-2.7-17.1-7.4-4.8-4.7-7.4-11.2-7.3-17.9-.1-6.8,2.5-13.3,7.3-18.1,4.4-4.8,10.6-7.5,17.1-7.5,2.7,0,5.4.6,7.9,1.8,2.1.9,4,2.3,5.6,4.1h.4v-4.1h10.6v45.6c.6,7.3-1.9,14.5-6.8,19.9-4.7,4.5-11,6.9-17.4,6.6ZM404.1,103.8c3.7,0,7.2-1.5,9.7-4.3,2.6-3,4-6.9,3.9-11,.2-4.1-1.2-8.1-3.9-11.2-2.4-2.8-6-4.4-9.7-4.3-3.8,0-7.4,1.5-10,4.3-2.8,3-4.4,7-4.3,11.1,0,4.1,1.5,8,4.3,11,2.6,2.8,6.2,4.4,10,4.4ZM446.4,37.5v74.8h-11.2V37.5h11.2ZM477.1,113.8c-6.8.2-13.3-2.5-18-7.3-4.8-4.8-7.4-11.4-7.2-18.1-.3-6.8,2.3-13.4,7-18.3,4.4-4.7,10.7-7.3,17.1-7.1,2.9,0,5.8.5,8.6,1.7,2.4,1,4.7,2.4,6.5,4.3,1.6,1.6,3.1,3.3,4.3,5.2,1,1.6,1.8,3.3,2.5,5l1.2,2.9-34.2,14.1c2.1,4.9,7,7.9,12.3,7.7,5.1,0,9.9-2.7,12.5-7.1l8.6,5.8c-2.2,3.1-5,5.8-8.2,7.8-3.8,2.4-8.3,3.7-12.9,3.6ZM462.8,87.6l22.8-9.5c-.7-1.7-2-3-3.6-3.9-1.8-1-3.8-1.5-5.9-1.5-3.5,0-6.8,1.6-9.2,4.1-2.9,2.8-4.4,6.7-4.2,10.8Z"/>
    <path class="st8" d="M557.4,113.8c-19.5.3-35.5-15.2-35.9-34.6,0-.5,0-1,0-1.4-.5-19.5,15-35.6,34.4-36.1.5,0,1,0,1.4,0,9.7-.3,19.1,3.9,25.4,11.3l-6.2,6c-4.6-5.8-11.7-9.1-19.2-8.8-7.1-.2-14,2.6-19,7.6-5.2,5.3-8.1,12.5-7.7,19.9-.3,7.4,2.5,14.7,7.7,19.9,5,5,11.9,7.8,19,7.6,8.3,0,16.2-3.6,21.4-10l6.2,6.2c-3.2,3.9-7.3,6.9-11.9,9-4.9,2.3-10.3,3.4-15.7,3.3Z"/>
    <path class="st8" d="M601.6,112.3h-8.9V43.2h8.9v69.1Z"/>
    <path class="st8" d="M616.1,70.7c9.7-9.6,25.3-9.6,34.9,0,4.6,4.8,7,11.3,6.8,18,.2,6.7-2.3,13.1-6.8,18-9.7,9.6-25.3,9.6-34.9,0-4.6-4.8-7-11.3-6.8-18-.2-6.7,2.3-13.1,6.8-18ZM622.7,101.1c5.7,6,15.1,6.3,21.1.6.2-.2.4-.4.6-.6,3.1-3.4,4.8-7.8,4.6-12.4.2-4.6-1.5-9.1-4.6-12.4-5.7-6-15.1-6.3-21.1-.6-.2.2-.4.4-.6.6-3.1,3.4-4.8,7.8-4.6,12.4-.2,4.6,1.5,9,4.6,12.4h0Z"/>
    <path class="st8" d="M706.9,112.3h-8.6v-6.5h-.3c-1.5,2.5-3.7,4.5-6.2,5.9-2.7,1.5-5.7,2.4-8.8,2.4-5.1.3-10-1.6-13.4-5.4-3.2-4.1-4.9-9.2-4.6-14.5v-29.1h8.9v27.5c0,8.8,3.9,13.2,11.7,13.2,3.5.1,6.9-1.5,9-4.3,2.3-2.9,3.5-6.5,3.5-10.2v-26.2h8.9v47.2Z"/>
    <path class="st8" d="M737,113.8c-6.1,0-11.9-2.6-15.8-7.2-4.4-4.9-6.8-11.3-6.6-17.9-.2-6.6,2.2-13,6.6-17.9,4-4.6,9.8-7.3,15.8-7.2,3.4,0,6.7.7,9.7,2.3,2.6,1.3,4.8,3.3,6.4,5.8h.4l-.4-6.5v-21.9h8.9v69.1h-8.6v-6.5h-.4c-1.6,2.5-3.8,4.5-6.4,5.8-3,1.6-6.2,2.3-9.6,2.3ZM738.4,105.7c4,0,7.9-1.6,10.7-4.6,3-3.4,4.5-7.9,4.3-12.5.3-4.6-1.3-9-4.3-12.5-5.4-5.9-14.5-6.3-20.4-1-.3.3-.7.6-1,1-3,3.4-4.6,7.9-4.3,12.4-.3,4.5,1.3,9,4.3,12.4,2.7,3.1,6.6,4.8,10.7,4.7Z"/>
  </g>
  <path d="M 788.061 188.713 C 784.281 188.713 781.003 187.405 778.232 184.794 C 775.587 182.06 774.261 178.826 774.261 175.095 C 774.261 171.363 775.587 168.193 778.232 165.583 C 781.003 162.971 784.281 161.665 788.061 161.665 C 791.844 161.665 795.058 162.971 797.704 165.583 C 800.475 168.193 801.863 171.363 801.863 175.095 C 801.863 178.826 800.475 182.06 797.704 184.794 C 795.058 187.405 791.844 188.713 788.061 188.713 Z M 777.853 297.833 L 777.853 202.704 L 798.27 202.704 L 798.27 297.833 L 777.853 297.833 Z" style="stroke-width: 1px;"/>
  <path d="M 677.072 297.833 L 677.072 202.704 L 696.357 202.704 L 696.357 215.758 L 697.492 215.758 C 700.262 211.157 704.36 207.364 709.779 204.381 C 715.326 201.272 721.373 199.716 727.928 199.716 C 739.774 199.716 748.66 203.2 754.586 210.164 C 760.509 217.126 763.471 226.33 763.471 237.77 L 763.471 297.833 L 743.241 297.833 L 743.241 240.383 C 743.241 232.672 741.289 227.074 737.381 223.592 C 733.475 219.989 728.37 218.184 722.069 218.184 C 717.153 218.184 712.866 219.551 709.212 222.289 C 705.558 224.899 702.657 228.383 700.515 232.735 C 698.5 237.086 697.492 241.75 697.492 246.724 L 697.492 297.833 L 677.072 297.833 Z" style="stroke-width: 1px;"/>
  <path d="M 651.93 188.713 C 648.149 188.713 644.872 187.405 642.097 184.794 C 639.451 182.06 638.127 178.826 638.127 175.095 C 638.127 171.363 639.451 168.193 642.097 165.583 C 644.872 162.971 648.149 161.665 651.93 161.665 C 655.71 161.665 658.923 162.971 661.571 165.583 C 664.344 168.193 665.732 171.363 665.732 175.095 C 665.732 178.826 664.344 182.06 661.571 184.794 C 658.923 187.405 655.71 188.713 651.93 188.713 Z M 641.721 297.833 L 641.721 202.704 L 662.138 202.704 L 662.138 297.833 L 641.721 297.833 Z" style="stroke-width: 1px;"/>
  <path d="M 482.047 297.833 L 482.047 202.704 L 501.331 202.704 L 501.331 215.758 L 502.464 215.758 C 505.239 211.157 509.271 207.364 514.565 204.381 C 519.858 201.272 525.718 199.716 532.145 199.716 C 539.329 199.716 545.442 201.397 550.483 204.753 C 555.525 208.113 559.118 212.341 561.261 217.439 C 564.411 212.465 568.695 208.298 574.117 204.94 C 579.533 201.456 586.153 199.716 593.965 199.716 C 605.308 199.716 613.754 203.138 619.298 209.975 C 624.845 216.692 627.618 225.645 627.618 236.837 L 627.618 297.833 L 607.39 297.833 L 607.39 240.195 C 607.39 232.609 605.686 227.074 602.285 223.592 C 599.007 219.989 594.409 218.184 588.483 218.184 C 583.819 218.184 579.724 219.49 576.196 222.1 C 572.666 224.59 569.895 228.008 567.878 232.36 C 565.985 236.711 565.042 241.561 565.042 246.911 L 565.042 297.833 L 544.814 297.833 L 544.814 240.195 C 544.814 232.609 543.112 227.074 539.709 223.592 C 536.305 219.989 531.515 218.184 525.342 218.184 C 520.805 218.184 516.831 219.49 513.429 222.1 C 510.027 224.715 507.318 228.193 505.302 232.549 C 503.412 236.9 502.464 241.75 502.464 247.096 L 502.464 297.833 L 482.047 297.833 Z" style="stroke-width: 1px;"/>
  <path d="M 424.917 300.818 C 415.465 300.818 407.021 298.642 399.583 294.29 C 392.147 289.939 386.287 283.967 382.002 276.381 C 377.844 268.796 375.764 260.155 375.764 250.454 C 375.764 241.377 377.779 232.982 381.811 225.274 C 385.846 217.564 391.454 211.407 398.64 206.806 C 405.949 202.079 414.33 199.716 423.783 199.716 C 433.737 199.716 442.184 201.831 449.116 206.059 C 456.172 210.289 461.529 216.072 465.186 223.408 C 468.841 230.743 470.669 239.011 470.669 248.217 C 470.669 249.584 470.604 250.826 470.479 251.945 C 470.479 253.067 470.415 253.936 470.287 254.559 L 395.804 254.559 C 396.812 264.011 400.151 271.096 405.824 275.822 C 411.62 280.548 418.175 282.913 425.483 282.913 C 432.038 282.913 437.459 281.482 441.742 278.622 C 446.026 275.638 449.432 271.97 451.95 267.614 L 468.776 275.638 C 464.618 283.098 458.946 289.191 451.762 293.917 C 444.578 298.518 435.629 300.818 424.917 300.818 Z M 423.971 216.879 C 417.167 216.879 411.367 218.932 406.578 223.034 C 401.788 227.139 398.575 232.609 396.936 239.449 L 450.44 239.449 C 450.187 236.217 449.116 232.857 447.226 229.375 C 445.335 225.893 442.436 222.972 438.53 220.609 C 434.749 218.123 429.896 216.879 423.971 216.879 Z" style="stroke-width: 1px;"/>
  <path d="M 300.051 300.818 C 290.344 300.818 281.207 299.077 272.64 295.597 C 264.193 292.114 256.693 287.265 250.14 281.045 C 243.584 274.704 238.418 267.305 234.638 258.846 C 230.984 250.267 229.156 241.002 229.156 231.057 C 229.156 221.108 230.984 211.904 234.638 203.447 C 238.418 194.865 243.524 187.468 249.953 181.252 C 256.505 174.909 264.068 169.995 272.64 166.515 C 281.207 163.033 290.344 161.291 300.051 161.291 C 310.385 161.291 319.898 163.093 328.598 166.701 C 337.421 170.308 344.791 175.343 350.716 181.809 L 336.347 195.799 C 331.936 190.949 326.644 187.22 320.466 184.609 C 314.418 181.996 307.611 180.689 300.051 180.689 C 291.101 180.689 282.845 182.804 275.285 187.032 C 267.722 191.137 261.608 196.981 256.946 204.566 C 252.407 212.029 250.14 220.857 250.14 231.057 C 250.14 241.252 252.471 250.143 257.136 257.73 C 261.799 265.19 267.911 271.036 275.472 275.263 C 283.035 279.367 291.289 281.42 300.239 281.42 C 308.431 281.42 315.866 279.928 322.546 276.94 C 329.225 273.833 334.582 269.481 338.617 263.885 C 342.773 258.288 345.296 251.574 346.18 243.738 L 299.86 243.738 L 299.86 225.645 L 365.651 225.645 C 366.408 229.002 366.784 232.549 366.784 236.278 L 366.784 236.465 C 366.784 249.396 363.885 260.714 358.088 270.414 C 352.415 279.989 344.54 287.45 334.458 292.798 C 324.371 298.144 312.905 300.818 300.051 300.818 Z" style="stroke-width: 1px;"/>
  <mask id="mask0_10859_4895" style="mask-type:alpha" maskUnits="userSpaceOnUse" x="0" y="0" width="65" height="65">
    <path d="M32.4473 0C33.1278 0 33.7197 0.464783 33.8857 1.125C34.3947 3.14441 35.0586 5.11414 35.8848 7.03027C38.0369 12.0299 40.99 16.406 44.7393 20.1553C48.4903 23.9045 52.8647 26.8576 57.8643 29.0098C59.7821 29.8359 61.7502 30.4998 63.7695 31.0088C64.4297 31.1748 64.8944 31.7668 64.8945 32.4473C64.8945 33.1278 64.4298 33.7198 63.7695 33.8857C61.7502 34.3947 59.7803 35.0586 57.8643 35.8848C52.8646 38.037 48.4885 40.99 44.7393 44.7393C40.99 48.4904 38.037 52.8646 35.8848 57.8643C35.0586 59.7822 34.3947 61.7502 33.8857 63.7695C33.7198 64.4298 33.1278 64.8945 32.4473 64.8945C31.7668 64.8944 31.1748 64.4297 31.0088 63.7695C30.4998 61.7502 29.8359 59.7803 29.0098 57.8643C26.8576 52.8647 23.9063 48.4885 20.1553 44.7393C16.4041 40.99 12.0299 38.0369 7.03027 35.8848C5.1123 35.0586 3.14441 34.3947 1.125 33.8857C0.464783 33.7197 0 33.1278 0 32.4473C8.67651e-05 31.7668 0.464826 31.1748 1.125 31.0088C3.14442 30.4998 5.11413 29.836 7.03027 29.0098C12.03 26.8575 16.406 23.9046 20.1553 20.1553C23.9046 16.406 26.8575 12.03 29.0098 7.03027C29.836 5.11229 30.4998 3.14442 31.0088 1.125C31.1748 0.464826 31.7668 8.67651e-05 32.4473 0Z" fill="black"/>
    <path d="M32.4473 0C33.1278 0 33.7197 0.464783 33.8857 1.125C34.3947 3.14441 35.0586 5.11414 35.8848 7.03027C38.0369 12.0299 40.99 16.406 44.7393 20.1553C48.4903 23.9045 52.8647 26.8576 57.8643 29.0098C59.7821 29.8359 61.7502 30.4998 63.7695 31.0088C64.4297 31.1748 64.8944 31.7668 64.8945 32.4473C64.8945 33.1278 64.4298 33.7198 63.7695 33.8857C61.7502 34.3947 59.7803 35.0586 57.8643 35.8848C52.8646 38.037 48.4885 40.99 44.7393 44.7393C40.99 48.4904 38.037 52.8646 35.8848 57.8643C35.0586 59.7822 34.3947 61.7502 33.8857 63.7695C33.7198 64.4298 33.1278 64.8945 32.4473 64.8945C31.7668 64.8944 31.1748 64.4297 31.0088 63.7695C30.4998 61.7502 29.8359 59.7803 29.0098 57.8643C26.8576 52.8647 23.9063 48.4885 20.1553 44.7393C16.4041 40.99 12.0299 38.0369 7.03027 35.8848C5.1123 35.0586 3.14441 34.3947 1.125 33.8857C0.464783 33.7197 0 33.1278 0 32.4473C8.67651e-05 31.7668 0.464826 31.1748 1.125 31.0088C3.14442 30.4998 5.11413 29.836 7.03027 29.0098C12.03 26.8575 16.406 23.9046 20.1553 20.1553C23.9046 16.406 26.8575 12.03 29.0098 7.03027C29.836 5.11229 30.4998 3.14442 31.0088 1.125C31.1748 0.464826 31.7668 8.67651e-05 32.4473 0Z" fill="url(#paint0_linear_10859_4895)"/>
  </mask>
  <g mask="url(#mask0_10859_4895)" transform="matrix(2.768316, 0, 0, 2.768316, 4.58897, 141.542892)" style="">
    <g filter="url(#filter0_f_10859_4895)">
      <ellipse cx="14.4072" cy="16.9504" rx="14.4072" ry="16.9504" transform="matrix(0.942341 0.334654 -0.334652 0.942342 -8.09058 13.9664)" fill="#FFE432"/>
    </g>
    <g filter="url(#filter1_f_10859_4895)">
      <ellipse cx="27.4329" cy="2.5869" rx="18.6516" ry="19.0617" fill="#FC413D"/>
    </g>
    <g filter="url(#filter2_f_10859_4895)">
      <ellipse cx="18.9512" cy="57.3856" rx="19.4934" ry="25.2529" transform="rotate(-2.79865 18.9512 57.3856)" fill="#00B95C"/>
    </g>
    <g filter="url(#filter3_f_10859_4895)">
      <ellipse cx="18.9512" cy="57.3856" rx="19.4934" ry="25.2529" transform="rotate(-2.79865 18.9512 57.3856)" fill="#00B95C"/>
    </g>
    <g filter="url(#filter4_f_10859_4895)">
      <ellipse cx="20.0204" cy="56.2114" rx="19.1065" ry="21.0345" transform="rotate(-31.3178 20.0204 56.2114)" fill="#00B95C"/>
    </g>
    <g filter="url(#filter5_f_10859_4895)">
      <ellipse cx="67.391" cy="25.3267" rx="18.3463" ry="17.6668" fill="#3186FF"/>
    </g>
    <g filter="url(#filter6_f_10859_4895)">
      <ellipse cx="21.222" cy="22.3842" rx="21.222" ry="22.3842" transform="matrix(0.795985 0.605316 -0.605314 0.795987 -2.85815 -7.53723)" fill="#FBBC04"/>
    </g>
    <g filter="url(#filter7_f_10859_4895)">
      <ellipse cx="24.4687" cy="22.6039" rx="24.4687" ry="22.6039" transform="matrix(0.824033 0.566542 -0.566539 0.824035 40.1882 0.315002)" fill="#3186FF"/>
    </g>
    <g filter="url(#filter8_f_10859_4895)">
      <path d="M54.9838 -2.33625C57.8168 1.51558 54.1765 9.00477 46.8529 14.3913C39.5293 19.7779 31.2957 21.022 28.4627 17.1702C25.6296 13.3184 29.27 5.82919 36.5935 0.442635C43.9171 -4.94392 52.1507 -6.18807 54.9838 -2.33625Z" fill="#749BFF"/>
    </g>
    <g filter="url(#filter9_f_10859_4895)">
      <ellipse cx="19.9023" cy="3.35597" rx="27.9712" ry="17.3877" transform="rotate(-42.848 19.9023 3.35597)" fill="#FC413D"/>
    </g>
    <g filter="url(#filter10_f_10859_4895)">
      <ellipse cx="13.5831" cy="46.7501" rx="14.9887" ry="8.71667" transform="rotate(35.592 13.5831 46.7501)" fill="#FFEE48"/>
    </g>
  </g>
</svg>