<?xml version="1.0" encoding="utf-8"?>
<svg id="Layer_1" data-name="Layer 1" xmlns="http://www.w3.org/2000/svg" viewBox="0 0 3013.69 323.35">
  <defs>
    <style>
      .cls-1, .cls-2 {
        fill: #4285f4;
      }

      .cls-3 {
        fill: #fbbc05;
      }

      .cls-4, .cls-5, .cls-6, .cls-2 {
        fill-rule: evenodd;
      }

      .cls-4, .cls-7 {
        fill: #ea4335;
      }

      .cls-5, .cls-8 {
        fill: #34a853;
      }

      .cls-6 {
        fill: #fbbc04;
      }

      .cls-9 {
        fill: #5f6368;
      }

      .cls-10 {
        fill: #3c4043;
      }
    </style>
    <filter id="filter0_f_10859_4895" x="-19.8236" y="13.1523" width="39.2739" height="43.2171" filterUnits="userSpaceOnUse" color-interpolation-filters="sRGB">
      <feFlood flood-opacity="0" result="BackgroundImageFix"/>
      <feBlend mode="normal" in="SourceGraphic" in2="BackgroundImageFix" result="shape"/>
      <feGaussianBlur stdDeviation="2.45965" result="effect1_foregroundBlur_10859_4895"/>
    </filter>
    <filter id="filter1_f_10859_4895" x="-15.001" y="-40.257" width="84.8677" height="85.6878" filterUnits="userSpaceOnUse" color-interpolation-filters="sRGB">
      <feFlood flood-opacity="0" result="BackgroundImageFix"/>
      <feBlend mode="normal" in="SourceGraphic" in2="BackgroundImageFix" result="shape"/>
      <feGaussianBlur stdDeviation="11.8911" result="effect1_foregroundBlur_10859_4895"/>
    </filter>
    <filter id="filter2_f_10859_4895" x="-20.7758" y="11.9273" width="79.454" height="90.9166" filterUnits="userSpaceOnUse" color-interpolation-filters="sRGB">
      <feFlood flood-opacity="0" result="BackgroundImageFix"/>
      <feBlend mode="normal" in="SourceGraphic" in2="BackgroundImageFix" result="shape"/>
      <feGaussianBlur stdDeviation="10.1086" result="effect1_foregroundBlur_10859_4895"/>
    </filter>
    <filter id="filter3_f_10859_4895" x="-20.7758" y="11.9273" width="79.454" height="90.9166" filterUnits="userSpaceOnUse" color-interpolation-filters="sRGB">
      <feFlood flood-opacity="0" result="BackgroundImageFix"/>
      <feBlend mode="normal" in="SourceGraphic" in2="BackgroundImageFix" result="shape"/>
      <feGaussianBlur stdDeviation="10.1086" result="effect1_foregroundBlur_10859_4895"/>
    </filter>
    <filter id="filter4_f_10859_4895" x="-19.8449" y="15.459" width="79.7306" height="81.5048" filterUnits="userSpaceOnUse" color-interpolation-filters="sRGB">
      <feFlood flood-opacity="0" result="BackgroundImageFix"/>
      <feBlend mode="normal" in="SourceGraphic" in2="BackgroundImageFix" result="shape"/>
      <feGaussianBlur stdDeviation="10.1086" result="effect1_foregroundBlur_10859_4895"/>
    </filter>
    <filter id="filter5_f_10859_4895" x="29.8324" y="-11.5524" width="75.1172" height="73.7582" filterUnits="userSpaceOnUse" color-interpolation-filters="sRGB">
      <feFlood flood-opacity="0" result="BackgroundImageFix"/>
      <feBlend mode="normal" in="SourceGraphic" in2="BackgroundImageFix" result="shape"/>
      <feGaussianBlur stdDeviation="9.60613" result="effect1_foregroundBlur_10859_4895"/>
    </filter>
    <filter id="filter6_f_10859_4895" x="-38.5827" y="-16.2526" width="78.1352" height="78.7578" filterUnits="userSpaceOnUse" color-interpolation-filters="sRGB">
      <feFlood flood-opacity="0" result="BackgroundImageFix"/>
      <feBlend mode="normal" in="SourceGraphic" in2="BackgroundImageFix" result="shape"/>
      <feGaussianBlur stdDeviation="8.70591" result="effect1_foregroundBlur_10859_4895"/>
    </filter>
    <filter id="filter7_f_10859_4895" x="8.1068" y="-5.96578" width="78.877" height="77.5394" filterUnits="userSpaceOnUse" color-interpolation-filters="sRGB">
      <feFlood flood-opacity="0" result="BackgroundImageFix"/>
      <feBlend mode="normal" in="SourceGraphic" in2="BackgroundImageFix" result="shape"/>
      <feGaussianBlur stdDeviation="7.77473" result="effect1_foregroundBlur_10859_4895"/>
    </filter>
    <filter id="filter8_f_10859_4895" x="13.5873" y="-18.4881" width="56.2718" height="51.8102" filterUnits="userSpaceOnUse" color-interpolation-filters="sRGB">
      <feFlood flood-opacity="0" result="BackgroundImageFix"/>
      <feBlend mode="normal" in="SourceGraphic" in2="BackgroundImageFix" result="shape"/>
      <feGaussianBlur stdDeviation="6.95694" result="effect1_foregroundBlur_10859_4895"/>
    </filter>
    <filter id="filter9_f_10859_4895" x="-15.5259" y="-31.297" width="70.8565" height="69.3059" filterUnits="userSpaceOnUse" color-interpolation-filters="sRGB">
      <feFlood flood-opacity="0" result="BackgroundImageFix"/>
      <feBlend mode="normal" in="SourceGraphic" in2="BackgroundImageFix" result="shape"/>
      <feGaussianBlur stdDeviation="5.87598" result="effect1_foregroundBlur_10859_4895"/>
    </filter>
    <filter id="filter10_f_10859_4895" x="-14.1676" y="20.9644" width="55.5015" height="51.5714" filterUnits="userSpaceOnUse" color-interpolation-filters="sRGB">
      <feFlood flood-opacity="0" result="BackgroundImageFix"/>
      <feBlend mode="normal" in="SourceGraphic" in2="BackgroundImageFix" result="shape"/>
      <feGaussianBlur stdDeviation="7.27253" result="effect1_foregroundBlur_10859_4895"/>
    </filter>
    <linearGradient id="paint0_linear_10859_4895" x1="18.4474" y1="43.4202" x2="52.1528" y2="15.0035" gradientUnits="userSpaceOnUse">
      <stop stop-color="#4893FC"/>
      <stop offset="0.27" stop-color="#4893FC"/>
      <stop offset="0.777" stop-color="#969DFF"/>
      <stop offset="1" stop-color="#BD99FE"/>
    </linearGradient>
  </defs>
  <g style="" transform="matrix(1.868283, 0, 0, 1.868283, -2635.928955, -292.326782)">
    <path id="path1" class="cls-2" d="M2930.1,170.51c-9.94,0-17.99,8.06-17.99,18s8.06,18,17.99,18h29.93c1.91,0,3.46,1.55,3.46,3.46,0,2.39-1.93,4.32-4.32,4.32h-29.07c-14.23,0-25.77-11.54-25.77-25.78s11.54-25.78,25.77-25.78h25.29c2.15,0,3.89,1.74,3.89,3.89s-1.74,3.89-3.89,3.89h-25.29Z"/>
    <path id="path2" class="cls-4" d="M2948.4,223.48c1.38,1.65,1.15,4.11-.5,5.48l-10.27,8.56,10.27,8.56c1.65,1.38,1.87,3.83.5,5.48-1.38,1.65-3.83,1.87-5.48.5l-13.63-11.37c-1.98-1.65-1.98-4.7,0-6.35l13.63-11.37c1.65-1.38,4.1-1.15,5.48.5Z"/>
    <path id="path3" class="cls-4" d="M2966.74,223.48c-1.38,1.65-1.15,4.11.5,5.48l10.27,8.56-10.27,8.56c-1.65,1.38-1.87,3.83-.5,5.48,1.38,1.65,3.83,1.87,5.48.5l13.63-11.37c1.98-1.65,1.98-4.7,0-6.35l-13.63-11.37c-1.65-1.38-4.1-1.15-5.48.5Z"/>
    <path id="path4" class="cls-5" d="M2961.71,170.51c9.94,0,17.99,8.06,17.99,18s-8.05,18-17.99,18h-25.29c-2.15,0-3.89,1.74-3.89,3.89s1.74,3.89,3.89,3.89h25.29c14.23,0,25.77-11.54,25.77-25.78s-11.54-25.78-25.77-25.78h-25.29c-2.15,0-3.89,1.74-3.89,3.89s1.74,3.89,3.89,3.89h25.29Z"/>
    <path id="path5" class="cls-6" d="M2912.11,227.43h6.32c2.15,0,3.89-1.74,3.89-3.89s-1.74-3.89-3.89-3.89h-7.78c-3.49,0-6.32,2.83-6.32,6.32v23.35c0,3.49,2.83,6.32,6.32,6.32h7.78c2.15,0,3.89-1.74,3.89-3.89s-1.74-3.89-3.89-3.89h-6.32v-20.43Z"/>
    <path id="path6" class="cls-2" d="M2930.1,170.51c-9.94,0-17.99,8.06-17.99,18s8.06,18,17.99,18h29.93c1.91,0,3.46,1.55,3.46,3.46,0,2.39-1.93,4.32-4.32,4.32h-29.07c-14.23,0-25.77-11.54-25.77-25.78s11.54-25.78,25.77-25.78h25.29c2.15,0,3.89,1.74,3.89,3.89s-1.74,3.89-3.89,3.89h-25.29Z"/>
    <path id="path7" class="cls-1" d="M2935.45,188.51c0,2.42-1.96,4.38-4.38,4.38s-4.38-1.96-4.38-4.38,1.96-4.38,4.38-4.38,4.38,1.96,4.38,4.38Z"/>
    <path id="path8" class="cls-1" d="M2965.6,188.51c0,2.42-1.96,4.38-4.38,4.38s-4.38-1.96-4.38-4.38,1.96-4.38,4.38-4.38,4.38,1.96,4.38,4.38Z"/>
    <path id="path9" class="cls-10" d="M2896.18,276.18h11.86l17.66,47.17h-11.33l-3.62-10.54h-17.26l-3.62,10.54h-11.33l17.66-47.17ZM2907.44,303.46l-3.43-9.88-1.58-5.8h-.66l-1.58,5.8-3.43,9.88h10.67ZM2927.95,276.18h16.67c3.78,0,7.18.57,10.21,1.71,3.03,1.14,5.6,2.75,7.71,4.81,2.11,2.06,3.71,4.55,4.81,7.44,1.14,2.9,1.71,6.11,1.71,9.62s-.57,6.72-1.71,9.62c-1.1,2.9-2.7,5.38-4.81,7.44-2.11,2.06-4.68,3.67-7.71,4.81-3.03,1.14-6.43,1.71-10.21,1.71h-16.67v-47.17ZM2944.09,313.6c2.55,0,4.74-.33,6.59-.99,1.84-.7,3.36-1.67,4.55-2.9,1.23-1.23,2.13-2.68,2.7-4.35.57-1.71.86-3.58.86-5.6s-.29-3.87-.86-5.53c-.57-1.71-1.47-3.18-2.7-4.41-1.19-1.23-2.7-2.17-4.55-2.83-1.84-.7-4.04-1.05-6.59-1.05h-5.86v27.67h5.86ZM2972.97,276.18h10.28v18.18h.66l15.55-18.18h12.19v.66l-16.8,19.17,18.84,26.68v.66h-12.52l-13.44-19.17-4.48,5.2v13.97h-10.28v-47.17Z"/>
  </g>
  <g id="g1" transform="matrix(2.11475, 0, 0, 2.11475, -3661.526855, 18.477665)" style="">
    <path id="path1-2" data-name="path1" d="M2880.8,138.36s3.67-9.83,8.16-21.78c4.49-11.95,8.26-22,8.39-22.32l.22-.6h9.62l8.34,22.2c4.59,12.21,8.37,22.28,8.41,22.38.07.17-.18.18-4.59.16l-4.66-.03-1.83-5.31-1.83-5.31-8.6-.03-8.6-.03-.5,1.43c-.28.79-1.12,3.19-1.87,5.33l-1.37,3.9-4.64.03c-2.55.01-4.64,0-4.64-.03h0ZM2907.82,118.72c-.25-.7-1.16-3.27-2.02-5.7-.86-2.43-1.9-5.52-2.31-6.87-.4-1.35-.76-2.53-.79-2.63-.03-.11-.16-.18-.3-.18-.27,0-.17-.29-1.36,3.64-.36,1.19-3.89,11.3-4.47,12.83-.07.17.25.18,5.82.18h5.89l-.45-1.27ZM2927.95,134.59v-3.82l8.1-8.12c4.7-4.71,8.47-8.58,8.99-9.21,2.02-2.5,2.7-3.93,2.86-5.98.13-1.7-.35-2.97-1.56-4.17-1.24-1.22-2.56-1.73-4.53-1.72-1.27,0-2.42.25-3.27.71-.3.16-.91.66-1.37,1.12-.85.85-1.41,1.74-1.83,2.9-.11.3-.25.53-.33.52-.17-.02-7.29-2.96-7.4-3.05-.1-.09.29-1.15.81-2.19,1.84-3.66,5.25-6.38,9.26-7.39,2.51-.63,5.32-.68,8.01-.14,2.68.54,5.24,1.89,7.09,3.73,2.98,2.99,4.14,7.05,3.28,11.51-.53,2.73-1.92,5.55-4.12,8.32-.39.49-3.44,3.63-6.78,6.98-4.59,4.61-6.06,6.14-6.01,6.27.06.16.72.18,8.96.18h8.89v7.39h-29.04v-3.82ZM2960.36,138.23c.04-.1,3.82-10.17,8.41-22.38l8.34-22.2h9.62l.1.29c.06.16,3.83,10.21,8.39,22.33,4.56,12.13,8.29,22.07,8.29,22.09s-2.09.03-4.64.02l-4.64-.03-1.76-5.1c-.97-2.8-1.8-5.21-1.86-5.33l-.1-.23h-17.14l-1.87,5.33-1.87,5.33-4.67.03c-4.42.03-4.66.02-4.6-.16h0ZM2987.77,119.86c-.56-1.47-4.22-11.94-4.49-12.88-1.03-3.47-1.09-3.64-1.36-3.64-.21,0-.27.09-.41.55-.83,2.85-1.73,5.59-3.02,9.24-.84,2.38-1.74,4.89-1.99,5.59l-.45,1.27h5.89c4.67,0,5.88-.03,5.84-.13h0ZM2889.93,72.73c-1.11-.26-1.93-.92-2.44-1.94-.38-.77-.39-.83-.39-1.89,0-.99.03-1.16.29-1.69.38-.77,1.33-1.65,2.13-1.98l.6-.24h6.71c7.84,0,7.35-.06,8.54,1.06.88.83,1.23,1.49,1.31,2.49.16,1.89-.92,3.55-2.66,4.1-.63.2-.93.21-7.18.2-3.59,0-6.7-.05-6.91-.1h0ZM2917.33,72.68c-1.19-.31-2.21-1.32-2.56-2.52-.25-.85-.16-2.19.19-2.96.52-1.13,1.61-1.94,2.9-2.16.47-.08,5.5-.1,16.85-.08,18.58.03,16.66-.08,17.91,1.1.88.83,1.22,1.49,1.31,2.48.16,1.89-.92,3.55-2.66,4.1-.65.21-.93.21-17.02.2-13.96,0-16.44-.03-16.93-.16h0ZM2964.58,72.68c-1.2-.33-2.22-1.33-2.56-2.52-.25-.85-.16-2.19.19-2.96.87-1.9,3.24-2.75,5.21-1.87.65.29,1.45,1.07,1.85,1.81.34.63.36.7.36,1.75s-.02,1.14-.34,1.78c-.4.81-1.06,1.46-1.87,1.83-.73.34-2,.42-2.84.18h0ZM2980.48,72.73c-1.59-.37-2.73-1.75-2.86-3.45-.07-.89.14-1.84.53-2.45.38-.61,1.26-1.34,1.92-1.6l.59-.24h8.69c10.09,0,9.31-.08,10.52,1.06.88.83,1.23,1.49,1.31,2.49.16,1.89-.92,3.55-2.66,4.1-.64.2-.93.21-9.16.2-4.67,0-8.67-.05-8.89-.1h0ZM2898.05,57.02c-1.21-.2-2.21-.94-2.74-2.04-.26-.52-.3-.76-.34-1.65-.03-.88,0-1.14.19-1.64.31-.83,1.08-1.65,1.96-2.08l.69-.34h21.76l.6.3c.72.36,1.66,1.32,1.98,2.01.19.41.23.68.23,1.59,0,.99-.03,1.15-.29,1.69-.56,1.15-1.58,1.92-2.83,2.15-.72.13-20.42.14-21.21,0h0ZM2933.49,57.02c-1.26-.22-2.4-1.11-2.84-2.23-.2-.51-.25-.81-.25-1.66,0-.94.03-1.1.3-1.66.4-.82,1.06-1.46,1.91-1.86.63-.3.79-.33,1.69-.33,1.24,0,1.72.2,2.65,1.09.93.89,1.25,1.61,1.24,2.83,0,.83-.03.97-.39,1.68-.82,1.66-2.44,2.46-4.31,2.14h0ZM2949.27,57.02c-1.2-.2-2.2-.91-2.69-1.9-1.07-2.18-.28-4.58,1.85-5.57l.6-.28h6.92q6.92,0,7.42.23c.65.3,1.69,1.3,2.04,1.96.25.47.27.63.28,1.67,0,1.03-.03,1.21-.28,1.74-.53,1.14-1.63,1.96-2.88,2.17-.7.11-12.56.11-13.24,0h0ZM2976.77,57.01c-.71-.12-1.69-.64-2.11-1.12-.18-.2-.47-.68-.64-1.05-.28-.6-.32-.79-.32-1.62,0-1.29.21-1.86.99-2.7.43-.46.81-.74,1.26-.95l.65-.3h13.84l.6.3c.72.36,1.66,1.32,1.98,2.01.19.41.23.68.23,1.59,0,.99-.03,1.15-.29,1.69-.56,1.15-1.58,1.92-2.83,2.15-.75.14-12.53.14-13.36,0h0ZM2900.05,39.18c-5.98-.87-11.19-4.36-14.23-9.51-5.84-9.92-1.95-22.73,8.42-27.7,2.24-1.07,4.3-1.66,6.64-1.88.82-.08,5.44-.1,14.68-.08,14.76.04,14.12.01,16.7.67,1.47.37,4.11,1.44,4.11,1.66,0,.03-.33.59-.72,1.24-.88,1.44-1.63,2.92-2.26,4.46-.26.64-.49,1.19-.51,1.22s-.4-.12-.85-.33c-.87-.42-2.03-.75-3.21-.92-.45-.06-5.78-.1-14.03-.11-13.03,0-13.33,0-14.36.21-3.03.61-5.71,2.4-7.44,4.95-.63.94-1.34,2.49-1.65,3.65-.25.94-.28,1.18-.27,3,0,1.7.03,2.09.23,2.79,1.26,4.57,4.6,7.77,9.18,8.77.84.18,1.6.19,14.36.19s13.55-.01,14.47-.19c2.04-.38,3.36-.99,4.55-2.1,1.85-1.72,2.8-3.91,4.44-10.31,1.37-5.33,1.89-6.94,3.03-9.26,2.34-4.77,5.87-7.72,10.72-8.94,2.59-.65,1.95-.63,16.7-.67,9.39-.03,13.83,0,14.62.08,5.26.53,9.83,2.93,13.27,6.97,1.89,2.22,3.44,5.36,4.1,8.34,1.06,4.72.3,9.82-2.08,14-3.01,5.28-8.4,8.94-14.4,9.77-1,.14-3.02.16-14.64.16-8.58,0-13.85-.04-14.49-.11-2.31-.25-4.57-.86-6.34-1.72l-.96-.47.62-.94c.71-1.08,1.98-3.55,2.56-4.99.22-.54.41-1,.42-1.02.01-.02.39.14.83.35,1.09.52,2.46.85,4.07.99.91.08,5.34.1,14.08.08,12.54-.04,12.76-.04,13.63-.26,4.53-1.12,7.78-4.29,8.96-8.74.34-1.29.39-3.71.1-5.13-.92-4.46-4.16-7.91-8.61-9.14l-1.02-.28-13.58-.03c-12.08-.03-13.7-.01-14.66.14-3.73.58-5.77,2.27-7.31,6.04-.57,1.4-1,2.83-2.02,6.81-1.28,4.98-1.72,6.31-2.83,8.64-.98,2.06-2.02,3.56-3.46,5-2.68,2.67-5.77,4.09-10.1,4.63-1.63.2-28.07.2-29.46,0h0ZM2901.61,23.47c-1.48-.43-2.43-1.52-2.71-3.1-.31-1.8.5-3.41,2.14-4.22.72-.35.85-.38,1.68-.38,1.22,0,1.94.31,2.83,1.23.75.78,1.04,1.41,1.12,2.4.13,1.68-.8,3.24-2.32,3.91-.63.28-2.06.36-2.75.16h0ZM2925.24,23.47c-1.48-.43-2.43-1.52-2.71-3.1-.31-1.8.5-3.41,2.14-4.22.72-.35.85-.38,1.68-.38,1.22,0,1.94.31,2.83,1.23.75.78,1.04,1.41,1.12,2.4.13,1.68-.8,3.24-2.32,3.91-.63.28-2.06.36-2.75.16h0ZM2956.86,23.51c-1.62-.41-2.73-1.75-2.86-3.45-.07-.88.14-1.84.52-2.45.35-.55,1.15-1.26,1.69-1.5,1.06-.47,2.45-.45,3.41.04.58.3,1.44,1.14,1.76,1.72.55,1.01.58,2.4.09,3.51-.32.71-1.16,1.54-1.91,1.88-.71.32-1.96.44-2.7.25h0ZM2980.48,23.51c-1.62-.41-2.73-1.75-2.86-3.45-.07-.88.14-1.84.52-2.45.35-.55,1.15-1.26,1.69-1.5,1.06-.47,2.45-.45,3.41.04.58.3,1.44,1.14,1.76,1.72.55,1.01.58,2.4.09,3.51-.32.71-1.16,1.54-1.91,1.88-.71.32-1.96.44-2.7.25Z"/>
  </g>
  <g style="" transform="matrix(0.830695, 0, 0, 0.830695, 16.844772, 31.07021)">
    <path class="cls-7" d="M189,103.69h9.08l25.89-25.89,1.27-10.99c-48.18-42.53-121.72-37.95-164.25,10.24-11.81,13.38-20.39,29.31-25.06,46.54,2.88-1.18,6.08-1.37,9.08-.55l51.78-8.54s2.63-4.36,4-4.09c23.03-25.3,61.8-28.24,88.39-6.72h-.18Z"/>
    <path class="cls-1" d="M260.85,123.58c-5.95-21.91-18.17-41.62-35.16-56.69l-36.34,36.34c15.34,12.54,24.08,31.42,23.71,51.24v6.45c17.86,0,32.34,14.48,32.34,32.34s-14.48,32.34-32.34,32.34h-64.68l-6.45,6.54v38.79l6.45,6.45h64.68c46.46.36,84.41-37.01,84.77-83.46.22-28.16-13.66-54.56-36.99-70.33Z"/>
    <path class="cls-8" d="M83.62,277.02h64.68v-51.78h-64.68c-4.61,0-9.16-.99-13.35-2.91l-9.08,2.82-26.07,25.89-2.27,9.08c14.62,11.04,32.46,16.98,50.78,16.9Z"/>
    <path class="cls-3" d="M83.62,109.05C37.16,109.33-.28,147.21,0,193.67c.15,25.94,12.27,50.36,32.84,66.18l37.52-37.52c-16.28-7.35-23.51-26.51-16.16-42.79,7.35-16.28,26.51-23.51,42.79-16.16,7.17,3.24,12.92,8.98,16.16,16.16l37.52-37.52c-15.96-20.87-40.77-33.07-67.04-32.98Z"/>
    <path class="cls-9" d="M470.06,240.86c-22.5.29-44.15-8.6-59.96-24.62-16.32-15.35-25.44-36.83-25.16-59.23-.27-22.39,8.86-43.88,25.16-59.23,15.73-16.18,37.39-25.24,59.96-25.07,21.5-.29,42.21,8.06,57.5,23.16l-16.17,16.44c-11.07-10.7-25.94-16.58-41.33-16.35-16.15-.2-31.64,6.39-42.7,18.17-11.48,11.39-17.82,26.98-17.53,43.15-.13,15.98,6.19,31.35,17.53,42.61,23.39,23.31,61.1,23.76,85.03,1,7.13-7.8,11.5-17.73,12.45-28.25h-54.51v-23.26h77.13c.76,4.68,1.06,9.43.91,14.17.97,19.83-6.22,39.2-19.89,53.6-15.22,15.84-36.46,24.46-58.41,23.71ZM649.39,225.42c-21.51,20.61-55.44,20.61-76.94,0-10.42-10.1-16.12-24.11-15.72-38.61-.39-14.5,5.31-28.5,15.72-38.61,21.52-20.57,55.42-20.57,76.94,0,10.41,10.11,16.11,24.11,15.72,38.61.38,14.52-5.36,28.52-15.81,38.61h.09ZM589.43,210.25c11.11,11.87,29.74,12.48,41.6,1.37.47-.44.93-.9,1.37-1.37,6.06-6.27,9.34-14.72,9.08-23.44.27-8.75-3.01-17.23-9.08-23.53-11.42-11.92-30.34-12.32-42.26-.89-.3.29-.6.59-.89.89-6.08,6.3-9.35,14.78-9.08,23.53-.23,8.73,3.08,17.18,9.18,23.44h.09ZM767.67,225.42c-21.51,20.61-55.44,20.61-76.94,0-10.42-10.1-16.12-24.11-15.72-38.61-.39-14.5,5.31-28.5,15.72-38.61,21.51-20.61,55.44-20.61,76.94,0,10.41,10.11,16.11,24.11,15.72,38.61.4,14.5-5.3,28.51-15.72,38.61ZM707.71,210.25c11.11,11.87,29.74,12.48,41.6,1.37.47-.44.93-.9,1.37-1.37,6.06-6.27,9.34-14.72,9.08-23.44.27-8.75-3.01-17.23-9.08-23.53-11.42-11.92-30.34-12.32-42.26-.89-.3.29-.6.59-.89.89-6.08,6.3-9.35,14.78-9.08,23.53-.23,8.73,3.08,17.18,9.18,23.44h.09ZM845.43,289.37c-10.89.35-21.57-3.05-30.25-9.63-7.71-5.8-13.78-13.5-17.62-22.35l20.71-8.63c2.25,5.29,5.78,9.94,10.27,13.54,4.8,3.87,10.82,5.9,16.99,5.72,7.91.48,15.63-2.5,21.17-8.18,5.47-6.6,8.18-15.07,7.54-23.62v-7.81h-.82c-7.02,8.34-17.55,12.88-28.43,12.26-13.79.04-26.97-5.69-36.34-15.81-10.16-10.03-15.78-23.79-15.53-38.06-.25-14.36,5.36-28.2,15.53-38.34,9.35-10.16,22.53-15.93,36.34-15.9,5.78-.01,11.49,1.26,16.72,3.72,4.52,1.97,8.55,4.92,11.81,8.63h.82v-8.63h22.53v96.75c1.2,15.47-4.03,30.75-14.44,42.24-9.92,9.49-23.25,14.57-36.97,14.08ZM847.06,219.61c7.85.17,15.38-3.16,20.53-9.08,5.6-6.42,8.56-14.74,8.27-23.26.34-8.66-2.62-17.13-8.27-23.71-5.15-5.94-12.67-9.27-20.53-9.08-8.06-.17-15.81,3.14-21.26,9.08-6.01,6.34-9.27,14.8-9.08,23.53-.19,8.65,3.08,17.02,9.08,23.26,5.43,6,13.17,9.37,21.26,9.27ZM936.91,78.8v158.79h-23.71V78.8h23.71ZM1001.95,240.86c-14.35.37-28.21-5.26-38.24-15.53-10.18-10.2-15.73-24.12-15.35-38.52-.54-14.43,4.8-28.47,14.81-38.88,9.44-9.95,22.63-15.46,36.34-15.17,6.23-.07,12.42,1.14,18.17,3.54,5.18,2.09,9.9,5.18,13.9,9.08,3.43,3.31,6.48,7,9.08,10.99,2.11,3.37,3.9,6.93,5.36,10.63l2.45,6.18-72.67,29.89c4.5,10.34,14.9,16.84,26.16,16.35,10.89.03,21-5.66,26.62-14.99l18.17,12.26c-4.64,6.63-10.57,12.26-17.44,16.53-8.17,5.16-17.68,7.82-27.34,7.63ZM971.61,185.18l48.33-20.08c-1.49-3.54-4.15-6.46-7.54-8.27-3.79-2.14-8.09-3.24-12.45-3.18-7.39.19-14.41,3.29-19.53,8.63-6.2,5.94-9.43,14.33-8.81,22.89Z"/>
    <path class="cls-9" d="M1172.64,240.86c-41.33.71-75.42-32.22-76.14-73.55-.02-1.01-.01-2.02,0-3.03-.96-41.33,31.77-75.61,73.1-76.57,1.01-.02,2.02-.03,3.03,0,20.68-.65,40.51,8.19,53.87,23.98l-13.08,12.72c-9.82-12.35-24.94-19.27-40.7-18.62-15.11-.34-29.71,5.5-40.43,16.17-11.14,11.2-17.1,26.55-16.44,42.33-.66,15.79,5.3,31.13,16.44,42.33,10.71,10.67,25.31,16.51,40.43,16.17,17.59.2,34.31-7.63,45.42-21.26l13.08,13.08c-6.85,8.19-15.45,14.74-25.16,19.17-10.47,4.83-21.9,7.26-33.43,7.09Z"/>
    <path class="cls-9" d="M1266.39,237.59h-18.8V90.88h18.8v146.71Z"/>
    <path class="cls-9" d="M1297.1,149.29c20.51-20.37,53.62-20.37,74.13,0,9.73,10.28,14.96,24.01,14.53,38.15.43,14.15-4.8,27.88-14.53,38.15-20.51,20.37-53.62,20.37-74.13,0-9.73-10.28-14.96-24.01-14.53-38.15-.43-14.15,4.8-27.88,14.53-38.15ZM1311.09,213.79c12.03,12.72,32.1,13.27,44.82,1.24.42-.4.84-.81,1.24-1.24,6.64-7.12,10.14-16.62,9.72-26.34.42-9.73-3.08-19.22-9.72-26.34-12.03-12.72-32.1-13.27-44.82-1.24-.42.4-.84.81-1.24,1.24-6.64,7.12-10.14,16.62-9.72,26.34-.37,9.71,3.16,19.17,9.81,26.25l-.09.09Z"/>
    <path class="cls-9" d="M1489.96,237.59h-18.17v-13.9h-.55c-3.23,5.28-7.81,9.61-13.26,12.54-5.66,3.28-12.08,5-18.62,5-10.76.74-21.26-3.48-28.52-11.45-6.88-8.7-10.34-19.63-9.72-30.7v-61.77h18.8v58.32c0,18.71,8.27,28.07,24.8,28.07,7.45.23,14.56-3.15,19.08-9.08,4.87-6.18,7.47-13.84,7.36-21.71v-55.6h18.8v100.29Z"/>
    <path class="cls-9" d="M1553.82,240.86c-12.91.04-25.19-5.57-33.61-15.35-9.42-10.4-14.46-24.04-14.08-38.06-.38-14.03,4.66-27.66,14.08-38.06,8.42-9.79,20.7-15.4,33.61-15.35,7.15-.11,14.21,1.57,20.53,4.91,5.56,2.8,10.26,7.03,13.63,12.26h.82l-.82-13.9v-46.42h18.8v146.71h-18.17v-13.9h-.82c-3.36,5.23-8.07,9.47-13.63,12.26-6.27,3.3-13.26,4.99-20.35,4.91ZM1556.91,223.69c8.6.13,16.84-3.45,22.62-9.81,6.39-7.27,9.65-16.77,9.08-26.44.57-9.66-2.7-19.16-9.08-26.44-11.41-12.54-30.83-13.46-43.38-2.05-.71.65-1.4,1.33-2.05,2.05-6.41,7.23-9.68,16.7-9.08,26.34-.59,9.64,2.68,19.12,9.08,26.34,5.79,6.48,14.11,10.12,22.8,9.99Z"/>
  </g>
  <path d="M 2346.49 112.776 C 2341.93 112.776 2337.92 111.195 2334.57 108.025 C 2331.38 104.707 2329.77 100.787 2329.77 96.259 C 2329.77 91.736 2331.38 87.888 2334.57 84.721 C 2337.92 81.556 2341.93 79.972 2346.49 79.972 C 2351.08 79.972 2355 81.556 2358.21 84.721 C 2361.57 87.888 2363.24 91.736 2363.24 96.259 C 2363.24 100.787 2361.57 104.707 2358.21 108.025 C 2355 111.195 2351.08 112.776 2346.49 112.776 Z M 2334.12 245.137 L 2334.12 129.747 L 2358.89 129.747 L 2358.89 245.137 L 2334.12 245.137 Z" style="stroke-width: 1px; fill: rgba(0, 0, 0, 0.8);"/>
  <path d="M 2211.88 245.137 L 2211.88 129.747 L 2235.24 129.747 L 2235.24 145.587 L 2236.64 145.587 C 2240.01 140.004 2244.98 135.401 2251.53 131.781 C 2258.28 128.01 2265.6 126.128 2273.54 126.128 C 2287.94 126.128 2298.71 130.353 2305.9 138.796 C 2313.08 147.245 2316.67 158.405 2316.67 172.282 L 2316.67 245.137 L 2292.14 245.137 L 2292.14 175.449 C 2292.14 166.099 2289.79 159.309 2284.99 155.087 C 2280.28 150.712 2274.1 148.528 2266.43 148.528 C 2260.49 148.528 2255.29 150.184 2250.85 153.503 C 2246.44 156.67 2242.89 160.893 2240.32 166.173 C 2237.85 171.454 2236.64 177.108 2236.64 183.142 L 2236.64 245.137 L 2211.88 245.137 Z" style="stroke-width: 1px; fill: rgba(0, 0, 0, 0.8);"/>
  <path d="M 2181.38 112.776 C 2176.78 112.776 2172.82 111.195 2169.47 108.025 C 2166.24 104.707 2164.64 100.787 2164.64 96.259 C 2164.64 91.736 2166.24 87.888 2169.47 84.721 C 2172.82 81.556 2176.78 79.972 2181.38 79.972 C 2185.97 79.972 2189.86 81.556 2193.07 84.721 C 2196.43 87.888 2198.11 91.736 2198.11 96.259 C 2198.11 100.787 2196.43 104.707 2193.07 108.025 C 2189.86 111.195 2185.97 112.776 2181.38 112.776 Z M 2168.99 245.137 L 2168.99 129.747 L 2193.74 129.747 L 2193.74 245.137 L 2168.99 245.137 Z" style="stroke-width: 1px; fill: rgba(0, 0, 0, 0.8);"/>
  <path d="M 1975.33 245.137 L 1975.33 129.747 L 1998.71 129.747 L 1998.71 145.587 L 2000.05 145.587 C 2003.46 140.004 2008.32 135.401 2014.77 131.781 C 2021.18 128.01 2028.3 126.128 2036.09 126.128 C 2044.78 126.128 2052.22 128.161 2058.34 132.234 C 2064.44 136.308 2068.81 141.436 2071.38 147.621 C 2075.22 141.585 2080.41 136.534 2087.01 132.464 C 2093.54 128.24 2101.59 126.128 2111.07 126.128 C 2124.84 126.128 2135.08 130.274 2141.8 138.57 C 2148.52 146.717 2151.87 157.576 2151.87 171.152 L 2151.87 245.137 L 2127.36 245.137 L 2127.36 175.224 C 2127.36 166.021 2125.29 159.309 2121.14 155.087 C 2117.18 150.712 2111.61 148.528 2104.43 148.528 C 2098.76 148.528 2093.77 150.108 2089.51 153.277 C 2085.22 156.293 2081.86 160.44 2079.41 165.723 C 2077.12 171.001 2075.99 176.883 2075.99 183.367 L 2075.99 245.137 L 2051.45 245.137 L 2051.45 175.224 C 2051.45 166.021 2049.37 159.309 2045.27 155.087 C 2041.15 150.712 2035.32 148.528 2027.83 148.528 C 2022.31 148.528 2017.52 150.108 2013.41 153.277 C 2009.26 156.444 2005.97 160.669 2003.52 165.947 C 2001.24 171.225 2000.05 177.108 2000.05 183.596 L 2000.05 245.137 L 1975.33 245.137 Z" style="stroke-width: 1px; fill: rgba(0, 0, 0, 0.8);"/>
  <path d="M 1906.01 248.756 C 1894.55 248.756 1884.33 246.118 1875.28 240.835 C 1866.27 235.557 1859.18 228.317 1853.98 219.117 C 1848.93 209.914 1846.4 199.431 1846.4 187.669 C 1846.4 176.655 1848.86 166.474 1853.74 157.123 C 1858.63 147.772 1865.45 140.304 1874.16 134.723 C 1883.02 128.991 1893.19 126.128 1904.63 126.128 C 1916.72 126.128 1926.96 128.688 1935.37 133.819 C 1943.91 138.947 1950.44 145.962 1954.86 154.859 C 1959.29 163.761 1961.51 173.791 1961.51 184.952 C 1961.51 186.611 1961.45 188.119 1961.29 189.478 C 1961.29 190.836 1961.21 191.89 1961.03 192.645 L 1870.71 192.645 C 1871.95 204.108 1876.01 212.707 1882.84 218.44 C 1889.9 224.172 1897.85 227.034 1906.7 227.034 C 1914.62 227.034 1921.22 225.299 1926.44 221.832 C 1931.63 218.21 1935.75 213.762 1938.81 208.483 L 1959.23 218.21 C 1954.16 227.26 1947.28 234.654 1938.59 240.387 C 1929.86 245.966 1918.99 248.756 1906.01 248.756 Z M 1904.88 146.942 C 1896.62 146.942 1889.61 149.43 1883.78 154.41 C 1877.96 159.386 1874.09 166.021 1872.11 174.318 L 1936.95 174.318 C 1936.66 170.397 1935.37 166.323 1933.08 162.102 C 1930.8 157.878 1927.26 154.332 1922.54 151.47 C 1917.92 148.449 1912.05 146.942 1904.88 146.942 Z" style="stroke-width: 1px; fill: rgba(0, 0, 0, 0.8);"/>
  <path d="M 1754.58 248.756 C 1742.78 248.756 1731.72 246.645 1721.34 242.42 C 1711.07 238.197 1702 232.313 1694.03 224.772 C 1686.08 217.078 1679.81 208.103 1675.23 197.849 C 1670.8 187.44 1668.58 176.204 1668.58 164.137 C 1668.58 152.069 1670.8 140.908 1675.23 130.65 C 1679.81 120.245 1686.01 111.269 1693.79 103.726 C 1701.76 96.035 1710.92 90.078 1721.34 85.853 C 1731.72 81.629 1742.78 79.518 1754.58 79.518 C 1767.1 79.518 1778.64 81.707 1789.19 86.079 C 1799.91 90.454 1808.85 96.563 1816.03 104.405 L 1798.61 121.377 C 1793.25 115.494 1786.82 110.967 1779.32 107.8 C 1771.99 104.635 1763.75 103.049 1754.58 103.049 C 1743.7 103.049 1733.69 105.616 1724.53 110.741 C 1715.36 115.718 1707.94 122.809 1702.3 132.009 C 1696.77 141.059 1694.03 151.767 1694.03 164.137 C 1694.03 176.505 1696.87 187.29 1702.54 196.492 C 1708.18 205.541 1715.61 212.631 1724.78 217.758 C 1733.91 222.737 1743.93 225.225 1754.81 225.225 C 1764.71 225.225 1773.74 223.415 1781.84 219.795 C 1789.95 216.026 1796.45 210.747 1801.35 203.958 C 1806.4 197.171 1809.43 189.025 1810.51 179.522 L 1754.33 179.522 L 1754.33 157.576 L 1834.11 157.576 C 1835.06 161.65 1835.5 165.947 1835.5 170.474 L 1835.5 170.7 C 1835.5 186.386 1832.02 200.112 1824.95 211.875 C 1818.06 223.489 1808.54 232.542 1796.31 239.025 C 1784.04 245.513 1770.14 248.756 1754.58 248.756 Z" style="stroke-width: 1px; fill: rgba(0, 0, 0, 0.8);"/>
  <path d="M 1590.48 152.976 C 1573.7 145.75 1559.02 135.835 1546.43 123.246 C 1533.84 110.658 1523.91 95.961 1516.68 79.176 C 1513.93 72.742 1511.67 66.127 1509.95 59.344 C 1509.44 57.128 1507.4 55.567 1505.13 55.567 C 1502.84 55.567 1500.87 57.128 1500.34 59.344 C 1498.61 66.127 1496.36 72.734 1493.62 79.176 C 1486.37 95.961 1476.46 110.658 1463.86 123.246 C 1451.25 135.835 1436.59 145.75 1419.81 152.976 C 1413.35 155.75 1406.74 157.979 1399.98 159.688 C 1397.73 160.246 1396.2 162.233 1396.2 164.52 C 1396.2 166.803 1397.73 168.79 1399.98 169.348 C 1406.74 171.058 1413.35 173.287 1419.81 176.063 C 1436.59 183.29 1451.25 193.204 1463.86 205.794 C 1476.46 218.383 1486.37 233.076 1493.62 249.866 C 1496.36 256.298 1498.61 262.909 1500.34 269.699 C 1500.87 271.912 1502.84 273.475 1505.13 273.475 C 1507.4 273.475 1509.44 271.912 1509.95 269.699 C 1511.67 262.909 1513.93 256.305 1516.68 249.866 C 1523.91 233.076 1533.84 218.388 1546.43 205.794 C 1559.02 193.204 1573.7 183.29 1590.48 176.063 C 1596.91 173.287 1603.54 171.058 1610.33 169.348 C 1612.55 168.79 1614.1 166.803 1614.1 164.52 C 1614.1 162.233 1612.55 160.246 1610.33 159.688 C 1603.54 157.979 1596.91 155.75 1590.48 152.976 Z" fill="white" style="stroke-width: 1px;"/>
  <mask id="mask0_10859_4895" style="mask-type:alpha" maskUnits="userSpaceOnUse" x="0" y="0" width="65" height="65">
    <path d="M32.4473 0C33.1278 0 33.7197 0.464783 33.8857 1.125C34.3947 3.14441 35.0586 5.11414 35.8848 7.03027C38.0369 12.0299 40.99 16.406 44.7393 20.1553C48.4903 23.9045 52.8647 26.8576 57.8643 29.0098C59.7821 29.8359 61.7502 30.4998 63.7695 31.0088C64.4297 31.1748 64.8944 31.7668 64.8945 32.4473C64.8945 33.1278 64.4298 33.7198 63.7695 33.8857C61.7502 34.3947 59.7803 35.0586 57.8643 35.8848C52.8646 38.037 48.4885 40.99 44.7393 44.7393C40.99 48.4904 38.037 52.8646 35.8848 57.8643C35.0586 59.7822 34.3947 61.7502 33.8857 63.7695C33.7198 64.4298 33.1278 64.8945 32.4473 64.8945C31.7668 64.8944 31.1748 64.4297 31.0088 63.7695C30.4998 61.7502 29.8359 59.7803 29.0098 57.8643C26.8576 52.8647 23.9063 48.4885 20.1553 44.7393C16.4041 40.99 12.0299 38.0369 7.03027 35.8848C5.1123 35.0586 3.14441 34.3947 1.125 33.8857C0.464783 33.7197 0 33.1278 0 32.4473C8.67651e-05 31.7668 0.464826 31.1748 1.125 31.0088C3.14442 30.4998 5.11413 29.836 7.03027 29.0098C12.03 26.8575 16.406 23.9046 20.1553 20.1553C23.9046 16.406 26.8575 12.03 29.0098 7.03027C29.836 5.11229 30.4998 3.14442 31.0088 1.125C31.1748 0.464826 31.7668 8.67651e-05 32.4473 0Z" fill="black"/>
    <path d="M32.4473 0C33.1278 0 33.7197 0.464783 33.8857 1.125C34.3947 3.14441 35.0586 5.11414 35.8848 7.03027C38.0369 12.0299 40.99 16.406 44.7393 20.1553C48.4903 23.9045 52.8647 26.8576 57.8643 29.0098C59.7821 29.8359 61.7502 30.4998 63.7695 31.0088C64.4297 31.1748 64.8944 31.7668 64.8945 32.4473C64.8945 33.1278 64.4298 33.7198 63.7695 33.8857C61.7502 34.3947 59.7803 35.0586 57.8643 35.8848C52.8646 38.037 48.4885 40.99 44.7393 44.7393C40.99 48.4904 38.037 52.8646 35.8848 57.8643C35.0586 59.7822 34.3947 61.7502 33.8857 63.7695C33.7198 64.4298 33.1278 64.8945 32.4473 64.8945C31.7668 64.8944 31.1748 64.4297 31.0088 63.7695C30.4998 61.7502 29.8359 59.7803 29.0098 57.8643C26.8576 52.8647 23.9063 48.4885 20.1553 44.7393C16.4041 40.99 12.0299 38.0369 7.03027 35.8848C5.1123 35.0586 3.14441 34.3947 1.125 33.8857C0.464783 33.7197 0 33.1278 0 32.4473C8.67651e-05 31.7668 0.464826 31.1748 1.125 31.0088C3.14442 30.4998 5.11413 29.836 7.03027 29.0098C12.03 26.8575 16.406 23.9046 20.1553 20.1553C23.9046 16.406 26.8575 12.03 29.0098 7.03027C29.836 5.11229 30.4998 3.14442 31.0088 1.125C31.1748 0.464826 31.7668 8.67651e-05 32.4473 0Z" fill="url(#paint0_linear_10859_4895)"/>
  </mask>
  <g mask="url(#mask0_10859_4895)" transform="matrix(3.357788, 0, 0, 3.357788, 1396.191162, 55.564274)" style="">
    <g filter="url(#filter0_f_10859_4895)">
      <ellipse cx="14.4072" cy="16.9504" rx="14.4072" ry="16.9504" transform="matrix(0.942341 0.334654 -0.334652 0.942342 -8.09058 13.9664)" fill="#FFE432"/>
    </g>
    <g filter="url(#filter1_f_10859_4895)">
      <ellipse cx="27.4329" cy="2.5869" rx="18.6516" ry="19.0617" fill="#FC413D"/>
    </g>
    <g filter="url(#filter2_f_10859_4895)">
      <ellipse cx="18.9512" cy="57.3856" rx="19.4934" ry="25.2529" transform="rotate(-2.79865 18.9512 57.3856)" fill="#00B95C"/>
    </g>
    <g filter="url(#filter3_f_10859_4895)">
      <ellipse cx="18.9512" cy="57.3856" rx="19.4934" ry="25.2529" transform="rotate(-2.79865 18.9512 57.3856)" fill="#00B95C"/>
    </g>
    <g filter="url(#filter4_f_10859_4895)">
      <ellipse cx="20.0204" cy="56.2114" rx="19.1065" ry="21.0345" transform="rotate(-31.3178 20.0204 56.2114)" fill="#00B95C"/>
    </g>
    <g filter="url(#filter5_f_10859_4895)">
      <ellipse cx="67.391" cy="25.3267" rx="18.3463" ry="17.6668" fill="#3186FF"/>
    </g>
    <g filter="url(#filter6_f_10859_4895)">
      <ellipse cx="21.222" cy="22.3842" rx="21.222" ry="22.3842" transform="matrix(0.795985 0.605316 -0.605314 0.795987 -2.85815 -7.53723)" fill="#FBBC04"/>
    </g>
    <g filter="url(#filter7_f_10859_4895)">
      <ellipse cx="24.4687" cy="22.6039" rx="24.4687" ry="22.6039" transform="matrix(0.824033 0.566542 -0.566539 0.824035 40.1882 0.315002)" fill="#3186FF"/>
    </g>
    <g filter="url(#filter8_f_10859_4895)">
      <path d="M54.9838 -2.33625C57.8168 1.51558 54.1765 9.00477 46.8529 14.3913C39.5293 19.7779 31.2957 21.022 28.4627 17.1702C25.6296 13.3184 29.27 5.82919 36.5935 0.442635C43.9171 -4.94392 52.1507 -6.18807 54.9838 -2.33625Z" fill="#749BFF"/>
    </g>
    <g filter="url(#filter9_f_10859_4895)">
      <ellipse cx="19.9023" cy="3.35597" rx="27.9712" ry="17.3877" transform="rotate(-42.848 19.9023 3.35597)" fill="#FC413D"/>
    </g>
    <g filter="url(#filter10_f_10859_4895)">
      <ellipse cx="13.5831" cy="46.7501" rx="14.9887" ry="8.71667" transform="rotate(35.592 13.5831 46.7501)" fill="#FFEE48"/>
    </g>
  </g>
</svg>