<?xml version="1.0" encoding="UTF-8"?>
<svg id="Layer_1" xmlns="http://www.w3.org/2000/svg" viewBox="0 0 1000 184.94">
    <path
        d="m196.37,73.11l-31.03-53.74C158.42,7.39,145.64,0,131.8,0h-62.05C55.92,0,43.13,7.39,36.21,19.37L5.19,73.11c-6.92,11.98-6.92,26.74,0,38.72l31.02,53.74c6.92,11.98,19.71,19.37,33.54,19.37h62.05c13.84,0,26.62-7.39,33.54-19.37l31.03-53.74c6.92-11.98,6.92-26.74,0-38.72Zm-95.61,94.63c-16.48,0-31.78-5.29-44.25-14.35-2.12-1.53-4.24-3.3-6.36-5.18-3.53-3.18-6.71-6.71-9.53-10.48l10.59-9.65,13.54-12.47,10.71-9.89,40.71-37.3c-.58-.47-1.17-.71-1.88-1.18-.7-.24-1.29-.59-2-.94-.47-.24-.94-.35-1.41-.59-.59-.12-1.06-.35-1.65-.47-.35-.12-.71-.35-1.06-.35-1.76-.47-3.53-.83-5.29-.95h-2.12c-15.66,0-28.48,12.6-28.6,28.25l-12.59,11.53c-1.06-3.65-1.53-7.41-1.53-11.29,0-23.54,19.18-42.72,42.72-42.72,6.82,0,13.3,1.64,19.06,4.47,6.83,3.41,12.59,8.59,16.71,14.83l-10.71,9.76-40.83,37.55c2.47,1.64,5.06,2.94,8,3.64,1.65.47,3.3.83,5.06.95.94.23,1.77.23,2.71.23,15.77,0,28.59-12.95,28.59-28.71v-.24l12.48-11.42c1.18,3.77,1.76,7.54,1.76,11.66,0,23.65-19.18,42.83-42.83,42.83-6.95,0-13.54-1.64-19.3-4.7-2.59-1.3-4.95-2.71-7.18-4.48l-13.54,12.48c2,1.76,4.24,3.41,6.48,4.94,9.65,6.36,21.18,10.12,33.54,10.12,33.77,0,61.19-27.42,61.19-61.19,0-8.95-1.88-17.42-5.53-25.07-9.41-21.18-30.83-36.01-55.66-36.01-33.66,0-61.08,27.42-61.08,61.08,0,8.82,1.76,17.18,5.29,24.71l-10.94,10c-5.53-10.35-8.59-22.12-8.59-34.71,0-41.43,33.77-75.21,75.32-75.21s75.32,33.78,75.32,75.21-33.78,75.31-75.32,75.31Z" />
    <path
        d="m361.82,72.05c-2.73-7.08-6.54-13.39-11.44-18.95-4.9-5.55-10.81-10.04-17.72-13.47-6.92-3.43-14.57-5.15-22.95-5.15s-15.74,1.61-22.71,4.82c-6.97,3.21-12.98,7.54-18.05,12.99-5.06,5.44-9.04,11.7-11.92,18.78-2.89,7.08-4.33,14.49-4.33,22.22s1.36,14.65,4.09,21.72c2.72,7.08,6.55,13.37,11.51,18.87s10.89,9.91,17.81,13.23c6.91,3.32,14.61,4.98,23.11,4.98s15.73-1.6,22.7-4.82c6.97-3.21,12.96-7.51,17.97-12.9,5.01-5.39,8.93-11.6,11.76-18.62,2.83-7.03,4.25-14.4,4.25-22.14,0-7.29-1.36-14.48-4.08-21.56Zm-20.83,35.37c-1.47,4.63-3.65,8.79-6.53,12.49-2.89,3.71-6.43,6.67-10.62,8.9-4.2,2.24-9.01,3.35-14.46,3.35s-10.1-1.08-14.29-3.26c-4.19-2.18-7.73-5.07-10.62-8.66-2.89-3.59-5.09-7.73-6.61-12.42-1.53-4.68-2.29-9.52-2.29-14.53s.73-9.5,2.2-14.13c1.48-4.63,3.62-8.77,6.46-12.42,2.83-3.64,6.37-6.58,10.61-8.82,4.25-2.23,9.1-3.35,14.54-3.35s9.94,1.07,14.13,3.19,7.73,4.98,10.62,8.58c2.88,3.59,5.12,7.73,6.7,12.41,1.57,4.68,2.36,9.53,2.36,14.54s-.73,9.5-2.2,14.13Z" />
    <path
        d="m459.58,85.61c-.71-4.03-1.99-7.62-3.84-10.78s-4.47-5.72-7.84-7.68c-3.38-1.96-7.74-2.94-13.07-2.94-7.51,0-14.27,1.53-20.25,4.58-5.99,3.04-10.57,7.29-13.73,12.74v-15.85h-19.76v85.59h21.89v-49.98c.76-2.61,1.96-5.01,3.59-7.19,1.64-2.17,3.46-4.05,5.47-5.63,2.02-1.58,4.17-2.8,6.46-3.68,2.28-.87,4.51-1.3,6.69-1.3,4.25,0,7.57,1.58,9.97,4.73,2.39,3.16,3.59,8.17,3.59,15.03v48.02h21.89v-53.41c0-4.14-.36-8.22-1.06-12.25Z" />
    <path
        d="m561.18,91.49c-2.02-5.33-4.96-10.02-8.83-14.05-3.86-4.02-8.55-7.24-14.04-9.63-5.5-2.4-11.74-3.6-18.71-3.6s-13.25,1.2-18.86,3.6c-5.61,2.39-10.37,5.63-14.3,9.71-3.92,4.09-6.91,8.82-8.98,14.22-2.07,5.39-3.1,11.13-3.1,17.23s1.06,11.49,3.18,16.82c2.13,5.34,5.15,10.02,9.07,14.05,3.92,4.03,8.66,7.21,14.21,9.56,5.55,2.34,11.76,3.51,18.62,3.51,9.58,0,17.83-2.1,24.75-6.29,6.91-4.19,11.95-9.56,15.11-16.09l-18.79-5.23c-1.41,3.49-4.06,6.29-7.92,8.41-3.87,2.13-7.98,3.19-12.33,3.19-2.84,0-5.56-.49-8.17-1.47-2.61-.98-4.96-2.39-7.02-4.25-2.07-1.85-3.76-4.08-5.07-6.69-1.3-2.62-2.12-5.61-2.45-8.99h66.16c.21-.87.35-1.96.41-3.27.05-1.3.08-2.66.08-4.08,0-5.77-1.01-11.32-3.02-16.66Zm-63.95,9.8c.21-3.16.95-6.04,2.2-8.66,1.25-2.61,2.86-4.84,4.82-6.69,1.96-1.85,4.22-3.3,6.78-4.33,2.56-1.04,5.31-1.55,8.25-1.55,5.99,0,11.08,1.93,15.27,5.79,4.19,3.87,6.56,9.02,7.11,15.44h-44.43Z" />
    <path
        d="m601.44,131.51v-30.22h48.84v-18.29h-48.84v-27.94h56.52v-19.76h-79.06v115.97h80.53v-19.76h-57.99Z" />
    <path
        d="m719.54,129.55c-1.31.55-3.05,1.2-5.23,1.96s-4.41,1.14-6.69,1.14-4.23-.62-5.8-1.87c-1.58-1.26-2.37-3.41-2.37-6.46v-41.81h17.97v-16.83h-17.97v-27.77h-21.89v27.77h-11.27v16.83h11.27v49.16c0,3.82.6,7.06,1.8,9.72,1.19,2.67,2.8,4.85,4.82,6.54,2.01,1.68,4.35,2.91,7.02,3.67,2.67.76,5.53,1.14,8.58,1.14,4.68,0,9.14-.65,13.39-1.96,4.25-1.3,7.84-2.61,10.78-3.92l-4.41-17.31Z" />
    <path
        d="m813.79,85.45c-.76-4.03-2.12-7.63-4.08-10.78-1.97-3.16-4.69-5.69-8.17-7.6-3.49-1.9-8.01-2.86-13.56-2.86-6.53,0-12.5,1.5-17.89,4.49-5.39,3-9.66,7.27-12.82,12.83v-49.5h-21.89v119.24h21.89v-49.98c.76-2.61,1.96-5.01,3.6-7.19,1.63-2.17,3.43-4.05,5.39-5.63,1.96-1.58,4.02-2.8,6.2-3.68,2.18-.87,4.25-1.3,6.21-1.3,4.57,0,8.11,1.6,10.62,4.81,2.5,3.22,3.75,8.2,3.75,14.95v48.02h21.89v-53.41c0-4.25-.38-8.38-1.14-12.41Z" />
    <path
        d="m915.22,91.65c-2.06-5.33-5.03-10.04-8.9-14.13-3.86-4.08-8.55-7.32-14.05-9.71-5.5-2.4-11.73-3.6-18.7-3.6s-13.23,1.2-18.78,3.6c-5.56,2.39-10.27,5.63-14.13,9.71-3.87,4.09-6.84,8.8-8.91,14.13-2.06,5.34-3.1,11-3.1,16.99s1.04,11.49,3.1,16.83c2.07,5.33,5.04,10.04,8.91,14.12,3.86,4.09,8.57,7.33,14.13,9.72,5.55,2.4,11.81,3.6,18.78,3.6s13.23-1.2,18.79-3.6c5.55-2.39,10.23-5.63,14.04-9.72,3.81-4.08,6.76-8.79,8.82-14.12,2.07-5.34,3.11-10.95,3.11-16.83s-1.04-11.65-3.11-16.99Zm-20.98,27.28c-1.15,3.16-2.73,5.88-4.74,8.17-2.02,2.29-4.39,4.06-7.11,5.31-2.72,1.25-5.66,1.88-8.82,1.88s-6.1-.63-8.82-1.88c-2.72-1.25-5.09-3.02-7.1-5.31-2.02-2.29-3.6-4.98-4.74-8.09-1.14-3.1-1.72-6.55-1.72-10.37s.58-7.13,1.72-10.29c1.14-3.16,2.72-5.88,4.74-8.17,2.01-2.28,4.38-4.08,7.1-5.39,2.72-1.3,5.66-1.96,8.82-1.96s6.1.63,8.82,1.88c2.72,1.25,5.09,3.02,7.11,5.31,2.01,2.29,3.59,5.01,4.74,8.17,1.14,3.16,1.71,6.59,1.71,10.29s-.57,7.3-1.71,10.45Z" />
    <path
        d="m998.12,116.56c-1.25-2.55-3.21-4.81-5.88-6.77-2.67-1.97-6.1-3.71-10.29-5.23-4.19-1.53-9.23-3.05-15.11-4.58-3.16-.76-5.8-1.49-7.92-2.2-2.13-.71-3.84-1.44-5.15-2.21-1.31-.76-2.26-1.63-2.86-2.61-.6-.98-.9-2.23-.9-3.76,0-3.37,1.26-5.82,3.76-7.35,2.51-1.52,5.61-2.28,9.31-2.28,4.03,0,8.09.76,12.17,2.28,4.09,1.53,8.3,3.92,12.66,7.19l8.82-13.23c-4.68-4.14-9.83-7.13-15.43-8.99-5.61-1.85-11.63-2.77-18.05-2.77-4.8,0-9.23.65-13.32,1.96-4.08,1.31-7.65,3.18-10.7,5.63s-5.41,5.42-7.1,8.91c-1.69,3.48-2.53,7.4-2.53,11.76,0,3.26.54,6.07,1.63,8.41,1.09,2.34,2.83,4.41,5.23,6.21,2.39,1.79,5.55,3.4,9.47,4.82,3.92,1.41,8.66,2.88,14.21,4.41,6.64,1.85,11.44,3.48,14.38,4.9,2.94,1.41,4.41,3.65,4.41,6.69s-1.26,5.39-3.76,7.03c-2.51,1.63-5.94,2.45-10.29,2.45-4.9,0-9.83-.96-14.78-2.86-4.96-1.91-10.05-4.71-15.28-8.41l-8.16,13.72c4.9,4.24,10.78,7.51,17.64,9.8,6.86,2.29,13.88,3.43,21.07,3.43,10.67,0,19.11-2.42,25.32-7.27,6.21-4.85,9.31-11.46,9.31-19.85,0-3.59-.63-6.67-1.88-9.23Z" />
</svg>