<svg width="3518" height="1530" viewBox="0 0 3518 1530" fill="none" xmlns="http://www.w3.org/2000/svg">
<path d="M913.37 496.139H902.81L895.707 487.246L913.37 496.139Z" fill="#F7F0C6"/>
<path d="M913.996 496.278C913.996 498.666 906.259 500.622 902.834 500.167L898.775 499.826L897.951 498.143C897.158 496.505 898.458 494.003 897.57 492.389C896.682 490.592 894.114 489.728 891.894 488.818L877.402 482.586L898.3 484.633C904.864 485.543 911.903 489.477 913.806 494.004C914.313 495.095 914.409 495.914 914.028 496.278H913.996ZM912.76 496.005C907.591 494.231 902.866 493.458 898.204 493.23C895.319 493.048 894.241 491.82 893.131 489.864L899.536 485.679C899.536 487.521 899.251 489.546 900.963 491.001C902.422 492.366 906.1 492.821 907.686 494.14L902.803 492.116C903.69 491.888 904.039 492.502 905.276 493.412C906.576 494.39 908.891 495.482 912.76 496.005Z" fill="black"/>
<path d="M3426.48 936.171L2810.41 980.09L3158.24 1228.89L2775.56 1131.2L2447.23 1172.28L2505.01 1213.6L2377.37 1181.03L2284.62 1192.63L2015.43 1407.34L2002.55 1136.98C2000.68 1137.62 1998.78 1138.25 1996.91 1138.89C1977.47 1145.51 1961.42 1153.86 1949.47 1163.41C1937.51 1172.98 1929.62 1183.74 1926.45 1195.23L1873.59 1387.23L1843.24 1358.28C1778.93 1296.89 1734.57 1232.53 1710.82 1167.39L1631.38 1177.33L1362.19 1392.03L1351.88 1174.76L1079.05 1449.89L1072.32 1230.41L1069.37 1228.66L1053.42 1219.24L601.771 1465.11L744.5 1324.28L744.595 1324.19L825.711 1244.17L926.804 1144.44L915.896 1138L912.693 1136.11L901.34 1129.43L528.234 1332.53L576.149 1285.25L576.275 1285.13L796.759 1067.63L777.352 1056.17L740.726 1034.54L245.851 1010.25L560.991 921.524L14.0156 871.236L421.021 804.323L435.607 792.382L470.521 787.31L479.749 785.969L475.277 782.921L459.961 772.504L453.651 768.205L98.0169 526.276L676.291 549.93L591.687 334.156L895.696 487.247L902.799 496.14H913.359L895.696 487.247L601.739 119.906L1020.32 482.584L931.687 66.7075L1122.68 255.598L1408.3 401.115L1603.16 409.257L1716.33 199.602L1773.6 318.531L1855.42 24.2441L1960.44 402.07L2298.95 261.83L2217.55 399.136L2160.09 496.14H2342.58L2941.25 230.852L2725.39 489.203L2733.89 504.305L2746.32 526.344L3509.69 557.572L3013.29 825.452L3426.52 936.171H3426.48Z" fill="#F7F0C6"/>
<path d="M3427.12 936.217L2810.63 981.638L2811.96 978.954L3160.5 1227.25L3170.61 1234.44L3157.17 1231.03C3157.86 1230.85 2767.89 1132.82 2776.2 1133.84L2447.96 1175.26L2450.24 1170.1L2508.11 1211.35L2521.91 1221.2L2503.55 1216.54L2375.85 1184.11C2375.85 1184.11 2377.5 1184.31 2377.34 1184.29L2378.13 1184.24L2285.41 1195.93L2288.11 1194.86L2019.11 1409.68L2010.89 1416.26L2010.48 1407.43L1997.38 1137.07L2004.77 1140.3C1976.61 1149.35 1949.44 1163.39 1936.82 1184.04C1933.77 1189.11 1931.77 1194.52 1930.47 1199.96C1920.61 1236.76 1889.16 1349.84 1878.88 1387.94L1876.54 1396.51L1869.27 1389.51C1833.92 1356.28 1798.62 1322.34 1771 1285.29C1742.78 1248.38 1720.39 1209.1 1705.39 1168.37L1711.8 1171.32L1632.36 1181.29L1635.6 1180.01L1366.41 1394.72L1357.02 1402.2L1356.55 1392.15L1346.33 1174.87L1356.42 1177.06L1083.23 1452.01L1074.26 1461.06L1073.94 1449.96L1067.66 1230.48L1069.34 1232.98L1050.48 1221.79L1056.21 1221.88L604.054 1467.27L583.569 1478.39L598.695 1463.49L924.426 1143.19L924.933 1146.06L899.501 1131.02L903.085 1131.07L529.661 1333.88L516.787 1340.88L526.3 1331.51L795.047 1066.72L795.427 1068.77L739.427 1035.65C744.5 1037 245.186 1011.14 245.725 1011.66L236.846 1011.23L245.154 1008.89L560.23 920.046L560.738 923.026L13.7624 872.966L0 871.715L13.5404 869.486C13.1282 870.123 426.221 800.344 418.865 802.891L433.42 790.951L434.086 790.405L435.1 790.268L479.241 783.809L477.719 787.584L95.5122 528.256L88.0285 523.184L98.3344 523.593L676.64 546.656L671.946 550.841L587.026 335.135L583.252 325.56L594.604 331.269L898.804 484.155L899.755 484.632L900.358 485.36L907.461 494.253L902.863 492.343H913.422L910.378 499.28L892.715 490.409C890.337 489.682 598.473 123.319 596.793 122L606.306 117.269L1025.17 479.788L1014.33 483.268L925.377 67.4364L921.318 48.5133L937.015 64.0248L1128.13 252.847L1126.61 251.755L1412.29 397.204L1408.77 396.317L1603.63 404.459L1596.94 407.552L1710.09 197.897L1716.78 185.501L1722.83 198.056L1780.1 316.985L1767.01 317.622L1848.98 23.3582L1855.48 0L1861.95 23.3582L1966.75 401.207L1957.3 398.136L2295.97 258.101L2311.67 251.596L2304.56 263.559L2222.97 400.82L2222.53 401.548L2221.77 402.117C2229.22 391.813 2162.53 501.668 2165.35 497.778L2160.09 492.07L2342.58 492.206L2339.67 492.797L2938.68 227.919L2955.71 220.391L2945.4 232.695L2729.04 490.819L2729.33 488.089L2750.16 525.253L2746.51 523.388L3509.82 555.48L3518 555.822L3511.47 559.324L3014.31 826.477L3013.9 824.362L3427.15 936.286L3427.12 936.217ZM3425.88 936.104L3012.69 826.591L3009.77 825.817L3012.28 824.475L3507.92 555.867L3509.53 559.734L2746.1 529.37L2743.47 529.256L2742.46 527.482L2721.43 490.364L2720.64 488.954L2721.75 487.635L2937.09 229.056L2943.82 233.81L2345.5 499.507L2344.17 500.098H2342.58L2160.09 500.235H2151.47L2154.83 494.526L2212.16 397.499L2212.57 396.772L2213.33 396.203C2213.46 396.089 2212.13 397.5 2212.16 397.477L2293.37 260.125L2301.96 265.583L1963.61 406.029L1955.91 409.235L1954.16 402.958L1848.92 25.155H1861.88L1780.23 319.464L1775.35 337.114L1767.17 320.101L1709.9 201.172L1722.64 201.331L1609.44 410.987L1607.66 414.285L1602.75 414.08L1407.89 405.938L1405.95 405.847L1404.37 405.051C1403.67 405.051 1118.59 259.124 1117.92 259.033C1117.32 258.442 927.058 70.0747 926.424 69.4379L938.061 66.0035L1026.38 481.903L1029.74 497.71L1015.53 485.406L597.236 122.568L606.75 117.837C606.369 117.451 904.734 489.977 898.74 484.132C907.207 488.408 921.953 495.845 930.134 499.962H913.327H902.768H899.692L898.17 498.051L891.066 489.158C898.36 494.094 587.977 336.227 588.801 337.091L596.412 333.225L680.699 549.067L682.443 553.524L676.005 553.251L97.7953 529.006L100.618 524.344L481.873 784.4L486.154 787.334L480.351 788.176L436.21 794.544L437.891 793.839L423.272 805.757L422.638 806.28L421.687 806.439L14.5551 872.989L14.3015 869.486L561.213 920.001L569.585 920.774L561.721 922.98L246.518 1011.59L245.915 1008.82L740.79 1033.06L741.456 1033.08L741.963 1033.38L798.028 1066.45L799.55 1067.36L798.376 1068.52L530.073 1333.54L526.712 1331.17L899.501 1127.77L901.309 1126.79L903.085 1127.84L928.58 1142.83L930.705 1144.08L929.087 1145.69L604.752 1466.72L599.393 1462.97L1050.54 1216.63L1053.46 1215.04L1056.31 1216.7L1075.24 1227.84L1076.89 1228.8L1076.95 1230.34L1084.12 1449.83L1074.83 1447.78L1347.32 1172.46L1356.83 1162.86L1357.4 1174.64L1367.8 1391.92L1357.94 1389.35C1359.27 1388.28 1627.23 1174.58 1628.43 1173.6C1630.91 1173.6 1714.27 1162.68 1714.87 1162.82C1722.52 1184.08 1732.06 1204.98 1743.48 1225.39C1775.54 1283.66 1824.4 1335.7 1877.87 1384.94L1868.23 1386.51C1876.09 1359.69 1908.56 1239.24 1915.41 1215.65L1920.14 1198.57L1921.34 1194.3C1925.91 1177.71 1940.31 1163.02 1957.9 1152.36C1972.68 1143.21 1990 1136.8 2007.44 1131.36L2007.69 1136.89L2020.34 1407.25L2011.69 1405L2281.07 1190.41L2282.14 1189.54L2283.73 1189.34L2376.52 1177.83L2376.9 1177.78H2377.28H2378.07L2378.8 1177.96L2506.37 1210.67L2501.8 1215.86C2497.43 1212.6 2440.95 1172.3 2438.29 1170.3L2446.37 1169.3L2774.8 1128.56L2775.78 1128.45L2776.7 1128.7L3159.2 1226.77L3155.87 1230.55L2808.73 981.251L2805.43 978.885L2810.06 978.567L3425.72 936.149L3425.88 936.104Z" fill="black"/>
<path d="M479.754 785.968L470.527 787.31L435.613 792.382L459.967 772.504L475.283 782.921L479.754 785.968Z" fill="#F7F0C6"/>
<path d="M480.372 786.085C474.886 789.838 466.07 791.976 458.84 793.181C451.547 794.386 443.27 792.18 436.009 793.727L430.301 794.819L434.169 791.452C438.165 788.063 440.321 783.56 443.714 779.853C448.344 774.781 453.893 769.732 459.982 765.479C468.005 771.415 476.598 778.17 480.372 786.085ZM479.135 785.835C477.201 784.993 475.742 784.788 473.871 784.606C467.053 782.673 460.87 779.33 455.289 776.032L465.024 775.713C461.123 779.148 456.43 782.059 451.864 785.016C447.171 787.882 441.209 789.997 437.055 793.295L435.216 791.02C438.926 790.656 442.478 789.587 445.934 788.245C452.688 785.289 460.045 784.379 467.814 784.402C472.444 784.402 473.934 785.948 479.135 785.835Z" fill="black"/>
<path d="M913.37 496.139H902.81L895.707 487.246L913.37 496.139Z" fill="#F7F0C6"/>
<path d="M913.996 496.278C913.996 498.666 906.259 500.622 902.834 500.167L898.775 499.826L897.951 498.143C897.158 496.505 898.458 494.003 897.57 492.389C896.682 490.592 894.114 489.728 891.894 488.818L877.402 482.586L898.3 484.633C904.864 485.543 911.903 489.477 913.806 494.004C914.313 495.095 914.409 495.914 914.028 496.278H913.996ZM912.76 496.005C907.591 494.231 902.866 493.458 898.204 493.23C895.319 493.048 894.241 491.82 893.131 489.864L899.536 485.679C899.536 487.521 899.251 489.546 900.963 491.001C902.422 492.366 906.1 492.821 907.686 494.14L902.803 492.116C903.69 491.888 904.039 492.502 905.276 493.412C906.576 494.39 908.891 495.482 912.76 496.005Z" fill="black"/>
<path d="M1006.9 1350.5C981.437 1367.93 954.135 1383.71 925.31 1398.06C910.755 1405.07 895.47 1411.37 881.2 1418.62C852.439 1433.02 827.039 1450.55 799.165 1465.77C757.941 1489.27 715.069 1510.96 669.406 1530L668.645 1529.27C707.3 1503.46 748.682 1480.33 792.03 1458.88C820.443 1444.16 851.202 1431.84 878.759 1416.28C892.584 1408.57 905.427 1399.93 918.999 1391.97C932.571 1384.03 946.936 1376.82 961.396 1369.74C975.92 1362.72 990.633 1355.85 1006.14 1349.78L1006.9 1350.5Z" fill="black"/>
<path d="M983.241 1102.75C957.777 1120.17 930.474 1135.95 901.65 1150.31C887.094 1157.31 871.81 1163.61 857.54 1170.87C828.779 1185.26 803.379 1202.8 775.505 1218.01C734.281 1241.51 691.409 1263.21 645.745 1282.24L644.984 1281.52C683.64 1255.7 725.022 1232.57 768.37 1211.12C796.783 1196.41 827.542 1184.08 855.098 1168.52C868.924 1160.81 881.799 1152.17 895.371 1144.21C908.943 1136.27 923.308 1129.06 937.768 1121.99C952.291 1114.96 967.005 1108.09 982.511 1102.02L983.273 1102.75H983.241Z" fill="black"/>
<path d="M745.041 1324.5C746.658 1326.14 748.434 1329.21 745.675 1330.39C742.599 1331.1 739.269 1330.74 740.696 1333.96C741.996 1336.88 741.33 1339.92 736.923 1340.86C735.527 1341.22 733.783 1341.45 731.437 1341.4L730.327 1340.95C726.553 1336.58 727.283 1332.62 734.671 1331.46C736.257 1331.19 737.43 1330.74 737.62 1329.87C737.842 1329.03 736.669 1327.6 736.51 1326.6C736.415 1325.03 738.762 1324.37 740.728 1324.12C741.584 1324 742.599 1323.96 743.962 1324.05L745.072 1324.5H745.041Z" fill="black"/>
<path d="M744.566 1324.18L878.385 1157.95L901.312 1129.43L940.95 1080.21" fill="#F7F0C6"/>
<path d="M744.023 1323.96C756.581 1302.15 771.738 1281.29 789.084 1261.3C797.995 1251.43 807.92 1241.99 816.45 1231.96C833.701 1211.97 846.131 1190.06 862.114 1169.55C885.167 1138.37 910.789 1108.23 940.407 1079.98L941.517 1080.44C922.078 1113.03 898.644 1143.92 872.515 1173.85C855.74 1194.02 835.508 1212.72 820.002 1233.41C812.138 1243.72 805.732 1254.61 798.248 1265.07C790.765 1275.54 782.14 1285.52 773.387 1295.44C764.508 1305.31 755.408 1315.11 745.133 1324.39L744.023 1323.94V1323.96Z" fill="black"/>
<path d="M941.505 1101.18C927.806 1124.42 911.507 1146.69 893.019 1168.09C883.538 1178.67 873.042 1188.81 863.941 1199.55C845.549 1220.95 831.976 1244.29 814.853 1266.21C790.087 1299.53 762.784 1331.67 731.422 1362.17L730.312 1361.71C751.463 1327.01 776.61 1293.98 804.452 1261.91C822.368 1240.31 843.741 1220.2 860.389 1198.09C868.824 1187.08 875.8 1175.48 883.855 1164.29C891.909 1153.13 901.106 1142.44 910.428 1131.82C919.878 1121.22 929.55 1110.73 940.395 1100.72L941.505 1101.18Z" fill="black"/>
<path d="M476.716 776.01C446.052 763.66 417.005 749.558 389.417 733.979C375.813 726.041 362.939 717.421 349.081 709.756C321.461 694.267 290.67 681.963 262.194 667.315C218.782 645.936 177.305 622.896 138.555 597.15L139.316 596.422C185.074 615.368 228.01 636.975 269.297 660.401C297.234 675.572 322.698 693.062 351.491 707.391C365.824 714.623 381.109 720.901 395.696 727.883C410.282 734.865 424.076 742.599 437.744 750.445C451.379 758.36 464.825 766.434 477.477 775.282L476.716 776.01Z" fill="black"/>
<path d="M435.739 792.816C412.019 799.435 387.539 804.052 362.487 806.895C349.962 808.123 337.182 808.487 324.752 810.011C306.043 812.171 287.936 816.538 269.734 820.245C251.405 823.68 233.013 826.932 214.431 829.525C189.602 832.709 164.582 835.279 139.023 836.007L138.77 835.12C174.634 825.59 211.387 819.336 248.964 815.151C273.793 811.876 299.352 811.443 323.927 807.122C336.199 805.052 348.186 801.823 360.363 799.435C372.571 797.069 385.034 795.614 397.528 794.294C410.053 793.043 422.611 791.997 435.453 791.906L435.707 792.793L435.739 792.816Z" fill="black"/>
<path d="M550.78 776.077C546.119 779.739 540.569 781.831 533.973 781.922C530.866 781.763 527.505 780.762 524.46 780.922C521.416 781.058 518.594 781.922 515.867 783.219C504.895 788.314 492.686 790.088 479.844 786.38L479.59 785.493C484.695 781.763 490.308 779.853 496.079 778.602C502.104 777.669 508.224 777.487 514.471 778.352C517.674 778.784 520.75 778.806 523.604 778.056C526.49 777.351 529.027 775.486 531.817 774.485C534.608 773.484 537.684 773.416 540.76 773.439C543.867 773.553 547.038 773.917 550.495 775.167L550.748 776.054L550.78 776.077Z" fill="black"/>
<path d="M2836.63 258.283C2809.61 274.454 2780.92 288.874 2750.79 301.838C2735.63 308.138 2719.78 313.688 2704.84 320.238C2674.81 333.225 2647.83 349.51 2618.62 363.361C2575.31 384.832 2530.53 404.437 2483.19 421.245L2482.49 420.472C2523.46 396.568 2566.9 375.461 2612.12 356.128C2641.83 342.823 2673.67 331.974 2702.62 317.782C2717.15 310.754 2730.78 302.748 2745.05 295.447C2759.35 288.169 2774.35 281.687 2789.45 275.296C2804.6 268.996 2819.92 262.832 2835.93 257.51L2836.63 258.283Z" fill="black"/>
<path d="M3095.07 139.127C3068.06 155.298 3039.36 169.718 3009.23 182.682C2994.07 188.982 2978.22 194.532 2963.28 201.082C2933.25 214.069 2906.27 230.354 2877.06 244.205C2833.75 265.675 2788.97 285.281 2741.63 302.089L2740.93 301.315C2781.9 277.411 2825.34 256.327 2870.56 236.972C2900.28 223.667 2932.11 212.818 2961.06 198.626C2975.59 191.598 2989.22 183.592 3003.49 176.291C3017.79 169.013 3032.79 162.531 3047.89 156.139C3063.05 149.839 3078.36 143.676 3094.38 138.354L3095.07 139.127Z" fill="black"/>
<path d="M3014.27 185.797C2999.34 208.655 2981.86 230.444 2962.23 251.323C2952.21 261.626 2941.15 271.474 2931.51 281.96C2911.97 302.839 2897.16 325.787 2878.87 347.212C2852.33 379.828 2823.31 411.192 2790.36 440.782L2789.29 440.304C2812.28 406.188 2839.17 373.891 2868.72 342.641C2887.78 321.557 2910.23 302.043 2928.05 280.39C2937.06 269.609 2944.67 258.215 2953.29 247.275C2961.95 236.335 2971.68 225.895 2981.61 215.547C2991.6 205.221 3001.84 195.009 3013.23 185.297L3014.3 185.775L3014.27 185.797Z" fill="black"/>
<path d="M2948.98 260.147C2934.05 283.005 2916.57 304.794 2896.95 325.673C2886.93 335.976 2875.86 345.824 2866.22 356.309C2846.68 377.188 2831.88 400.137 2813.58 421.562C2787.04 454.177 2758.02 485.541 2725.07 515.132L2724 514.654C2746.99 480.538 2773.88 448.241 2803.43 416.991C2822.49 395.907 2844.91 376.392 2862.76 354.74C2871.77 343.959 2879.38 332.564 2888 321.624C2896.66 310.684 2906.4 300.245 2916.32 289.896C2926.31 279.57 2936.55 269.358 2947.94 259.646L2949.01 260.124L2948.98 260.147Z" fill="black"/>
<path d="M2218.06 399.388C2212.99 410.965 2205.15 421.86 2195.23 431.662C2190.06 436.439 2183.88 440.737 2179.09 445.673C2171.67 452.996 2167.04 461.571 2161.58 469.713C2155.78 477.719 2149.75 485.657 2142.94 493.231C2133.52 503.17 2123.34 512.768 2110.97 521.365L2109.89 520.888C2118.27 503.443 2130.51 487.795 2145.51 473.102C2154.83 463.072 2167.54 454.725 2175.63 444.126C2179.78 438.895 2182.51 433.027 2186.29 427.637C2192.12 419.608 2199.73 412.33 2207.98 405.507C2210.77 403.232 2213.71 401.003 2216.98 398.934L2218.06 399.411V399.388Z" fill="black"/>
<path d="M2334.91 266.358C2329.05 278.891 2320.36 290.672 2309.64 301.384C2304.09 306.616 2297.49 311.369 2292.29 316.76C2284.3 324.788 2279.04 334.045 2272.95 342.87C2266.54 351.558 2259.92 360.201 2252.46 368.457C2242.22 379.306 2231.25 389.836 2218.06 399.366L2216.98 398.889C2226.59 380.056 2240.03 363.021 2256.24 346.964C2266.35 336.024 2279.89 326.721 2288.77 315.213C2293.31 309.527 2296.45 303.204 2300.63 297.336C2307.07 288.625 2315.28 280.665 2324.16 273.136C2327.17 270.612 2330.28 268.155 2333.77 265.881L2334.85 266.358H2334.91Z" fill="black"/>
<path d="M576.649 1285.48C577.536 1285.95 581.595 1288.59 579.534 1288.46C578.646 1288.34 576.775 1287.77 576.268 1287.82C575.729 1287.84 576.109 1288.32 576.966 1288.96C577.822 1289.62 578.488 1290.21 578.583 1290.53C578.805 1290.91 579.059 1291.3 578.71 1291.43C576.997 1291.71 573.573 1290.78 571.385 1289.82C569.323 1288.41 567.801 1287.61 567.23 1286.27C567.23 1286 567.833 1285.98 568.435 1285.98C568.879 1285.91 569.894 1286.07 571.099 1286.34C572.272 1286.59 573.034 1286.66 572.843 1286.27C572.685 1285.93 571.131 1284.95 570.624 1284.43C570.084 1283.91 570.719 1283.91 571.448 1283.95C573.002 1284.16 575.063 1284.7 576.712 1285.48H576.649Z" fill="black"/>
<path d="M576.254 1285.14L777.33 1056.17L795.849 1035.06" fill="#F7F0C6"/>
<path d="M575.735 1284.89C590.29 1262.46 607.414 1241.06 626.694 1220.59C636.556 1210.49 647.401 1200.85 656.882 1190.57C676.035 1170.1 690.527 1147.56 708.443 1126.54C734.446 1094.54 762.922 1063.81 795.33 1034.81L796.408 1035.29C773.989 1068.79 747.606 1100.48 718.591 1131.11C699.882 1151.79 677.811 1170.87 660.339 1192.11C651.523 1202.69 644.071 1213.88 635.636 1224.61C627.169 1235.35 617.593 1245.58 607.858 1255.73C598.027 1265.85 587.975 1275.86 576.781 1285.34L575.703 1284.86L575.735 1284.89Z" fill="black"/>
<path d="M2966.91 185.023C2939.89 201.194 2911.19 215.614 2881.07 228.578C2865.91 234.878 2850.06 240.428 2835.12 246.978C2805.09 259.965 2778.1 276.25 2748.9 290.101C2705.58 311.572 2660.81 331.177 2613.46 347.985L2612.77 347.212C2653.74 323.308 2697.18 302.224 2742.4 282.869C2772.11 269.563 2803.95 258.714 2832.9 244.522C2847.42 237.494 2861.06 229.488 2875.33 222.187C2889.63 214.909 2904.63 208.427 2919.72 202.036C2934.88 195.736 2950.2 189.572 2966.21 184.25L2966.91 185.023Z" fill="black"/>
<path d="M454.155 768.479C455.329 769.593 457.612 772.732 455.043 773.096C452.665 773.096 449.335 772.004 450.826 774.847C453.299 779.714 448.669 780.033 443.025 778.714C441.217 777.895 440.298 775.802 439.981 774.961C439.41 773.369 439.759 772.345 441.979 771.959C442.708 771.663 443.913 771.686 445.372 771.799C446.767 771.89 447.782 771.777 447.877 771.163C448.035 770.571 446.894 769.229 446.703 768.456C446.513 767.182 448.891 767.228 450.287 767.387C451.206 767.478 453.204 767.797 454.155 768.524V768.479Z" fill="black"/>
<path d="M701.781 541.284C702.891 542.331 705.365 545.424 702.859 545.72C701.781 545.742 699.752 545.242 698.991 545.469C698.198 545.674 698.325 546.356 698.832 547.289C699.657 548.676 700.006 550.2 698.832 551.133C696.612 551.951 694.424 551.474 691.412 550.791L690.429 550.223C688.78 548.267 687.607 546.879 688.177 545.128C689.161 544.105 691.285 543.968 693.378 544.218C694.742 544.355 695.725 544.264 695.788 543.673C695.915 543.104 694.742 541.808 694.52 541.057C694.298 540.284 695.154 540.124 696.105 540.033C697.817 539.988 700.196 540.306 701.781 541.307V541.284Z" fill="black"/>
<path d="M1073.69 1226.91C1048.22 1244.33 1020.92 1260.12 992.095 1274.47C977.54 1281.47 962.255 1287.77 947.985 1295.03C919.224 1309.43 893.824 1326.96 865.95 1342.18C824.727 1365.67 781.854 1387.37 736.191 1406.41L735.43 1405.68C774.085 1379.86 815.467 1356.73 858.815 1335.29C887.228 1320.57 917.987 1308.24 945.544 1292.69C959.37 1284.98 972.244 1276.33 985.816 1268.37C999.388 1260.43 1013.75 1253.22 1028.21 1246.15C1042.74 1239.12 1057.45 1232.25 1072.96 1226.18L1073.72 1226.91H1073.69Z" fill="black"/>
</svg>
